M48
; DRILL file {KiCad 9.0.4} date 2026-02-22T22:01:07+0000
; FORMAT={-:-/ absolute / metric / decimal}
; #@! TF.CreationDate,2026-02-22T22:01:07+00:00
; #@! TF.GenerationSoftware,Kicad,Pcbnew,9.0.4
; #@! TF.FileFunction,Plated,1,2,PTH
FMAT,2
METRIC
; #@! TA.AperFunction,Plated,PTH,ComponentDrill
T1C0.700
; #@! TA.AperFunction,Plated,PTH,ComponentDrill
T2C0.750
; #@! TA.AperFunction,Plated,PTH,ComponentDrill
T3C0.800
; #@! TA.AperFunction,Plated,PTH,ComponentDrill
T4C0.900
; #@! TA.AperFunction,Plated,PTH,ComponentDrill
T5C1.000
; #@! TA.AperFunction,Plated,PTH,ComponentDrill
T6C1.200
; #@! TA.AperFunction,Plated,PTH,ComponentDrill
T7C1.220
; #@! TA.AperFunction,Plated,PTH,ComponentDrill
T8C1.420
; #@! TA.AperFunction,Plated,PTH,ComponentDrill
T9C1.430
; #@! TA.AperFunction,Plated,PTH,ComponentDrill
T10C2.000
%
G90
G05
T1
X46.5Y-73.69
X46.5Y-81.31
X47.0Y-110.5
X47.0Y-118.12
X49.5Y-129.0
X50.0Y-110.5
X50.0Y-118.12
X52.5Y-116.69
X52.5Y-124.31
X57.12Y-129.0
X59.69Y-51.0
X59.88Y-54.5
X62.19Y-69.0
X62.19Y-82.5
X62.69Y-66.5
X62.88Y-100.5
X65.5Y-103.69
X65.5Y-111.31
X67.0Y-117.88
X67.0Y-125.5
X67.31Y-51.0
X67.5Y-54.5
X69.19Y-115.82
X69.19Y-123.44
X69.81Y-69.0
X69.81Y-82.5
X70.0Y-104.0
X70.0Y-111.62
X70.31Y-66.5
X70.5Y-100.5
X71.5Y-119.69
X71.5Y-127.31
T2
X47.019Y-105.466
X48.289Y-105.466
X49.559Y-105.466
T3
X48.0Y-120.5
X48.0Y-125.5
X48.705Y-52.0
X49.5Y-43.5
X49.5Y-46.0
X50.195Y-73.69
X50.195Y-76.23
X50.195Y-78.77
X50.195Y-81.31
X51.205Y-52.0
X53.195Y-103.152
X53.195Y-105.692
X53.195Y-108.233
X53.195Y-110.772
X55.5Y-51.5
X55.5Y-54.0
X56.5Y-43.25
X56.5Y-45.75
X57.815Y-73.69
X57.815Y-76.23
X57.815Y-78.77
X57.815Y-81.31
X60.815Y-103.152
X60.815Y-105.692
X60.815Y-108.233
X60.815Y-110.772
X62.695Y-72.19
X62.695Y-74.73
X62.695Y-77.27
X62.695Y-79.81
X70.315Y-72.19
X70.315Y-74.73
X70.315Y-77.27
X70.315Y-79.81
X71.0Y-51.25
X71.0Y-53.75
T4
X64.225Y-61.5
X66.765Y-61.5
T5
X64.5Y-44.5
X67.0Y-44.5
T6
X48.9Y-143.5
X49.0Y-99.0
X49.1Y-70.5
X51.4Y-143.5
X51.5Y-99.0
X51.6Y-70.5
X53.9Y-143.5
X54.0Y-99.0
X54.1Y-70.5
T7
X60.5Y-114.1
X66.5Y-85.22
X66.5Y-130.1
T8
X60.5Y-117.2
X66.5Y-88.32
X66.5Y-133.2
T9
X60.5Y-125.5
X66.5Y-96.62
X66.5Y-141.5
T10
G00X47.0Y-136.35
M15
G01X47.0Y-136.65
M16
G05
G00X47.1Y-91.85
M15
G01X47.1Y-92.15
M16
G05
G00X47.2Y-63.35
M15
G01X47.2Y-63.65
M16
G05
G00X55.8Y-136.35
M15
G01X55.8Y-136.65
M16
G05
G00X55.9Y-91.85
M15
G01X55.9Y-92.15
M16
G05
G00X56.0Y-63.35
M15
G01X56.0Y-63.65
M16
G05
M30
