%TF.GenerationSoftware,KiCad,Pcbnew,9.0.4*%
%TF.CreationDate,2026-02-22T22:01:05+00:00*%
%TF.ProjectId,Jimmy Cliffe 2,4a696d6d-7920-4436-9c69-66666520322e,rev?*%
%TF.SameCoordinates,Original*%
%TF.FileFunction,Soldermask,Bot*%
%TF.FilePolarity,Negative*%
%FSLAX46Y46*%
G04 Gerber Fmt 4.6, Leading zero omitted, Abs format (unit mm)*
G04 Created by KiCad (PCBNEW 9.0.4) date 2026-02-22 22:01:05*
%MOMM*%
%LPD*%
G01*
G04 APERTURE LIST*
G04 Aperture macros list*
%AMRoundRect*
0 Rectangle with rounded corners*
0 $1 Rounding radius*
0 $2 $3 $4 $5 $6 $7 $8 $9 X,Y pos of 4 corners*
0 Add a 4 corners polygon primitive as box body*
4,1,4,$2,$3,$4,$5,$6,$7,$8,$9,$2,$3,0*
0 Add four circle primitives for the rounded corners*
1,1,$1+$1,$2,$3*
1,1,$1+$1,$4,$5*
1,1,$1+$1,$6,$7*
1,1,$1+$1,$8,$9*
0 Add four rect primitives between the rounded corners*
20,1,$1+$1,$2,$3,$4,$5,0*
20,1,$1+$1,$4,$5,$6,$7,0*
20,1,$1+$1,$6,$7,$8,$9,0*
20,1,$1+$1,$8,$9,$2,$3,0*%
G04 Aperture macros list end*
%ADD10C,1.600000*%
%ADD11C,1.400000*%
%ADD12RoundRect,0.102000X-0.900000X-0.900000X0.900000X-0.900000X0.900000X0.900000X-0.900000X0.900000X0*%
%ADD13C,2.004000*%
%ADD14O,3.704000X4.004000*%
%ADD15RoundRect,0.250000X-0.550000X-0.550000X0.550000X-0.550000X0.550000X0.550000X-0.550000X0.550000X0*%
%ADD16R,1.800000X1.800000*%
%ADD17C,1.800000*%
%ADD18R,1.930000X1.830000*%
%ADD19C,2.130000*%
%ADD20R,1.050000X1.500000*%
%ADD21O,1.050000X1.500000*%
%ADD22RoundRect,0.250000X0.550000X-0.550000X0.550000X0.550000X-0.550000X0.550000X-0.550000X-0.550000X0*%
%ADD23RoundRect,0.250000X0.600000X0.750000X-0.600000X0.750000X-0.600000X-0.750000X0.600000X-0.750000X0*%
%ADD24O,1.700000X2.000000*%
%ADD25RoundRect,0.250000X0.550000X0.550000X-0.550000X0.550000X-0.550000X-0.550000X0.550000X-0.550000X0*%
G04 APERTURE END LIST*
D10*
%TO.C,C6*%
X56500000Y-45750000D03*
X56500000Y-43250000D03*
%TD*%
D11*
%TO.C,R2*%
X46500000Y-81310000D03*
X46500000Y-73690000D03*
%TD*%
D12*
%TO.C,VCOFREQ1*%
X48900000Y-143500000D03*
D13*
X51400000Y-143500000D03*
X53900000Y-143500000D03*
D14*
X47000000Y-136500000D03*
X55800000Y-136500000D03*
%TD*%
D15*
%TO.C,U3*%
X53195000Y-103152500D03*
D10*
X53195000Y-105692500D03*
X53195000Y-108232500D03*
X53195000Y-110772500D03*
X60815000Y-110772500D03*
X60815000Y-108232500D03*
X60815000Y-105692500D03*
X60815000Y-103152500D03*
%TD*%
D16*
%TO.C,D1*%
X64225000Y-61500000D03*
D17*
X66765000Y-61500000D03*
%TD*%
D11*
%TO.C,R11*%
X70000000Y-104000000D03*
X70000000Y-111620000D03*
%TD*%
D18*
%TO.C,J2*%
X60500000Y-114100000D03*
D19*
X60500000Y-125500000D03*
X60500000Y-117200000D03*
%TD*%
D11*
%TO.C,R4*%
X52500000Y-124310000D03*
X52500000Y-116690000D03*
%TD*%
%TO.C,R14*%
X59690000Y-51000000D03*
X67310000Y-51000000D03*
%TD*%
%TO.C,R12*%
X71500000Y-127310000D03*
X71500000Y-119690000D03*
%TD*%
D12*
%TO.C,LFOFREQ1*%
X49000000Y-99000000D03*
D13*
X51500000Y-99000000D03*
X54000000Y-99000000D03*
D14*
X47100000Y-92000000D03*
X55900000Y-92000000D03*
%TD*%
D11*
%TO.C,R15*%
X62690000Y-66500000D03*
X70310000Y-66500000D03*
%TD*%
%TO.C,R16*%
X50000000Y-110500000D03*
X50000000Y-118120000D03*
%TD*%
%TO.C,R8*%
X65500000Y-103690000D03*
X65500000Y-111310000D03*
%TD*%
D15*
%TO.C,U1*%
X62695000Y-72190000D03*
D10*
X62695000Y-74730000D03*
X62695000Y-77270000D03*
X62695000Y-79810000D03*
X70315000Y-79810000D03*
X70315000Y-77270000D03*
X70315000Y-74730000D03*
X70315000Y-72190000D03*
%TD*%
D11*
%TO.C,R1*%
X62190000Y-82500000D03*
X69810000Y-82500000D03*
%TD*%
D20*
%TO.C,Q1*%
X47018501Y-105465900D03*
D21*
X48288501Y-105465900D03*
X49558501Y-105465900D03*
%TD*%
D10*
%TO.C,C4*%
X55500000Y-54000000D03*
X55500000Y-51500000D03*
%TD*%
D18*
%TO.C,J1*%
X66500000Y-85220000D03*
D19*
X66500000Y-96620000D03*
X66500000Y-88320000D03*
%TD*%
D10*
%TO.C,C5*%
X71000000Y-53750000D03*
X71000000Y-51250000D03*
%TD*%
D15*
%TO.C,U2*%
X50195000Y-73690000D03*
D10*
X50195000Y-76230000D03*
X50195000Y-78770000D03*
X50195000Y-81310000D03*
X57815000Y-81310000D03*
X57815000Y-78770000D03*
X57815000Y-76230000D03*
X57815000Y-73690000D03*
%TD*%
D11*
%TO.C,R6*%
X57120000Y-129000000D03*
X49500000Y-129000000D03*
%TD*%
%TO.C,R10*%
X69189711Y-115820221D03*
X69189711Y-123440221D03*
%TD*%
%TO.C,R7*%
X70500000Y-100500000D03*
X62880000Y-100500000D03*
%TD*%
%TO.C,R3*%
X62190000Y-69000000D03*
X69810000Y-69000000D03*
%TD*%
%TO.C,R13*%
X59880000Y-54500000D03*
X67500000Y-54500000D03*
%TD*%
D10*
%TO.C,C2*%
X48000000Y-120500000D03*
X48000000Y-125500000D03*
%TD*%
D18*
%TO.C,J3*%
X66500000Y-130100000D03*
D19*
X66500000Y-141500000D03*
X66500000Y-133200000D03*
%TD*%
D11*
%TO.C,R9*%
X47000000Y-118120000D03*
X47000000Y-110500000D03*
%TD*%
D12*
%TO.C,WAVEFORM1*%
X49100000Y-70500000D03*
D13*
X51600000Y-70500000D03*
X54100000Y-70500000D03*
D14*
X47200000Y-63500000D03*
X56000000Y-63500000D03*
%TD*%
D11*
%TO.C,R5*%
X67000000Y-117880000D03*
X67000000Y-125500000D03*
%TD*%
D22*
%TO.C,C3*%
X49500000Y-46000000D03*
D10*
X49500000Y-43500000D03*
%TD*%
D23*
%TO.C,J4*%
X67000000Y-44500000D03*
D24*
X64500000Y-44500000D03*
%TD*%
D25*
%TO.C,C1*%
X51205113Y-52000000D03*
D10*
X48705113Y-52000000D03*
%TD*%
M02*
