%TF.GenerationSoftware,KiCad,Pcbnew,9.0.4*%
%TF.CreationDate,2026-02-22T22:01:05+00:00*%
%TF.ProjectId,Jimmy Cliffe 2,4a696d6d-7920-4436-9c69-66666520322e,rev?*%
%TF.SameCoordinates,Original*%
%TF.FileFunction,Legend,Top*%
%TF.FilePolarity,Positive*%
%FSLAX46Y46*%
G04 Gerber Fmt 4.6, Leading zero omitted, Abs format (unit mm)*
G04 Created by KiCad (PCBNEW 9.0.4) date 2026-02-22 22:01:05*
%MOMM*%
%LPD*%
G01*
G04 APERTURE LIST*
%ADD10C,0.160000*%
%ADD11C,0.200000*%
%ADD12C,0.150000*%
%ADD13C,0.120000*%
%ADD14C,0.127000*%
G04 APERTURE END LIST*
D10*
X59593775Y-97475689D02*
X60165203Y-97475689D01*
X60165203Y-97475689D02*
X60279489Y-97513784D01*
X60279489Y-97513784D02*
X60355680Y-97589975D01*
X60355680Y-97589975D02*
X60393775Y-97704260D01*
X60393775Y-97704260D02*
X60393775Y-97780451D01*
X60393775Y-97094736D02*
X59860441Y-97094736D01*
X59593775Y-97094736D02*
X59631870Y-97132832D01*
X59631870Y-97132832D02*
X59669965Y-97094736D01*
X59669965Y-97094736D02*
X59631870Y-97056641D01*
X59631870Y-97056641D02*
X59593775Y-97094736D01*
X59593775Y-97094736D02*
X59669965Y-97094736D01*
X60393775Y-96713784D02*
X59860441Y-96713784D01*
X59936632Y-96713784D02*
X59898537Y-96675689D01*
X59898537Y-96675689D02*
X59860441Y-96599499D01*
X59860441Y-96599499D02*
X59860441Y-96485213D01*
X59860441Y-96485213D02*
X59898537Y-96409022D01*
X59898537Y-96409022D02*
X59974727Y-96370927D01*
X59974727Y-96370927D02*
X60393775Y-96370927D01*
X59974727Y-96370927D02*
X59898537Y-96332832D01*
X59898537Y-96332832D02*
X59860441Y-96256641D01*
X59860441Y-96256641D02*
X59860441Y-96142356D01*
X59860441Y-96142356D02*
X59898537Y-96066165D01*
X59898537Y-96066165D02*
X59974727Y-96028070D01*
X59974727Y-96028070D02*
X60393775Y-96028070D01*
X60393775Y-95647117D02*
X59860441Y-95647117D01*
X59936632Y-95647117D02*
X59898537Y-95609022D01*
X59898537Y-95609022D02*
X59860441Y-95532832D01*
X59860441Y-95532832D02*
X59860441Y-95418546D01*
X59860441Y-95418546D02*
X59898537Y-95342355D01*
X59898537Y-95342355D02*
X59974727Y-95304260D01*
X59974727Y-95304260D02*
X60393775Y-95304260D01*
X59974727Y-95304260D02*
X59898537Y-95266165D01*
X59898537Y-95266165D02*
X59860441Y-95189974D01*
X59860441Y-95189974D02*
X59860441Y-95075689D01*
X59860441Y-95075689D02*
X59898537Y-94999498D01*
X59898537Y-94999498D02*
X59974727Y-94961403D01*
X59974727Y-94961403D02*
X60393775Y-94961403D01*
X59860441Y-94656641D02*
X60393775Y-94466165D01*
X59860441Y-94275688D02*
X60393775Y-94466165D01*
X60393775Y-94466165D02*
X60584251Y-94542355D01*
X60584251Y-94542355D02*
X60622346Y-94580450D01*
X60622346Y-94580450D02*
X60660441Y-94656641D01*
X60317584Y-92904259D02*
X60355680Y-92942355D01*
X60355680Y-92942355D02*
X60393775Y-93056640D01*
X60393775Y-93056640D02*
X60393775Y-93132831D01*
X60393775Y-93132831D02*
X60355680Y-93247117D01*
X60355680Y-93247117D02*
X60279489Y-93323307D01*
X60279489Y-93323307D02*
X60203299Y-93361402D01*
X60203299Y-93361402D02*
X60050918Y-93399498D01*
X60050918Y-93399498D02*
X59936632Y-93399498D01*
X59936632Y-93399498D02*
X59784251Y-93361402D01*
X59784251Y-93361402D02*
X59708060Y-93323307D01*
X59708060Y-93323307D02*
X59631870Y-93247117D01*
X59631870Y-93247117D02*
X59593775Y-93132831D01*
X59593775Y-93132831D02*
X59593775Y-93056640D01*
X59593775Y-93056640D02*
X59631870Y-92942355D01*
X59631870Y-92942355D02*
X59669965Y-92904259D01*
X60393775Y-92447117D02*
X60355680Y-92523307D01*
X60355680Y-92523307D02*
X60279489Y-92561402D01*
X60279489Y-92561402D02*
X59593775Y-92561402D01*
X60393775Y-92142354D02*
X59860441Y-92142354D01*
X59593775Y-92142354D02*
X59631870Y-92180450D01*
X59631870Y-92180450D02*
X59669965Y-92142354D01*
X59669965Y-92142354D02*
X59631870Y-92104259D01*
X59631870Y-92104259D02*
X59593775Y-92142354D01*
X59593775Y-92142354D02*
X59669965Y-92142354D01*
X59860441Y-91875688D02*
X59860441Y-91570926D01*
X60393775Y-91761402D02*
X59708060Y-91761402D01*
X59708060Y-91761402D02*
X59631870Y-91723307D01*
X59631870Y-91723307D02*
X59593775Y-91647117D01*
X59593775Y-91647117D02*
X59593775Y-91570926D01*
X59860441Y-91418545D02*
X59860441Y-91113783D01*
X60393775Y-91304259D02*
X59708060Y-91304259D01*
X59708060Y-91304259D02*
X59631870Y-91266164D01*
X59631870Y-91266164D02*
X59593775Y-91189974D01*
X59593775Y-91189974D02*
X59593775Y-91113783D01*
X60355680Y-90542354D02*
X60393775Y-90618545D01*
X60393775Y-90618545D02*
X60393775Y-90770926D01*
X60393775Y-90770926D02*
X60355680Y-90847116D01*
X60355680Y-90847116D02*
X60279489Y-90885212D01*
X60279489Y-90885212D02*
X59974727Y-90885212D01*
X59974727Y-90885212D02*
X59898537Y-90847116D01*
X59898537Y-90847116D02*
X59860441Y-90770926D01*
X59860441Y-90770926D02*
X59860441Y-90618545D01*
X59860441Y-90618545D02*
X59898537Y-90542354D01*
X59898537Y-90542354D02*
X59974727Y-90504259D01*
X59974727Y-90504259D02*
X60050918Y-90504259D01*
X60050918Y-90504259D02*
X60127108Y-90885212D01*
X60317584Y-90161402D02*
X60355680Y-90123307D01*
X60355680Y-90123307D02*
X60393775Y-90161402D01*
X60393775Y-90161402D02*
X60355680Y-90199498D01*
X60355680Y-90199498D02*
X60317584Y-90161402D01*
X60317584Y-90161402D02*
X60393775Y-90161402D01*
X59898537Y-90161402D02*
X59936632Y-90123307D01*
X59936632Y-90123307D02*
X59974727Y-90161402D01*
X59974727Y-90161402D02*
X59936632Y-90199498D01*
X59936632Y-90199498D02*
X59898537Y-90161402D01*
X59898537Y-90161402D02*
X59974727Y-90161402D01*
X60165203Y-89209022D02*
X60165203Y-88828069D01*
X60393775Y-89285212D02*
X59593775Y-89018545D01*
X59593775Y-89018545D02*
X60393775Y-88751879D01*
X60393775Y-87532831D02*
X59593775Y-87532831D01*
X60355680Y-87532831D02*
X60393775Y-87609022D01*
X60393775Y-87609022D02*
X60393775Y-87761403D01*
X60393775Y-87761403D02*
X60355680Y-87837593D01*
X60355680Y-87837593D02*
X60317584Y-87875688D01*
X60317584Y-87875688D02*
X60241394Y-87913784D01*
X60241394Y-87913784D02*
X60012822Y-87913784D01*
X60012822Y-87913784D02*
X59936632Y-87875688D01*
X59936632Y-87875688D02*
X59898537Y-87837593D01*
X59898537Y-87837593D02*
X59860441Y-87761403D01*
X59860441Y-87761403D02*
X59860441Y-87609022D01*
X59860441Y-87609022D02*
X59898537Y-87532831D01*
X60355680Y-86847116D02*
X60393775Y-86923307D01*
X60393775Y-86923307D02*
X60393775Y-87075688D01*
X60393775Y-87075688D02*
X60355680Y-87151878D01*
X60355680Y-87151878D02*
X60279489Y-87189974D01*
X60279489Y-87189974D02*
X59974727Y-87189974D01*
X59974727Y-87189974D02*
X59898537Y-87151878D01*
X59898537Y-87151878D02*
X59860441Y-87075688D01*
X59860441Y-87075688D02*
X59860441Y-86923307D01*
X59860441Y-86923307D02*
X59898537Y-86847116D01*
X59898537Y-86847116D02*
X59974727Y-86809021D01*
X59974727Y-86809021D02*
X60050918Y-86809021D01*
X60050918Y-86809021D02*
X60127108Y-87189974D01*
X60355680Y-86123307D02*
X60393775Y-86199498D01*
X60393775Y-86199498D02*
X60393775Y-86351879D01*
X60393775Y-86351879D02*
X60355680Y-86428069D01*
X60355680Y-86428069D02*
X60317584Y-86466164D01*
X60317584Y-86466164D02*
X60241394Y-86504260D01*
X60241394Y-86504260D02*
X60012822Y-86504260D01*
X60012822Y-86504260D02*
X59936632Y-86466164D01*
X59936632Y-86466164D02*
X59898537Y-86428069D01*
X59898537Y-86428069D02*
X59860441Y-86351879D01*
X59860441Y-86351879D02*
X59860441Y-86199498D01*
X59860441Y-86199498D02*
X59898537Y-86123307D01*
X60393775Y-85666165D02*
X60355680Y-85742355D01*
X60355680Y-85742355D02*
X60317584Y-85780450D01*
X60317584Y-85780450D02*
X60241394Y-85818546D01*
X60241394Y-85818546D02*
X60012822Y-85818546D01*
X60012822Y-85818546D02*
X59936632Y-85780450D01*
X59936632Y-85780450D02*
X59898537Y-85742355D01*
X59898537Y-85742355D02*
X59860441Y-85666165D01*
X59860441Y-85666165D02*
X59860441Y-85551879D01*
X59860441Y-85551879D02*
X59898537Y-85475688D01*
X59898537Y-85475688D02*
X59936632Y-85437593D01*
X59936632Y-85437593D02*
X60012822Y-85399498D01*
X60012822Y-85399498D02*
X60241394Y-85399498D01*
X60241394Y-85399498D02*
X60317584Y-85437593D01*
X60317584Y-85437593D02*
X60355680Y-85475688D01*
X60355680Y-85475688D02*
X60393775Y-85551879D01*
X60393775Y-85551879D02*
X60393775Y-85666165D01*
X59860441Y-85056640D02*
X60393775Y-85056640D01*
X59936632Y-85056640D02*
X59898537Y-85018545D01*
X59898537Y-85018545D02*
X59860441Y-84942355D01*
X59860441Y-84942355D02*
X59860441Y-84828069D01*
X59860441Y-84828069D02*
X59898537Y-84751878D01*
X59898537Y-84751878D02*
X59974727Y-84713783D01*
X59974727Y-84713783D02*
X60393775Y-84713783D01*
X60355680Y-84370926D02*
X60393775Y-84294735D01*
X60393775Y-84294735D02*
X60393775Y-84142354D01*
X60393775Y-84142354D02*
X60355680Y-84066164D01*
X60355680Y-84066164D02*
X60279489Y-84028068D01*
X60279489Y-84028068D02*
X60241394Y-84028068D01*
X60241394Y-84028068D02*
X60165203Y-84066164D01*
X60165203Y-84066164D02*
X60127108Y-84142354D01*
X60127108Y-84142354D02*
X60127108Y-84256640D01*
X60127108Y-84256640D02*
X60089013Y-84332830D01*
X60089013Y-84332830D02*
X60012822Y-84370926D01*
X60012822Y-84370926D02*
X59974727Y-84370926D01*
X59974727Y-84370926D02*
X59898537Y-84332830D01*
X59898537Y-84332830D02*
X59860441Y-84256640D01*
X59860441Y-84256640D02*
X59860441Y-84142354D01*
X59860441Y-84142354D02*
X59898537Y-84066164D01*
X59860441Y-83799497D02*
X59860441Y-83494735D01*
X59593775Y-83685211D02*
X60279489Y-83685211D01*
X60279489Y-83685211D02*
X60355680Y-83647116D01*
X60355680Y-83647116D02*
X60393775Y-83570926D01*
X60393775Y-83570926D02*
X60393775Y-83494735D01*
X60393775Y-83228068D02*
X59860441Y-83228068D01*
X60012822Y-83228068D02*
X59936632Y-83189973D01*
X59936632Y-83189973D02*
X59898537Y-83151878D01*
X59898537Y-83151878D02*
X59860441Y-83075687D01*
X59860441Y-83075687D02*
X59860441Y-82999497D01*
X59860441Y-82389973D02*
X60393775Y-82389973D01*
X59860441Y-82732830D02*
X60279489Y-82732830D01*
X60279489Y-82732830D02*
X60355680Y-82694735D01*
X60355680Y-82694735D02*
X60393775Y-82618545D01*
X60393775Y-82618545D02*
X60393775Y-82504259D01*
X60393775Y-82504259D02*
X60355680Y-82428068D01*
X60355680Y-82428068D02*
X60317584Y-82389973D01*
X60355680Y-81666163D02*
X60393775Y-81742354D01*
X60393775Y-81742354D02*
X60393775Y-81894735D01*
X60393775Y-81894735D02*
X60355680Y-81970925D01*
X60355680Y-81970925D02*
X60317584Y-82009020D01*
X60317584Y-82009020D02*
X60241394Y-82047116D01*
X60241394Y-82047116D02*
X60012822Y-82047116D01*
X60012822Y-82047116D02*
X59936632Y-82009020D01*
X59936632Y-82009020D02*
X59898537Y-81970925D01*
X59898537Y-81970925D02*
X59860441Y-81894735D01*
X59860441Y-81894735D02*
X59860441Y-81742354D01*
X59860441Y-81742354D02*
X59898537Y-81666163D01*
X59860441Y-81437592D02*
X59860441Y-81132830D01*
X59593775Y-81323306D02*
X60279489Y-81323306D01*
X60279489Y-81323306D02*
X60355680Y-81285211D01*
X60355680Y-81285211D02*
X60393775Y-81209021D01*
X60393775Y-81209021D02*
X60393775Y-81132830D01*
X60355680Y-80561401D02*
X60393775Y-80637592D01*
X60393775Y-80637592D02*
X60393775Y-80789973D01*
X60393775Y-80789973D02*
X60355680Y-80866163D01*
X60355680Y-80866163D02*
X60279489Y-80904259D01*
X60279489Y-80904259D02*
X59974727Y-80904259D01*
X59974727Y-80904259D02*
X59898537Y-80866163D01*
X59898537Y-80866163D02*
X59860441Y-80789973D01*
X59860441Y-80789973D02*
X59860441Y-80637592D01*
X59860441Y-80637592D02*
X59898537Y-80561401D01*
X59898537Y-80561401D02*
X59974727Y-80523306D01*
X59974727Y-80523306D02*
X60050918Y-80523306D01*
X60050918Y-80523306D02*
X60127108Y-80904259D01*
X60393775Y-79837592D02*
X59593775Y-79837592D01*
X60355680Y-79837592D02*
X60393775Y-79913783D01*
X60393775Y-79913783D02*
X60393775Y-80066164D01*
X60393775Y-80066164D02*
X60355680Y-80142354D01*
X60355680Y-80142354D02*
X60317584Y-80180449D01*
X60317584Y-80180449D02*
X60241394Y-80218545D01*
X60241394Y-80218545D02*
X60012822Y-80218545D01*
X60012822Y-80218545D02*
X59936632Y-80180449D01*
X59936632Y-80180449D02*
X59898537Y-80142354D01*
X59898537Y-80142354D02*
X59860441Y-80066164D01*
X59860441Y-80066164D02*
X59860441Y-79913783D01*
X59860441Y-79913783D02*
X59898537Y-79837592D01*
X60393775Y-78847115D02*
X59593775Y-78847115D01*
X59593775Y-78847115D02*
X59593775Y-78656639D01*
X59593775Y-78656639D02*
X59631870Y-78542353D01*
X59631870Y-78542353D02*
X59708060Y-78466163D01*
X59708060Y-78466163D02*
X59784251Y-78428068D01*
X59784251Y-78428068D02*
X59936632Y-78389972D01*
X59936632Y-78389972D02*
X60050918Y-78389972D01*
X60050918Y-78389972D02*
X60203299Y-78428068D01*
X60203299Y-78428068D02*
X60279489Y-78466163D01*
X60279489Y-78466163D02*
X60355680Y-78542353D01*
X60355680Y-78542353D02*
X60393775Y-78656639D01*
X60393775Y-78656639D02*
X60393775Y-78847115D01*
X59860441Y-77704258D02*
X60393775Y-77704258D01*
X59860441Y-78047115D02*
X60279489Y-78047115D01*
X60279489Y-78047115D02*
X60355680Y-78009020D01*
X60355680Y-78009020D02*
X60393775Y-77932830D01*
X60393775Y-77932830D02*
X60393775Y-77818544D01*
X60393775Y-77818544D02*
X60355680Y-77742353D01*
X60355680Y-77742353D02*
X60317584Y-77704258D01*
X60393775Y-77323305D02*
X59593775Y-77323305D01*
X59898537Y-77323305D02*
X59860441Y-77247115D01*
X59860441Y-77247115D02*
X59860441Y-77094734D01*
X59860441Y-77094734D02*
X59898537Y-77018543D01*
X59898537Y-77018543D02*
X59936632Y-76980448D01*
X59936632Y-76980448D02*
X60012822Y-76942353D01*
X60012822Y-76942353D02*
X60241394Y-76942353D01*
X60241394Y-76942353D02*
X60317584Y-76980448D01*
X60317584Y-76980448D02*
X60355680Y-77018543D01*
X60355680Y-77018543D02*
X60393775Y-77094734D01*
X60393775Y-77094734D02*
X60393775Y-77247115D01*
X60393775Y-77247115D02*
X60355680Y-77323305D01*
X60355680Y-76028067D02*
X60393775Y-75913781D01*
X60393775Y-75913781D02*
X60393775Y-75723305D01*
X60393775Y-75723305D02*
X60355680Y-75647114D01*
X60355680Y-75647114D02*
X60317584Y-75609019D01*
X60317584Y-75609019D02*
X60241394Y-75570924D01*
X60241394Y-75570924D02*
X60165203Y-75570924D01*
X60165203Y-75570924D02*
X60089013Y-75609019D01*
X60089013Y-75609019D02*
X60050918Y-75647114D01*
X60050918Y-75647114D02*
X60012822Y-75723305D01*
X60012822Y-75723305D02*
X59974727Y-75875686D01*
X59974727Y-75875686D02*
X59936632Y-75951876D01*
X59936632Y-75951876D02*
X59898537Y-75989971D01*
X59898537Y-75989971D02*
X59822346Y-76028067D01*
X59822346Y-76028067D02*
X59746156Y-76028067D01*
X59746156Y-76028067D02*
X59669965Y-75989971D01*
X59669965Y-75989971D02*
X59631870Y-75951876D01*
X59631870Y-75951876D02*
X59593775Y-75875686D01*
X59593775Y-75875686D02*
X59593775Y-75685209D01*
X59593775Y-75685209D02*
X59631870Y-75570924D01*
X60393775Y-75228066D02*
X59860441Y-75228066D01*
X59593775Y-75228066D02*
X59631870Y-75266162D01*
X59631870Y-75266162D02*
X59669965Y-75228066D01*
X59669965Y-75228066D02*
X59631870Y-75189971D01*
X59631870Y-75189971D02*
X59593775Y-75228066D01*
X59593775Y-75228066D02*
X59669965Y-75228066D01*
X60393775Y-74847114D02*
X59860441Y-74847114D01*
X60012822Y-74847114D02*
X59936632Y-74809019D01*
X59936632Y-74809019D02*
X59898537Y-74770924D01*
X59898537Y-74770924D02*
X59860441Y-74694733D01*
X59860441Y-74694733D02*
X59860441Y-74618543D01*
X60355680Y-74047114D02*
X60393775Y-74123305D01*
X60393775Y-74123305D02*
X60393775Y-74275686D01*
X60393775Y-74275686D02*
X60355680Y-74351876D01*
X60355680Y-74351876D02*
X60279489Y-74389972D01*
X60279489Y-74389972D02*
X59974727Y-74389972D01*
X59974727Y-74389972D02*
X59898537Y-74351876D01*
X59898537Y-74351876D02*
X59860441Y-74275686D01*
X59860441Y-74275686D02*
X59860441Y-74123305D01*
X59860441Y-74123305D02*
X59898537Y-74047114D01*
X59898537Y-74047114D02*
X59974727Y-74009019D01*
X59974727Y-74009019D02*
X60050918Y-74009019D01*
X60050918Y-74009019D02*
X60127108Y-74389972D01*
X59860441Y-73666162D02*
X60393775Y-73666162D01*
X59936632Y-73666162D02*
X59898537Y-73628067D01*
X59898537Y-73628067D02*
X59860441Y-73551877D01*
X59860441Y-73551877D02*
X59860441Y-73437591D01*
X59860441Y-73437591D02*
X59898537Y-73361400D01*
X59898537Y-73361400D02*
X59974727Y-73323305D01*
X59974727Y-73323305D02*
X60393775Y-73323305D01*
D11*
X46283958Y-41163123D02*
X46664911Y-41163123D01*
X46207768Y-41391695D02*
X46474435Y-40591695D01*
X46474435Y-40591695D02*
X46741101Y-41391695D01*
X47617292Y-41391695D02*
X47617292Y-40591695D01*
X47617292Y-40591695D02*
X47922054Y-40591695D01*
X47922054Y-40591695D02*
X47998244Y-40629790D01*
X47998244Y-40629790D02*
X48036339Y-40667885D01*
X48036339Y-40667885D02*
X48074435Y-40744076D01*
X48074435Y-40744076D02*
X48074435Y-40858361D01*
X48074435Y-40858361D02*
X48036339Y-40934552D01*
X48036339Y-40934552D02*
X47998244Y-40972647D01*
X47998244Y-40972647D02*
X47922054Y-41010742D01*
X47922054Y-41010742D02*
X47617292Y-41010742D01*
X48417292Y-41391695D02*
X48417292Y-40858361D01*
X48417292Y-41010742D02*
X48455387Y-40934552D01*
X48455387Y-40934552D02*
X48493482Y-40896457D01*
X48493482Y-40896457D02*
X48569673Y-40858361D01*
X48569673Y-40858361D02*
X48645863Y-40858361D01*
X48912530Y-41391695D02*
X48912530Y-40858361D01*
X48912530Y-40591695D02*
X48874434Y-40629790D01*
X48874434Y-40629790D02*
X48912530Y-40667885D01*
X48912530Y-40667885D02*
X48950625Y-40629790D01*
X48950625Y-40629790D02*
X48912530Y-40591695D01*
X48912530Y-40591695D02*
X48912530Y-40667885D01*
X49407767Y-41391695D02*
X49331577Y-41353600D01*
X49331577Y-41353600D02*
X49293482Y-41315504D01*
X49293482Y-41315504D02*
X49255386Y-41239314D01*
X49255386Y-41239314D02*
X49255386Y-41010742D01*
X49255386Y-41010742D02*
X49293482Y-40934552D01*
X49293482Y-40934552D02*
X49331577Y-40896457D01*
X49331577Y-40896457D02*
X49407767Y-40858361D01*
X49407767Y-40858361D02*
X49522053Y-40858361D01*
X49522053Y-40858361D02*
X49598244Y-40896457D01*
X49598244Y-40896457D02*
X49636339Y-40934552D01*
X49636339Y-40934552D02*
X49674434Y-41010742D01*
X49674434Y-41010742D02*
X49674434Y-41239314D01*
X49674434Y-41239314D02*
X49636339Y-41315504D01*
X49636339Y-41315504D02*
X49598244Y-41353600D01*
X49598244Y-41353600D02*
X49522053Y-41391695D01*
X49522053Y-41391695D02*
X49407767Y-41391695D01*
X50017292Y-41391695D02*
X50017292Y-40858361D01*
X50017292Y-41010742D02*
X50055387Y-40934552D01*
X50055387Y-40934552D02*
X50093482Y-40896457D01*
X50093482Y-40896457D02*
X50169673Y-40858361D01*
X50169673Y-40858361D02*
X50245863Y-40858361D01*
X50512530Y-41391695D02*
X50512530Y-40858361D01*
X50512530Y-40591695D02*
X50474434Y-40629790D01*
X50474434Y-40629790D02*
X50512530Y-40667885D01*
X50512530Y-40667885D02*
X50550625Y-40629790D01*
X50550625Y-40629790D02*
X50512530Y-40591695D01*
X50512530Y-40591695D02*
X50512530Y-40667885D01*
X51503006Y-41391695D02*
X51503006Y-40591695D01*
X51503006Y-40591695D02*
X51769672Y-41163123D01*
X51769672Y-41163123D02*
X52036339Y-40591695D01*
X52036339Y-40591695D02*
X52036339Y-41391695D01*
X52531577Y-41391695D02*
X52455387Y-41353600D01*
X52455387Y-41353600D02*
X52417292Y-41315504D01*
X52417292Y-41315504D02*
X52379196Y-41239314D01*
X52379196Y-41239314D02*
X52379196Y-41010742D01*
X52379196Y-41010742D02*
X52417292Y-40934552D01*
X52417292Y-40934552D02*
X52455387Y-40896457D01*
X52455387Y-40896457D02*
X52531577Y-40858361D01*
X52531577Y-40858361D02*
X52645863Y-40858361D01*
X52645863Y-40858361D02*
X52722054Y-40896457D01*
X52722054Y-40896457D02*
X52760149Y-40934552D01*
X52760149Y-40934552D02*
X52798244Y-41010742D01*
X52798244Y-41010742D02*
X52798244Y-41239314D01*
X52798244Y-41239314D02*
X52760149Y-41315504D01*
X52760149Y-41315504D02*
X52722054Y-41353600D01*
X52722054Y-41353600D02*
X52645863Y-41391695D01*
X52645863Y-41391695D02*
X52531577Y-41391695D01*
X53483959Y-41391695D02*
X53483959Y-40591695D01*
X53483959Y-41353600D02*
X53407768Y-41391695D01*
X53407768Y-41391695D02*
X53255387Y-41391695D01*
X53255387Y-41391695D02*
X53179197Y-41353600D01*
X53179197Y-41353600D02*
X53141102Y-41315504D01*
X53141102Y-41315504D02*
X53103006Y-41239314D01*
X53103006Y-41239314D02*
X53103006Y-41010742D01*
X53103006Y-41010742D02*
X53141102Y-40934552D01*
X53141102Y-40934552D02*
X53179197Y-40896457D01*
X53179197Y-40896457D02*
X53255387Y-40858361D01*
X53255387Y-40858361D02*
X53407768Y-40858361D01*
X53407768Y-40858361D02*
X53483959Y-40896457D01*
X54207769Y-40858361D02*
X54207769Y-41391695D01*
X53864912Y-40858361D02*
X53864912Y-41277409D01*
X53864912Y-41277409D02*
X53903007Y-41353600D01*
X53903007Y-41353600D02*
X53979197Y-41391695D01*
X53979197Y-41391695D02*
X54093483Y-41391695D01*
X54093483Y-41391695D02*
X54169674Y-41353600D01*
X54169674Y-41353600D02*
X54207769Y-41315504D01*
X54703007Y-41391695D02*
X54626817Y-41353600D01*
X54626817Y-41353600D02*
X54588722Y-41277409D01*
X54588722Y-41277409D02*
X54588722Y-40591695D01*
X55350627Y-41391695D02*
X55350627Y-40972647D01*
X55350627Y-40972647D02*
X55312532Y-40896457D01*
X55312532Y-40896457D02*
X55236341Y-40858361D01*
X55236341Y-40858361D02*
X55083960Y-40858361D01*
X55083960Y-40858361D02*
X55007770Y-40896457D01*
X55350627Y-41353600D02*
X55274436Y-41391695D01*
X55274436Y-41391695D02*
X55083960Y-41391695D01*
X55083960Y-41391695D02*
X55007770Y-41353600D01*
X55007770Y-41353600D02*
X54969674Y-41277409D01*
X54969674Y-41277409D02*
X54969674Y-41201219D01*
X54969674Y-41201219D02*
X55007770Y-41125028D01*
X55007770Y-41125028D02*
X55083960Y-41086933D01*
X55083960Y-41086933D02*
X55274436Y-41086933D01*
X55274436Y-41086933D02*
X55350627Y-41048838D01*
X55731580Y-41391695D02*
X55731580Y-40858361D01*
X55731580Y-41010742D02*
X55769675Y-40934552D01*
X55769675Y-40934552D02*
X55807770Y-40896457D01*
X55807770Y-40896457D02*
X55883961Y-40858361D01*
X55883961Y-40858361D02*
X55960151Y-40858361D01*
X56798246Y-40667885D02*
X56836342Y-40629790D01*
X56836342Y-40629790D02*
X56912532Y-40591695D01*
X56912532Y-40591695D02*
X57103008Y-40591695D01*
X57103008Y-40591695D02*
X57179199Y-40629790D01*
X57179199Y-40629790D02*
X57217294Y-40667885D01*
X57217294Y-40667885D02*
X57255389Y-40744076D01*
X57255389Y-40744076D02*
X57255389Y-40820266D01*
X57255389Y-40820266D02*
X57217294Y-40934552D01*
X57217294Y-40934552D02*
X56760151Y-41391695D01*
X56760151Y-41391695D02*
X57255389Y-41391695D01*
X57750628Y-40591695D02*
X57826818Y-40591695D01*
X57826818Y-40591695D02*
X57903009Y-40629790D01*
X57903009Y-40629790D02*
X57941104Y-40667885D01*
X57941104Y-40667885D02*
X57979199Y-40744076D01*
X57979199Y-40744076D02*
X58017294Y-40896457D01*
X58017294Y-40896457D02*
X58017294Y-41086933D01*
X58017294Y-41086933D02*
X57979199Y-41239314D01*
X57979199Y-41239314D02*
X57941104Y-41315504D01*
X57941104Y-41315504D02*
X57903009Y-41353600D01*
X57903009Y-41353600D02*
X57826818Y-41391695D01*
X57826818Y-41391695D02*
X57750628Y-41391695D01*
X57750628Y-41391695D02*
X57674437Y-41353600D01*
X57674437Y-41353600D02*
X57636342Y-41315504D01*
X57636342Y-41315504D02*
X57598247Y-41239314D01*
X57598247Y-41239314D02*
X57560151Y-41086933D01*
X57560151Y-41086933D02*
X57560151Y-40896457D01*
X57560151Y-40896457D02*
X57598247Y-40744076D01*
X57598247Y-40744076D02*
X57636342Y-40667885D01*
X57636342Y-40667885D02*
X57674437Y-40629790D01*
X57674437Y-40629790D02*
X57750628Y-40591695D01*
X58322056Y-40667885D02*
X58360152Y-40629790D01*
X58360152Y-40629790D02*
X58436342Y-40591695D01*
X58436342Y-40591695D02*
X58626818Y-40591695D01*
X58626818Y-40591695D02*
X58703009Y-40629790D01*
X58703009Y-40629790D02*
X58741104Y-40667885D01*
X58741104Y-40667885D02*
X58779199Y-40744076D01*
X58779199Y-40744076D02*
X58779199Y-40820266D01*
X58779199Y-40820266D02*
X58741104Y-40934552D01*
X58741104Y-40934552D02*
X58283961Y-41391695D01*
X58283961Y-41391695D02*
X58779199Y-41391695D01*
X59464914Y-40591695D02*
X59312533Y-40591695D01*
X59312533Y-40591695D02*
X59236342Y-40629790D01*
X59236342Y-40629790D02*
X59198247Y-40667885D01*
X59198247Y-40667885D02*
X59122057Y-40782171D01*
X59122057Y-40782171D02*
X59083961Y-40934552D01*
X59083961Y-40934552D02*
X59083961Y-41239314D01*
X59083961Y-41239314D02*
X59122057Y-41315504D01*
X59122057Y-41315504D02*
X59160152Y-41353600D01*
X59160152Y-41353600D02*
X59236342Y-41391695D01*
X59236342Y-41391695D02*
X59388723Y-41391695D01*
X59388723Y-41391695D02*
X59464914Y-41353600D01*
X59464914Y-41353600D02*
X59503009Y-41315504D01*
X59503009Y-41315504D02*
X59541104Y-41239314D01*
X59541104Y-41239314D02*
X59541104Y-41048838D01*
X59541104Y-41048838D02*
X59503009Y-40972647D01*
X59503009Y-40972647D02*
X59464914Y-40934552D01*
X59464914Y-40934552D02*
X59388723Y-40896457D01*
X59388723Y-40896457D02*
X59236342Y-40896457D01*
X59236342Y-40896457D02*
X59160152Y-40934552D01*
X59160152Y-40934552D02*
X59122057Y-40972647D01*
X59122057Y-40972647D02*
X59083961Y-41048838D01*
D12*
X57359580Y-48166666D02*
X57407200Y-48214285D01*
X57407200Y-48214285D02*
X57454819Y-48357142D01*
X57454819Y-48357142D02*
X57454819Y-48452380D01*
X57454819Y-48452380D02*
X57407200Y-48595237D01*
X57407200Y-48595237D02*
X57311961Y-48690475D01*
X57311961Y-48690475D02*
X57216723Y-48738094D01*
X57216723Y-48738094D02*
X57026247Y-48785713D01*
X57026247Y-48785713D02*
X56883390Y-48785713D01*
X56883390Y-48785713D02*
X56692914Y-48738094D01*
X56692914Y-48738094D02*
X56597676Y-48690475D01*
X56597676Y-48690475D02*
X56502438Y-48595237D01*
X56502438Y-48595237D02*
X56454819Y-48452380D01*
X56454819Y-48452380D02*
X56454819Y-48357142D01*
X56454819Y-48357142D02*
X56502438Y-48214285D01*
X56502438Y-48214285D02*
X56550057Y-48166666D01*
X56454819Y-47309523D02*
X56454819Y-47499999D01*
X56454819Y-47499999D02*
X56502438Y-47595237D01*
X56502438Y-47595237D02*
X56550057Y-47642856D01*
X56550057Y-47642856D02*
X56692914Y-47738094D01*
X56692914Y-47738094D02*
X56883390Y-47785713D01*
X56883390Y-47785713D02*
X57264342Y-47785713D01*
X57264342Y-47785713D02*
X57359580Y-47738094D01*
X57359580Y-47738094D02*
X57407200Y-47690475D01*
X57407200Y-47690475D02*
X57454819Y-47595237D01*
X57454819Y-47595237D02*
X57454819Y-47404761D01*
X57454819Y-47404761D02*
X57407200Y-47309523D01*
X57407200Y-47309523D02*
X57359580Y-47261904D01*
X57359580Y-47261904D02*
X57264342Y-47214285D01*
X57264342Y-47214285D02*
X57026247Y-47214285D01*
X57026247Y-47214285D02*
X56931009Y-47261904D01*
X56931009Y-47261904D02*
X56883390Y-47309523D01*
X56883390Y-47309523D02*
X56835771Y-47404761D01*
X56835771Y-47404761D02*
X56835771Y-47595237D01*
X56835771Y-47595237D02*
X56883390Y-47690475D01*
X56883390Y-47690475D02*
X56931009Y-47738094D01*
X56931009Y-47738094D02*
X57026247Y-47785713D01*
X59504819Y-46047619D02*
X59504819Y-46619047D01*
X59504819Y-46333333D02*
X58504819Y-46333333D01*
X58504819Y-46333333D02*
X58647676Y-46428571D01*
X58647676Y-46428571D02*
X58742914Y-46523809D01*
X58742914Y-46523809D02*
X58790533Y-46619047D01*
X58504819Y-45428571D02*
X58504819Y-45333333D01*
X58504819Y-45333333D02*
X58552438Y-45238095D01*
X58552438Y-45238095D02*
X58600057Y-45190476D01*
X58600057Y-45190476D02*
X58695295Y-45142857D01*
X58695295Y-45142857D02*
X58885771Y-45095238D01*
X58885771Y-45095238D02*
X59123866Y-45095238D01*
X59123866Y-45095238D02*
X59314342Y-45142857D01*
X59314342Y-45142857D02*
X59409580Y-45190476D01*
X59409580Y-45190476D02*
X59457200Y-45238095D01*
X59457200Y-45238095D02*
X59504819Y-45333333D01*
X59504819Y-45333333D02*
X59504819Y-45428571D01*
X59504819Y-45428571D02*
X59457200Y-45523809D01*
X59457200Y-45523809D02*
X59409580Y-45571428D01*
X59409580Y-45571428D02*
X59314342Y-45619047D01*
X59314342Y-45619047D02*
X59123866Y-45666666D01*
X59123866Y-45666666D02*
X58885771Y-45666666D01*
X58885771Y-45666666D02*
X58695295Y-45619047D01*
X58695295Y-45619047D02*
X58600057Y-45571428D01*
X58600057Y-45571428D02*
X58552438Y-45523809D01*
X58552438Y-45523809D02*
X58504819Y-45428571D01*
X58504819Y-44476190D02*
X58504819Y-44380952D01*
X58504819Y-44380952D02*
X58552438Y-44285714D01*
X58552438Y-44285714D02*
X58600057Y-44238095D01*
X58600057Y-44238095D02*
X58695295Y-44190476D01*
X58695295Y-44190476D02*
X58885771Y-44142857D01*
X58885771Y-44142857D02*
X59123866Y-44142857D01*
X59123866Y-44142857D02*
X59314342Y-44190476D01*
X59314342Y-44190476D02*
X59409580Y-44238095D01*
X59409580Y-44238095D02*
X59457200Y-44285714D01*
X59457200Y-44285714D02*
X59504819Y-44380952D01*
X59504819Y-44380952D02*
X59504819Y-44476190D01*
X59504819Y-44476190D02*
X59457200Y-44571428D01*
X59457200Y-44571428D02*
X59409580Y-44619047D01*
X59409580Y-44619047D02*
X59314342Y-44666666D01*
X59314342Y-44666666D02*
X59123866Y-44714285D01*
X59123866Y-44714285D02*
X58885771Y-44714285D01*
X58885771Y-44714285D02*
X58695295Y-44666666D01*
X58695295Y-44666666D02*
X58600057Y-44619047D01*
X58600057Y-44619047D02*
X58552438Y-44571428D01*
X58552438Y-44571428D02*
X58504819Y-44476190D01*
X58838152Y-43714285D02*
X59504819Y-43714285D01*
X58933390Y-43714285D02*
X58885771Y-43666666D01*
X58885771Y-43666666D02*
X58838152Y-43571428D01*
X58838152Y-43571428D02*
X58838152Y-43428571D01*
X58838152Y-43428571D02*
X58885771Y-43333333D01*
X58885771Y-43333333D02*
X58981009Y-43285714D01*
X58981009Y-43285714D02*
X59504819Y-43285714D01*
X58981009Y-42476190D02*
X58981009Y-42809523D01*
X59504819Y-42809523D02*
X58504819Y-42809523D01*
X58504819Y-42809523D02*
X58504819Y-42333333D01*
X48954819Y-79586666D02*
X48478628Y-79919999D01*
X48954819Y-80158094D02*
X47954819Y-80158094D01*
X47954819Y-80158094D02*
X47954819Y-79777142D01*
X47954819Y-79777142D02*
X48002438Y-79681904D01*
X48002438Y-79681904D02*
X48050057Y-79634285D01*
X48050057Y-79634285D02*
X48145295Y-79586666D01*
X48145295Y-79586666D02*
X48288152Y-79586666D01*
X48288152Y-79586666D02*
X48383390Y-79634285D01*
X48383390Y-79634285D02*
X48431009Y-79681904D01*
X48431009Y-79681904D02*
X48478628Y-79777142D01*
X48478628Y-79777142D02*
X48478628Y-80158094D01*
X48050057Y-79205713D02*
X48002438Y-79158094D01*
X48002438Y-79158094D02*
X47954819Y-79062856D01*
X47954819Y-79062856D02*
X47954819Y-78824761D01*
X47954819Y-78824761D02*
X48002438Y-78729523D01*
X48002438Y-78729523D02*
X48050057Y-78681904D01*
X48050057Y-78681904D02*
X48145295Y-78634285D01*
X48145295Y-78634285D02*
X48240533Y-78634285D01*
X48240533Y-78634285D02*
X48383390Y-78681904D01*
X48383390Y-78681904D02*
X48954819Y-79253332D01*
X48954819Y-79253332D02*
X48954819Y-78634285D01*
X46954819Y-77714285D02*
X46954819Y-78285713D01*
X46954819Y-77999999D02*
X45954819Y-77999999D01*
X45954819Y-77999999D02*
X46097676Y-78095237D01*
X46097676Y-78095237D02*
X46192914Y-78190475D01*
X46192914Y-78190475D02*
X46240533Y-78285713D01*
X46954819Y-77285713D02*
X45954819Y-77285713D01*
X46954819Y-76714285D02*
X46383390Y-77142856D01*
X45954819Y-76714285D02*
X46526247Y-77285713D01*
X47261905Y-131954819D02*
X47595238Y-132954819D01*
X47595238Y-132954819D02*
X47928571Y-131954819D01*
X48833333Y-132859580D02*
X48785714Y-132907200D01*
X48785714Y-132907200D02*
X48642857Y-132954819D01*
X48642857Y-132954819D02*
X48547619Y-132954819D01*
X48547619Y-132954819D02*
X48404762Y-132907200D01*
X48404762Y-132907200D02*
X48309524Y-132811961D01*
X48309524Y-132811961D02*
X48261905Y-132716723D01*
X48261905Y-132716723D02*
X48214286Y-132526247D01*
X48214286Y-132526247D02*
X48214286Y-132383390D01*
X48214286Y-132383390D02*
X48261905Y-132192914D01*
X48261905Y-132192914D02*
X48309524Y-132097676D01*
X48309524Y-132097676D02*
X48404762Y-132002438D01*
X48404762Y-132002438D02*
X48547619Y-131954819D01*
X48547619Y-131954819D02*
X48642857Y-131954819D01*
X48642857Y-131954819D02*
X48785714Y-132002438D01*
X48785714Y-132002438D02*
X48833333Y-132050057D01*
X49452381Y-131954819D02*
X49642857Y-131954819D01*
X49642857Y-131954819D02*
X49738095Y-132002438D01*
X49738095Y-132002438D02*
X49833333Y-132097676D01*
X49833333Y-132097676D02*
X49880952Y-132288152D01*
X49880952Y-132288152D02*
X49880952Y-132621485D01*
X49880952Y-132621485D02*
X49833333Y-132811961D01*
X49833333Y-132811961D02*
X49738095Y-132907200D01*
X49738095Y-132907200D02*
X49642857Y-132954819D01*
X49642857Y-132954819D02*
X49452381Y-132954819D01*
X49452381Y-132954819D02*
X49357143Y-132907200D01*
X49357143Y-132907200D02*
X49261905Y-132811961D01*
X49261905Y-132811961D02*
X49214286Y-132621485D01*
X49214286Y-132621485D02*
X49214286Y-132288152D01*
X49214286Y-132288152D02*
X49261905Y-132097676D01*
X49261905Y-132097676D02*
X49357143Y-132002438D01*
X49357143Y-132002438D02*
X49452381Y-131954819D01*
X50642857Y-132431009D02*
X50309524Y-132431009D01*
X50309524Y-132954819D02*
X50309524Y-131954819D01*
X50309524Y-131954819D02*
X50785714Y-131954819D01*
X51738095Y-132954819D02*
X51404762Y-132478628D01*
X51166667Y-132954819D02*
X51166667Y-131954819D01*
X51166667Y-131954819D02*
X51547619Y-131954819D01*
X51547619Y-131954819D02*
X51642857Y-132002438D01*
X51642857Y-132002438D02*
X51690476Y-132050057D01*
X51690476Y-132050057D02*
X51738095Y-132145295D01*
X51738095Y-132145295D02*
X51738095Y-132288152D01*
X51738095Y-132288152D02*
X51690476Y-132383390D01*
X51690476Y-132383390D02*
X51642857Y-132431009D01*
X51642857Y-132431009D02*
X51547619Y-132478628D01*
X51547619Y-132478628D02*
X51166667Y-132478628D01*
X52166667Y-132431009D02*
X52500000Y-132431009D01*
X52642857Y-132954819D02*
X52166667Y-132954819D01*
X52166667Y-132954819D02*
X52166667Y-131954819D01*
X52166667Y-131954819D02*
X52642857Y-131954819D01*
X53738095Y-133050057D02*
X53642857Y-133002438D01*
X53642857Y-133002438D02*
X53547619Y-132907200D01*
X53547619Y-132907200D02*
X53404762Y-132764342D01*
X53404762Y-132764342D02*
X53309524Y-132716723D01*
X53309524Y-132716723D02*
X53214286Y-132716723D01*
X53261905Y-132954819D02*
X53166667Y-132907200D01*
X53166667Y-132907200D02*
X53071429Y-132811961D01*
X53071429Y-132811961D02*
X53023810Y-132621485D01*
X53023810Y-132621485D02*
X53023810Y-132288152D01*
X53023810Y-132288152D02*
X53071429Y-132097676D01*
X53071429Y-132097676D02*
X53166667Y-132002438D01*
X53166667Y-132002438D02*
X53261905Y-131954819D01*
X53261905Y-131954819D02*
X53452381Y-131954819D01*
X53452381Y-131954819D02*
X53547619Y-132002438D01*
X53547619Y-132002438D02*
X53642857Y-132097676D01*
X53642857Y-132097676D02*
X53690476Y-132288152D01*
X53690476Y-132288152D02*
X53690476Y-132621485D01*
X53690476Y-132621485D02*
X53642857Y-132811961D01*
X53642857Y-132811961D02*
X53547619Y-132907200D01*
X53547619Y-132907200D02*
X53452381Y-132954819D01*
X53452381Y-132954819D02*
X53261905Y-132954819D01*
X54642857Y-132954819D02*
X54071429Y-132954819D01*
X54357143Y-132954819D02*
X54357143Y-131954819D01*
X54357143Y-131954819D02*
X54261905Y-132097676D01*
X54261905Y-132097676D02*
X54166667Y-132192914D01*
X54166667Y-132192914D02*
X54071429Y-132240533D01*
X50661904Y-137417319D02*
X50185714Y-137417319D01*
X50185714Y-137417319D02*
X50138095Y-137893509D01*
X50138095Y-137893509D02*
X50185714Y-137845890D01*
X50185714Y-137845890D02*
X50280952Y-137798271D01*
X50280952Y-137798271D02*
X50519047Y-137798271D01*
X50519047Y-137798271D02*
X50614285Y-137845890D01*
X50614285Y-137845890D02*
X50661904Y-137893509D01*
X50661904Y-137893509D02*
X50709523Y-137988747D01*
X50709523Y-137988747D02*
X50709523Y-138226842D01*
X50709523Y-138226842D02*
X50661904Y-138322080D01*
X50661904Y-138322080D02*
X50614285Y-138369700D01*
X50614285Y-138369700D02*
X50519047Y-138417319D01*
X50519047Y-138417319D02*
X50280952Y-138417319D01*
X50280952Y-138417319D02*
X50185714Y-138369700D01*
X50185714Y-138369700D02*
X50138095Y-138322080D01*
X51328571Y-137417319D02*
X51423809Y-137417319D01*
X51423809Y-137417319D02*
X51519047Y-137464938D01*
X51519047Y-137464938D02*
X51566666Y-137512557D01*
X51566666Y-137512557D02*
X51614285Y-137607795D01*
X51614285Y-137607795D02*
X51661904Y-137798271D01*
X51661904Y-137798271D02*
X51661904Y-138036366D01*
X51661904Y-138036366D02*
X51614285Y-138226842D01*
X51614285Y-138226842D02*
X51566666Y-138322080D01*
X51566666Y-138322080D02*
X51519047Y-138369700D01*
X51519047Y-138369700D02*
X51423809Y-138417319D01*
X51423809Y-138417319D02*
X51328571Y-138417319D01*
X51328571Y-138417319D02*
X51233333Y-138369700D01*
X51233333Y-138369700D02*
X51185714Y-138322080D01*
X51185714Y-138322080D02*
X51138095Y-138226842D01*
X51138095Y-138226842D02*
X51090476Y-138036366D01*
X51090476Y-138036366D02*
X51090476Y-137798271D01*
X51090476Y-137798271D02*
X51138095Y-137607795D01*
X51138095Y-137607795D02*
X51185714Y-137512557D01*
X51185714Y-137512557D02*
X51233333Y-137464938D01*
X51233333Y-137464938D02*
X51328571Y-137417319D01*
X52090476Y-138417319D02*
X52090476Y-137417319D01*
X52661904Y-138417319D02*
X52233333Y-137845890D01*
X52661904Y-137417319D02*
X52090476Y-137988747D01*
X54738095Y-102954819D02*
X54738095Y-103764342D01*
X54738095Y-103764342D02*
X54785714Y-103859580D01*
X54785714Y-103859580D02*
X54833333Y-103907200D01*
X54833333Y-103907200D02*
X54928571Y-103954819D01*
X54928571Y-103954819D02*
X55119047Y-103954819D01*
X55119047Y-103954819D02*
X55214285Y-103907200D01*
X55214285Y-103907200D02*
X55261904Y-103859580D01*
X55261904Y-103859580D02*
X55309523Y-103764342D01*
X55309523Y-103764342D02*
X55309523Y-102954819D01*
X55690476Y-102954819D02*
X56309523Y-102954819D01*
X56309523Y-102954819D02*
X55976190Y-103335771D01*
X55976190Y-103335771D02*
X56119047Y-103335771D01*
X56119047Y-103335771D02*
X56214285Y-103383390D01*
X56214285Y-103383390D02*
X56261904Y-103431009D01*
X56261904Y-103431009D02*
X56309523Y-103526247D01*
X56309523Y-103526247D02*
X56309523Y-103764342D01*
X56309523Y-103764342D02*
X56261904Y-103859580D01*
X56261904Y-103859580D02*
X56214285Y-103907200D01*
X56214285Y-103907200D02*
X56119047Y-103954819D01*
X56119047Y-103954819D02*
X55833333Y-103954819D01*
X55833333Y-103954819D02*
X55738095Y-103907200D01*
X55738095Y-103907200D02*
X55690476Y-103859580D01*
X52261905Y-113557319D02*
X52261905Y-112557319D01*
X52261905Y-112557319D02*
X52595238Y-113271604D01*
X52595238Y-113271604D02*
X52928571Y-112557319D01*
X52928571Y-112557319D02*
X52928571Y-113557319D01*
X53976190Y-113462080D02*
X53928571Y-113509700D01*
X53928571Y-113509700D02*
X53785714Y-113557319D01*
X53785714Y-113557319D02*
X53690476Y-113557319D01*
X53690476Y-113557319D02*
X53547619Y-113509700D01*
X53547619Y-113509700D02*
X53452381Y-113414461D01*
X53452381Y-113414461D02*
X53404762Y-113319223D01*
X53404762Y-113319223D02*
X53357143Y-113128747D01*
X53357143Y-113128747D02*
X53357143Y-112985890D01*
X53357143Y-112985890D02*
X53404762Y-112795414D01*
X53404762Y-112795414D02*
X53452381Y-112700176D01*
X53452381Y-112700176D02*
X53547619Y-112604938D01*
X53547619Y-112604938D02*
X53690476Y-112557319D01*
X53690476Y-112557319D02*
X53785714Y-112557319D01*
X53785714Y-112557319D02*
X53928571Y-112604938D01*
X53928571Y-112604938D02*
X53976190Y-112652557D01*
X54404762Y-113557319D02*
X54404762Y-112557319D01*
X54404762Y-112557319D02*
X54785714Y-112557319D01*
X54785714Y-112557319D02*
X54880952Y-112604938D01*
X54880952Y-112604938D02*
X54928571Y-112652557D01*
X54928571Y-112652557D02*
X54976190Y-112747795D01*
X54976190Y-112747795D02*
X54976190Y-112890652D01*
X54976190Y-112890652D02*
X54928571Y-112985890D01*
X54928571Y-112985890D02*
X54880952Y-113033509D01*
X54880952Y-113033509D02*
X54785714Y-113081128D01*
X54785714Y-113081128D02*
X54404762Y-113081128D01*
X55833333Y-112557319D02*
X55642857Y-112557319D01*
X55642857Y-112557319D02*
X55547619Y-112604938D01*
X55547619Y-112604938D02*
X55500000Y-112652557D01*
X55500000Y-112652557D02*
X55404762Y-112795414D01*
X55404762Y-112795414D02*
X55357143Y-112985890D01*
X55357143Y-112985890D02*
X55357143Y-113366842D01*
X55357143Y-113366842D02*
X55404762Y-113462080D01*
X55404762Y-113462080D02*
X55452381Y-113509700D01*
X55452381Y-113509700D02*
X55547619Y-113557319D01*
X55547619Y-113557319D02*
X55738095Y-113557319D01*
X55738095Y-113557319D02*
X55833333Y-113509700D01*
X55833333Y-113509700D02*
X55880952Y-113462080D01*
X55880952Y-113462080D02*
X55928571Y-113366842D01*
X55928571Y-113366842D02*
X55928571Y-113128747D01*
X55928571Y-113128747D02*
X55880952Y-113033509D01*
X55880952Y-113033509D02*
X55833333Y-112985890D01*
X55833333Y-112985890D02*
X55738095Y-112938271D01*
X55738095Y-112938271D02*
X55547619Y-112938271D01*
X55547619Y-112938271D02*
X55452381Y-112985890D01*
X55452381Y-112985890D02*
X55404762Y-113033509D01*
X55404762Y-113033509D02*
X55357143Y-113128747D01*
X56547619Y-112557319D02*
X56642857Y-112557319D01*
X56642857Y-112557319D02*
X56738095Y-112604938D01*
X56738095Y-112604938D02*
X56785714Y-112652557D01*
X56785714Y-112652557D02*
X56833333Y-112747795D01*
X56833333Y-112747795D02*
X56880952Y-112938271D01*
X56880952Y-112938271D02*
X56880952Y-113176366D01*
X56880952Y-113176366D02*
X56833333Y-113366842D01*
X56833333Y-113366842D02*
X56785714Y-113462080D01*
X56785714Y-113462080D02*
X56738095Y-113509700D01*
X56738095Y-113509700D02*
X56642857Y-113557319D01*
X56642857Y-113557319D02*
X56547619Y-113557319D01*
X56547619Y-113557319D02*
X56452381Y-113509700D01*
X56452381Y-113509700D02*
X56404762Y-113462080D01*
X56404762Y-113462080D02*
X56357143Y-113366842D01*
X56357143Y-113366842D02*
X56309524Y-113176366D01*
X56309524Y-113176366D02*
X56309524Y-112938271D01*
X56309524Y-112938271D02*
X56357143Y-112747795D01*
X56357143Y-112747795D02*
X56404762Y-112652557D01*
X56404762Y-112652557D02*
X56452381Y-112604938D01*
X56452381Y-112604938D02*
X56547619Y-112557319D01*
X57500000Y-112557319D02*
X57595238Y-112557319D01*
X57595238Y-112557319D02*
X57690476Y-112604938D01*
X57690476Y-112604938D02*
X57738095Y-112652557D01*
X57738095Y-112652557D02*
X57785714Y-112747795D01*
X57785714Y-112747795D02*
X57833333Y-112938271D01*
X57833333Y-112938271D02*
X57833333Y-113176366D01*
X57833333Y-113176366D02*
X57785714Y-113366842D01*
X57785714Y-113366842D02*
X57738095Y-113462080D01*
X57738095Y-113462080D02*
X57690476Y-113509700D01*
X57690476Y-113509700D02*
X57595238Y-113557319D01*
X57595238Y-113557319D02*
X57500000Y-113557319D01*
X57500000Y-113557319D02*
X57404762Y-113509700D01*
X57404762Y-113509700D02*
X57357143Y-113462080D01*
X57357143Y-113462080D02*
X57309524Y-113366842D01*
X57309524Y-113366842D02*
X57261905Y-113176366D01*
X57261905Y-113176366D02*
X57261905Y-112938271D01*
X57261905Y-112938271D02*
X57309524Y-112747795D01*
X57309524Y-112747795D02*
X57357143Y-112652557D01*
X57357143Y-112652557D02*
X57404762Y-112604938D01*
X57404762Y-112604938D02*
X57500000Y-112557319D01*
X58214286Y-112652557D02*
X58261905Y-112604938D01*
X58261905Y-112604938D02*
X58357143Y-112557319D01*
X58357143Y-112557319D02*
X58595238Y-112557319D01*
X58595238Y-112557319D02*
X58690476Y-112604938D01*
X58690476Y-112604938D02*
X58738095Y-112652557D01*
X58738095Y-112652557D02*
X58785714Y-112747795D01*
X58785714Y-112747795D02*
X58785714Y-112843033D01*
X58785714Y-112843033D02*
X58738095Y-112985890D01*
X58738095Y-112985890D02*
X58166667Y-113557319D01*
X58166667Y-113557319D02*
X58785714Y-113557319D01*
X64756905Y-57994819D02*
X64756905Y-56994819D01*
X64756905Y-56994819D02*
X64995000Y-56994819D01*
X64995000Y-56994819D02*
X65137857Y-57042438D01*
X65137857Y-57042438D02*
X65233095Y-57137676D01*
X65233095Y-57137676D02*
X65280714Y-57232914D01*
X65280714Y-57232914D02*
X65328333Y-57423390D01*
X65328333Y-57423390D02*
X65328333Y-57566247D01*
X65328333Y-57566247D02*
X65280714Y-57756723D01*
X65280714Y-57756723D02*
X65233095Y-57851961D01*
X65233095Y-57851961D02*
X65137857Y-57947200D01*
X65137857Y-57947200D02*
X64995000Y-57994819D01*
X64995000Y-57994819D02*
X64756905Y-57994819D01*
X66280714Y-57994819D02*
X65709286Y-57994819D01*
X65995000Y-57994819D02*
X65995000Y-56994819D01*
X65995000Y-56994819D02*
X65899762Y-57137676D01*
X65899762Y-57137676D02*
X65804524Y-57232914D01*
X65804524Y-57232914D02*
X65709286Y-57280533D01*
X64852142Y-60454819D02*
X64375952Y-60454819D01*
X64375952Y-60454819D02*
X64375952Y-59454819D01*
X65185476Y-59931009D02*
X65518809Y-59931009D01*
X65661666Y-60454819D02*
X65185476Y-60454819D01*
X65185476Y-60454819D02*
X65185476Y-59454819D01*
X65185476Y-59454819D02*
X65661666Y-59454819D01*
X66090238Y-60454819D02*
X66090238Y-59454819D01*
X66090238Y-59454819D02*
X66328333Y-59454819D01*
X66328333Y-59454819D02*
X66471190Y-59502438D01*
X66471190Y-59502438D02*
X66566428Y-59597676D01*
X66566428Y-59597676D02*
X66614047Y-59692914D01*
X66614047Y-59692914D02*
X66661666Y-59883390D01*
X66661666Y-59883390D02*
X66661666Y-60026247D01*
X66661666Y-60026247D02*
X66614047Y-60216723D01*
X66614047Y-60216723D02*
X66566428Y-60311961D01*
X66566428Y-60311961D02*
X66471190Y-60407200D01*
X66471190Y-60407200D02*
X66328333Y-60454819D01*
X66328333Y-60454819D02*
X66090238Y-60454819D01*
X71954819Y-111642857D02*
X71478628Y-111976190D01*
X71954819Y-112214285D02*
X70954819Y-112214285D01*
X70954819Y-112214285D02*
X70954819Y-111833333D01*
X70954819Y-111833333D02*
X71002438Y-111738095D01*
X71002438Y-111738095D02*
X71050057Y-111690476D01*
X71050057Y-111690476D02*
X71145295Y-111642857D01*
X71145295Y-111642857D02*
X71288152Y-111642857D01*
X71288152Y-111642857D02*
X71383390Y-111690476D01*
X71383390Y-111690476D02*
X71431009Y-111738095D01*
X71431009Y-111738095D02*
X71478628Y-111833333D01*
X71478628Y-111833333D02*
X71478628Y-112214285D01*
X71954819Y-110690476D02*
X71954819Y-111261904D01*
X71954819Y-110976190D02*
X70954819Y-110976190D01*
X70954819Y-110976190D02*
X71097676Y-111071428D01*
X71097676Y-111071428D02*
X71192914Y-111166666D01*
X71192914Y-111166666D02*
X71240533Y-111261904D01*
X71954819Y-109738095D02*
X71954819Y-110309523D01*
X71954819Y-110023809D02*
X70954819Y-110023809D01*
X70954819Y-110023809D02*
X71097676Y-110119047D01*
X71097676Y-110119047D02*
X71192914Y-110214285D01*
X71192914Y-110214285D02*
X71240533Y-110309523D01*
X70454819Y-108976666D02*
X70454819Y-109548094D01*
X70454819Y-109262380D02*
X69454819Y-109262380D01*
X69454819Y-109262380D02*
X69597676Y-109357618D01*
X69597676Y-109357618D02*
X69692914Y-109452856D01*
X69692914Y-109452856D02*
X69740533Y-109548094D01*
X69454819Y-108357618D02*
X69454819Y-108262380D01*
X69454819Y-108262380D02*
X69502438Y-108167142D01*
X69502438Y-108167142D02*
X69550057Y-108119523D01*
X69550057Y-108119523D02*
X69645295Y-108071904D01*
X69645295Y-108071904D02*
X69835771Y-108024285D01*
X69835771Y-108024285D02*
X70073866Y-108024285D01*
X70073866Y-108024285D02*
X70264342Y-108071904D01*
X70264342Y-108071904D02*
X70359580Y-108119523D01*
X70359580Y-108119523D02*
X70407200Y-108167142D01*
X70407200Y-108167142D02*
X70454819Y-108262380D01*
X70454819Y-108262380D02*
X70454819Y-108357618D01*
X70454819Y-108357618D02*
X70407200Y-108452856D01*
X70407200Y-108452856D02*
X70359580Y-108500475D01*
X70359580Y-108500475D02*
X70264342Y-108548094D01*
X70264342Y-108548094D02*
X70073866Y-108595713D01*
X70073866Y-108595713D02*
X69835771Y-108595713D01*
X69835771Y-108595713D02*
X69645295Y-108548094D01*
X69645295Y-108548094D02*
X69550057Y-108500475D01*
X69550057Y-108500475D02*
X69502438Y-108452856D01*
X69502438Y-108452856D02*
X69454819Y-108357618D01*
X69454819Y-107405237D02*
X69454819Y-107309999D01*
X69454819Y-107309999D02*
X69502438Y-107214761D01*
X69502438Y-107214761D02*
X69550057Y-107167142D01*
X69550057Y-107167142D02*
X69645295Y-107119523D01*
X69645295Y-107119523D02*
X69835771Y-107071904D01*
X69835771Y-107071904D02*
X70073866Y-107071904D01*
X70073866Y-107071904D02*
X70264342Y-107119523D01*
X70264342Y-107119523D02*
X70359580Y-107167142D01*
X70359580Y-107167142D02*
X70407200Y-107214761D01*
X70407200Y-107214761D02*
X70454819Y-107309999D01*
X70454819Y-107309999D02*
X70454819Y-107405237D01*
X70454819Y-107405237D02*
X70407200Y-107500475D01*
X70407200Y-107500475D02*
X70359580Y-107548094D01*
X70359580Y-107548094D02*
X70264342Y-107595713D01*
X70264342Y-107595713D02*
X70073866Y-107643332D01*
X70073866Y-107643332D02*
X69835771Y-107643332D01*
X69835771Y-107643332D02*
X69645295Y-107595713D01*
X69645295Y-107595713D02*
X69550057Y-107548094D01*
X69550057Y-107548094D02*
X69502438Y-107500475D01*
X69502438Y-107500475D02*
X69454819Y-107405237D01*
X70454819Y-106643332D02*
X69454819Y-106643332D01*
X70454819Y-106071904D02*
X69883390Y-106500475D01*
X69454819Y-106071904D02*
X70026247Y-106643332D01*
X56136666Y-114634819D02*
X56136666Y-115349104D01*
X56136666Y-115349104D02*
X56089047Y-115491961D01*
X56089047Y-115491961D02*
X55993809Y-115587200D01*
X55993809Y-115587200D02*
X55850952Y-115634819D01*
X55850952Y-115634819D02*
X55755714Y-115634819D01*
X56565238Y-114730057D02*
X56612857Y-114682438D01*
X56612857Y-114682438D02*
X56708095Y-114634819D01*
X56708095Y-114634819D02*
X56946190Y-114634819D01*
X56946190Y-114634819D02*
X57041428Y-114682438D01*
X57041428Y-114682438D02*
X57089047Y-114730057D01*
X57089047Y-114730057D02*
X57136666Y-114825295D01*
X57136666Y-114825295D02*
X57136666Y-114920533D01*
X57136666Y-114920533D02*
X57089047Y-115063390D01*
X57089047Y-115063390D02*
X56517619Y-115634819D01*
X56517619Y-115634819D02*
X57136666Y-115634819D01*
X59238095Y-123859580D02*
X59190476Y-123907200D01*
X59190476Y-123907200D02*
X59047619Y-123954819D01*
X59047619Y-123954819D02*
X58952381Y-123954819D01*
X58952381Y-123954819D02*
X58809524Y-123907200D01*
X58809524Y-123907200D02*
X58714286Y-123811961D01*
X58714286Y-123811961D02*
X58666667Y-123716723D01*
X58666667Y-123716723D02*
X58619048Y-123526247D01*
X58619048Y-123526247D02*
X58619048Y-123383390D01*
X58619048Y-123383390D02*
X58666667Y-123192914D01*
X58666667Y-123192914D02*
X58714286Y-123097676D01*
X58714286Y-123097676D02*
X58809524Y-123002438D01*
X58809524Y-123002438D02*
X58952381Y-122954819D01*
X58952381Y-122954819D02*
X59047619Y-122954819D01*
X59047619Y-122954819D02*
X59190476Y-123002438D01*
X59190476Y-123002438D02*
X59238095Y-123050057D01*
X59523810Y-122954819D02*
X59857143Y-123954819D01*
X59857143Y-123954819D02*
X60190476Y-122954819D01*
X61285715Y-123954819D02*
X61285715Y-122954819D01*
X61761905Y-123954819D02*
X61761905Y-122954819D01*
X61761905Y-122954819D02*
X62333333Y-123954819D01*
X62333333Y-123954819D02*
X62333333Y-122954819D01*
X51454819Y-124166666D02*
X50978628Y-124499999D01*
X51454819Y-124738094D02*
X50454819Y-124738094D01*
X50454819Y-124738094D02*
X50454819Y-124357142D01*
X50454819Y-124357142D02*
X50502438Y-124261904D01*
X50502438Y-124261904D02*
X50550057Y-124214285D01*
X50550057Y-124214285D02*
X50645295Y-124166666D01*
X50645295Y-124166666D02*
X50788152Y-124166666D01*
X50788152Y-124166666D02*
X50883390Y-124214285D01*
X50883390Y-124214285D02*
X50931009Y-124261904D01*
X50931009Y-124261904D02*
X50978628Y-124357142D01*
X50978628Y-124357142D02*
X50978628Y-124738094D01*
X50788152Y-123309523D02*
X51454819Y-123309523D01*
X50407200Y-123547618D02*
X51121485Y-123785713D01*
X51121485Y-123785713D02*
X51121485Y-123166666D01*
X51954819Y-121714285D02*
X51954819Y-122190475D01*
X51954819Y-122190475D02*
X52431009Y-122238094D01*
X52431009Y-122238094D02*
X52383390Y-122190475D01*
X52383390Y-122190475D02*
X52335771Y-122095237D01*
X52335771Y-122095237D02*
X52335771Y-121857142D01*
X52335771Y-121857142D02*
X52383390Y-121761904D01*
X52383390Y-121761904D02*
X52431009Y-121714285D01*
X52431009Y-121714285D02*
X52526247Y-121666666D01*
X52526247Y-121666666D02*
X52764342Y-121666666D01*
X52764342Y-121666666D02*
X52859580Y-121714285D01*
X52859580Y-121714285D02*
X52907200Y-121761904D01*
X52907200Y-121761904D02*
X52954819Y-121857142D01*
X52954819Y-121857142D02*
X52954819Y-122095237D01*
X52954819Y-122095237D02*
X52907200Y-122190475D01*
X52907200Y-122190475D02*
X52859580Y-122238094D01*
X51954819Y-121047618D02*
X51954819Y-120952380D01*
X51954819Y-120952380D02*
X52002438Y-120857142D01*
X52002438Y-120857142D02*
X52050057Y-120809523D01*
X52050057Y-120809523D02*
X52145295Y-120761904D01*
X52145295Y-120761904D02*
X52335771Y-120714285D01*
X52335771Y-120714285D02*
X52573866Y-120714285D01*
X52573866Y-120714285D02*
X52764342Y-120761904D01*
X52764342Y-120761904D02*
X52859580Y-120809523D01*
X52859580Y-120809523D02*
X52907200Y-120857142D01*
X52907200Y-120857142D02*
X52954819Y-120952380D01*
X52954819Y-120952380D02*
X52954819Y-121047618D01*
X52954819Y-121047618D02*
X52907200Y-121142856D01*
X52907200Y-121142856D02*
X52859580Y-121190475D01*
X52859580Y-121190475D02*
X52764342Y-121238094D01*
X52764342Y-121238094D02*
X52573866Y-121285713D01*
X52573866Y-121285713D02*
X52335771Y-121285713D01*
X52335771Y-121285713D02*
X52145295Y-121238094D01*
X52145295Y-121238094D02*
X52050057Y-121190475D01*
X52050057Y-121190475D02*
X52002438Y-121142856D01*
X52002438Y-121142856D02*
X51954819Y-121047618D01*
X51954819Y-120095237D02*
X51954819Y-119999999D01*
X51954819Y-119999999D02*
X52002438Y-119904761D01*
X52002438Y-119904761D02*
X52050057Y-119857142D01*
X52050057Y-119857142D02*
X52145295Y-119809523D01*
X52145295Y-119809523D02*
X52335771Y-119761904D01*
X52335771Y-119761904D02*
X52573866Y-119761904D01*
X52573866Y-119761904D02*
X52764342Y-119809523D01*
X52764342Y-119809523D02*
X52859580Y-119857142D01*
X52859580Y-119857142D02*
X52907200Y-119904761D01*
X52907200Y-119904761D02*
X52954819Y-119999999D01*
X52954819Y-119999999D02*
X52954819Y-120095237D01*
X52954819Y-120095237D02*
X52907200Y-120190475D01*
X52907200Y-120190475D02*
X52859580Y-120238094D01*
X52859580Y-120238094D02*
X52764342Y-120285713D01*
X52764342Y-120285713D02*
X52573866Y-120333332D01*
X52573866Y-120333332D02*
X52335771Y-120333332D01*
X52335771Y-120333332D02*
X52145295Y-120285713D01*
X52145295Y-120285713D02*
X52050057Y-120238094D01*
X52050057Y-120238094D02*
X52002438Y-120190475D01*
X52002438Y-120190475D02*
X51954819Y-120095237D01*
X52954819Y-118761904D02*
X52478628Y-119095237D01*
X52954819Y-119333332D02*
X51954819Y-119333332D01*
X51954819Y-119333332D02*
X51954819Y-118952380D01*
X51954819Y-118952380D02*
X52002438Y-118857142D01*
X52002438Y-118857142D02*
X52050057Y-118809523D01*
X52050057Y-118809523D02*
X52145295Y-118761904D01*
X52145295Y-118761904D02*
X52288152Y-118761904D01*
X52288152Y-118761904D02*
X52383390Y-118809523D01*
X52383390Y-118809523D02*
X52431009Y-118857142D01*
X52431009Y-118857142D02*
X52478628Y-118952380D01*
X52478628Y-118952380D02*
X52478628Y-119333332D01*
X61357142Y-49454819D02*
X61023809Y-48978628D01*
X60785714Y-49454819D02*
X60785714Y-48454819D01*
X60785714Y-48454819D02*
X61166666Y-48454819D01*
X61166666Y-48454819D02*
X61261904Y-48502438D01*
X61261904Y-48502438D02*
X61309523Y-48550057D01*
X61309523Y-48550057D02*
X61357142Y-48645295D01*
X61357142Y-48645295D02*
X61357142Y-48788152D01*
X61357142Y-48788152D02*
X61309523Y-48883390D01*
X61309523Y-48883390D02*
X61261904Y-48931009D01*
X61261904Y-48931009D02*
X61166666Y-48978628D01*
X61166666Y-48978628D02*
X60785714Y-48978628D01*
X62309523Y-49454819D02*
X61738095Y-49454819D01*
X62023809Y-49454819D02*
X62023809Y-48454819D01*
X62023809Y-48454819D02*
X61928571Y-48597676D01*
X61928571Y-48597676D02*
X61833333Y-48692914D01*
X61833333Y-48692914D02*
X61738095Y-48740533D01*
X63166666Y-48788152D02*
X63166666Y-49454819D01*
X62928571Y-48407200D02*
X62690476Y-49121485D01*
X62690476Y-49121485D02*
X63309523Y-49121485D01*
X62809523Y-50788152D02*
X62809523Y-51454819D01*
X62571428Y-50407200D02*
X62333333Y-51121485D01*
X62333333Y-51121485D02*
X62952380Y-51121485D01*
X63333333Y-51454819D02*
X63333333Y-50454819D01*
X63428571Y-51073866D02*
X63714285Y-51454819D01*
X63714285Y-50788152D02*
X63333333Y-51169104D01*
X64047619Y-50454819D02*
X64714285Y-50454819D01*
X64714285Y-50454819D02*
X64285714Y-51454819D01*
X70454819Y-127642857D02*
X69978628Y-127976190D01*
X70454819Y-128214285D02*
X69454819Y-128214285D01*
X69454819Y-128214285D02*
X69454819Y-127833333D01*
X69454819Y-127833333D02*
X69502438Y-127738095D01*
X69502438Y-127738095D02*
X69550057Y-127690476D01*
X69550057Y-127690476D02*
X69645295Y-127642857D01*
X69645295Y-127642857D02*
X69788152Y-127642857D01*
X69788152Y-127642857D02*
X69883390Y-127690476D01*
X69883390Y-127690476D02*
X69931009Y-127738095D01*
X69931009Y-127738095D02*
X69978628Y-127833333D01*
X69978628Y-127833333D02*
X69978628Y-128214285D01*
X70454819Y-126690476D02*
X70454819Y-127261904D01*
X70454819Y-126976190D02*
X69454819Y-126976190D01*
X69454819Y-126976190D02*
X69597676Y-127071428D01*
X69597676Y-127071428D02*
X69692914Y-127166666D01*
X69692914Y-127166666D02*
X69740533Y-127261904D01*
X69550057Y-126309523D02*
X69502438Y-126261904D01*
X69502438Y-126261904D02*
X69454819Y-126166666D01*
X69454819Y-126166666D02*
X69454819Y-125928571D01*
X69454819Y-125928571D02*
X69502438Y-125833333D01*
X69502438Y-125833333D02*
X69550057Y-125785714D01*
X69550057Y-125785714D02*
X69645295Y-125738095D01*
X69645295Y-125738095D02*
X69740533Y-125738095D01*
X69740533Y-125738095D02*
X69883390Y-125785714D01*
X69883390Y-125785714D02*
X70454819Y-126357142D01*
X70454819Y-126357142D02*
X70454819Y-125738095D01*
X71954819Y-123714285D02*
X71954819Y-124285713D01*
X71954819Y-123999999D02*
X70954819Y-123999999D01*
X70954819Y-123999999D02*
X71097676Y-124095237D01*
X71097676Y-124095237D02*
X71192914Y-124190475D01*
X71192914Y-124190475D02*
X71240533Y-124285713D01*
X71954819Y-123285713D02*
X70954819Y-123285713D01*
X71954819Y-122714285D02*
X71383390Y-123142856D01*
X70954819Y-122714285D02*
X71526247Y-123285713D01*
X46651190Y-85819819D02*
X46175000Y-85819819D01*
X46175000Y-85819819D02*
X46175000Y-84819819D01*
X47317857Y-85296009D02*
X46984524Y-85296009D01*
X46984524Y-85819819D02*
X46984524Y-84819819D01*
X46984524Y-84819819D02*
X47460714Y-84819819D01*
X48032143Y-84819819D02*
X48222619Y-84819819D01*
X48222619Y-84819819D02*
X48317857Y-84867438D01*
X48317857Y-84867438D02*
X48413095Y-84962676D01*
X48413095Y-84962676D02*
X48460714Y-85153152D01*
X48460714Y-85153152D02*
X48460714Y-85486485D01*
X48460714Y-85486485D02*
X48413095Y-85676961D01*
X48413095Y-85676961D02*
X48317857Y-85772200D01*
X48317857Y-85772200D02*
X48222619Y-85819819D01*
X48222619Y-85819819D02*
X48032143Y-85819819D01*
X48032143Y-85819819D02*
X47936905Y-85772200D01*
X47936905Y-85772200D02*
X47841667Y-85676961D01*
X47841667Y-85676961D02*
X47794048Y-85486485D01*
X47794048Y-85486485D02*
X47794048Y-85153152D01*
X47794048Y-85153152D02*
X47841667Y-84962676D01*
X47841667Y-84962676D02*
X47936905Y-84867438D01*
X47936905Y-84867438D02*
X48032143Y-84819819D01*
X49222619Y-85296009D02*
X48889286Y-85296009D01*
X48889286Y-85819819D02*
X48889286Y-84819819D01*
X48889286Y-84819819D02*
X49365476Y-84819819D01*
X50317857Y-85819819D02*
X49984524Y-85343628D01*
X49746429Y-85819819D02*
X49746429Y-84819819D01*
X49746429Y-84819819D02*
X50127381Y-84819819D01*
X50127381Y-84819819D02*
X50222619Y-84867438D01*
X50222619Y-84867438D02*
X50270238Y-84915057D01*
X50270238Y-84915057D02*
X50317857Y-85010295D01*
X50317857Y-85010295D02*
X50317857Y-85153152D01*
X50317857Y-85153152D02*
X50270238Y-85248390D01*
X50270238Y-85248390D02*
X50222619Y-85296009D01*
X50222619Y-85296009D02*
X50127381Y-85343628D01*
X50127381Y-85343628D02*
X49746429Y-85343628D01*
X50746429Y-85296009D02*
X51079762Y-85296009D01*
X51222619Y-85819819D02*
X50746429Y-85819819D01*
X50746429Y-85819819D02*
X50746429Y-84819819D01*
X50746429Y-84819819D02*
X51222619Y-84819819D01*
X52317857Y-85915057D02*
X52222619Y-85867438D01*
X52222619Y-85867438D02*
X52127381Y-85772200D01*
X52127381Y-85772200D02*
X51984524Y-85629342D01*
X51984524Y-85629342D02*
X51889286Y-85581723D01*
X51889286Y-85581723D02*
X51794048Y-85581723D01*
X51841667Y-85819819D02*
X51746429Y-85772200D01*
X51746429Y-85772200D02*
X51651191Y-85676961D01*
X51651191Y-85676961D02*
X51603572Y-85486485D01*
X51603572Y-85486485D02*
X51603572Y-85153152D01*
X51603572Y-85153152D02*
X51651191Y-84962676D01*
X51651191Y-84962676D02*
X51746429Y-84867438D01*
X51746429Y-84867438D02*
X51841667Y-84819819D01*
X51841667Y-84819819D02*
X52032143Y-84819819D01*
X52032143Y-84819819D02*
X52127381Y-84867438D01*
X52127381Y-84867438D02*
X52222619Y-84962676D01*
X52222619Y-84962676D02*
X52270238Y-85153152D01*
X52270238Y-85153152D02*
X52270238Y-85486485D01*
X52270238Y-85486485D02*
X52222619Y-85676961D01*
X52222619Y-85676961D02*
X52127381Y-85772200D01*
X52127381Y-85772200D02*
X52032143Y-85819819D01*
X52032143Y-85819819D02*
X51841667Y-85819819D01*
X53222619Y-85819819D02*
X52651191Y-85819819D01*
X52936905Y-85819819D02*
X52936905Y-84819819D01*
X52936905Y-84819819D02*
X52841667Y-84962676D01*
X52841667Y-84962676D02*
X52746429Y-85057914D01*
X52746429Y-85057914D02*
X52651191Y-85105533D01*
X51261904Y-91454819D02*
X50785714Y-91454819D01*
X50785714Y-91454819D02*
X50738095Y-91931009D01*
X50738095Y-91931009D02*
X50785714Y-91883390D01*
X50785714Y-91883390D02*
X50880952Y-91835771D01*
X50880952Y-91835771D02*
X51119047Y-91835771D01*
X51119047Y-91835771D02*
X51214285Y-91883390D01*
X51214285Y-91883390D02*
X51261904Y-91931009D01*
X51261904Y-91931009D02*
X51309523Y-92026247D01*
X51309523Y-92026247D02*
X51309523Y-92264342D01*
X51309523Y-92264342D02*
X51261904Y-92359580D01*
X51261904Y-92359580D02*
X51214285Y-92407200D01*
X51214285Y-92407200D02*
X51119047Y-92454819D01*
X51119047Y-92454819D02*
X50880952Y-92454819D01*
X50880952Y-92454819D02*
X50785714Y-92407200D01*
X50785714Y-92407200D02*
X50738095Y-92359580D01*
X51928571Y-91454819D02*
X52023809Y-91454819D01*
X52023809Y-91454819D02*
X52119047Y-91502438D01*
X52119047Y-91502438D02*
X52166666Y-91550057D01*
X52166666Y-91550057D02*
X52214285Y-91645295D01*
X52214285Y-91645295D02*
X52261904Y-91835771D01*
X52261904Y-91835771D02*
X52261904Y-92073866D01*
X52261904Y-92073866D02*
X52214285Y-92264342D01*
X52214285Y-92264342D02*
X52166666Y-92359580D01*
X52166666Y-92359580D02*
X52119047Y-92407200D01*
X52119047Y-92407200D02*
X52023809Y-92454819D01*
X52023809Y-92454819D02*
X51928571Y-92454819D01*
X51928571Y-92454819D02*
X51833333Y-92407200D01*
X51833333Y-92407200D02*
X51785714Y-92359580D01*
X51785714Y-92359580D02*
X51738095Y-92264342D01*
X51738095Y-92264342D02*
X51690476Y-92073866D01*
X51690476Y-92073866D02*
X51690476Y-91835771D01*
X51690476Y-91835771D02*
X51738095Y-91645295D01*
X51738095Y-91645295D02*
X51785714Y-91550057D01*
X51785714Y-91550057D02*
X51833333Y-91502438D01*
X51833333Y-91502438D02*
X51928571Y-91454819D01*
X52690476Y-92454819D02*
X52690476Y-91454819D01*
X53261904Y-92454819D02*
X52833333Y-91883390D01*
X53261904Y-91454819D02*
X52690476Y-92026247D01*
X60357142Y-65954819D02*
X60023809Y-65478628D01*
X59785714Y-65954819D02*
X59785714Y-64954819D01*
X59785714Y-64954819D02*
X60166666Y-64954819D01*
X60166666Y-64954819D02*
X60261904Y-65002438D01*
X60261904Y-65002438D02*
X60309523Y-65050057D01*
X60309523Y-65050057D02*
X60357142Y-65145295D01*
X60357142Y-65145295D02*
X60357142Y-65288152D01*
X60357142Y-65288152D02*
X60309523Y-65383390D01*
X60309523Y-65383390D02*
X60261904Y-65431009D01*
X60261904Y-65431009D02*
X60166666Y-65478628D01*
X60166666Y-65478628D02*
X59785714Y-65478628D01*
X61309523Y-65954819D02*
X60738095Y-65954819D01*
X61023809Y-65954819D02*
X61023809Y-64954819D01*
X61023809Y-64954819D02*
X60928571Y-65097676D01*
X60928571Y-65097676D02*
X60833333Y-65192914D01*
X60833333Y-65192914D02*
X60738095Y-65240533D01*
X62214285Y-64954819D02*
X61738095Y-64954819D01*
X61738095Y-64954819D02*
X61690476Y-65431009D01*
X61690476Y-65431009D02*
X61738095Y-65383390D01*
X61738095Y-65383390D02*
X61833333Y-65335771D01*
X61833333Y-65335771D02*
X62071428Y-65335771D01*
X62071428Y-65335771D02*
X62166666Y-65383390D01*
X62166666Y-65383390D02*
X62214285Y-65431009D01*
X62214285Y-65431009D02*
X62261904Y-65526247D01*
X62261904Y-65526247D02*
X62261904Y-65764342D01*
X62261904Y-65764342D02*
X62214285Y-65859580D01*
X62214285Y-65859580D02*
X62166666Y-65907200D01*
X62166666Y-65907200D02*
X62071428Y-65954819D01*
X62071428Y-65954819D02*
X61833333Y-65954819D01*
X61833333Y-65954819D02*
X61738095Y-65907200D01*
X61738095Y-65907200D02*
X61690476Y-65859580D01*
X66285714Y-66954819D02*
X65714286Y-66954819D01*
X66000000Y-66954819D02*
X66000000Y-65954819D01*
X66000000Y-65954819D02*
X65904762Y-66097676D01*
X65904762Y-66097676D02*
X65809524Y-66192914D01*
X65809524Y-66192914D02*
X65714286Y-66240533D01*
X66714286Y-66954819D02*
X66714286Y-65954819D01*
X67285714Y-66954819D02*
X66857143Y-66383390D01*
X67285714Y-65954819D02*
X66714286Y-66526247D01*
X51664009Y-111509392D02*
X51283056Y-111776059D01*
X51664009Y-111966535D02*
X50864009Y-111966535D01*
X50864009Y-111966535D02*
X50864009Y-111661773D01*
X50864009Y-111661773D02*
X50902104Y-111585583D01*
X50902104Y-111585583D02*
X50940199Y-111547488D01*
X50940199Y-111547488D02*
X51016390Y-111509392D01*
X51016390Y-111509392D02*
X51130675Y-111509392D01*
X51130675Y-111509392D02*
X51206866Y-111547488D01*
X51206866Y-111547488D02*
X51244961Y-111585583D01*
X51244961Y-111585583D02*
X51283056Y-111661773D01*
X51283056Y-111661773D02*
X51283056Y-111966535D01*
X51664009Y-110747488D02*
X51664009Y-111204631D01*
X51664009Y-110976059D02*
X50864009Y-110976059D01*
X50864009Y-110976059D02*
X50978294Y-111052250D01*
X50978294Y-111052250D02*
X51054485Y-111128440D01*
X51054485Y-111128440D02*
X51092580Y-111204631D01*
X50864009Y-110061773D02*
X50864009Y-110214154D01*
X50864009Y-110214154D02*
X50902104Y-110290345D01*
X50902104Y-110290345D02*
X50940199Y-110328440D01*
X50940199Y-110328440D02*
X51054485Y-110404630D01*
X51054485Y-110404630D02*
X51206866Y-110442726D01*
X51206866Y-110442726D02*
X51511628Y-110442726D01*
X51511628Y-110442726D02*
X51587818Y-110404630D01*
X51587818Y-110404630D02*
X51625914Y-110366535D01*
X51625914Y-110366535D02*
X51664009Y-110290345D01*
X51664009Y-110290345D02*
X51664009Y-110137964D01*
X51664009Y-110137964D02*
X51625914Y-110061773D01*
X51625914Y-110061773D02*
X51587818Y-110023678D01*
X51587818Y-110023678D02*
X51511628Y-109985583D01*
X51511628Y-109985583D02*
X51321152Y-109985583D01*
X51321152Y-109985583D02*
X51244961Y-110023678D01*
X51244961Y-110023678D02*
X51206866Y-110061773D01*
X51206866Y-110061773D02*
X51168771Y-110137964D01*
X51168771Y-110137964D02*
X51168771Y-110290345D01*
X51168771Y-110290345D02*
X51206866Y-110366535D01*
X51206866Y-110366535D02*
X51244961Y-110404630D01*
X51244961Y-110404630D02*
X51321152Y-110442726D01*
X50362295Y-115243333D02*
X50362295Y-115700476D01*
X50362295Y-115471904D02*
X49562295Y-115471904D01*
X49562295Y-115471904D02*
X49676580Y-115548095D01*
X49676580Y-115548095D02*
X49752771Y-115624285D01*
X49752771Y-115624285D02*
X49790866Y-115700476D01*
X49562295Y-114748094D02*
X49562295Y-114671904D01*
X49562295Y-114671904D02*
X49600390Y-114595713D01*
X49600390Y-114595713D02*
X49638485Y-114557618D01*
X49638485Y-114557618D02*
X49714676Y-114519523D01*
X49714676Y-114519523D02*
X49867057Y-114481428D01*
X49867057Y-114481428D02*
X50057533Y-114481428D01*
X50057533Y-114481428D02*
X50209914Y-114519523D01*
X50209914Y-114519523D02*
X50286104Y-114557618D01*
X50286104Y-114557618D02*
X50324200Y-114595713D01*
X50324200Y-114595713D02*
X50362295Y-114671904D01*
X50362295Y-114671904D02*
X50362295Y-114748094D01*
X50362295Y-114748094D02*
X50324200Y-114824285D01*
X50324200Y-114824285D02*
X50286104Y-114862380D01*
X50286104Y-114862380D02*
X50209914Y-114900475D01*
X50209914Y-114900475D02*
X50057533Y-114938571D01*
X50057533Y-114938571D02*
X49867057Y-114938571D01*
X49867057Y-114938571D02*
X49714676Y-114900475D01*
X49714676Y-114900475D02*
X49638485Y-114862380D01*
X49638485Y-114862380D02*
X49600390Y-114824285D01*
X49600390Y-114824285D02*
X49562295Y-114748094D01*
X49562295Y-113986189D02*
X49562295Y-113909999D01*
X49562295Y-113909999D02*
X49600390Y-113833808D01*
X49600390Y-113833808D02*
X49638485Y-113795713D01*
X49638485Y-113795713D02*
X49714676Y-113757618D01*
X49714676Y-113757618D02*
X49867057Y-113719523D01*
X49867057Y-113719523D02*
X50057533Y-113719523D01*
X50057533Y-113719523D02*
X50209914Y-113757618D01*
X50209914Y-113757618D02*
X50286104Y-113795713D01*
X50286104Y-113795713D02*
X50324200Y-113833808D01*
X50324200Y-113833808D02*
X50362295Y-113909999D01*
X50362295Y-113909999D02*
X50362295Y-113986189D01*
X50362295Y-113986189D02*
X50324200Y-114062380D01*
X50324200Y-114062380D02*
X50286104Y-114100475D01*
X50286104Y-114100475D02*
X50209914Y-114138570D01*
X50209914Y-114138570D02*
X50057533Y-114176666D01*
X50057533Y-114176666D02*
X49867057Y-114176666D01*
X49867057Y-114176666D02*
X49714676Y-114138570D01*
X49714676Y-114138570D02*
X49638485Y-114100475D01*
X49638485Y-114100475D02*
X49600390Y-114062380D01*
X49600390Y-114062380D02*
X49562295Y-113986189D01*
X50362295Y-113376665D02*
X49562295Y-113376665D01*
X50362295Y-112919522D02*
X49905152Y-113262380D01*
X49562295Y-112919522D02*
X50019438Y-113376665D01*
X64454819Y-110666666D02*
X63978628Y-110999999D01*
X64454819Y-111238094D02*
X63454819Y-111238094D01*
X63454819Y-111238094D02*
X63454819Y-110857142D01*
X63454819Y-110857142D02*
X63502438Y-110761904D01*
X63502438Y-110761904D02*
X63550057Y-110714285D01*
X63550057Y-110714285D02*
X63645295Y-110666666D01*
X63645295Y-110666666D02*
X63788152Y-110666666D01*
X63788152Y-110666666D02*
X63883390Y-110714285D01*
X63883390Y-110714285D02*
X63931009Y-110761904D01*
X63931009Y-110761904D02*
X63978628Y-110857142D01*
X63978628Y-110857142D02*
X63978628Y-111238094D01*
X63883390Y-110095237D02*
X63835771Y-110190475D01*
X63835771Y-110190475D02*
X63788152Y-110238094D01*
X63788152Y-110238094D02*
X63692914Y-110285713D01*
X63692914Y-110285713D02*
X63645295Y-110285713D01*
X63645295Y-110285713D02*
X63550057Y-110238094D01*
X63550057Y-110238094D02*
X63502438Y-110190475D01*
X63502438Y-110190475D02*
X63454819Y-110095237D01*
X63454819Y-110095237D02*
X63454819Y-109904761D01*
X63454819Y-109904761D02*
X63502438Y-109809523D01*
X63502438Y-109809523D02*
X63550057Y-109761904D01*
X63550057Y-109761904D02*
X63645295Y-109714285D01*
X63645295Y-109714285D02*
X63692914Y-109714285D01*
X63692914Y-109714285D02*
X63788152Y-109761904D01*
X63788152Y-109761904D02*
X63835771Y-109809523D01*
X63835771Y-109809523D02*
X63883390Y-109904761D01*
X63883390Y-109904761D02*
X63883390Y-110095237D01*
X63883390Y-110095237D02*
X63931009Y-110190475D01*
X63931009Y-110190475D02*
X63978628Y-110238094D01*
X63978628Y-110238094D02*
X64073866Y-110285713D01*
X64073866Y-110285713D02*
X64264342Y-110285713D01*
X64264342Y-110285713D02*
X64359580Y-110238094D01*
X64359580Y-110238094D02*
X64407200Y-110190475D01*
X64407200Y-110190475D02*
X64454819Y-110095237D01*
X64454819Y-110095237D02*
X64454819Y-109904761D01*
X64454819Y-109904761D02*
X64407200Y-109809523D01*
X64407200Y-109809523D02*
X64359580Y-109761904D01*
X64359580Y-109761904D02*
X64264342Y-109714285D01*
X64264342Y-109714285D02*
X64073866Y-109714285D01*
X64073866Y-109714285D02*
X63978628Y-109761904D01*
X63978628Y-109761904D02*
X63931009Y-109809523D01*
X63931009Y-109809523D02*
X63883390Y-109904761D01*
X65050057Y-108999999D02*
X65002438Y-108952380D01*
X65002438Y-108952380D02*
X64954819Y-108857142D01*
X64954819Y-108857142D02*
X64954819Y-108619047D01*
X64954819Y-108619047D02*
X65002438Y-108523809D01*
X65002438Y-108523809D02*
X65050057Y-108476190D01*
X65050057Y-108476190D02*
X65145295Y-108428571D01*
X65145295Y-108428571D02*
X65240533Y-108428571D01*
X65240533Y-108428571D02*
X65383390Y-108476190D01*
X65383390Y-108476190D02*
X65954819Y-109047618D01*
X65954819Y-109047618D02*
X65954819Y-108428571D01*
X65859580Y-107999999D02*
X65907200Y-107952380D01*
X65907200Y-107952380D02*
X65954819Y-107999999D01*
X65954819Y-107999999D02*
X65907200Y-108047618D01*
X65907200Y-108047618D02*
X65859580Y-107999999D01*
X65859580Y-107999999D02*
X65954819Y-107999999D01*
X65050057Y-107571428D02*
X65002438Y-107523809D01*
X65002438Y-107523809D02*
X64954819Y-107428571D01*
X64954819Y-107428571D02*
X64954819Y-107190476D01*
X64954819Y-107190476D02*
X65002438Y-107095238D01*
X65002438Y-107095238D02*
X65050057Y-107047619D01*
X65050057Y-107047619D02*
X65145295Y-107000000D01*
X65145295Y-107000000D02*
X65240533Y-107000000D01*
X65240533Y-107000000D02*
X65383390Y-107047619D01*
X65383390Y-107047619D02*
X65954819Y-107619047D01*
X65954819Y-107619047D02*
X65954819Y-107000000D01*
X65954819Y-106571428D02*
X64954819Y-106571428D01*
X65954819Y-106000000D02*
X65383390Y-106428571D01*
X64954819Y-106000000D02*
X65526247Y-106571428D01*
X65743095Y-72454819D02*
X65743095Y-73264342D01*
X65743095Y-73264342D02*
X65790714Y-73359580D01*
X65790714Y-73359580D02*
X65838333Y-73407200D01*
X65838333Y-73407200D02*
X65933571Y-73454819D01*
X65933571Y-73454819D02*
X66124047Y-73454819D01*
X66124047Y-73454819D02*
X66219285Y-73407200D01*
X66219285Y-73407200D02*
X66266904Y-73359580D01*
X66266904Y-73359580D02*
X66314523Y-73264342D01*
X66314523Y-73264342D02*
X66314523Y-72454819D01*
X67314523Y-73454819D02*
X66743095Y-73454819D01*
X67028809Y-73454819D02*
X67028809Y-72454819D01*
X67028809Y-72454819D02*
X66933571Y-72597676D01*
X66933571Y-72597676D02*
X66838333Y-72692914D01*
X66838333Y-72692914D02*
X66743095Y-72740533D01*
X64366666Y-76362295D02*
X64366666Y-75562295D01*
X64366666Y-75562295D02*
X64823809Y-76362295D01*
X64823809Y-76362295D02*
X64823809Y-75562295D01*
X65204761Y-75943247D02*
X65471427Y-75943247D01*
X65585713Y-76362295D02*
X65204761Y-76362295D01*
X65204761Y-76362295D02*
X65204761Y-75562295D01*
X65204761Y-75562295D02*
X65585713Y-75562295D01*
X66309523Y-75562295D02*
X65928571Y-75562295D01*
X65928571Y-75562295D02*
X65890475Y-75943247D01*
X65890475Y-75943247D02*
X65928571Y-75905152D01*
X65928571Y-75905152D02*
X66004761Y-75867057D01*
X66004761Y-75867057D02*
X66195237Y-75867057D01*
X66195237Y-75867057D02*
X66271428Y-75905152D01*
X66271428Y-75905152D02*
X66309523Y-75943247D01*
X66309523Y-75943247D02*
X66347618Y-76019438D01*
X66347618Y-76019438D02*
X66347618Y-76209914D01*
X66347618Y-76209914D02*
X66309523Y-76286104D01*
X66309523Y-76286104D02*
X66271428Y-76324200D01*
X66271428Y-76324200D02*
X66195237Y-76362295D01*
X66195237Y-76362295D02*
X66004761Y-76362295D01*
X66004761Y-76362295D02*
X65928571Y-76324200D01*
X65928571Y-76324200D02*
X65890475Y-76286104D01*
X67071428Y-75562295D02*
X66690476Y-75562295D01*
X66690476Y-75562295D02*
X66652380Y-75943247D01*
X66652380Y-75943247D02*
X66690476Y-75905152D01*
X66690476Y-75905152D02*
X66766666Y-75867057D01*
X66766666Y-75867057D02*
X66957142Y-75867057D01*
X66957142Y-75867057D02*
X67033333Y-75905152D01*
X67033333Y-75905152D02*
X67071428Y-75943247D01*
X67071428Y-75943247D02*
X67109523Y-76019438D01*
X67109523Y-76019438D02*
X67109523Y-76209914D01*
X67109523Y-76209914D02*
X67071428Y-76286104D01*
X67071428Y-76286104D02*
X67033333Y-76324200D01*
X67033333Y-76324200D02*
X66957142Y-76362295D01*
X66957142Y-76362295D02*
X66766666Y-76362295D01*
X66766666Y-76362295D02*
X66690476Y-76324200D01*
X66690476Y-76324200D02*
X66652380Y-76286104D01*
X67833333Y-75562295D02*
X67452381Y-75562295D01*
X67452381Y-75562295D02*
X67414285Y-75943247D01*
X67414285Y-75943247D02*
X67452381Y-75905152D01*
X67452381Y-75905152D02*
X67528571Y-75867057D01*
X67528571Y-75867057D02*
X67719047Y-75867057D01*
X67719047Y-75867057D02*
X67795238Y-75905152D01*
X67795238Y-75905152D02*
X67833333Y-75943247D01*
X67833333Y-75943247D02*
X67871428Y-76019438D01*
X67871428Y-76019438D02*
X67871428Y-76209914D01*
X67871428Y-76209914D02*
X67833333Y-76286104D01*
X67833333Y-76286104D02*
X67795238Y-76324200D01*
X67795238Y-76324200D02*
X67719047Y-76362295D01*
X67719047Y-76362295D02*
X67528571Y-76362295D01*
X67528571Y-76362295D02*
X67452381Y-76324200D01*
X67452381Y-76324200D02*
X67414285Y-76286104D01*
X68214286Y-76362295D02*
X68214286Y-75562295D01*
X68214286Y-75562295D02*
X68519048Y-75562295D01*
X68519048Y-75562295D02*
X68595238Y-75600390D01*
X68595238Y-75600390D02*
X68633333Y-75638485D01*
X68633333Y-75638485D02*
X68671429Y-75714676D01*
X68671429Y-75714676D02*
X68671429Y-75828961D01*
X68671429Y-75828961D02*
X68633333Y-75905152D01*
X68633333Y-75905152D02*
X68595238Y-75943247D01*
X68595238Y-75943247D02*
X68519048Y-75981342D01*
X68519048Y-75981342D02*
X68214286Y-75981342D01*
X60833333Y-81454819D02*
X60500000Y-80978628D01*
X60261905Y-81454819D02*
X60261905Y-80454819D01*
X60261905Y-80454819D02*
X60642857Y-80454819D01*
X60642857Y-80454819D02*
X60738095Y-80502438D01*
X60738095Y-80502438D02*
X60785714Y-80550057D01*
X60785714Y-80550057D02*
X60833333Y-80645295D01*
X60833333Y-80645295D02*
X60833333Y-80788152D01*
X60833333Y-80788152D02*
X60785714Y-80883390D01*
X60785714Y-80883390D02*
X60738095Y-80931009D01*
X60738095Y-80931009D02*
X60642857Y-80978628D01*
X60642857Y-80978628D02*
X60261905Y-80978628D01*
X61785714Y-81454819D02*
X61214286Y-81454819D01*
X61500000Y-81454819D02*
X61500000Y-80454819D01*
X61500000Y-80454819D02*
X61404762Y-80597676D01*
X61404762Y-80597676D02*
X61309524Y-80692914D01*
X61309524Y-80692914D02*
X61214286Y-80740533D01*
X65785714Y-82954819D02*
X65214286Y-82954819D01*
X65500000Y-82954819D02*
X65500000Y-81954819D01*
X65500000Y-81954819D02*
X65404762Y-82097676D01*
X65404762Y-82097676D02*
X65309524Y-82192914D01*
X65309524Y-82192914D02*
X65214286Y-82240533D01*
X66214286Y-82954819D02*
X66214286Y-81954819D01*
X66785714Y-82954819D02*
X66357143Y-82383390D01*
X66785714Y-81954819D02*
X66214286Y-82526247D01*
X48193262Y-102455957D02*
X48098024Y-102408338D01*
X48098024Y-102408338D02*
X48002786Y-102313100D01*
X48002786Y-102313100D02*
X47859929Y-102170242D01*
X47859929Y-102170242D02*
X47764691Y-102122623D01*
X47764691Y-102122623D02*
X47669453Y-102122623D01*
X47717072Y-102360719D02*
X47621834Y-102313100D01*
X47621834Y-102313100D02*
X47526596Y-102217861D01*
X47526596Y-102217861D02*
X47478977Y-102027385D01*
X47478977Y-102027385D02*
X47478977Y-101694052D01*
X47478977Y-101694052D02*
X47526596Y-101503576D01*
X47526596Y-101503576D02*
X47621834Y-101408338D01*
X47621834Y-101408338D02*
X47717072Y-101360719D01*
X47717072Y-101360719D02*
X47907548Y-101360719D01*
X47907548Y-101360719D02*
X48002786Y-101408338D01*
X48002786Y-101408338D02*
X48098024Y-101503576D01*
X48098024Y-101503576D02*
X48145643Y-101694052D01*
X48145643Y-101694052D02*
X48145643Y-102027385D01*
X48145643Y-102027385D02*
X48098024Y-102217861D01*
X48098024Y-102217861D02*
X48002786Y-102313100D01*
X48002786Y-102313100D02*
X47907548Y-102360719D01*
X47907548Y-102360719D02*
X47717072Y-102360719D01*
X49098024Y-102360719D02*
X48526596Y-102360719D01*
X48812310Y-102360719D02*
X48812310Y-101360719D01*
X48812310Y-101360719D02*
X48717072Y-101503576D01*
X48717072Y-101503576D02*
X48621834Y-101598814D01*
X48621834Y-101598814D02*
X48526596Y-101646433D01*
X46867868Y-104130438D02*
X46982154Y-104168533D01*
X46982154Y-104168533D02*
X47020249Y-104206629D01*
X47020249Y-104206629D02*
X47058345Y-104282819D01*
X47058345Y-104282819D02*
X47058345Y-104397105D01*
X47058345Y-104397105D02*
X47020249Y-104473295D01*
X47020249Y-104473295D02*
X46982154Y-104511391D01*
X46982154Y-104511391D02*
X46905964Y-104549486D01*
X46905964Y-104549486D02*
X46601202Y-104549486D01*
X46601202Y-104549486D02*
X46601202Y-103749486D01*
X46601202Y-103749486D02*
X46867868Y-103749486D01*
X46867868Y-103749486D02*
X46944059Y-103787581D01*
X46944059Y-103787581D02*
X46982154Y-103825676D01*
X46982154Y-103825676D02*
X47020249Y-103901867D01*
X47020249Y-103901867D02*
X47020249Y-103978057D01*
X47020249Y-103978057D02*
X46982154Y-104054248D01*
X46982154Y-104054248D02*
X46944059Y-104092343D01*
X46944059Y-104092343D02*
X46867868Y-104130438D01*
X46867868Y-104130438D02*
X46601202Y-104130438D01*
X47858345Y-104473295D02*
X47820249Y-104511391D01*
X47820249Y-104511391D02*
X47705964Y-104549486D01*
X47705964Y-104549486D02*
X47629773Y-104549486D01*
X47629773Y-104549486D02*
X47515487Y-104511391D01*
X47515487Y-104511391D02*
X47439297Y-104435200D01*
X47439297Y-104435200D02*
X47401202Y-104359010D01*
X47401202Y-104359010D02*
X47363106Y-104206629D01*
X47363106Y-104206629D02*
X47363106Y-104092343D01*
X47363106Y-104092343D02*
X47401202Y-103939962D01*
X47401202Y-103939962D02*
X47439297Y-103863771D01*
X47439297Y-103863771D02*
X47515487Y-103787581D01*
X47515487Y-103787581D02*
X47629773Y-103749486D01*
X47629773Y-103749486D02*
X47705964Y-103749486D01*
X47705964Y-103749486D02*
X47820249Y-103787581D01*
X47820249Y-103787581D02*
X47858345Y-103825676D01*
X48582154Y-103749486D02*
X48201202Y-103749486D01*
X48201202Y-103749486D02*
X48163106Y-104130438D01*
X48163106Y-104130438D02*
X48201202Y-104092343D01*
X48201202Y-104092343D02*
X48277392Y-104054248D01*
X48277392Y-104054248D02*
X48467868Y-104054248D01*
X48467868Y-104054248D02*
X48544059Y-104092343D01*
X48544059Y-104092343D02*
X48582154Y-104130438D01*
X48582154Y-104130438D02*
X48620249Y-104206629D01*
X48620249Y-104206629D02*
X48620249Y-104397105D01*
X48620249Y-104397105D02*
X48582154Y-104473295D01*
X48582154Y-104473295D02*
X48544059Y-104511391D01*
X48544059Y-104511391D02*
X48467868Y-104549486D01*
X48467868Y-104549486D02*
X48277392Y-104549486D01*
X48277392Y-104549486D02*
X48201202Y-104511391D01*
X48201202Y-104511391D02*
X48163106Y-104473295D01*
X49305964Y-104016152D02*
X49305964Y-104549486D01*
X49115488Y-103711391D02*
X48925011Y-104282819D01*
X48925011Y-104282819D02*
X49420250Y-104282819D01*
X49839297Y-104092343D02*
X49763107Y-104054248D01*
X49763107Y-104054248D02*
X49725012Y-104016152D01*
X49725012Y-104016152D02*
X49686916Y-103939962D01*
X49686916Y-103939962D02*
X49686916Y-103901867D01*
X49686916Y-103901867D02*
X49725012Y-103825676D01*
X49725012Y-103825676D02*
X49763107Y-103787581D01*
X49763107Y-103787581D02*
X49839297Y-103749486D01*
X49839297Y-103749486D02*
X49991678Y-103749486D01*
X49991678Y-103749486D02*
X50067869Y-103787581D01*
X50067869Y-103787581D02*
X50105964Y-103825676D01*
X50105964Y-103825676D02*
X50144059Y-103901867D01*
X50144059Y-103901867D02*
X50144059Y-103939962D01*
X50144059Y-103939962D02*
X50105964Y-104016152D01*
X50105964Y-104016152D02*
X50067869Y-104054248D01*
X50067869Y-104054248D02*
X49991678Y-104092343D01*
X49991678Y-104092343D02*
X49839297Y-104092343D01*
X49839297Y-104092343D02*
X49763107Y-104130438D01*
X49763107Y-104130438D02*
X49725012Y-104168533D01*
X49725012Y-104168533D02*
X49686916Y-104244724D01*
X49686916Y-104244724D02*
X49686916Y-104397105D01*
X49686916Y-104397105D02*
X49725012Y-104473295D01*
X49725012Y-104473295D02*
X49763107Y-104511391D01*
X49763107Y-104511391D02*
X49839297Y-104549486D01*
X49839297Y-104549486D02*
X49991678Y-104549486D01*
X49991678Y-104549486D02*
X50067869Y-104511391D01*
X50067869Y-104511391D02*
X50105964Y-104473295D01*
X50105964Y-104473295D02*
X50144059Y-104397105D01*
X50144059Y-104397105D02*
X50144059Y-104244724D01*
X50144059Y-104244724D02*
X50105964Y-104168533D01*
X50105964Y-104168533D02*
X50067869Y-104130438D01*
X50067869Y-104130438D02*
X49991678Y-104092343D01*
X56859580Y-56166666D02*
X56907200Y-56214285D01*
X56907200Y-56214285D02*
X56954819Y-56357142D01*
X56954819Y-56357142D02*
X56954819Y-56452380D01*
X56954819Y-56452380D02*
X56907200Y-56595237D01*
X56907200Y-56595237D02*
X56811961Y-56690475D01*
X56811961Y-56690475D02*
X56716723Y-56738094D01*
X56716723Y-56738094D02*
X56526247Y-56785713D01*
X56526247Y-56785713D02*
X56383390Y-56785713D01*
X56383390Y-56785713D02*
X56192914Y-56738094D01*
X56192914Y-56738094D02*
X56097676Y-56690475D01*
X56097676Y-56690475D02*
X56002438Y-56595237D01*
X56002438Y-56595237D02*
X55954819Y-56452380D01*
X55954819Y-56452380D02*
X55954819Y-56357142D01*
X55954819Y-56357142D02*
X56002438Y-56214285D01*
X56002438Y-56214285D02*
X56050057Y-56166666D01*
X56288152Y-55309523D02*
X56954819Y-55309523D01*
X55907200Y-55547618D02*
X56621485Y-55785713D01*
X56621485Y-55785713D02*
X56621485Y-55166666D01*
X58504819Y-54297619D02*
X58504819Y-54869047D01*
X58504819Y-54583333D02*
X57504819Y-54583333D01*
X57504819Y-54583333D02*
X57647676Y-54678571D01*
X57647676Y-54678571D02*
X57742914Y-54773809D01*
X57742914Y-54773809D02*
X57790533Y-54869047D01*
X57504819Y-53678571D02*
X57504819Y-53583333D01*
X57504819Y-53583333D02*
X57552438Y-53488095D01*
X57552438Y-53488095D02*
X57600057Y-53440476D01*
X57600057Y-53440476D02*
X57695295Y-53392857D01*
X57695295Y-53392857D02*
X57885771Y-53345238D01*
X57885771Y-53345238D02*
X58123866Y-53345238D01*
X58123866Y-53345238D02*
X58314342Y-53392857D01*
X58314342Y-53392857D02*
X58409580Y-53440476D01*
X58409580Y-53440476D02*
X58457200Y-53488095D01*
X58457200Y-53488095D02*
X58504819Y-53583333D01*
X58504819Y-53583333D02*
X58504819Y-53678571D01*
X58504819Y-53678571D02*
X58457200Y-53773809D01*
X58457200Y-53773809D02*
X58409580Y-53821428D01*
X58409580Y-53821428D02*
X58314342Y-53869047D01*
X58314342Y-53869047D02*
X58123866Y-53916666D01*
X58123866Y-53916666D02*
X57885771Y-53916666D01*
X57885771Y-53916666D02*
X57695295Y-53869047D01*
X57695295Y-53869047D02*
X57600057Y-53821428D01*
X57600057Y-53821428D02*
X57552438Y-53773809D01*
X57552438Y-53773809D02*
X57504819Y-53678571D01*
X57504819Y-52726190D02*
X57504819Y-52630952D01*
X57504819Y-52630952D02*
X57552438Y-52535714D01*
X57552438Y-52535714D02*
X57600057Y-52488095D01*
X57600057Y-52488095D02*
X57695295Y-52440476D01*
X57695295Y-52440476D02*
X57885771Y-52392857D01*
X57885771Y-52392857D02*
X58123866Y-52392857D01*
X58123866Y-52392857D02*
X58314342Y-52440476D01*
X58314342Y-52440476D02*
X58409580Y-52488095D01*
X58409580Y-52488095D02*
X58457200Y-52535714D01*
X58457200Y-52535714D02*
X58504819Y-52630952D01*
X58504819Y-52630952D02*
X58504819Y-52726190D01*
X58504819Y-52726190D02*
X58457200Y-52821428D01*
X58457200Y-52821428D02*
X58409580Y-52869047D01*
X58409580Y-52869047D02*
X58314342Y-52916666D01*
X58314342Y-52916666D02*
X58123866Y-52964285D01*
X58123866Y-52964285D02*
X57885771Y-52964285D01*
X57885771Y-52964285D02*
X57695295Y-52916666D01*
X57695295Y-52916666D02*
X57600057Y-52869047D01*
X57600057Y-52869047D02*
X57552438Y-52821428D01*
X57552438Y-52821428D02*
X57504819Y-52726190D01*
X57838152Y-51964285D02*
X58504819Y-51964285D01*
X57933390Y-51964285D02*
X57885771Y-51916666D01*
X57885771Y-51916666D02*
X57838152Y-51821428D01*
X57838152Y-51821428D02*
X57838152Y-51678571D01*
X57838152Y-51678571D02*
X57885771Y-51583333D01*
X57885771Y-51583333D02*
X57981009Y-51535714D01*
X57981009Y-51535714D02*
X58504819Y-51535714D01*
X57981009Y-50726190D02*
X57981009Y-51059523D01*
X58504819Y-51059523D02*
X57504819Y-51059523D01*
X57504819Y-51059523D02*
X57504819Y-50583333D01*
X62136666Y-85754819D02*
X62136666Y-86469104D01*
X62136666Y-86469104D02*
X62089047Y-86611961D01*
X62089047Y-86611961D02*
X61993809Y-86707200D01*
X61993809Y-86707200D02*
X61850952Y-86754819D01*
X61850952Y-86754819D02*
X61755714Y-86754819D01*
X63136666Y-86754819D02*
X62565238Y-86754819D01*
X62850952Y-86754819D02*
X62850952Y-85754819D01*
X62850952Y-85754819D02*
X62755714Y-85897676D01*
X62755714Y-85897676D02*
X62660476Y-85992914D01*
X62660476Y-85992914D02*
X62565238Y-86040533D01*
X64047618Y-94954819D02*
X63571428Y-94954819D01*
X63571428Y-94954819D02*
X63571428Y-93954819D01*
X64714285Y-94431009D02*
X64380952Y-94431009D01*
X64380952Y-94954819D02*
X64380952Y-93954819D01*
X64380952Y-93954819D02*
X64857142Y-93954819D01*
X65428571Y-93954819D02*
X65619047Y-93954819D01*
X65619047Y-93954819D02*
X65714285Y-94002438D01*
X65714285Y-94002438D02*
X65809523Y-94097676D01*
X65809523Y-94097676D02*
X65857142Y-94288152D01*
X65857142Y-94288152D02*
X65857142Y-94621485D01*
X65857142Y-94621485D02*
X65809523Y-94811961D01*
X65809523Y-94811961D02*
X65714285Y-94907200D01*
X65714285Y-94907200D02*
X65619047Y-94954819D01*
X65619047Y-94954819D02*
X65428571Y-94954819D01*
X65428571Y-94954819D02*
X65333333Y-94907200D01*
X65333333Y-94907200D02*
X65238095Y-94811961D01*
X65238095Y-94811961D02*
X65190476Y-94621485D01*
X65190476Y-94621485D02*
X65190476Y-94288152D01*
X65190476Y-94288152D02*
X65238095Y-94097676D01*
X65238095Y-94097676D02*
X65333333Y-94002438D01*
X65333333Y-94002438D02*
X65428571Y-93954819D01*
X67238095Y-93954819D02*
X67428571Y-93954819D01*
X67428571Y-93954819D02*
X67523809Y-94002438D01*
X67523809Y-94002438D02*
X67619047Y-94097676D01*
X67619047Y-94097676D02*
X67666666Y-94288152D01*
X67666666Y-94288152D02*
X67666666Y-94621485D01*
X67666666Y-94621485D02*
X67619047Y-94811961D01*
X67619047Y-94811961D02*
X67523809Y-94907200D01*
X67523809Y-94907200D02*
X67428571Y-94954819D01*
X67428571Y-94954819D02*
X67238095Y-94954819D01*
X67238095Y-94954819D02*
X67142857Y-94907200D01*
X67142857Y-94907200D02*
X67047619Y-94811961D01*
X67047619Y-94811961D02*
X67000000Y-94621485D01*
X67000000Y-94621485D02*
X67000000Y-94288152D01*
X67000000Y-94288152D02*
X67047619Y-94097676D01*
X67047619Y-94097676D02*
X67142857Y-94002438D01*
X67142857Y-94002438D02*
X67238095Y-93954819D01*
X68095238Y-93954819D02*
X68095238Y-94764342D01*
X68095238Y-94764342D02*
X68142857Y-94859580D01*
X68142857Y-94859580D02*
X68190476Y-94907200D01*
X68190476Y-94907200D02*
X68285714Y-94954819D01*
X68285714Y-94954819D02*
X68476190Y-94954819D01*
X68476190Y-94954819D02*
X68571428Y-94907200D01*
X68571428Y-94907200D02*
X68619047Y-94859580D01*
X68619047Y-94859580D02*
X68666666Y-94764342D01*
X68666666Y-94764342D02*
X68666666Y-93954819D01*
X69000000Y-93954819D02*
X69571428Y-93954819D01*
X69285714Y-94954819D02*
X69285714Y-93954819D01*
X71359580Y-56166666D02*
X71407200Y-56214285D01*
X71407200Y-56214285D02*
X71454819Y-56357142D01*
X71454819Y-56357142D02*
X71454819Y-56452380D01*
X71454819Y-56452380D02*
X71407200Y-56595237D01*
X71407200Y-56595237D02*
X71311961Y-56690475D01*
X71311961Y-56690475D02*
X71216723Y-56738094D01*
X71216723Y-56738094D02*
X71026247Y-56785713D01*
X71026247Y-56785713D02*
X70883390Y-56785713D01*
X70883390Y-56785713D02*
X70692914Y-56738094D01*
X70692914Y-56738094D02*
X70597676Y-56690475D01*
X70597676Y-56690475D02*
X70502438Y-56595237D01*
X70502438Y-56595237D02*
X70454819Y-56452380D01*
X70454819Y-56452380D02*
X70454819Y-56357142D01*
X70454819Y-56357142D02*
X70502438Y-56214285D01*
X70502438Y-56214285D02*
X70550057Y-56166666D01*
X70454819Y-55261904D02*
X70454819Y-55738094D01*
X70454819Y-55738094D02*
X70931009Y-55785713D01*
X70931009Y-55785713D02*
X70883390Y-55738094D01*
X70883390Y-55738094D02*
X70835771Y-55642856D01*
X70835771Y-55642856D02*
X70835771Y-55404761D01*
X70835771Y-55404761D02*
X70883390Y-55309523D01*
X70883390Y-55309523D02*
X70931009Y-55261904D01*
X70931009Y-55261904D02*
X71026247Y-55214285D01*
X71026247Y-55214285D02*
X71264342Y-55214285D01*
X71264342Y-55214285D02*
X71359580Y-55261904D01*
X71359580Y-55261904D02*
X71407200Y-55309523D01*
X71407200Y-55309523D02*
X71454819Y-55404761D01*
X71454819Y-55404761D02*
X71454819Y-55642856D01*
X71454819Y-55642856D02*
X71407200Y-55738094D01*
X71407200Y-55738094D02*
X71359580Y-55785713D01*
X71954819Y-49047619D02*
X71954819Y-49619047D01*
X71954819Y-49333333D02*
X70954819Y-49333333D01*
X70954819Y-49333333D02*
X71097676Y-49428571D01*
X71097676Y-49428571D02*
X71192914Y-49523809D01*
X71192914Y-49523809D02*
X71240533Y-49619047D01*
X70954819Y-48428571D02*
X70954819Y-48333333D01*
X70954819Y-48333333D02*
X71002438Y-48238095D01*
X71002438Y-48238095D02*
X71050057Y-48190476D01*
X71050057Y-48190476D02*
X71145295Y-48142857D01*
X71145295Y-48142857D02*
X71335771Y-48095238D01*
X71335771Y-48095238D02*
X71573866Y-48095238D01*
X71573866Y-48095238D02*
X71764342Y-48142857D01*
X71764342Y-48142857D02*
X71859580Y-48190476D01*
X71859580Y-48190476D02*
X71907200Y-48238095D01*
X71907200Y-48238095D02*
X71954819Y-48333333D01*
X71954819Y-48333333D02*
X71954819Y-48428571D01*
X71954819Y-48428571D02*
X71907200Y-48523809D01*
X71907200Y-48523809D02*
X71859580Y-48571428D01*
X71859580Y-48571428D02*
X71764342Y-48619047D01*
X71764342Y-48619047D02*
X71573866Y-48666666D01*
X71573866Y-48666666D02*
X71335771Y-48666666D01*
X71335771Y-48666666D02*
X71145295Y-48619047D01*
X71145295Y-48619047D02*
X71050057Y-48571428D01*
X71050057Y-48571428D02*
X71002438Y-48523809D01*
X71002438Y-48523809D02*
X70954819Y-48428571D01*
X70954819Y-47476190D02*
X70954819Y-47380952D01*
X70954819Y-47380952D02*
X71002438Y-47285714D01*
X71002438Y-47285714D02*
X71050057Y-47238095D01*
X71050057Y-47238095D02*
X71145295Y-47190476D01*
X71145295Y-47190476D02*
X71335771Y-47142857D01*
X71335771Y-47142857D02*
X71573866Y-47142857D01*
X71573866Y-47142857D02*
X71764342Y-47190476D01*
X71764342Y-47190476D02*
X71859580Y-47238095D01*
X71859580Y-47238095D02*
X71907200Y-47285714D01*
X71907200Y-47285714D02*
X71954819Y-47380952D01*
X71954819Y-47380952D02*
X71954819Y-47476190D01*
X71954819Y-47476190D02*
X71907200Y-47571428D01*
X71907200Y-47571428D02*
X71859580Y-47619047D01*
X71859580Y-47619047D02*
X71764342Y-47666666D01*
X71764342Y-47666666D02*
X71573866Y-47714285D01*
X71573866Y-47714285D02*
X71335771Y-47714285D01*
X71335771Y-47714285D02*
X71145295Y-47666666D01*
X71145295Y-47666666D02*
X71050057Y-47619047D01*
X71050057Y-47619047D02*
X71002438Y-47571428D01*
X71002438Y-47571428D02*
X70954819Y-47476190D01*
X71288152Y-46714285D02*
X71954819Y-46714285D01*
X71383390Y-46714285D02*
X71335771Y-46666666D01*
X71335771Y-46666666D02*
X71288152Y-46571428D01*
X71288152Y-46571428D02*
X71288152Y-46428571D01*
X71288152Y-46428571D02*
X71335771Y-46333333D01*
X71335771Y-46333333D02*
X71431009Y-46285714D01*
X71431009Y-46285714D02*
X71954819Y-46285714D01*
X71431009Y-45476190D02*
X71431009Y-45809523D01*
X71954819Y-45809523D02*
X70954819Y-45809523D01*
X70954819Y-45809523D02*
X70954819Y-45333333D01*
X53238095Y-73954819D02*
X53238095Y-74764342D01*
X53238095Y-74764342D02*
X53285714Y-74859580D01*
X53285714Y-74859580D02*
X53333333Y-74907200D01*
X53333333Y-74907200D02*
X53428571Y-74954819D01*
X53428571Y-74954819D02*
X53619047Y-74954819D01*
X53619047Y-74954819D02*
X53714285Y-74907200D01*
X53714285Y-74907200D02*
X53761904Y-74859580D01*
X53761904Y-74859580D02*
X53809523Y-74764342D01*
X53809523Y-74764342D02*
X53809523Y-73954819D01*
X54238095Y-74050057D02*
X54285714Y-74002438D01*
X54285714Y-74002438D02*
X54380952Y-73954819D01*
X54380952Y-73954819D02*
X54619047Y-73954819D01*
X54619047Y-73954819D02*
X54714285Y-74002438D01*
X54714285Y-74002438D02*
X54761904Y-74050057D01*
X54761904Y-74050057D02*
X54809523Y-74145295D01*
X54809523Y-74145295D02*
X54809523Y-74240533D01*
X54809523Y-74240533D02*
X54761904Y-74383390D01*
X54761904Y-74383390D02*
X54190476Y-74954819D01*
X54190476Y-74954819D02*
X54809523Y-74954819D01*
X51338333Y-84094819D02*
X51338333Y-83094819D01*
X51338333Y-83094819D02*
X51909761Y-84094819D01*
X51909761Y-84094819D02*
X51909761Y-83094819D01*
X52385952Y-83571009D02*
X52719285Y-83571009D01*
X52862142Y-84094819D02*
X52385952Y-84094819D01*
X52385952Y-84094819D02*
X52385952Y-83094819D01*
X52385952Y-83094819D02*
X52862142Y-83094819D01*
X53766904Y-83094819D02*
X53290714Y-83094819D01*
X53290714Y-83094819D02*
X53243095Y-83571009D01*
X53243095Y-83571009D02*
X53290714Y-83523390D01*
X53290714Y-83523390D02*
X53385952Y-83475771D01*
X53385952Y-83475771D02*
X53624047Y-83475771D01*
X53624047Y-83475771D02*
X53719285Y-83523390D01*
X53719285Y-83523390D02*
X53766904Y-83571009D01*
X53766904Y-83571009D02*
X53814523Y-83666247D01*
X53814523Y-83666247D02*
X53814523Y-83904342D01*
X53814523Y-83904342D02*
X53766904Y-83999580D01*
X53766904Y-83999580D02*
X53719285Y-84047200D01*
X53719285Y-84047200D02*
X53624047Y-84094819D01*
X53624047Y-84094819D02*
X53385952Y-84094819D01*
X53385952Y-84094819D02*
X53290714Y-84047200D01*
X53290714Y-84047200D02*
X53243095Y-83999580D01*
X54719285Y-83094819D02*
X54243095Y-83094819D01*
X54243095Y-83094819D02*
X54195476Y-83571009D01*
X54195476Y-83571009D02*
X54243095Y-83523390D01*
X54243095Y-83523390D02*
X54338333Y-83475771D01*
X54338333Y-83475771D02*
X54576428Y-83475771D01*
X54576428Y-83475771D02*
X54671666Y-83523390D01*
X54671666Y-83523390D02*
X54719285Y-83571009D01*
X54719285Y-83571009D02*
X54766904Y-83666247D01*
X54766904Y-83666247D02*
X54766904Y-83904342D01*
X54766904Y-83904342D02*
X54719285Y-83999580D01*
X54719285Y-83999580D02*
X54671666Y-84047200D01*
X54671666Y-84047200D02*
X54576428Y-84094819D01*
X54576428Y-84094819D02*
X54338333Y-84094819D01*
X54338333Y-84094819D02*
X54243095Y-84047200D01*
X54243095Y-84047200D02*
X54195476Y-83999580D01*
X55671666Y-83094819D02*
X55195476Y-83094819D01*
X55195476Y-83094819D02*
X55147857Y-83571009D01*
X55147857Y-83571009D02*
X55195476Y-83523390D01*
X55195476Y-83523390D02*
X55290714Y-83475771D01*
X55290714Y-83475771D02*
X55528809Y-83475771D01*
X55528809Y-83475771D02*
X55624047Y-83523390D01*
X55624047Y-83523390D02*
X55671666Y-83571009D01*
X55671666Y-83571009D02*
X55719285Y-83666247D01*
X55719285Y-83666247D02*
X55719285Y-83904342D01*
X55719285Y-83904342D02*
X55671666Y-83999580D01*
X55671666Y-83999580D02*
X55624047Y-84047200D01*
X55624047Y-84047200D02*
X55528809Y-84094819D01*
X55528809Y-84094819D02*
X55290714Y-84094819D01*
X55290714Y-84094819D02*
X55195476Y-84047200D01*
X55195476Y-84047200D02*
X55147857Y-83999580D01*
X56147857Y-84094819D02*
X56147857Y-83094819D01*
X56147857Y-83094819D02*
X56528809Y-83094819D01*
X56528809Y-83094819D02*
X56624047Y-83142438D01*
X56624047Y-83142438D02*
X56671666Y-83190057D01*
X56671666Y-83190057D02*
X56719285Y-83285295D01*
X56719285Y-83285295D02*
X56719285Y-83428152D01*
X56719285Y-83428152D02*
X56671666Y-83523390D01*
X56671666Y-83523390D02*
X56624047Y-83571009D01*
X56624047Y-83571009D02*
X56528809Y-83618628D01*
X56528809Y-83618628D02*
X56147857Y-83618628D01*
X50833333Y-127454819D02*
X50500000Y-126978628D01*
X50261905Y-127454819D02*
X50261905Y-126454819D01*
X50261905Y-126454819D02*
X50642857Y-126454819D01*
X50642857Y-126454819D02*
X50738095Y-126502438D01*
X50738095Y-126502438D02*
X50785714Y-126550057D01*
X50785714Y-126550057D02*
X50833333Y-126645295D01*
X50833333Y-126645295D02*
X50833333Y-126788152D01*
X50833333Y-126788152D02*
X50785714Y-126883390D01*
X50785714Y-126883390D02*
X50738095Y-126931009D01*
X50738095Y-126931009D02*
X50642857Y-126978628D01*
X50642857Y-126978628D02*
X50261905Y-126978628D01*
X51690476Y-126454819D02*
X51500000Y-126454819D01*
X51500000Y-126454819D02*
X51404762Y-126502438D01*
X51404762Y-126502438D02*
X51357143Y-126550057D01*
X51357143Y-126550057D02*
X51261905Y-126692914D01*
X51261905Y-126692914D02*
X51214286Y-126883390D01*
X51214286Y-126883390D02*
X51214286Y-127264342D01*
X51214286Y-127264342D02*
X51261905Y-127359580D01*
X51261905Y-127359580D02*
X51309524Y-127407200D01*
X51309524Y-127407200D02*
X51404762Y-127454819D01*
X51404762Y-127454819D02*
X51595238Y-127454819D01*
X51595238Y-127454819D02*
X51690476Y-127407200D01*
X51690476Y-127407200D02*
X51738095Y-127359580D01*
X51738095Y-127359580D02*
X51785714Y-127264342D01*
X51785714Y-127264342D02*
X51785714Y-127026247D01*
X51785714Y-127026247D02*
X51738095Y-126931009D01*
X51738095Y-126931009D02*
X51690476Y-126883390D01*
X51690476Y-126883390D02*
X51595238Y-126835771D01*
X51595238Y-126835771D02*
X51404762Y-126835771D01*
X51404762Y-126835771D02*
X51309524Y-126883390D01*
X51309524Y-126883390D02*
X51261905Y-126931009D01*
X51261905Y-126931009D02*
X51214286Y-127026247D01*
X52571904Y-128454819D02*
X52095714Y-128454819D01*
X52095714Y-128454819D02*
X52048095Y-128931009D01*
X52048095Y-128931009D02*
X52095714Y-128883390D01*
X52095714Y-128883390D02*
X52190952Y-128835771D01*
X52190952Y-128835771D02*
X52429047Y-128835771D01*
X52429047Y-128835771D02*
X52524285Y-128883390D01*
X52524285Y-128883390D02*
X52571904Y-128931009D01*
X52571904Y-128931009D02*
X52619523Y-129026247D01*
X52619523Y-129026247D02*
X52619523Y-129264342D01*
X52619523Y-129264342D02*
X52571904Y-129359580D01*
X52571904Y-129359580D02*
X52524285Y-129407200D01*
X52524285Y-129407200D02*
X52429047Y-129454819D01*
X52429047Y-129454819D02*
X52190952Y-129454819D01*
X52190952Y-129454819D02*
X52095714Y-129407200D01*
X52095714Y-129407200D02*
X52048095Y-129359580D01*
X53238571Y-128454819D02*
X53333809Y-128454819D01*
X53333809Y-128454819D02*
X53429047Y-128502438D01*
X53429047Y-128502438D02*
X53476666Y-128550057D01*
X53476666Y-128550057D02*
X53524285Y-128645295D01*
X53524285Y-128645295D02*
X53571904Y-128835771D01*
X53571904Y-128835771D02*
X53571904Y-129073866D01*
X53571904Y-129073866D02*
X53524285Y-129264342D01*
X53524285Y-129264342D02*
X53476666Y-129359580D01*
X53476666Y-129359580D02*
X53429047Y-129407200D01*
X53429047Y-129407200D02*
X53333809Y-129454819D01*
X53333809Y-129454819D02*
X53238571Y-129454819D01*
X53238571Y-129454819D02*
X53143333Y-129407200D01*
X53143333Y-129407200D02*
X53095714Y-129359580D01*
X53095714Y-129359580D02*
X53048095Y-129264342D01*
X53048095Y-129264342D02*
X53000476Y-129073866D01*
X53000476Y-129073866D02*
X53000476Y-128835771D01*
X53000476Y-128835771D02*
X53048095Y-128645295D01*
X53048095Y-128645295D02*
X53095714Y-128550057D01*
X53095714Y-128550057D02*
X53143333Y-128502438D01*
X53143333Y-128502438D02*
X53238571Y-128454819D01*
X54000476Y-129454819D02*
X54000476Y-128454819D01*
X54571904Y-129454819D02*
X54143333Y-128883390D01*
X54571904Y-128454819D02*
X54000476Y-129026247D01*
X71644530Y-116773078D02*
X71168339Y-117106411D01*
X71644530Y-117344506D02*
X70644530Y-117344506D01*
X70644530Y-117344506D02*
X70644530Y-116963554D01*
X70644530Y-116963554D02*
X70692149Y-116868316D01*
X70692149Y-116868316D02*
X70739768Y-116820697D01*
X70739768Y-116820697D02*
X70835006Y-116773078D01*
X70835006Y-116773078D02*
X70977863Y-116773078D01*
X70977863Y-116773078D02*
X71073101Y-116820697D01*
X71073101Y-116820697D02*
X71120720Y-116868316D01*
X71120720Y-116868316D02*
X71168339Y-116963554D01*
X71168339Y-116963554D02*
X71168339Y-117344506D01*
X71644530Y-115820697D02*
X71644530Y-116392125D01*
X71644530Y-116106411D02*
X70644530Y-116106411D01*
X70644530Y-116106411D02*
X70787387Y-116201649D01*
X70787387Y-116201649D02*
X70882625Y-116296887D01*
X70882625Y-116296887D02*
X70930244Y-116392125D01*
X70644530Y-115201649D02*
X70644530Y-115106411D01*
X70644530Y-115106411D02*
X70692149Y-115011173D01*
X70692149Y-115011173D02*
X70739768Y-114963554D01*
X70739768Y-114963554D02*
X70835006Y-114915935D01*
X70835006Y-114915935D02*
X71025482Y-114868316D01*
X71025482Y-114868316D02*
X71263577Y-114868316D01*
X71263577Y-114868316D02*
X71454053Y-114915935D01*
X71454053Y-114915935D02*
X71549291Y-114963554D01*
X71549291Y-114963554D02*
X71596911Y-115011173D01*
X71596911Y-115011173D02*
X71644530Y-115106411D01*
X71644530Y-115106411D02*
X71644530Y-115201649D01*
X71644530Y-115201649D02*
X71596911Y-115296887D01*
X71596911Y-115296887D02*
X71549291Y-115344506D01*
X71549291Y-115344506D02*
X71454053Y-115392125D01*
X71454053Y-115392125D02*
X71263577Y-115439744D01*
X71263577Y-115439744D02*
X71025482Y-115439744D01*
X71025482Y-115439744D02*
X70835006Y-115392125D01*
X70835006Y-115392125D02*
X70739768Y-115344506D01*
X70739768Y-115344506D02*
X70692149Y-115296887D01*
X70692149Y-115296887D02*
X70644530Y-115201649D01*
X69644530Y-120701649D02*
X69644530Y-121273077D01*
X69644530Y-120987363D02*
X68644530Y-120987363D01*
X68644530Y-120987363D02*
X68787387Y-121082601D01*
X68787387Y-121082601D02*
X68882625Y-121177839D01*
X68882625Y-121177839D02*
X68930244Y-121273077D01*
X68644530Y-119796887D02*
X68644530Y-120273077D01*
X68644530Y-120273077D02*
X69120720Y-120320696D01*
X69120720Y-120320696D02*
X69073101Y-120273077D01*
X69073101Y-120273077D02*
X69025482Y-120177839D01*
X69025482Y-120177839D02*
X69025482Y-119939744D01*
X69025482Y-119939744D02*
X69073101Y-119844506D01*
X69073101Y-119844506D02*
X69120720Y-119796887D01*
X69120720Y-119796887D02*
X69215958Y-119749268D01*
X69215958Y-119749268D02*
X69454053Y-119749268D01*
X69454053Y-119749268D02*
X69549291Y-119796887D01*
X69549291Y-119796887D02*
X69596911Y-119844506D01*
X69596911Y-119844506D02*
X69644530Y-119939744D01*
X69644530Y-119939744D02*
X69644530Y-120177839D01*
X69644530Y-120177839D02*
X69596911Y-120273077D01*
X69596911Y-120273077D02*
X69549291Y-120320696D01*
X68644530Y-119130220D02*
X68644530Y-119034982D01*
X68644530Y-119034982D02*
X68692149Y-118939744D01*
X68692149Y-118939744D02*
X68739768Y-118892125D01*
X68739768Y-118892125D02*
X68835006Y-118844506D01*
X68835006Y-118844506D02*
X69025482Y-118796887D01*
X69025482Y-118796887D02*
X69263577Y-118796887D01*
X69263577Y-118796887D02*
X69454053Y-118844506D01*
X69454053Y-118844506D02*
X69549291Y-118892125D01*
X69549291Y-118892125D02*
X69596911Y-118939744D01*
X69596911Y-118939744D02*
X69644530Y-119034982D01*
X69644530Y-119034982D02*
X69644530Y-119130220D01*
X69644530Y-119130220D02*
X69596911Y-119225458D01*
X69596911Y-119225458D02*
X69549291Y-119273077D01*
X69549291Y-119273077D02*
X69454053Y-119320696D01*
X69454053Y-119320696D02*
X69263577Y-119368315D01*
X69263577Y-119368315D02*
X69025482Y-119368315D01*
X69025482Y-119368315D02*
X68835006Y-119320696D01*
X68835006Y-119320696D02*
X68739768Y-119273077D01*
X68739768Y-119273077D02*
X68692149Y-119225458D01*
X68692149Y-119225458D02*
X68644530Y-119130220D01*
X69644530Y-118368315D02*
X68644530Y-118368315D01*
X69263577Y-118273077D02*
X69644530Y-117987363D01*
X68977863Y-117987363D02*
X69358815Y-118368315D01*
X63683333Y-99454819D02*
X63350000Y-98978628D01*
X63111905Y-99454819D02*
X63111905Y-98454819D01*
X63111905Y-98454819D02*
X63492857Y-98454819D01*
X63492857Y-98454819D02*
X63588095Y-98502438D01*
X63588095Y-98502438D02*
X63635714Y-98550057D01*
X63635714Y-98550057D02*
X63683333Y-98645295D01*
X63683333Y-98645295D02*
X63683333Y-98788152D01*
X63683333Y-98788152D02*
X63635714Y-98883390D01*
X63635714Y-98883390D02*
X63588095Y-98931009D01*
X63588095Y-98931009D02*
X63492857Y-98978628D01*
X63492857Y-98978628D02*
X63111905Y-98978628D01*
X64016667Y-98454819D02*
X64683333Y-98454819D01*
X64683333Y-98454819D02*
X64254762Y-99454819D01*
X66475714Y-100954819D02*
X65904286Y-100954819D01*
X66190000Y-100954819D02*
X66190000Y-99954819D01*
X66190000Y-99954819D02*
X66094762Y-100097676D01*
X66094762Y-100097676D02*
X65999524Y-100192914D01*
X65999524Y-100192914D02*
X65904286Y-100240533D01*
X66904286Y-100954819D02*
X66904286Y-99954819D01*
X67475714Y-100954819D02*
X67047143Y-100383390D01*
X67475714Y-99954819D02*
X66904286Y-100526247D01*
X60333333Y-69454819D02*
X60000000Y-68978628D01*
X59761905Y-69454819D02*
X59761905Y-68454819D01*
X59761905Y-68454819D02*
X60142857Y-68454819D01*
X60142857Y-68454819D02*
X60238095Y-68502438D01*
X60238095Y-68502438D02*
X60285714Y-68550057D01*
X60285714Y-68550057D02*
X60333333Y-68645295D01*
X60333333Y-68645295D02*
X60333333Y-68788152D01*
X60333333Y-68788152D02*
X60285714Y-68883390D01*
X60285714Y-68883390D02*
X60238095Y-68931009D01*
X60238095Y-68931009D02*
X60142857Y-68978628D01*
X60142857Y-68978628D02*
X59761905Y-68978628D01*
X60666667Y-68454819D02*
X61285714Y-68454819D01*
X61285714Y-68454819D02*
X60952381Y-68835771D01*
X60952381Y-68835771D02*
X61095238Y-68835771D01*
X61095238Y-68835771D02*
X61190476Y-68883390D01*
X61190476Y-68883390D02*
X61238095Y-68931009D01*
X61238095Y-68931009D02*
X61285714Y-69026247D01*
X61285714Y-69026247D02*
X61285714Y-69264342D01*
X61285714Y-69264342D02*
X61238095Y-69359580D01*
X61238095Y-69359580D02*
X61190476Y-69407200D01*
X61190476Y-69407200D02*
X61095238Y-69454819D01*
X61095238Y-69454819D02*
X60809524Y-69454819D01*
X60809524Y-69454819D02*
X60714286Y-69407200D01*
X60714286Y-69407200D02*
X60666667Y-69359580D01*
X66285714Y-69454819D02*
X65714286Y-69454819D01*
X66000000Y-69454819D02*
X66000000Y-68454819D01*
X66000000Y-68454819D02*
X65904762Y-68597676D01*
X65904762Y-68597676D02*
X65809524Y-68692914D01*
X65809524Y-68692914D02*
X65714286Y-68740533D01*
X66714286Y-69454819D02*
X66714286Y-68454819D01*
X67285714Y-69454819D02*
X66857143Y-68883390D01*
X67285714Y-68454819D02*
X66714286Y-69026247D01*
X61357142Y-56954819D02*
X61023809Y-56478628D01*
X60785714Y-56954819D02*
X60785714Y-55954819D01*
X60785714Y-55954819D02*
X61166666Y-55954819D01*
X61166666Y-55954819D02*
X61261904Y-56002438D01*
X61261904Y-56002438D02*
X61309523Y-56050057D01*
X61309523Y-56050057D02*
X61357142Y-56145295D01*
X61357142Y-56145295D02*
X61357142Y-56288152D01*
X61357142Y-56288152D02*
X61309523Y-56383390D01*
X61309523Y-56383390D02*
X61261904Y-56431009D01*
X61261904Y-56431009D02*
X61166666Y-56478628D01*
X61166666Y-56478628D02*
X60785714Y-56478628D01*
X62309523Y-56954819D02*
X61738095Y-56954819D01*
X62023809Y-56954819D02*
X62023809Y-55954819D01*
X62023809Y-55954819D02*
X61928571Y-56097676D01*
X61928571Y-56097676D02*
X61833333Y-56192914D01*
X61833333Y-56192914D02*
X61738095Y-56240533D01*
X62642857Y-55954819D02*
X63261904Y-55954819D01*
X63261904Y-55954819D02*
X62928571Y-56335771D01*
X62928571Y-56335771D02*
X63071428Y-56335771D01*
X63071428Y-56335771D02*
X63166666Y-56383390D01*
X63166666Y-56383390D02*
X63214285Y-56431009D01*
X63214285Y-56431009D02*
X63261904Y-56526247D01*
X63261904Y-56526247D02*
X63261904Y-56764342D01*
X63261904Y-56764342D02*
X63214285Y-56859580D01*
X63214285Y-56859580D02*
X63166666Y-56907200D01*
X63166666Y-56907200D02*
X63071428Y-56954819D01*
X63071428Y-56954819D02*
X62785714Y-56954819D01*
X62785714Y-56954819D02*
X62690476Y-56907200D01*
X62690476Y-56907200D02*
X62642857Y-56859580D01*
X62904285Y-54288152D02*
X62904285Y-54954819D01*
X62666190Y-53907200D02*
X62428095Y-54621485D01*
X62428095Y-54621485D02*
X63047142Y-54621485D01*
X63428095Y-54954819D02*
X63428095Y-53954819D01*
X63999523Y-54954819D02*
X63570952Y-54383390D01*
X63999523Y-53954819D02*
X63428095Y-54526247D01*
X64332857Y-53954819D02*
X64999523Y-53954819D01*
X64999523Y-53954819D02*
X64570952Y-54954819D01*
X46359580Y-125666666D02*
X46407200Y-125714285D01*
X46407200Y-125714285D02*
X46454819Y-125857142D01*
X46454819Y-125857142D02*
X46454819Y-125952380D01*
X46454819Y-125952380D02*
X46407200Y-126095237D01*
X46407200Y-126095237D02*
X46311961Y-126190475D01*
X46311961Y-126190475D02*
X46216723Y-126238094D01*
X46216723Y-126238094D02*
X46026247Y-126285713D01*
X46026247Y-126285713D02*
X45883390Y-126285713D01*
X45883390Y-126285713D02*
X45692914Y-126238094D01*
X45692914Y-126238094D02*
X45597676Y-126190475D01*
X45597676Y-126190475D02*
X45502438Y-126095237D01*
X45502438Y-126095237D02*
X45454819Y-125952380D01*
X45454819Y-125952380D02*
X45454819Y-125857142D01*
X45454819Y-125857142D02*
X45502438Y-125714285D01*
X45502438Y-125714285D02*
X45550057Y-125666666D01*
X45550057Y-125285713D02*
X45502438Y-125238094D01*
X45502438Y-125238094D02*
X45454819Y-125142856D01*
X45454819Y-125142856D02*
X45454819Y-124904761D01*
X45454819Y-124904761D02*
X45502438Y-124809523D01*
X45502438Y-124809523D02*
X45550057Y-124761904D01*
X45550057Y-124761904D02*
X45645295Y-124714285D01*
X45645295Y-124714285D02*
X45740533Y-124714285D01*
X45740533Y-124714285D02*
X45883390Y-124761904D01*
X45883390Y-124761904D02*
X46454819Y-125333332D01*
X46454819Y-125333332D02*
X46454819Y-124714285D01*
X45862295Y-123238095D02*
X45862295Y-123695238D01*
X45862295Y-123466666D02*
X45062295Y-123466666D01*
X45062295Y-123466666D02*
X45176580Y-123542857D01*
X45176580Y-123542857D02*
X45252771Y-123619047D01*
X45252771Y-123619047D02*
X45290866Y-123695238D01*
X45062295Y-122514285D02*
X45062295Y-122895237D01*
X45062295Y-122895237D02*
X45443247Y-122933333D01*
X45443247Y-122933333D02*
X45405152Y-122895237D01*
X45405152Y-122895237D02*
X45367057Y-122819047D01*
X45367057Y-122819047D02*
X45367057Y-122628571D01*
X45367057Y-122628571D02*
X45405152Y-122552380D01*
X45405152Y-122552380D02*
X45443247Y-122514285D01*
X45443247Y-122514285D02*
X45519438Y-122476190D01*
X45519438Y-122476190D02*
X45709914Y-122476190D01*
X45709914Y-122476190D02*
X45786104Y-122514285D01*
X45786104Y-122514285D02*
X45824200Y-122552380D01*
X45824200Y-122552380D02*
X45862295Y-122628571D01*
X45862295Y-122628571D02*
X45862295Y-122819047D01*
X45862295Y-122819047D02*
X45824200Y-122895237D01*
X45824200Y-122895237D02*
X45786104Y-122933333D01*
X45062295Y-121980951D02*
X45062295Y-121904761D01*
X45062295Y-121904761D02*
X45100390Y-121828570D01*
X45100390Y-121828570D02*
X45138485Y-121790475D01*
X45138485Y-121790475D02*
X45214676Y-121752380D01*
X45214676Y-121752380D02*
X45367057Y-121714285D01*
X45367057Y-121714285D02*
X45557533Y-121714285D01*
X45557533Y-121714285D02*
X45709914Y-121752380D01*
X45709914Y-121752380D02*
X45786104Y-121790475D01*
X45786104Y-121790475D02*
X45824200Y-121828570D01*
X45824200Y-121828570D02*
X45862295Y-121904761D01*
X45862295Y-121904761D02*
X45862295Y-121980951D01*
X45862295Y-121980951D02*
X45824200Y-122057142D01*
X45824200Y-122057142D02*
X45786104Y-122095237D01*
X45786104Y-122095237D02*
X45709914Y-122133332D01*
X45709914Y-122133332D02*
X45557533Y-122171428D01*
X45557533Y-122171428D02*
X45367057Y-122171428D01*
X45367057Y-122171428D02*
X45214676Y-122133332D01*
X45214676Y-122133332D02*
X45138485Y-122095237D01*
X45138485Y-122095237D02*
X45100390Y-122057142D01*
X45100390Y-122057142D02*
X45062295Y-121980951D01*
X45328961Y-121371427D02*
X45862295Y-121371427D01*
X45405152Y-121371427D02*
X45367057Y-121333332D01*
X45367057Y-121333332D02*
X45328961Y-121257142D01*
X45328961Y-121257142D02*
X45328961Y-121142856D01*
X45328961Y-121142856D02*
X45367057Y-121066665D01*
X45367057Y-121066665D02*
X45443247Y-121028570D01*
X45443247Y-121028570D02*
X45862295Y-121028570D01*
X45443247Y-120380951D02*
X45443247Y-120647617D01*
X45862295Y-120647617D02*
X45062295Y-120647617D01*
X45062295Y-120647617D02*
X45062295Y-120266665D01*
X62136666Y-130634819D02*
X62136666Y-131349104D01*
X62136666Y-131349104D02*
X62089047Y-131491961D01*
X62089047Y-131491961D02*
X61993809Y-131587200D01*
X61993809Y-131587200D02*
X61850952Y-131634819D01*
X61850952Y-131634819D02*
X61755714Y-131634819D01*
X62517619Y-130634819D02*
X63136666Y-130634819D01*
X63136666Y-130634819D02*
X62803333Y-131015771D01*
X62803333Y-131015771D02*
X62946190Y-131015771D01*
X62946190Y-131015771D02*
X63041428Y-131063390D01*
X63041428Y-131063390D02*
X63089047Y-131111009D01*
X63089047Y-131111009D02*
X63136666Y-131206247D01*
X63136666Y-131206247D02*
X63136666Y-131444342D01*
X63136666Y-131444342D02*
X63089047Y-131539580D01*
X63089047Y-131539580D02*
X63041428Y-131587200D01*
X63041428Y-131587200D02*
X62946190Y-131634819D01*
X62946190Y-131634819D02*
X62660476Y-131634819D01*
X62660476Y-131634819D02*
X62565238Y-131587200D01*
X62565238Y-131587200D02*
X62517619Y-131539580D01*
X63401611Y-138954819D02*
X63734944Y-139954819D01*
X63734944Y-139954819D02*
X64068277Y-138954819D01*
X64973039Y-139859580D02*
X64925420Y-139907200D01*
X64925420Y-139907200D02*
X64782563Y-139954819D01*
X64782563Y-139954819D02*
X64687325Y-139954819D01*
X64687325Y-139954819D02*
X64544468Y-139907200D01*
X64544468Y-139907200D02*
X64449230Y-139811961D01*
X64449230Y-139811961D02*
X64401611Y-139716723D01*
X64401611Y-139716723D02*
X64353992Y-139526247D01*
X64353992Y-139526247D02*
X64353992Y-139383390D01*
X64353992Y-139383390D02*
X64401611Y-139192914D01*
X64401611Y-139192914D02*
X64449230Y-139097676D01*
X64449230Y-139097676D02*
X64544468Y-139002438D01*
X64544468Y-139002438D02*
X64687325Y-138954819D01*
X64687325Y-138954819D02*
X64782563Y-138954819D01*
X64782563Y-138954819D02*
X64925420Y-139002438D01*
X64925420Y-139002438D02*
X64973039Y-139050057D01*
X65592087Y-138954819D02*
X65782563Y-138954819D01*
X65782563Y-138954819D02*
X65877801Y-139002438D01*
X65877801Y-139002438D02*
X65973039Y-139097676D01*
X65973039Y-139097676D02*
X66020658Y-139288152D01*
X66020658Y-139288152D02*
X66020658Y-139621485D01*
X66020658Y-139621485D02*
X65973039Y-139811961D01*
X65973039Y-139811961D02*
X65877801Y-139907200D01*
X65877801Y-139907200D02*
X65782563Y-139954819D01*
X65782563Y-139954819D02*
X65592087Y-139954819D01*
X65592087Y-139954819D02*
X65496849Y-139907200D01*
X65496849Y-139907200D02*
X65401611Y-139811961D01*
X65401611Y-139811961D02*
X65353992Y-139621485D01*
X65353992Y-139621485D02*
X65353992Y-139288152D01*
X65353992Y-139288152D02*
X65401611Y-139097676D01*
X65401611Y-139097676D02*
X65496849Y-139002438D01*
X65496849Y-139002438D02*
X65592087Y-138954819D01*
X67401611Y-138954819D02*
X67592087Y-138954819D01*
X67592087Y-138954819D02*
X67687325Y-139002438D01*
X67687325Y-139002438D02*
X67782563Y-139097676D01*
X67782563Y-139097676D02*
X67830182Y-139288152D01*
X67830182Y-139288152D02*
X67830182Y-139621485D01*
X67830182Y-139621485D02*
X67782563Y-139811961D01*
X67782563Y-139811961D02*
X67687325Y-139907200D01*
X67687325Y-139907200D02*
X67592087Y-139954819D01*
X67592087Y-139954819D02*
X67401611Y-139954819D01*
X67401611Y-139954819D02*
X67306373Y-139907200D01*
X67306373Y-139907200D02*
X67211135Y-139811961D01*
X67211135Y-139811961D02*
X67163516Y-139621485D01*
X67163516Y-139621485D02*
X67163516Y-139288152D01*
X67163516Y-139288152D02*
X67211135Y-139097676D01*
X67211135Y-139097676D02*
X67306373Y-139002438D01*
X67306373Y-139002438D02*
X67401611Y-138954819D01*
X68258754Y-138954819D02*
X68258754Y-139764342D01*
X68258754Y-139764342D02*
X68306373Y-139859580D01*
X68306373Y-139859580D02*
X68353992Y-139907200D01*
X68353992Y-139907200D02*
X68449230Y-139954819D01*
X68449230Y-139954819D02*
X68639706Y-139954819D01*
X68639706Y-139954819D02*
X68734944Y-139907200D01*
X68734944Y-139907200D02*
X68782563Y-139859580D01*
X68782563Y-139859580D02*
X68830182Y-139764342D01*
X68830182Y-139764342D02*
X68830182Y-138954819D01*
X69163516Y-138954819D02*
X69734944Y-138954819D01*
X69449230Y-139954819D02*
X69449230Y-138954819D01*
X46362295Y-111633332D02*
X45981342Y-111899999D01*
X46362295Y-112090475D02*
X45562295Y-112090475D01*
X45562295Y-112090475D02*
X45562295Y-111785713D01*
X45562295Y-111785713D02*
X45600390Y-111709523D01*
X45600390Y-111709523D02*
X45638485Y-111671428D01*
X45638485Y-111671428D02*
X45714676Y-111633332D01*
X45714676Y-111633332D02*
X45828961Y-111633332D01*
X45828961Y-111633332D02*
X45905152Y-111671428D01*
X45905152Y-111671428D02*
X45943247Y-111709523D01*
X45943247Y-111709523D02*
X45981342Y-111785713D01*
X45981342Y-111785713D02*
X45981342Y-112090475D01*
X46362295Y-111252380D02*
X46362295Y-111099999D01*
X46362295Y-111099999D02*
X46324200Y-111023809D01*
X46324200Y-111023809D02*
X46286104Y-110985713D01*
X46286104Y-110985713D02*
X46171819Y-110909523D01*
X46171819Y-110909523D02*
X46019438Y-110871428D01*
X46019438Y-110871428D02*
X45714676Y-110871428D01*
X45714676Y-110871428D02*
X45638485Y-110909523D01*
X45638485Y-110909523D02*
X45600390Y-110947618D01*
X45600390Y-110947618D02*
X45562295Y-111023809D01*
X45562295Y-111023809D02*
X45562295Y-111176190D01*
X45562295Y-111176190D02*
X45600390Y-111252380D01*
X45600390Y-111252380D02*
X45638485Y-111290475D01*
X45638485Y-111290475D02*
X45714676Y-111328571D01*
X45714676Y-111328571D02*
X45905152Y-111328571D01*
X45905152Y-111328571D02*
X45981342Y-111290475D01*
X45981342Y-111290475D02*
X46019438Y-111252380D01*
X46019438Y-111252380D02*
X46057533Y-111176190D01*
X46057533Y-111176190D02*
X46057533Y-111023809D01*
X46057533Y-111023809D02*
X46019438Y-110947618D01*
X46019438Y-110947618D02*
X45981342Y-110909523D01*
X45981342Y-110909523D02*
X45905152Y-110871428D01*
X46550057Y-115809999D02*
X46502438Y-115762380D01*
X46502438Y-115762380D02*
X46454819Y-115667142D01*
X46454819Y-115667142D02*
X46454819Y-115429047D01*
X46454819Y-115429047D02*
X46502438Y-115333809D01*
X46502438Y-115333809D02*
X46550057Y-115286190D01*
X46550057Y-115286190D02*
X46645295Y-115238571D01*
X46645295Y-115238571D02*
X46740533Y-115238571D01*
X46740533Y-115238571D02*
X46883390Y-115286190D01*
X46883390Y-115286190D02*
X47454819Y-115857618D01*
X47454819Y-115857618D02*
X47454819Y-115238571D01*
X47359580Y-114809999D02*
X47407200Y-114762380D01*
X47407200Y-114762380D02*
X47454819Y-114809999D01*
X47454819Y-114809999D02*
X47407200Y-114857618D01*
X47407200Y-114857618D02*
X47359580Y-114809999D01*
X47359580Y-114809999D02*
X47454819Y-114809999D01*
X46550057Y-114381428D02*
X46502438Y-114333809D01*
X46502438Y-114333809D02*
X46454819Y-114238571D01*
X46454819Y-114238571D02*
X46454819Y-114000476D01*
X46454819Y-114000476D02*
X46502438Y-113905238D01*
X46502438Y-113905238D02*
X46550057Y-113857619D01*
X46550057Y-113857619D02*
X46645295Y-113810000D01*
X46645295Y-113810000D02*
X46740533Y-113810000D01*
X46740533Y-113810000D02*
X46883390Y-113857619D01*
X46883390Y-113857619D02*
X47454819Y-114429047D01*
X47454819Y-114429047D02*
X47454819Y-113810000D01*
X47454819Y-113381428D02*
X46454819Y-113381428D01*
X47454819Y-112810000D02*
X46883390Y-113238571D01*
X46454819Y-112810000D02*
X47026247Y-113381428D01*
X45536905Y-56319819D02*
X45775000Y-57319819D01*
X45775000Y-57319819D02*
X45965476Y-56605533D01*
X45965476Y-56605533D02*
X46155952Y-57319819D01*
X46155952Y-57319819D02*
X46394048Y-56319819D01*
X46727381Y-57034104D02*
X47203571Y-57034104D01*
X46632143Y-57319819D02*
X46965476Y-56319819D01*
X46965476Y-56319819D02*
X47298809Y-57319819D01*
X47489286Y-56319819D02*
X47822619Y-57319819D01*
X47822619Y-57319819D02*
X48155952Y-56319819D01*
X48489286Y-56796009D02*
X48822619Y-56796009D01*
X48965476Y-57319819D02*
X48489286Y-57319819D01*
X48489286Y-57319819D02*
X48489286Y-56319819D01*
X48489286Y-56319819D02*
X48965476Y-56319819D01*
X49727381Y-56796009D02*
X49394048Y-56796009D01*
X49394048Y-57319819D02*
X49394048Y-56319819D01*
X49394048Y-56319819D02*
X49870238Y-56319819D01*
X50441667Y-56319819D02*
X50632143Y-56319819D01*
X50632143Y-56319819D02*
X50727381Y-56367438D01*
X50727381Y-56367438D02*
X50822619Y-56462676D01*
X50822619Y-56462676D02*
X50870238Y-56653152D01*
X50870238Y-56653152D02*
X50870238Y-56986485D01*
X50870238Y-56986485D02*
X50822619Y-57176961D01*
X50822619Y-57176961D02*
X50727381Y-57272200D01*
X50727381Y-57272200D02*
X50632143Y-57319819D01*
X50632143Y-57319819D02*
X50441667Y-57319819D01*
X50441667Y-57319819D02*
X50346429Y-57272200D01*
X50346429Y-57272200D02*
X50251191Y-57176961D01*
X50251191Y-57176961D02*
X50203572Y-56986485D01*
X50203572Y-56986485D02*
X50203572Y-56653152D01*
X50203572Y-56653152D02*
X50251191Y-56462676D01*
X50251191Y-56462676D02*
X50346429Y-56367438D01*
X50346429Y-56367438D02*
X50441667Y-56319819D01*
X51870238Y-57319819D02*
X51536905Y-56843628D01*
X51298810Y-57319819D02*
X51298810Y-56319819D01*
X51298810Y-56319819D02*
X51679762Y-56319819D01*
X51679762Y-56319819D02*
X51775000Y-56367438D01*
X51775000Y-56367438D02*
X51822619Y-56415057D01*
X51822619Y-56415057D02*
X51870238Y-56510295D01*
X51870238Y-56510295D02*
X51870238Y-56653152D01*
X51870238Y-56653152D02*
X51822619Y-56748390D01*
X51822619Y-56748390D02*
X51775000Y-56796009D01*
X51775000Y-56796009D02*
X51679762Y-56843628D01*
X51679762Y-56843628D02*
X51298810Y-56843628D01*
X52298810Y-57319819D02*
X52298810Y-56319819D01*
X52298810Y-56319819D02*
X52632143Y-57034104D01*
X52632143Y-57034104D02*
X52965476Y-56319819D01*
X52965476Y-56319819D02*
X52965476Y-57319819D01*
X53965476Y-57319819D02*
X53394048Y-57319819D01*
X53679762Y-57319819D02*
X53679762Y-56319819D01*
X53679762Y-56319819D02*
X53584524Y-56462676D01*
X53584524Y-56462676D02*
X53489286Y-56557914D01*
X53489286Y-56557914D02*
X53394048Y-56605533D01*
X51261904Y-61454819D02*
X50785714Y-61454819D01*
X50785714Y-61454819D02*
X50738095Y-61931009D01*
X50738095Y-61931009D02*
X50785714Y-61883390D01*
X50785714Y-61883390D02*
X50880952Y-61835771D01*
X50880952Y-61835771D02*
X51119047Y-61835771D01*
X51119047Y-61835771D02*
X51214285Y-61883390D01*
X51214285Y-61883390D02*
X51261904Y-61931009D01*
X51261904Y-61931009D02*
X51309523Y-62026247D01*
X51309523Y-62026247D02*
X51309523Y-62264342D01*
X51309523Y-62264342D02*
X51261904Y-62359580D01*
X51261904Y-62359580D02*
X51214285Y-62407200D01*
X51214285Y-62407200D02*
X51119047Y-62454819D01*
X51119047Y-62454819D02*
X50880952Y-62454819D01*
X50880952Y-62454819D02*
X50785714Y-62407200D01*
X50785714Y-62407200D02*
X50738095Y-62359580D01*
X51928571Y-61454819D02*
X52023809Y-61454819D01*
X52023809Y-61454819D02*
X52119047Y-61502438D01*
X52119047Y-61502438D02*
X52166666Y-61550057D01*
X52166666Y-61550057D02*
X52214285Y-61645295D01*
X52214285Y-61645295D02*
X52261904Y-61835771D01*
X52261904Y-61835771D02*
X52261904Y-62073866D01*
X52261904Y-62073866D02*
X52214285Y-62264342D01*
X52214285Y-62264342D02*
X52166666Y-62359580D01*
X52166666Y-62359580D02*
X52119047Y-62407200D01*
X52119047Y-62407200D02*
X52023809Y-62454819D01*
X52023809Y-62454819D02*
X51928571Y-62454819D01*
X51928571Y-62454819D02*
X51833333Y-62407200D01*
X51833333Y-62407200D02*
X51785714Y-62359580D01*
X51785714Y-62359580D02*
X51738095Y-62264342D01*
X51738095Y-62264342D02*
X51690476Y-62073866D01*
X51690476Y-62073866D02*
X51690476Y-61835771D01*
X51690476Y-61835771D02*
X51738095Y-61645295D01*
X51738095Y-61645295D02*
X51785714Y-61550057D01*
X51785714Y-61550057D02*
X51833333Y-61502438D01*
X51833333Y-61502438D02*
X51928571Y-61454819D01*
X52690476Y-62454819D02*
X52690476Y-61454819D01*
X53261904Y-62454819D02*
X52833333Y-61883390D01*
X53261904Y-61454819D02*
X52690476Y-62026247D01*
X66191496Y-124622729D02*
X65810543Y-124889396D01*
X66191496Y-125079872D02*
X65391496Y-125079872D01*
X65391496Y-125079872D02*
X65391496Y-124775110D01*
X65391496Y-124775110D02*
X65429591Y-124698920D01*
X65429591Y-124698920D02*
X65467686Y-124660825D01*
X65467686Y-124660825D02*
X65543877Y-124622729D01*
X65543877Y-124622729D02*
X65658162Y-124622729D01*
X65658162Y-124622729D02*
X65734353Y-124660825D01*
X65734353Y-124660825D02*
X65772448Y-124698920D01*
X65772448Y-124698920D02*
X65810543Y-124775110D01*
X65810543Y-124775110D02*
X65810543Y-125079872D01*
X65391496Y-123898920D02*
X65391496Y-124279872D01*
X65391496Y-124279872D02*
X65772448Y-124317968D01*
X65772448Y-124317968D02*
X65734353Y-124279872D01*
X65734353Y-124279872D02*
X65696258Y-124203682D01*
X65696258Y-124203682D02*
X65696258Y-124013206D01*
X65696258Y-124013206D02*
X65734353Y-123937015D01*
X65734353Y-123937015D02*
X65772448Y-123898920D01*
X65772448Y-123898920D02*
X65848639Y-123860825D01*
X65848639Y-123860825D02*
X66039115Y-123860825D01*
X66039115Y-123860825D02*
X66115305Y-123898920D01*
X66115305Y-123898920D02*
X66153401Y-123937015D01*
X66153401Y-123937015D02*
X66191496Y-124013206D01*
X66191496Y-124013206D02*
X66191496Y-124203682D01*
X66191496Y-124203682D02*
X66153401Y-124279872D01*
X66153401Y-124279872D02*
X66115305Y-124317968D01*
X66454819Y-122904285D02*
X66454819Y-123380475D01*
X66454819Y-123380475D02*
X66931009Y-123428094D01*
X66931009Y-123428094D02*
X66883390Y-123380475D01*
X66883390Y-123380475D02*
X66835771Y-123285237D01*
X66835771Y-123285237D02*
X66835771Y-123047142D01*
X66835771Y-123047142D02*
X66883390Y-122951904D01*
X66883390Y-122951904D02*
X66931009Y-122904285D01*
X66931009Y-122904285D02*
X67026247Y-122856666D01*
X67026247Y-122856666D02*
X67264342Y-122856666D01*
X67264342Y-122856666D02*
X67359580Y-122904285D01*
X67359580Y-122904285D02*
X67407200Y-122951904D01*
X67407200Y-122951904D02*
X67454819Y-123047142D01*
X67454819Y-123047142D02*
X67454819Y-123285237D01*
X67454819Y-123285237D02*
X67407200Y-123380475D01*
X67407200Y-123380475D02*
X67359580Y-123428094D01*
X66454819Y-122237618D02*
X66454819Y-122142380D01*
X66454819Y-122142380D02*
X66502438Y-122047142D01*
X66502438Y-122047142D02*
X66550057Y-121999523D01*
X66550057Y-121999523D02*
X66645295Y-121951904D01*
X66645295Y-121951904D02*
X66835771Y-121904285D01*
X66835771Y-121904285D02*
X67073866Y-121904285D01*
X67073866Y-121904285D02*
X67264342Y-121951904D01*
X67264342Y-121951904D02*
X67359580Y-121999523D01*
X67359580Y-121999523D02*
X67407200Y-122047142D01*
X67407200Y-122047142D02*
X67454819Y-122142380D01*
X67454819Y-122142380D02*
X67454819Y-122237618D01*
X67454819Y-122237618D02*
X67407200Y-122332856D01*
X67407200Y-122332856D02*
X67359580Y-122380475D01*
X67359580Y-122380475D02*
X67264342Y-122428094D01*
X67264342Y-122428094D02*
X67073866Y-122475713D01*
X67073866Y-122475713D02*
X66835771Y-122475713D01*
X66835771Y-122475713D02*
X66645295Y-122428094D01*
X66645295Y-122428094D02*
X66550057Y-122380475D01*
X66550057Y-122380475D02*
X66502438Y-122332856D01*
X66502438Y-122332856D02*
X66454819Y-122237618D01*
X66454819Y-121285237D02*
X66454819Y-121189999D01*
X66454819Y-121189999D02*
X66502438Y-121094761D01*
X66502438Y-121094761D02*
X66550057Y-121047142D01*
X66550057Y-121047142D02*
X66645295Y-120999523D01*
X66645295Y-120999523D02*
X66835771Y-120951904D01*
X66835771Y-120951904D02*
X67073866Y-120951904D01*
X67073866Y-120951904D02*
X67264342Y-120999523D01*
X67264342Y-120999523D02*
X67359580Y-121047142D01*
X67359580Y-121047142D02*
X67407200Y-121094761D01*
X67407200Y-121094761D02*
X67454819Y-121189999D01*
X67454819Y-121189999D02*
X67454819Y-121285237D01*
X67454819Y-121285237D02*
X67407200Y-121380475D01*
X67407200Y-121380475D02*
X67359580Y-121428094D01*
X67359580Y-121428094D02*
X67264342Y-121475713D01*
X67264342Y-121475713D02*
X67073866Y-121523332D01*
X67073866Y-121523332D02*
X66835771Y-121523332D01*
X66835771Y-121523332D02*
X66645295Y-121475713D01*
X66645295Y-121475713D02*
X66550057Y-121428094D01*
X66550057Y-121428094D02*
X66502438Y-121380475D01*
X66502438Y-121380475D02*
X66454819Y-121285237D01*
X67454819Y-119951904D02*
X66978628Y-120285237D01*
X67454819Y-120523332D02*
X66454819Y-120523332D01*
X66454819Y-120523332D02*
X66454819Y-120142380D01*
X66454819Y-120142380D02*
X66502438Y-120047142D01*
X66502438Y-120047142D02*
X66550057Y-119999523D01*
X66550057Y-119999523D02*
X66645295Y-119951904D01*
X66645295Y-119951904D02*
X66788152Y-119951904D01*
X66788152Y-119951904D02*
X66883390Y-119999523D01*
X66883390Y-119999523D02*
X66931009Y-120047142D01*
X66931009Y-120047142D02*
X66978628Y-120142380D01*
X66978628Y-120142380D02*
X66978628Y-120523332D01*
D13*
%TO.C,C6*%
X55080000Y-42480000D02*
X55801000Y-42480000D01*
X55080000Y-46520000D02*
X55080000Y-42480000D01*
X55801000Y-46520000D02*
X55080000Y-46520000D01*
X57199000Y-42480000D02*
X57920000Y-42480000D01*
X57920000Y-42480000D02*
X57920000Y-46520000D01*
X57920000Y-46520000D02*
X57199000Y-46520000D01*
%TO.C,R2*%
X46500000Y-74630000D02*
X46500000Y-75580000D01*
X46500000Y-80370000D02*
X46500000Y-79420000D01*
X45580000Y-79420000D02*
X47420000Y-79420000D01*
X47420000Y-75580000D01*
X45580000Y-75580000D01*
X45580000Y-79420000D01*
D14*
%TO.C,VCOFREQ1*%
X46500000Y-131000000D02*
X56300000Y-131000000D01*
X46500000Y-134280000D02*
X46500000Y-131000000D01*
X46500000Y-138720000D02*
X46500000Y-142500000D01*
X46500000Y-142500000D02*
X47680000Y-142500000D01*
X55120000Y-142500000D02*
X56300000Y-142500000D01*
X56300000Y-131000000D02*
X56300000Y-134280000D01*
X56300000Y-142500000D02*
X56300000Y-138720000D01*
D11*
X49000000Y-145000000D02*
G75*
G02*
X48800000Y-145000000I-100000J0D01*
G01*
X48800000Y-145000000D02*
G75*
G02*
X49000000Y-145000000I100000J0D01*
G01*
D13*
%TO.C,U3*%
X54355000Y-101822500D02*
X54355000Y-112102500D01*
X54355000Y-112102500D02*
X59655000Y-112102500D01*
X56005000Y-101822500D02*
X54355000Y-101822500D01*
X59655000Y-101822500D02*
X58005000Y-101822500D01*
X59655000Y-112102500D02*
X59655000Y-101822500D01*
X58005000Y-101822500D02*
G75*
G02*
X56005000Y-101822500I-1000000J0D01*
G01*
%TO.C,D1*%
X62935000Y-59955000D02*
X62935000Y-63045000D01*
X62935000Y-59955170D02*
G75*
G02*
X68485000Y-61500000I2560000J-1544830D01*
G01*
X68485000Y-61500000D02*
G75*
G02*
X62935000Y-63044830I-2990000J0D01*
G01*
X67995000Y-61500000D02*
G75*
G02*
X62995000Y-61500000I-2500000J0D01*
G01*
X62995000Y-61500000D02*
G75*
G02*
X67995000Y-61500000I2500000J0D01*
G01*
%TO.C,R11*%
X70000000Y-104940000D02*
X70000000Y-105890000D01*
X70000000Y-110680000D02*
X70000000Y-109730000D01*
X70920000Y-105890000D02*
X69080000Y-105890000D01*
X69080000Y-109730000D01*
X70920000Y-109730000D01*
X70920000Y-105890000D01*
%TO.C,J2*%
X56000000Y-116080000D02*
X56000000Y-126580000D01*
X59270000Y-112930000D02*
X59270000Y-113730000D01*
X59270000Y-112930000D02*
X60130000Y-112930000D01*
X59700000Y-126580000D02*
X56000000Y-126580000D01*
X59780000Y-116080000D02*
X56000000Y-116080000D01*
X65000000Y-116080000D02*
X61220000Y-116080000D01*
X65000000Y-116080000D02*
X65000000Y-126580000D01*
X65000000Y-126580000D02*
X61300000Y-126580000D01*
X62300000Y-120580000D02*
G75*
G02*
X58700000Y-120580000I-1800000J0D01*
G01*
X58700000Y-120580000D02*
G75*
G02*
X62300000Y-120580000I1800000J0D01*
G01*
%TO.C,R4*%
X52500000Y-117630000D02*
X52500000Y-118580000D01*
X52500000Y-123370000D02*
X52500000Y-122420000D01*
X51580000Y-122420000D02*
X53420000Y-122420000D01*
X53420000Y-118580000D01*
X51580000Y-118580000D01*
X51580000Y-122420000D01*
%TO.C,R14*%
X60630000Y-51000000D02*
X61580000Y-51000000D01*
X66370000Y-51000000D02*
X65420000Y-51000000D01*
X61580000Y-50080000D02*
X65420000Y-50080000D01*
X65420000Y-51920000D01*
X61580000Y-51920000D01*
X61580000Y-50080000D01*
%TO.C,R12*%
X71500000Y-120630000D02*
X71500000Y-121580000D01*
X71500000Y-126370000D02*
X71500000Y-125420000D01*
X70580000Y-125420000D02*
X72420000Y-125420000D01*
X72420000Y-121580000D01*
X70580000Y-121580000D01*
X70580000Y-125420000D01*
D14*
%TO.C,LFOFREQ1*%
X46600000Y-86500000D02*
X56400000Y-86500000D01*
X46600000Y-89780000D02*
X46600000Y-86500000D01*
X46600000Y-94220000D02*
X46600000Y-98000000D01*
X46600000Y-98000000D02*
X47780000Y-98000000D01*
X55220000Y-98000000D02*
X56400000Y-98000000D01*
X56400000Y-86500000D02*
X56400000Y-89780000D01*
X56400000Y-98000000D02*
X56400000Y-94220000D01*
D11*
X49100000Y-100500000D02*
G75*
G02*
X48900000Y-100500000I-100000J0D01*
G01*
X48900000Y-100500000D02*
G75*
G02*
X49100000Y-100500000I100000J0D01*
G01*
D13*
%TO.C,R15*%
X63630000Y-66500000D02*
X64580000Y-66500000D01*
X69370000Y-66500000D02*
X68420000Y-66500000D01*
X64580000Y-65580000D02*
X68420000Y-65580000D01*
X68420000Y-67420000D01*
X64580000Y-67420000D01*
X64580000Y-65580000D01*
%TO.C,R16*%
X50000000Y-111440000D02*
X50000000Y-112390000D01*
X50000000Y-117180000D02*
X50000000Y-116230000D01*
X50920000Y-112390000D02*
X49080000Y-112390000D01*
X49080000Y-116230000D01*
X50920000Y-116230000D01*
X50920000Y-112390000D01*
%TO.C,R8*%
X65500000Y-104630000D02*
X65500000Y-105580000D01*
X65500000Y-110370000D02*
X65500000Y-109420000D01*
X66420000Y-105580000D02*
X64580000Y-105580000D01*
X64580000Y-109420000D01*
X66420000Y-109420000D01*
X66420000Y-105580000D01*
%TO.C,U1*%
X63855000Y-70860000D02*
X63855000Y-81140000D01*
X63855000Y-81140000D02*
X69155000Y-81140000D01*
X65505000Y-70860000D02*
X63855000Y-70860000D01*
X69155000Y-70860000D02*
X67505000Y-70860000D01*
X69155000Y-81140000D02*
X69155000Y-70860000D01*
X67505000Y-70860000D02*
G75*
G02*
X65505000Y-70860000I-1000000J0D01*
G01*
%TO.C,R1*%
X63130000Y-82500000D02*
X64080000Y-82500000D01*
X68870000Y-82500000D02*
X67920000Y-82500000D01*
X64080000Y-81580000D02*
X67920000Y-81580000D01*
X67920000Y-83420000D01*
X64080000Y-83420000D01*
X64080000Y-81580000D01*
%TO.C,Q1*%
X46488501Y-107315900D02*
X50088501Y-107315900D01*
X46450023Y-107304378D02*
G75*
G02*
X48288501Y-102865899I1838478J1838478D01*
G01*
X48288501Y-102865900D02*
G75*
G02*
X50126979Y-107304378I0J-2600000D01*
G01*
%TO.C,C4*%
X54080000Y-50730000D02*
X54801000Y-50730000D01*
X54080000Y-54770000D02*
X54080000Y-50730000D01*
X54801000Y-54770000D02*
X54080000Y-54770000D01*
X56199000Y-50730000D02*
X56920000Y-50730000D01*
X56920000Y-50730000D02*
X56920000Y-54770000D01*
X56920000Y-54770000D02*
X56199000Y-54770000D01*
%TO.C,J1*%
X62000000Y-87200000D02*
X62000000Y-97700000D01*
X65270000Y-84050000D02*
X65270000Y-84850000D01*
X65270000Y-84050000D02*
X66130000Y-84050000D01*
X65700000Y-97700000D02*
X62000000Y-97700000D01*
X65780000Y-87200000D02*
X62000000Y-87200000D01*
X71000000Y-87200000D02*
X67220000Y-87200000D01*
X71000000Y-87200000D02*
X71000000Y-97700000D01*
X71000000Y-97700000D02*
X67300000Y-97700000D01*
X68300000Y-91700000D02*
G75*
G02*
X64700000Y-91700000I-1800000J0D01*
G01*
X64700000Y-91700000D02*
G75*
G02*
X68300000Y-91700000I1800000J0D01*
G01*
%TO.C,C5*%
X69580000Y-50480000D02*
X70301000Y-50480000D01*
X69580000Y-54520000D02*
X69580000Y-50480000D01*
X70301000Y-54520000D02*
X69580000Y-54520000D01*
X71699000Y-50480000D02*
X72420000Y-50480000D01*
X72420000Y-50480000D02*
X72420000Y-54520000D01*
X72420000Y-54520000D02*
X71699000Y-54520000D01*
%TO.C,U2*%
X51355000Y-72360000D02*
X51355000Y-82640000D01*
X51355000Y-82640000D02*
X56655000Y-82640000D01*
X53005000Y-72360000D02*
X51355000Y-72360000D01*
X56655000Y-72360000D02*
X55005000Y-72360000D01*
X56655000Y-82640000D02*
X56655000Y-72360000D01*
X55005000Y-72360000D02*
G75*
G02*
X53005000Y-72360000I-1000000J0D01*
G01*
%TO.C,R6*%
X50440000Y-129000000D02*
X51390000Y-129000000D01*
X56180000Y-129000000D02*
X55230000Y-129000000D01*
X55230000Y-129920000D02*
X51390000Y-129920000D01*
X51390000Y-128080000D01*
X55230000Y-128080000D01*
X55230000Y-129920000D01*
%TO.C,R10*%
X69189711Y-116760221D02*
X69189711Y-117710221D01*
X69189711Y-122500221D02*
X69189711Y-121550221D01*
X70109711Y-117710221D02*
X68269711Y-117710221D01*
X68269711Y-121550221D01*
X70109711Y-121550221D01*
X70109711Y-117710221D01*
%TO.C,R7*%
X63820000Y-100500000D02*
X64770000Y-100500000D01*
X69560000Y-100500000D02*
X68610000Y-100500000D01*
X68610000Y-101420000D02*
X64770000Y-101420000D01*
X64770000Y-99580000D01*
X68610000Y-99580000D01*
X68610000Y-101420000D01*
%TO.C,R3*%
X63130000Y-69000000D02*
X64080000Y-69000000D01*
X68870000Y-69000000D02*
X67920000Y-69000000D01*
X64080000Y-68080000D02*
X67920000Y-68080000D01*
X67920000Y-69920000D01*
X64080000Y-69920000D01*
X64080000Y-68080000D01*
%TO.C,R13*%
X60820000Y-54500000D02*
X61770000Y-54500000D01*
X66560000Y-54500000D02*
X65610000Y-54500000D01*
X61770000Y-53580000D02*
X65610000Y-53580000D01*
X65610000Y-55420000D01*
X61770000Y-55420000D01*
X61770000Y-53580000D01*
%TO.C,C2*%
X46630000Y-119880000D02*
X47165000Y-119880000D01*
X46630000Y-126120000D02*
X46630000Y-119880000D01*
X47165000Y-126120000D02*
X46630000Y-126120000D01*
X48835000Y-119880000D02*
X49370000Y-119880000D01*
X49370000Y-119880000D02*
X49370000Y-126120000D01*
X49370000Y-126120000D02*
X48835000Y-126120000D01*
%TO.C,J3*%
X62000000Y-132080000D02*
X62000000Y-142580000D01*
X65270000Y-128930000D02*
X65270000Y-129730000D01*
X65270000Y-128930000D02*
X66130000Y-128930000D01*
X65700000Y-142580000D02*
X62000000Y-142580000D01*
X65780000Y-132080000D02*
X62000000Y-132080000D01*
X71000000Y-132080000D02*
X67220000Y-132080000D01*
X71000000Y-132080000D02*
X71000000Y-142580000D01*
X71000000Y-142580000D02*
X67300000Y-142580000D01*
X68300000Y-136580000D02*
G75*
G02*
X64700000Y-136580000I-1800000J0D01*
G01*
X64700000Y-136580000D02*
G75*
G02*
X68300000Y-136580000I1800000J0D01*
G01*
%TO.C,R9*%
X47000000Y-111440000D02*
X47000000Y-112390000D01*
X47000000Y-117180000D02*
X47000000Y-116230000D01*
X46080000Y-116230000D02*
X47920000Y-116230000D01*
X47920000Y-112390000D01*
X46080000Y-112390000D01*
X46080000Y-116230000D01*
D14*
%TO.C,WAVEFORM1*%
X46700000Y-58000000D02*
X56500000Y-58000000D01*
X46700000Y-61280000D02*
X46700000Y-58000000D01*
X46700000Y-65720000D02*
X46700000Y-69500000D01*
X46700000Y-69500000D02*
X47880000Y-69500000D01*
X55320000Y-69500000D02*
X56500000Y-69500000D01*
X56500000Y-58000000D02*
X56500000Y-61280000D01*
X56500000Y-69500000D02*
X56500000Y-65720000D01*
D11*
X49200000Y-72000000D02*
G75*
G02*
X49000000Y-72000000I-100000J0D01*
G01*
X49000000Y-72000000D02*
G75*
G02*
X49200000Y-72000000I100000J0D01*
G01*
D13*
%TO.C,R5*%
X67000000Y-118820000D02*
X67000000Y-119770000D01*
X67000000Y-124560000D02*
X67000000Y-123610000D01*
X67920000Y-119770000D02*
X66080000Y-119770000D01*
X66080000Y-123610000D01*
X67920000Y-123610000D01*
X67920000Y-119770000D01*
%TD*%
M02*
