999
dxfrw 0.6.3
  0
SECTION
  2
HEADER
  9
$ACADVER
  1
AC1021
  9
$DWGCODEPAGE
  3
ANSI_1252
  9
$INSBASE
 10
0
 20
0
 30
0
  9
$EXTMIN
 10
44
 20
-157
 30
0
  9
$EXTMAX
 10
74
 20
-29
 30
0
  9
$LIMMIN
 10
0
 20
0
  9
$LIMMAX
 10
420
 20
297
  9
$ORTHOMODE
 70
    0
  9
$REGENMODE
 70
    1
  9
$FILLMODE
 70
    1
  9
$QTEXTMODE
 70
    0
  9
$MIRRTEXT
 70
    0
  9
$LTSCALE
 40
1
  9
$ATTMODE
 70
    0
  9
$TEXTSIZE
 40
2.5
  9
$TRACEWID
 40
15.68
  9
$TEXTSTYLE
  7
STANDARD
  9
$CLAYER
  8
Cuts
  9
$CELTYPE
  6
BYLAYER
  9
$CECOLOR
 62
  256
  9
$CELTSCALE
 40
1
  9
$DISPSILH
 70
    0
  9
$DIMSCALE
 40
1
  9
$DIMASZ
 40
2.5
  9
$DIMEXO
 40
0.625
  9
$DIMDLI
 40
3.75
  9
$DIMRND
 40
0
  9
$DIMDLE
 40
0
  9
$DIMEXE
 40
1.25
  9
$DIMTP
 40
0
  9
$DIMTM
 40
0
  9
$DIMTXT
 40
2.5
  9
$DIMCEN
 40
2.5
  9
$DIMTSZ
 40
0
  9
$DIMTOL
 70
    0
  9
$DIMLIM
 70
    0
  9
$DIMTIH
 70
    0
  9
$DIMTOH
 70
    0
  9
$DIMSE1
 70
    0
  9
$DIMSE2
 70
    0
  9
$DIMTAD
 70
    1
  9
$DIMZIN
 70
    8
  9
$DIMBLK
  1

  9
$DIMASO
 70
    1
  9
$DIMSHO
 70
    1
  9
$DIMPOST
  1

  9
$DIMAPOST
  1

  9
$DIMALT
 70
    0
  9
$DIMALTD
 70
    3
  9
$DIMALTF
 40
0.03937
  9
$DIMLFAC
 40
1
  9
$DIMTOFL
 70
    1
  9
$DIMTVP
 40
0
  9
$DIMTIX
 70
    0
  9
$DIMSOXD
 70
    0
  9
$DIMSAH
 70
    0
  9
$DIMBLK1
  1

  9
$DIMBLK2
  1

  9
$DIMSTYLE
  2
Standard
  9
$DIMCLRD
 70
    0
  9
$DIMCLRE
 70
    0
  9
$DIMCLRT
 70
    0
  9
$DIMTFAC
 40
1
  9
$DIMGAP
 40
0.625
  9
$DIMJUST
 70
    0
  9
$DIMSD1
 70
    0
  9
$DIMSD2
 70
    0
  9
$DIMTOLJ
 70
    0
  9
$DIMTZIN
 70
    8
  9
$DIMALTZ
 70
    0
  9
$DIMALTTZ
 70
    0
  9
$DIMUPT
 70
    0
  9
$DIMDEC
 70
    2
  9
$DIMTDEC
 70
    2
  9
$DIMALTU
 70
    2
  9
$DIMALTTD
 70
    3
  9
$DIMTXSTY
  7
STANDARD
  9
$DIMAUNIT
 70
    0
  9
$DIMADEC
 70
    0
  9
$DIMALTRND
 40
0
  9
$DIMAZIN
 70
    0
  9
$DIMDSEP
 70
   44
  9
$DIMATFIT
 70
    3
  9
$DIMFRAC
 70
    0
  9
$DIMLDRBLK
  1
STANDARD
  9
$DIMLUNIT
 70
    2
  9
$DIMLWD
 70
   -2
  9
$DIMLWE
 70
   -2
  9
$DIMTMOVE
 70
    0
  9
$DIMFXL
 40
1
  9
$DIMFXLON
 70
    0
  9
$DIMJOGANG
 40
0.7854
  9
$DIMTFILL
 70
    0
  9
$DIMTFILLCLR
 70
    0
  9
$DIMARCSYM
 70
    0
  9
$DIMLTYPE
  6

  9
$DIMLTEX1
  6

  9
$DIMLTEX2
  6

  9
$LUNITS
 70
    2
  9
$LUPREC
 70
    4
  9
$SKETCHINC
 40
1
  9
$FILLETRAD
 40
0
  9
$AUNITS
 70
    0
  9
$AUPREC
 70
    2
  9
$MENU
  1
.
  9
$ELEVATION
 40
0
  9
$PELEVATION
 40
0
  9
$THICKNESS
 40
0
  9
$LIMCHECK
 70
    0
  9
$CHAMFERA
 40
0
  9
$CHAMFERB
 40
0
  9
$CHAMFERC
 40
0
  9
$CHAMFERD
 40
0
  9
$SKPOLY
 70
    0
  9
$USRTIMER
 70
    1
  9
$ANGBASE
 50
0
  9
$ANGDIR
 70
    1
  9
$PDMODE
 70
   34
  9
$PDSIZE
 40
0
  9
$PLINEWID
 40
0
  9
$SPLFRAME
 70
    0
  9
$SPLINETYPE
 70
    2
  9
$SPLINESEGS
 70
    8
  9
$HANDSEED
  5
20000
  9
$SURFTAB1
 70
    6
  9
$SURFTAB2
 70
    6
  9
$SURFTYPE
 70
    6
  9
$SURFU
 70
    6
  9
$SURFV
 70
    6
  9
$UCSBASE
  2

  9
$UCSNAME
  2

  9
$UCSORG
 10
0
 20
0
 30
0
  9
$UCSXDIR
 10
1
 20
0
 30
0
  9
$UCSYDIR
 10
0
 20
1
 30
0
  9
$UCSORTHOREF
  2

  9
$UCSORTHOVIEW
 70
    0
  9
$UCSORGTOP
 10
0
 20
0
 30
0
  9
$UCSORGBOTTOM
 10
0
 20
0
 30
0
  9
$UCSORGLEFT
 10
0
 20
0
 30
0
  9
$UCSORGRIGHT
 10
0
 20
0
 30
0
  9
$UCSORGFRONT
 10
0
 20
0
 30
0
  9
$UCSORGBACK
 10
0
 20
0
 30
0
  9
$PUCSBASE
  2

  9
$PUCSNAME
  2

  9
$PUCSORG
 10
0
 20
0
 30
0
  9
$PUCSXDIR
 10
1
 20
0
 30
0
  9
$PUCSYDIR
 10
0
 20
1
 30
0
  9
$PUCSORTHOREF
  2

  9
$PUCSORTHOVIEW
 70
    0
  9
$PUCSORGTOP
 10
0
 20
0
 30
0
  9
$PUCSORGBOTTOM
 10
0
 20
0
 30
0
  9
$PUCSORGLEFT
 10
0
 20
0
 30
0
  9
$PUCSORGRIGHT
 10
0
 20
0
 30
0
  9
$PUCSORGFRONT
 10
0
 20
0
 30
0
  9
$PUCSORGBACK
 10
0
 20
0
 30
0
  9
$USERI1
 70
    0
  9
$USERI2
 70
    0
  9
$USERI3
 70
    0
  9
$USERI4
 70
    0
  9
$USERI5
 70
    0
  9
$USERR1
 40
0
  9
$USERR2
 40
0
  9
$USERR3
 40
0
  9
$USERR4
 40
0
  9
$USERR5
 40
0
  9
$WORLDVIEW
 70
    1
  9
$SHADEDGE
 70
    3
  9
$SHADEDIF
 70
   70
  9
$TILEMODE
 70
    1
  9
$MAXACTVP
 70
   64
  9
$PINSBASE
 10
0
 20
0
 30
0
  9
$PLIMCHECK
 70
    0
  9
$PEXTMIN
 10
0
 20
0
 30
0
  9
$PEXTMAX
 10
0
 20
0
 30
0
  9
$GRIDMODE
 70
    1
  9
$SNAPSTYLE
 70
    0
  9
$PLIMMIN
 10
0
 20
0
  9
$PLIMMAX
 10
210
 20
297
  9
$UNITMODE
 70
    0
  9
$VISRETAIN
 70
    1
  9
$PLINEGEN
 70
    0
  9
$PSLTSCALE
 70
    1
  9
$TREEDEPTH
 70
 3020
  9
$CMLSTYLE
  2
Standard
  9
$CMLJUST
 70
    0
  9
$CMLSCALE
 40
20
  9
$PROXYGRAPHICS
 70
    1
  9
$MEASUREMENT
 70
    1
  9
$CELWEIGHT
370
   -1
  9
$ENDCAPS
280
    0
  9
$JOINSTYLE
280
    0
  9
$LWDISPLAY
290
    0
  9
$INSUNITS
 70
    4
  9
$HYPERLINKBASE
  1

  9
$STYLESHEET
  1

  9
$XEDIT
290
    1
  9
$CEPSNTYPE
380
    0
  9
$PSTYLEMODE
290
    1
  9
$EXTNAMES
290
    1
  9
$PSVPSCALE
 40
1
  9
$OLESTARTUP
290
    0
  9
$SORTENTS
280
  127
  9
$INDEXCTL
280
    0
  9
$HIDETEXT
280
    1
  9
$XCLIPFRAME
290
    0
  9
$HALOGAP
280
    0
  9
$OBSCOLOR
 70
  257
  9
$OBSLTYPE
280
    0
  9
$INTERSECTIONDISPLAY
280
    0
  9
$INTERSECTIONCOLOR
 70
  257
  9
$DIMASSOC
280
    1
  9
$PROJECTNAME
  1

  9
$CAMERADISPLAY
290
    0
  9
$LENSLENGTH
 40
50
  9
$CAMERAHEIGHT
 40
0
  9
$STEPSPERSEC
 40
2
  9
$STEPSIZE
 40
50
  9
$3DDWFPREC
 40
2
  9
$PSOLWIDTH
 40
5
  9
$PSOLHEIGHT
 40
80
  9
$LOFTANG1
 40
1.570796326794897
  9
$LOFTANG2
 40
1.570796326794897
  9
$LOFTMAG1
 40
0
  9
$LOFTMAG2
 40
0
  9
$LOFTPARAM
 70
    7
  9
$LOFTNORMALS
280
    1
  9
$LATITUDE
 40
1
  9
$LONGITUDE
 40
1
  9
$NORTHDIRECTION
 40
0
  9
$TIMEZONE
 70
-8000
  9
$LIGHTGLYPHDISPLAY
280
    1
  9
$TILEMODELIGHTSYNCH
280
    1
  9
$SOLIDHIST
280
    1
  9
$SHOWHIST
280
    1
  9
$DWFFRAME
280
    2
  9
$DGNFRAME
280
    0
  9
$REALWORLDSCALE
290
    1
  9
$INTERFERECOLOR
 62
    1
  9
$CSHADOW
280
    0
  9
$SHADOWPLANELOCATION
 40
0
  0
ENDSEC
  0
SECTION
  2
CLASSES
  0
ENDSEC
  0
SECTION
  2
TABLES
  0
TABLE
  2
VPORT
  5
8
330
0
100
AcDbSymbolTable
 70
    1
  0
VPORT
  5
31
330
2
100
AcDbSymbolTableRecord
100
AcDbViewportTableRecord
  2
*ACTIVE
 70
    0
 10
0
 20
0
 11
1
 21
1
 12
51.32801822429076
 22
21.36560364508655
 13
0
 23
0
 14
10
 24
10
 15
10
 25
10
 16
0
 26
0
 36
1
 17
0
 27
0
 37
0
 40
222.0000000045679
 41
1.570615034168565
 42
50
 43
0
 44
0
 50
0
 51
0
 71
    0
 72
  100
 73
    1
 74
    3
 75
    0
 76
    1
 77
    0
 78
    0
281
    0
 65
    1
110
0
120
0
130
0
111
1
121
0
131
0
112
0
122
1
132
0
 79
    0
146
0
348
10020
 60
    7
 61
    5
292
1
282
    1
141
0
142
0
 63
  250
421
3358443
  0
ENDTAB
  0
TABLE
  2
LTYPE
  5
5
330
0
100
AcDbSymbolTable
 70
    4
  0
LTYPE
  5
14
330
5
100
AcDbSymbolTableRecord
100
AcDbLinetypeTableRecord
  2
ByBlock
 70
    0
  3

 72
   65
 73
    0
 40
0
  0
LTYPE
  5
15
330
5
100
AcDbSymbolTableRecord
100
AcDbLinetypeTableRecord
  2
ByLayer
 70
    0
  3

 72
   65
 73
    0
 40
0
  0
LTYPE
  5
16
330
5
100
AcDbSymbolTableRecord
100
AcDbLinetypeTableRecord
  2
Continuous
 70
    0
  3
Solid line
 72
   65
 73
    0
 40
0
  0
LTYPE
  5
32
330
5
100
AcDbSymbolTableRecord
100
AcDbLinetypeTableRecord
  2
DOT
 70
    0
  3
Dot . . . . . . . . . . . . . . . . . . . . . .
 72
   65
 73
    2
 40
6.35
 49
0
 74
    0
 49
-6.35
 74
    0
  0
LTYPE
  5
33
330
5
100
AcDbSymbolTableRecord
100
AcDbLinetypeTableRecord
  2
DOTTINY
 70
    0
  3
Dot (.15x) .....................................
 72
   65
 73
    2
 40
0.9525
 49
0
 74
    0
 49
-0.9525
 74
    0
  0
LTYPE
  5
34
330
5
100
AcDbSymbolTableRecord
100
AcDbLinetypeTableRecord
  2
DOT2
 70
    0
  3
Dot (.5x) .....................................
 72
   65
 73
    2
 40
3.175
 49
0
 74
    0
 49
-3.175
 74
    0
  0
LTYPE
  5
35
330
5
100
AcDbSymbolTableRecord
100
AcDbLinetypeTableRecord
  2
DOTX2
 70
    0
  3
Dot (2x) .  .  .  .  .  .  .  .  .  .  .  .  .
 72
   65
 73
    2
 40
12.7
 49
0
 74
    0
 49
-12.7
 74
    0
  0
LTYPE
  5
36
330
5
100
AcDbSymbolTableRecord
100
AcDbLinetypeTableRecord
  2
DASHED
 70
    0
  3
Dashed _ _ _ _ _ _ _ _ _ _ _ _ _ _ _ _ _
 72
   65
 73
    2
 40
19.05
 49
12.7
 74
    0
 49
-6.35
 74
    0
  0
LTYPE
  5
37
330
5
100
AcDbSymbolTableRecord
100
AcDbLinetypeTableRecord
  2
DASHEDTINY
 70
    0
  3
Dashed (.15x) _ _ _ _ _ _ _ _ _ _ _ _ _ _ _ _ _
 72
   65
 73
    2
 40
2.8575
 49
1.905
 74
    0
 49
-0.9525
 74
    0
  0
LTYPE
  5
38
330
5
100
AcDbSymbolTableRecord
100
AcDbLinetypeTableRecord
  2
DASHED2
 70
    0
  3
Dashed (.5x) _ _ _ _ _ _ _ _ _ _ _ _ _ _ _ _ _
 72
   65
 73
    2
 40
9.524999999999999
 49
6.35
 74
    0
 49
-3.175
 74
    0
  0
LTYPE
  5
39
330
5
100
AcDbSymbolTableRecord
100
AcDbLinetypeTableRecord
  2
DASHEDX2
 70
    0
  3
Dashed (2x) ____  ____  ____  ____  ____  ___
 72
   65
 73
    2
 40
38.09999999999999
 49
25.4
 74
    0
 49
-12.7
 74
    0
  0
LTYPE
  5
3A
330
5
100
AcDbSymbolTableRecord
100
AcDbLinetypeTableRecord
  2
DASHDOT
 70
    0
  3
Dash dot __ . __ . __ . __ . __ . __ . __ . __
 72
   65
 73
    4
 40
25.4
 49
12.7
 74
    0
 49
-6.35
 74
    0
 49
0
 74
    0
 49
-6.35
 74
    0
  0
LTYPE
  5
3B
330
5
100
AcDbSymbolTableRecord
100
AcDbLinetypeTableRecord
  2
DASHDOTTINY
 70
    0
  3
Dash dot (.15x) _._._._._._._._._._._._._._._.
 72
   65
 73
    4
 40
3.81
 49
1.905
 74
    0
 49
-0.9525
 74
    0
 49
0
 74
    0
 49
-0.9525
 74
    0
  0
LTYPE
  5
3C
330
5
100
AcDbSymbolTableRecord
100
AcDbLinetypeTableRecord
  2
DASHDOT2
 70
    0
  3
Dash dot (.5x) _._._._._._._._._._._._._._._.
 72
   65
 73
    4
 40
12.7
 49
6.35
 74
    0
 49
-3.175
 74
    0
 49
0
 74
    0
 49
-3.175
 74
    0
  0
LTYPE
  5
3D
330
5
100
AcDbSymbolTableRecord
100
AcDbLinetypeTableRecord
  2
DASHDOTX2
 70
    0
  3
Dash dot (2x) ____  .  ____  .  ____  .  ___
 72
   65
 73
    4
 40
50.8
 49
25.4
 74
    0
 49
-12.7
 74
    0
 49
0
 74
    0
 49
-12.7
 74
    0
  0
LTYPE
  5
3E
330
5
100
AcDbSymbolTableRecord
100
AcDbLinetypeTableRecord
  2
DIVIDE
 70
    0
  3
Divide ____ . . ____ . . ____ . . ____ . . ____
 72
   65
 73
    6
 40
31.75
 49
12.7
 74
    0
 49
-6.35
 74
    0
 49
0
 74
    0
 49
-6.35
 74
    0
 49
0
 74
    0
 49
-6.35
 74
    0
  0
LTYPE
  5
3F
330
5
100
AcDbSymbolTableRecord
100
AcDbLinetypeTableRecord
  2
DIVIDETINY
 70
    0
  3
Divide (.15x) __..__..__..__..__..__..__..__.._
 72
   65
 73
    6
 40
4.7625
 49
1.905
 74
    0
 49
-0.9525
 74
    0
 49
0
 74
    0
 49
-0.9525
 74
    0
 49
0
 74
    0
 49
-0.9525
 74
    0
  0
LTYPE
  5
40
330
5
100
AcDbSymbolTableRecord
100
AcDbLinetypeTableRecord
  2
DIVIDE2
 70
    0
  3
Divide (.5x) __..__..__..__..__..__..__..__.._
 72
   65
 73
    6
 40
15.875
 49
6.35
 74
    0
 49
-3.175
 74
    0
 49
0
 74
    0
 49
-3.175
 74
    0
 49
0
 74
    0
 49
-3.175
 74
    0
  0
LTYPE
  5
41
330
5
100
AcDbSymbolTableRecord
100
AcDbLinetypeTableRecord
  2
DIVIDEX2
 70
    0
  3
Divide (2x) ________  .  .  ________  .  .  _
 72
   65
 73
    6
 40
63.5
 49
25.4
 74
    0
 49
-12.7
 74
    0
 49
0
 74
    0
 49
-12.7
 74
    0
 49
0
 74
    0
 49
-12.7
 74
    0
  0
LTYPE
  5
42
330
5
100
AcDbSymbolTableRecord
100
AcDbLinetypeTableRecord
  2
BORDER
 70
    0
  3
Border __ __ . __ __ . __ __ . __ __ . __ __ .
 72
   65
 73
    6
 40
44.45
 49
12.7
 74
    0
 49
-6.35
 74
    0
 49
12.7
 74
    0
 49
-6.35
 74
    0
 49
0
 74
    0
 49
-6.35
 74
    0
  0
LTYPE
  5
43
330
5
100
AcDbSymbolTableRecord
100
AcDbLinetypeTableRecord
  2
BORDERTINY
 70
    0
  3
Border (.15x) __.__.__.__.__.__.__.__.__.__.__.
 72
   65
 73
    6
 40
6.6675
 49
1.905
 74
    0
 49
-0.9525
 74
    0
 49
1.905
 74
    0
 49
-0.9525
 74
    0
 49
0
 74
    0
 49
-0.9525
 74
    0
  0
LTYPE
  5
44
330
5
100
AcDbSymbolTableRecord
100
AcDbLinetypeTableRecord
  2
BORDER2
 70
    0
  3
Border (.5x) __.__.__.__.__.__.__.__.__.__.__.
 72
   65
 73
    6
 40
22.225
 49
6.35
 74
    0
 49
-3.175
 74
    0
 49
6.35
 74
    0
 49
-3.175
 74
    0
 49
0
 74
    0
 49
-3.175
 74
    0
  0
LTYPE
  5
45
330
5
100
AcDbSymbolTableRecord
100
AcDbLinetypeTableRecord
  2
BORDERX2
 70
    0
  3
Border (2x) ____  ____  .  ____  ____  .  ___
 72
   65
 73
    6
 40
88.89999999999999
 49
25.4
 74
    0
 49
-12.7
 74
    0
 49
25.4
 74
    0
 49
-12.7
 74
    0
 49
0
 74
    0
 49
-12.7
 74
    0
  0
LTYPE
  5
46
330
5
100
AcDbSymbolTableRecord
100
AcDbLinetypeTableRecord
  2
CENTER
 70
    0
  3
Center ____ _ ____ _ ____ _ ____ _ ____ _ ____
 72
   65
 73
    4
 40
50.8
 49
31.75
 74
    0
 49
-6.35
 74
    0
 49
6.35
 74
    0
 49
-6.35
 74
    0
  0
LTYPE
  5
47
330
5
100
AcDbSymbolTableRecord
100
AcDbLinetypeTableRecord
  2
CENTERTINY
 70
    0
  3
Center (.15x) ___ _ ___ _ ___ _ ___ _ ___ _ ___
 72
   65
 73
    4
 40
7.619999999999999
 49
4.7625
 74
    0
 49
-0.9525
 74
    0
 49
0.9525
 74
    0
 49
-0.9525
 74
    0
  0
LTYPE
  5
48
330
5
100
AcDbSymbolTableRecord
100
AcDbLinetypeTableRecord
  2
CENTER2
 70
    0
  3
Center (.5x) ___ _ ___ _ ___ _ ___ _ ___ _ ___
 72
   65
 73
    4
 40
28.575
 49
19.05
 74
    0
 49
-3.175
 74
    0
 49
3.175
 74
    0
 49
-3.175
 74
    0
  0
LTYPE
  5
49
330
5
100
AcDbSymbolTableRecord
100
AcDbLinetypeTableRecord
  2
CENTERX2
 70
    0
  3
Center (2x) ________  __  ________  __  _____
 72
   65
 73
    4
 40
101.6
 49
63.5
 74
    0
 49
-12.7
 74
    0
 49
12.7
 74
    0
 49
-12.7
 74
    0
  0
ENDTAB
  0
TABLE
  2
LAYER
  5
2
330
0
100
AcDbSymbolTable
 70
    1
  0
LAYER
  5
10
330
2
100
AcDbSymbolTableRecord
100
AcDbLayerTableRecord
  2
0
 70
    0
 62
    7
  6
CONTINUOUS
370
    0
390
F
  0
LAYER
  5
4A
330
2
100
AcDbSymbolTableRecord
100
AcDbLayerTableRecord
  2
Cuts
 70
    0
 62
    1
  6
CONTINUOUS
370
   -3
390
F
  0
LAYER
  5
4B
330
2
100
AcDbSymbolTableRecord
100
AcDbLayerTableRecord
  2
Engraving
 70
    0
 62
    7
  6
CONTINUOUS
370
    0
390
F
  0
ENDTAB
  0
TABLE
  2
STYLE
  5
3
330
0
100
AcDbSymbolTable
 70
    3
  0
STYLE
  5
4C
330
2
100
AcDbSymbolTableRecord
100
AcDbTextStyleTableRecord
  2
Standard
 70
    0
 40
0
 41
1
 50
0
 71
    0
 42
1
  3
txt
  4

  0
ENDTAB
  0
TABLE
  2
VIEW
  5
6
330
0
100
AcDbSymbolTable
 70
    0
  0
ENDTAB
  0
TABLE
  2
UCS
  5
7
330
0
100
AcDbSymbolTable
 70
    0
  0
ENDTAB
  0
TABLE
  2
APPID
  5
9
330
0
100
AcDbSymbolTable
 70
    1
  0
APPID
  5
12
330
9
100
AcDbSymbolTableRecord
100
AcDbRegAppTableRecord
  2
ACAD
 70
    0
  0
APPID
  5
4D
330
9
100
AcDbSymbolTableRecord
100
AcDbRegAppTableRecord
  2
LibreCad
 70
    0
  0
ENDTAB
  0
TABLE
  2
DIMSTYLE
  5
A
330
0
100
AcDbSymbolTable
 70
    1
100
AcDbDimStyleTable
 71
    1
  0
DIMSTYLE
105
4E
330
A
100
AcDbSymbolTableRecord
100
AcDbDimStyleTableRecord
  2
Standard
 70
    0
 40
1
 41
2.5
 42
0.625
 43
0.38
 44
1.25
 45
0
 46
0
 47
0
 48
0
 49
1
140
2.5
141
0.09
142
0
143
25.4
144
1
145
0
146
1
147
0.625
148
0
 71
    0
 72
    0
 73
    0
 74
    1
 75
    0
 76
    0
 77
    0
 78
    8
 79
    0
170
    0
171
    2
172
    0
173
    0
174
    0
175
    0
176
    0
177
    0
178
    0
179
    0
271
    2
272
    4
273
    2
274
    2
275
    0
276
    0
277
    2
278
   44
279
    0
280
    0
281
    0
282
    0
283
    1
284
    0
285
    0
286
    0
288
    0
289
    3
340
4C
  0
ENDTAB
  0
TABLE
  2
BLOCK_RECORD
  5
1
330
0
100
AcDbSymbolTable
 70
    2
  0
BLOCK_RECORD
  5
1F
330
1
100
AcDbSymbolTableRecord
100
AcDbBlockTableRecord
  2
*Model_Space
 70
    0
280
    1
281
    0
  0
BLOCK_RECORD
  5
1E
330
1
100
AcDbSymbolTableRecord
100
AcDbBlockTableRecord
  2
*Paper_Space
 70
    0
280
    1
281
    0
  0
ENDTAB
  0
ENDSEC
  0
SECTION
  2
BLOCKS
  0
BLOCK
  5
20
330
1F
100
AcDbEntity
  8
0
100
AcDbBlockBegin
  2
*Model_Space
 70
    0
 10
0
 20
0
 30
0
  3
*Model_Space
  1

  0
ENDBLK
  5
21
330
1F
100
AcDbEntity
  8
0
100
AcDbBlockEnd
  0
BLOCK
  5
1C
330
1B
100
AcDbEntity
  8
0
100
AcDbBlockBegin
  2
*Paper_Space
 70
    0
 10
0
 20
0
 30
0
  3
*Paper_Space
  1

  0
ENDBLK
  5
1D
330
1F
100
AcDbEntity
  8
0
100
AcDbBlockEnd
  0
ENDSEC
  0
SECTION
  2
ENTITIES
  0
HATCH
  5
4F
100
AcDbEntity
  8
Engraving
  6
ByLayer
 62
  256
370
   -1
100
AcDbHatch
 10
0
 20
0
 30
0
210
0
220
0
230
1
  2
SOLID
 70
    1
 71
    0
 91
    1
 92
    0
 93
    6
 72
    1
 10
72.90000000000001
 20
-39.9
 11
73.00000000000001
 21
-40
 72
    1
 10
73.00000000000001
 20
-40
 11
72.10000000000001
 21
-40
 72
    1
 10
72.10000000000001
 20
-40
 11
71.40000000000001
 21
-39.1
 72
    1
 10
71.40000000000001
 20
-39.1
 11
71.40000000000001
 21
-38.9
 72
    1
 10
71.40000000000001
 20
-38.9
 11
72.30000000000001
 21
-39.3
 72
    1
 10
72.30000000000001
 20
-39.3
 11
72.90000000000001
 21
-39.9
 97
    0
 75
    0
 76
    1
 98
    0
  0
HATCH
  5
50
100
AcDbEntity
  8
Engraving
  6
ByLayer
 62
  256
370
   -1
100
AcDbHatch
 10
0
 20
0
 30
0
210
0
220
0
230
1
  2
SOLID
 70
    1
 71
    0
 91
    1
 92
    0
 93
    4
 72
    1
 10
71.09999999999999
 20
-40
 11
71.10000067935067
 21
-38.7000000792159
 72
    2
 10
68.05000103706331
 20
-44.34999920945197
 40
6.420668811706575
 50
61.63880479246501
 51
81.49130479246503
 73
    1
 72
    1
 10
69
 20
-38
 11
70
 21
-40
 72
    1
 10
70
 20
-40
 11
71.09999999999999
 21
-40
 97
    0
 75
    0
 76
    1
 98
    0
  0
HATCH
  5
51
100
AcDbEntity
  8
Engraving
  6
ByLayer
 62
  256
370
   -1
100
AcDbHatch
 10
0
 20
0
 30
0
210
0
220
0
230
1
  2
SOLID
 70
    1
 71
    0
 91
    1
 92
    0
 93
    3
 72
    1
 10
68.60000000000001
 20
-40.00000000000001
 11
63.99999716268056
 21
-39.99996167950529
 72
    2
 10
68.52219328613164
 20
-44.11112974418815
 40
6.11162504044744
 50
222.2742486694866
 51
270.7294486694865
 73
    0
 72
    1
 10
68.59999999999999
 20
-38
 11
68.60000000000001
 21
-40.00000000000001
 97
    0
 75
    0
 76
    1
 98
    0
  0
LWPOLYLINE
  5
52
100
AcDbEntity
  8
Cuts
  6
ByLayer
 62
  256
370
   -1
100
AcDbPolyline
 90
    4
 70
    1
 43
0
 10
44
 20
-157
 10
74
 20
-157
 10
74
 20
-29
 10
44
 20
-29
  0
LINE
  5
53
100
AcDbEntity
  8
Cuts
  6
CONTINUOUS
 62
  256
370
   -1
100
AcDbLine
 10
64.417794
 20
-88.92177
 11
64.149986
 21
-89.141555
  0
CIRCLE
  5
54
100
AcDbEntity
  8
Cuts
  6
ByLayer
 62
  256
370
   -1
100
AcDbCircle
 10
66.52
 20
-91.79500000000002
 40
3.550003521125008
  0
CIRCLE
  5
55
100
AcDbEntity
  8
Cuts
  6
ByLayer
 62
  256
370
   -1
100
AcDbCircle
 10
51.5
 20
-92
 40
3.550000000000001
  0
CIRCLE
  5
56
100
AcDbEntity
  8
Cuts
  6
ByLayer
 62
  256
370
   -1
100
AcDbCircle
 10
65.47
 20
-61.505
 40
2.600004807687857
  0
CIRCLE
  5
57
100
AcDbEntity
  8
Cuts
  6
ByLayer
 62
  256
370
   -1
100
AcDbCircle
 10
51.60000000000001
 20
-63.5
 40
3.550000000000001
  0
LINE
  5
58
100
AcDbEntity
  8
Cuts
  6
CONTINUOUS
 62
  256
370
   -1
100
AcDbLine
 10
62.911583
 20
-135.975283
 11
62.980048
 21
-135.631088
  0
CIRCLE
  5
59
100
AcDbEntity
  8
Cuts
  6
ByLayer
 62
  256
370
   -1
100
AcDbCircle
 10
66.45
 20
-136.5
 40
3.549999999999997
  0
CIRCLE
  5
5A
100
AcDbEntity
  8
Cuts
  6
ByLayer
 62
  256
370
   -1
100
AcDbCircle
 10
51.40000000000001
 20
-136.505
 40
3.560003511234222
  0
CIRCLE
  5
5B
100
AcDbEntity
  8
Cuts
  6
ByLayer
 62
  256
370
   -1
100
AcDbCircle
 10
60.45
 20
-120.5
 40
3.549999999999997
  0
ARC
  5
5C
100
AcDbEntity
  8
Engraving
  6
ByLayer
 62
  256
370
   40
100
AcDbCircle
 10
67.5
 20
-43.5
 40
6.5192
100
AcDbArc
 50
32.4712
 51
147.529
  0
LINE
  5
5D
100
AcDbEntity
  8
Engraving
  6
ByLayer
 62
  256
370
   -1
100
AcDbLine
 10
72
 20
-40
 11
71
 21
-40
  0
LINE
  5
5E
100
AcDbEntity
  8
Engraving
  6
ByLayer
 62
  256
370
   -1
100
AcDbLine
 10
72.10000000000001
 20
-40
 11
71.10000000000001
 21
-40
  0
LINE
  5
5F
100
AcDbEntity
  8
Engraving
  6
ByLayer
 62
  256
370
   40
100
AcDbLine
 10
71.09999999999999
 20
-38.7
 11
72.09999999999999
 21
-40
  0
LINE
  5
60
100
AcDbEntity
  8
Engraving
  6
ByLayer
 62
  256
370
   40
100
AcDbLine
 10
67.5
 20
-35.3
 11
68.3
 21
-35.7
  0
LINE
  5
61
100
AcDbEntity
  8
Engraving
  6
ByLayer
 62
  256
370
   40
100
AcDbLine
 10
67.5
 20
-37
 11
67.5
 21
-35.3
  0
LINE
  5
62
100
AcDbEntity
  8
Engraving
  6
ByLayer
 62
  256
370
   40
100
AcDbLine
 10
68.3
 20
-35.7
 11
67.5
 21
-35.9
  0
LINE
  5
63
100
AcDbEntity
  8
Engraving
  6
ByLayer
 62
  256
370
   40
100
AcDbLine
 10
62
 20
-40
 11
64
 21
-40
  0
LWPOLYLINE
  5
64
100
AcDbEntity
  8
Engraving
  6
ByLayer
 62
  256
370
   40
100
AcDbPolyline
 90
    3
 70
    1
 43
0
 10
68.60000000000001
 20
-40.00000000000001
 10
63.99999716268056
 20
-39.99996167950529
 42
-0.2146333622703522
 10
68.59999999999999
 20
-38
  0
LWPOLYLINE
  5
65
100
AcDbEntity
  8
Engraving
  6
ByLayer
 62
  256
370
   40
100
AcDbPolyline
 90
    4
 70
    1
 43
0
 10
71.09999999999999
 20
-40
 10
71.10000067935067
 20
-38.70000007921589
 42
0.08684018357812404
 10
69
 20
-38
 10
70
 20
-40
  0
ARC
  5
66
100
AcDbEntity
  8
Engraving
  6
ByLayer
 62
  256
370
   40
100
AcDbCircle
 10
68.5
 20
-44
 40
6.0208
100
AcDbArc
 50
41.6335
 51
138.366
  0
LINE
  5
67
100
AcDbEntity
  8
Engraving
  6
ByLayer
 62
  256
370
   40
100
AcDbLine
 10
68.60000000000001
 20
-40.00000000000001
 11
73
 21
-40
  0
LINE
  5
68
100
AcDbEntity
  8
0
  6
ByLayer
 62
  256
370
   -1
100
AcDbLine
 10
71.40000000000001
 20
-38.9
 11
71.39999999999999
 21
-38.90009999999999
  0
LWPOLYLINE
  5
69
100
AcDbEntity
  8
Engraving
  6
ByLayer
 62
  256
370
   -1
100
AcDbPolyline
 90
    6
 70
    1
 43
0
 10
72.90000000000001
 20
-39.9
 10
73.00000000000001
 20
-40
 10
72.10000000000001
 20
-40
 10
71.40000000000001
 20
-39.1
 10
71.40000000000001
 20
-38.9
 10
72.30000000000001
 20
-39.3
  0
LINE
  5
6A
100
AcDbEntity
  8
Engraving
  6
ByLayer
 62
  256
370
   25
100
AcDbLine
 10
47.96784876870983
 20
-56.92754629807026
 11
48.96784876870983
 21
-58.92754629807026
  0
LINE
  5
6B
100
AcDbEntity
  8
Engraving
  6
ByLayer
 62
  256
370
   25
100
AcDbLine
 10
46.96784876870983
 20
-58.92754629807026
 11
47.96784876870983
 21
-56.92754629807026
  0
LINE
  5
6C
100
AcDbEntity
  8
Engraving
  6
ByLayer
 62
  256
370
   25
100
AcDbLine
 10
48.96784876870983
 20
-58.92754629807026
 11
49.76784876870983
 21
-56.92754629807026
  0
LINE
  5
6D
100
AcDbEntity
  8
Engraving
  6
ByLayer
 62
  256
370
   25
100
AcDbLine
 10
45.96784876870983
 20
-56.92754629807026
 11
46.96784876870983
 21
-58.92754629807026
  0
LINE
  5
6E
100
AcDbEntity
  8
Engraving
  6
ByLayer
 62
  256
370
   25
100
AcDbLine
 10
44.96784876870983
 20
-58.92754629807026
 11
45.96784876870983
 21
-56.92754629807026
  0
LINE
  5
6F
100
AcDbEntity
  8
Engraving
  6
ByLayer
 62
  256
370
   25
100
AcDbLine
 10
54.44024021455608
 20
-56.93041599805719
 11
54.44024021455608
 21
-58.93041599805719
  0
LINE
  5
70
100
AcDbEntity
  8
Engraving
  6
ByLayer
 62
  256
370
   25
100
AcDbLine
 10
54.44024021455608
 20
-56.93041599805719
 11
55.44024021455608
 21
-56.93041599805719
  0
LINE
  5
71
100
AcDbEntity
  8
Engraving
  6
ByLayer
 62
  256
370
   25
100
AcDbLine
 10
55.44024021455608
 20
-56.93041599805719
 11
55.44024021455608
 21
-58.93041599805719
  0
LINE
  5
72
100
AcDbEntity
  8
Engraving
  6
ByLayer
 62
  256
370
   25
100
AcDbLine
 10
55.44024021455608
 20
-58.93041599805719
 11
56.44024021455608
 21
-58.93041599805719
  0
LINE
  5
73
100
AcDbEntity
  8
Engraving
  6
ByLayer
 62
  256
370
   25
100
AcDbLine
 10
56.44024021455608
 20
-58.93041599805719
 11
56.44024021455608
 21
-56.93041599805719
  0
LINE
  5
74
100
AcDbEntity
  8
Engraving
  6
ByLayer
 62
  256
370
   25
100
AcDbLine
 10
56.44024021455608
 20
-56.93041599805719
 11
57.44024021455608
 21
-56.93041599805719
  0
LINE
  5
75
100
AcDbEntity
  8
Engraving
  6
ByLayer
 62
  256
370
   25
100
AcDbLine
 10
57.44024021455608
 20
-56.93041599805719
 11
57.44024021455608
 21
-58.93041599805719
  0
LINE
  5
76
100
AcDbEntity
  8
Engraving
  6
ByLayer
 62
  256
370
   25
100
AcDbLine
 10
57.44024021455608
 20
-58.93041599805719
 11
58.44024021455608
 21
-58.93041599805719
  0
LINE
  5
77
100
AcDbEntity
  8
Engraving
  6
ByLayer
 62
  256
370
   25
100
AcDbLine
 10
58.44024021455608
 20
-58.93041599805719
 11
58.44024021455608
 21
-56.93041599805719
  0
LINE
  5
78
100
AcDbEntity
  8
Engraving
  6
ByLayer
 62
  256
370
   25
100
AcDbLine
 10
58.44024021455608
 20
-56.93041599805719
 11
59.44024021455608
 21
-56.93041599805719
  0
LINE
  5
79
100
AcDbEntity
  8
Engraving
  6
ByLayer
 62
  256
370
   25
100
AcDbLine
 10
44.87509143728921
 20
-69.85429612261845
 11
45.54175810395588
 21
-72.85429612261845
  0
LINE
  5
7A
100
AcDbEntity
  8
Engraving
  6
ByLayer
 62
  256
370
   25
100
AcDbLine
 10
45.54175810395588
 20
-72.85429612261845
 11
46.20842477062255
 21
-70.85429612261845
  0
LINE
  5
7B
100
AcDbEntity
  8
Engraving
  6
ByLayer
 62
  256
370
   25
100
AcDbLine
 10
46.20842477062255
 20
-70.85429612261845
 11
46.87509143728921
 21
-72.85429612261845
  0
LINE
  5
7C
100
AcDbEntity
  8
Engraving
  6
ByLayer
 62
  256
370
   25
100
AcDbLine
 10
46.87509143728921
 20
-72.85429612261845
 11
47.54175810395588
 21
-69.85429612261845
  0
LINE
  5
7D
100
AcDbEntity
  8
Engraving
  6
ByLayer
 62
  256
370
   25
100
AcDbLine
 10
49.29175810395588
 20
-70.85429612261845
 11
49.95842477062255
 21
-70.85429612261845
  0
ARC
  5
7E
100
AcDbEntity
  8
Engraving
  6
ByLayer
 62
  256
370
   25
100
AcDbCircle
 10
49.95842514416014
 20
-71.35429574908086
 40
0.4999996264625478
100
AcDbArc
 50
359.999957195713
 51
90.00004280428696
  0
LINE
  5
7F
100
AcDbEntity
  8
Engraving
  6
ByLayer
 62
  256
370
   25
100
AcDbLine
 10
50.45842477062255
 20
-71.35429612261845
 11
50.45842477062255
 21
-72.85429612261845
  0
LINE
  5
80
100
AcDbEntity
  8
Engraving
  6
ByLayer
 62
  256
370
   25
100
AcDbLine
 10
50.45842477062255
 20
-72.85429612261845
 11
49.62509143728921
 21
-72.85429612261845
  0
ARC
  5
81
100
AcDbEntity
  8
Engraving
  6
ByLayer
 62
  256
370
   25
100
AcDbCircle
 10
49.62509143728921
 20
-72.35429612261845
 40
0.5
100
AcDbArc
 50
90
 51
270
  0
LINE
  5
82
100
AcDbEntity
  8
Engraving
  6
ByLayer
 62
  256
370
   25
100
AcDbLine
 10
49.62509143728921
 20
-71.85429612261845
 11
50.45842477062255
 21
-71.85429612261845
  0
LINE
  5
83
100
AcDbEntity
  8
Engraving
  6
ByLayer
 62
  256
370
   25
100
AcDbLine
 10
51.45842477062269
 20
-70.85429612261845
 11
52.12509143728936
 21
-72.85429612261845
  0
LINE
  5
84
100
AcDbEntity
  8
Engraving
  6
ByLayer
 62
  256
370
   25
100
AcDbLine
 10
52.12509143728936
 20
-72.85429612261845
 11
52.79175810395603
 21
-70.85429612261845
  0
LINE
  5
85
100
AcDbEntity
  8
Engraving
  6
ByLayer
 62
  256
370
   25
100
AcDbLine
 10
55.12509143728936
 20
-72.85429612261845
 11
54.29175810395602
 21
-72.85429612261845
  0
ARC
  5
86
100
AcDbEntity
  8
Engraving
  6
ByLayer
 62
  256
370
   25
100
AcDbCircle
 10
54.29175773041843
 20
-72.35429649615604
 40
0.4999996264625478
100
AcDbArc
 50
179.999957195713
 51
270.000042804287
  0
LINE
  5
87
100
AcDbEntity
  8
Engraving
  6
ByLayer
 62
  256
370
   25
100
AcDbLine
 10
53.79175810395602
 20
-72.35429612261845
 11
53.79175810395602
 21
-71.52096278928512
  0
ARC
  5
88
100
AcDbEntity
  8
Engraving
  6
ByLayer
 62
  256
370
   25
100
AcDbCircle
 10
54.45842477062268
 20
-71.52096278928512
 40
0.6666666666666666
100
AcDbArc
 50
0
 51
180
  0
LINE
  5
89
100
AcDbEntity
  8
Engraving
  6
ByLayer
 62
  256
370
   25
100
AcDbLine
 10
55.12509143728936
 20
-71.52096278928512
 11
55.12509143728936
 21
-71.85429612261845
  0
LINE
  5
8A
100
AcDbEntity
  8
Engraving
  6
ByLayer
 62
  256
370
   25
100
AcDbLine
 10
55.12509143728936
 20
-71.85429612261845
 11
53.79175810395602
 21
-71.85429612261845
  0
LINE
  5
8B
100
AcDbEntity
  8
Engraving
  6
ByLayer
 62
  256
370
   25
100
AcDbLine
 10
56.45842477062283
 20
-72.85429612261845
 11
56.45842477062283
 21
-70.35429612261845
  0
ARC
  5
8C
100
AcDbEntity
  8
Engraving
  6
ByLayer
 62
  256
370
   25
100
AcDbCircle
 10
56.95842439708523
 20
-70.35429574908086
 40
0.4999996264625478
100
AcDbArc
 50
89.99995719571304
 51
180.000042804287
  0
LINE
  5
8D
100
AcDbEntity
  8
Engraving
  6
ByLayer
 62
  256
370
   25
100
AcDbLine
 10
56.95842477062283
 20
-69.85429612261845
 11
57.12509143728949
 21
-69.85429612261845
  0
LINE
  5
8E
100
AcDbEntity
  8
Engraving
  6
ByLayer
 62
  256
370
   25
100
AcDbLine
 10
56.12509143728949
 20
-70.85429612261845
 11
57.12509143728949
 21
-70.85429612261845
  0
ARC
  5
8F
100
AcDbEntity
  8
Engraving
  6
ByLayer
 62
  256
370
   25
100
AcDbCircle
 10
58.79175810395616
 20
-72.18762945595178
 40
0.6666666666666666
100
AcDbArc
 50
180
 51
0
  0
LINE
  5
90
100
AcDbEntity
  8
Engraving
  6
ByLayer
 62
  256
370
   25
100
AcDbLine
 10
58.12509143728949
 20
-72.18762945595178
 11
58.12509143728949
 21
-71.52096278928512
  0
ARC
  5
91
100
AcDbEntity
  8
Engraving
  6
ByLayer
 62
  256
370
   25
100
AcDbCircle
 10
58.79175810395616
 20
-71.52096278928512
 40
0.6666666666666666
100
AcDbArc
 50
0
 51
180
  0
LINE
  5
92
100
AcDbEntity
  8
Engraving
  6
ByLayer
 62
  256
370
   25
100
AcDbLine
 10
59.45842477062283
 20
-71.52096278928512
 11
59.45842477062283
 21
-72.18762945595178
  0
LINE
  5
93
100
AcDbEntity
  8
Engraving
  6
ByLayer
 62
  256
370
   25
100
AcDbLine
 10
60.45842477062283
 20
-72.85429612261845
 11
60.45842477062283
 21
-70.85429612261845
  0
LINE
  5
94
100
AcDbEntity
  8
Engraving
  6
ByLayer
 62
  256
370
   25
100
AcDbLine
 10
60.45842477062283
 20
-70.85429612261845
 11
61.45842477062283
 21
-70.85429612261845
  0
LINE
  5
95
100
AcDbEntity
  8
Engraving
  6
ByLayer
 62
  256
370
   25
100
AcDbLine
 10
61.45842477062283
 20
-70.85429612261845
 11
61.45842477062283
 21
-71.18762945595178
  0
LINE
  5
96
100
AcDbEntity
  8
Engraving
  6
ByLayer
 62
  256
370
   25
100
AcDbLine
 10
63.45842477062283
 20
-72.85429612261845
 11
63.45842477062283
 21
-70.85429612261845
  0
LINE
  5
97
100
AcDbEntity
  8
Engraving
  6
ByLayer
 62
  256
370
   25
100
AcDbLine
 10
62.45842477062283
 20
-72.85429612261845
 11
62.45842477062283
 21
-70.85429612261845
  0
LINE
  5
98
100
AcDbEntity
  8
Engraving
  6
ByLayer
 62
  256
370
   25
100
AcDbLine
 10
62.45842477062283
 20
-70.85429612261845
 11
63.95842477062283
 21
-70.85429612261845
  0
ARC
  5
99
100
AcDbEntity
  8
Engraving
  6
ByLayer
 62
  256
370
   25
100
AcDbCircle
 10
63.95842514416042
 20
-71.35429574908086
 40
0.4999996264625478
100
AcDbArc
 50
359.999957195713
 51
90.00004280428696
  0
LINE
  5
9A
100
AcDbEntity
  8
Engraving
  6
ByLayer
 62
  256
370
   25
100
AcDbLine
 10
64.45842477062283
 20
-71.35429612261845
 11
64.45842477062283
 21
-72.85429612261845
  0
LINE
  5
9B
100
AcDbEntity
  8
Engraving
  6
ByLayer
 62
  256
370
   25
100
AcDbLine
 10
47.83333333333334
 20
-99
 11
47.83333333333334
 21
-102
  0
LINE
  5
9C
100
AcDbEntity
  8
Engraving
  6
ByLayer
 62
  256
370
   25
100
AcDbLine
 10
47.83333333333334
 20
-102
 11
49.16666666666667
 21
-102
  0
LINE
  5
9D
100
AcDbEntity
  8
Engraving
  6
ByLayer
 62
  256
370
   25
100
AcDbLine
 10
50.16666666666666
 20
-102
 11
50.16666666666666
 21
-99
  0
LINE
  5
9E
100
AcDbEntity
  8
Engraving
  6
ByLayer
 62
  256
370
   25
100
AcDbLine
 10
50.16666666666666
 20
-99
 11
51.5
 21
-99
  0
LINE
  5
9F
100
AcDbEntity
  8
Engraving
  6
ByLayer
 62
  256
370
   25
100
AcDbLine
 10
50.16666666666666
 20
-100.3333333333333
 11
51.5
 21
-100.3333333333333
  0
ARC
  5
A0
100
AcDbEntity
  8
Engraving
  6
ByLayer
 62
  256
370
   25
100
AcDbCircle
 10
53.33333333333334
 20
-101.1666666666667
 40
0.8333333333333333
100
AcDbArc
 50
180
 51
0
  0
LINE
  5
A1
100
AcDbEntity
  8
Engraving
  6
ByLayer
 62
  256
370
   25
100
AcDbLine
 10
52.5
 20
-101.1666666666667
 11
52.5
 21
-99.83333333333333
  0
ARC
  5
A2
100
AcDbEntity
  8
Engraving
  6
ByLayer
 62
  256
370
   25
100
AcDbCircle
 10
53.33333333333334
 20
-99.83333333333333
 40
0.8333333333333333
100
AcDbArc
 50
0
 51
180
  0
LINE
  5
A3
100
AcDbEntity
  8
Engraving
  6
ByLayer
 62
  256
370
   25
100
AcDbLine
 10
54.16666666666666
 20
-99.83333333333333
 11
54.16666666666666
 21
-101.1666666666667
  0
LINE
  5
A4
100
AcDbEntity
  8
Engraving
  6
ByLayer
 62
  256
370
   25
100
AcDbLine
 10
46.99999999999993
 20
-107
 11
46.99999999999993
 21
-104
  0
LINE
  5
A5
100
AcDbEntity
  8
Engraving
  6
ByLayer
 62
  256
370
   25
100
AcDbLine
 10
46.99999999999993
 20
-104
 11
48.33333333333326
 21
-104
  0
LINE
  5
A6
100
AcDbEntity
  8
Engraving
  6
ByLayer
 62
  256
370
   25
100
AcDbLine
 10
46.99999999999993
 20
-105.3333333333333
 11
48.33333333333326
 21
-105.3333333333333
  0
LINE
  5
A7
100
AcDbEntity
  8
Engraving
  6
ByLayer
 62
  256
370
   25
100
AcDbLine
 10
49.33333333333326
 20
-107
 11
49.33333333333326
 21
-105
  0
LINE
  5
A8
100
AcDbEntity
  8
Engraving
  6
ByLayer
 62
  256
370
   25
100
AcDbLine
 10
49.33333333333326
 20
-105
 11
50.33333333333326
 21
-105
  0
LINE
  5
A9
100
AcDbEntity
  8
Engraving
  6
ByLayer
 62
  256
370
   25
100
AcDbLine
 10
50.33333333333326
 20
-105
 11
50.33333333333326
 21
-105.3333333333333
  0
LINE
  5
AA
100
AcDbEntity
  8
Engraving
  6
ByLayer
 62
  256
370
   25
100
AcDbLine
 10
52.6666666666666
 20
-107
 11
51.83333333333326
 21
-107
  0
ARC
  5
AB
100
AcDbEntity
  8
Engraving
  6
ByLayer
 62
  256
370
   25
100
AcDbCircle
 10
51.83333295979568
 20
-106.5000003735376
 40
0.4999996264625478
100
AcDbArc
 50
179.999957195713
 51
270.000042804287
  0
LINE
  5
AC
100
AcDbEntity
  8
Engraving
  6
ByLayer
 62
  256
370
   25
100
AcDbLine
 10
51.33333333333326
 20
-106.5
 11
51.33333333333326
 21
-105.6666666666667
  0
ARC
  5
AD
100
AcDbEntity
  8
Engraving
  6
ByLayer
 62
  256
370
   25
100
AcDbCircle
 10
51.99999999999993
 20
-105.6666666666667
 40
0.6666666666666666
100
AcDbArc
 50
0
 51
180
  0
LINE
  5
AE
100
AcDbEntity
  8
Engraving
  6
ByLayer
 62
  256
370
   25
100
AcDbLine
 10
52.6666666666666
 20
-105.6666666666667
 11
52.6666666666666
 21
-106
  0
LINE
  5
AF
100
AcDbEntity
  8
Engraving
  6
ByLayer
 62
  256
370
   25
100
AcDbLine
 10
52.6666666666666
 20
-106
 11
51.33333333333326
 21
-106
  0
LINE
  5
B0
100
AcDbEntity
  8
Engraving
  6
ByLayer
 62
  256
370
   25
100
AcDbLine
 10
55.00000000000007
 20
-108
 11
55.00000000000007
 21
-105
  0
LINE
  5
B1
100
AcDbEntity
  8
Engraving
  6
ByLayer
 62
  256
370
   25
100
AcDbLine
 10
55.00000000000007
 20
-105
 11
54.16666666666674
 21
-105
  0
ARC
  5
B2
100
AcDbEntity
  8
Engraving
  6
ByLayer
 62
  256
370
   25
100
AcDbCircle
 10
54.16667824319981
 20
-105.5000115765331
 40
0.5000115766670887
100
AcDbArc
 50
90.00132654225951
 51
179.9986734577405
  0
LINE
  5
B3
100
AcDbEntity
  8
Engraving
  6
ByLayer
 62
  256
370
   25
100
AcDbLine
 10
53.66666666666674
 20
-105.5
 11
53.66666666666674
 21
-106.5
  0
ARC
  5
B4
100
AcDbEntity
  8
Engraving
  6
ByLayer
 62
  256
370
   25
100
AcDbCircle
 10
54.16667824319981
 20
-106.4999884234669
 40
0.5000115766670887
100
AcDbArc
 50
180.0013265422595
 51
269.9986734577404
  0
LINE
  5
B5
100
AcDbEntity
  8
Engraving
  6
ByLayer
 62
  256
370
   25
100
AcDbLine
 10
54.16666666666674
 20
-107
 11
55.00000000000007
 21
-107
  0
LINE
  5
B6
100
AcDbEntity
  8
Engraving
  6
ByLayer
 62
  256
370
   25
100
AcDbLine
 10
63.83333333333334
 20
-99
 11
63.83333333333334
 21
-102
  0
LINE
  5
B7
100
AcDbEntity
  8
Engraving
  6
ByLayer
 62
  256
370
   25
100
AcDbLine
 10
63.83333333333334
 20
-102
 11
65.16666666666667
 21
-102
  0
LINE
  5
B8
100
AcDbEntity
  8
Engraving
  6
ByLayer
 62
  256
370
   25
100
AcDbLine
 10
66.16666666666667
 20
-102
 11
66.16666666666667
 21
-99
  0
LINE
  5
B9
100
AcDbEntity
  8
Engraving
  6
ByLayer
 62
  256
370
   25
100
AcDbLine
 10
66.16666666666667
 20
-99
 11
67.5
 21
-99
  0
LINE
  5
BA
100
AcDbEntity
  8
Engraving
  6
ByLayer
 62
  256
370
   25
100
AcDbLine
 10
66.16666666666667
 20
-100.3333333333333
 11
67.5
 21
-100.3333333333333
  0
ARC
  5
BB
100
AcDbEntity
  8
Engraving
  6
ByLayer
 62
  256
370
   25
100
AcDbCircle
 10
69.33333333333333
 20
-101.1666666666667
 40
0.8333333333333333
100
AcDbArc
 50
180
 51
0
  0
LINE
  5
BC
100
AcDbEntity
  8
Engraving
  6
ByLayer
 62
  256
370
   25
100
AcDbLine
 10
68.5
 20
-101.1666666666667
 11
68.5
 21
-99.83333333333333
  0
ARC
  5
BD
100
AcDbEntity
  8
Engraving
  6
ByLayer
 62
  256
370
   25
100
AcDbCircle
 10
69.33333333333333
 20
-99.83333333333333
 40
0.8333333333333333
100
AcDbArc
 50
0
 51
180
  0
LINE
  5
BE
100
AcDbEntity
  8
Engraving
  6
ByLayer
 62
  256
370
   25
100
AcDbLine
 10
70.16666666666667
 20
-99.83333333333333
 11
70.16666666666667
 21
-101.1666666666667
  0
ARC
  5
BF
100
AcDbEntity
  8
Engraving
  6
ByLayer
 62
  256
370
   25
100
AcDbCircle
 10
64.83333333333326
 20
-106.1666666666667
 40
0.8333333333333333
100
AcDbArc
 50
180
 51
0
  0
LINE
  5
C0
100
AcDbEntity
  8
Engraving
  6
ByLayer
 62
  256
370
   25
100
AcDbLine
 10
63.99999999999993
 20
-106.1666666666667
 11
63.99999999999993
 21
-104.8333333333333
  0
ARC
  5
C1
100
AcDbEntity
  8
Engraving
  6
ByLayer
 62
  256
370
   25
100
AcDbCircle
 10
64.83333333333326
 20
-104.8333333333333
 40
0.8333333333333333
100
AcDbArc
 50
0
 51
180
  0
LINE
  5
C2
100
AcDbEntity
  8
Engraving
  6
ByLayer
 62
  256
370
   25
100
AcDbLine
 10
65.6666666666666
 20
-104.8333333333333
 11
65.6666666666666
 21
-106.1666666666667
  0
LINE
  5
C3
100
AcDbEntity
  8
Engraving
  6
ByLayer
 62
  256
370
   25
100
AcDbLine
 10
66.6666666666666
 20
-105
 11
66.6666666666666
 21
-106.5
  0
ARC
  5
C4
100
AcDbEntity
  8
Engraving
  6
ByLayer
 62
  256
370
   25
100
AcDbCircle
 10
67.16666629312901
 20
-106.5000003735376
 40
0.4999996264625478
100
AcDbArc
 50
179.999957195713
 51
270.000042804287
  0
LINE
  5
C5
100
AcDbEntity
  8
Engraving
  6
ByLayer
 62
  256
370
   25
100
AcDbLine
 10
67.1666666666666
 20
-107
 11
67.99999999999993
 21
-107
  0
LINE
  5
C6
100
AcDbEntity
  8
Engraving
  6
ByLayer
 62
  256
370
   25
100
AcDbLine
 10
67.99999999999993
 20
-107
 11
67.99999999999993
 21
-105
  0
LINE
  5
C7
100
AcDbEntity
  8
Engraving
  6
ByLayer
 62
  256
370
   25
100
AcDbLine
 10
69.3333333333334
 20
-107
 11
69.3333333333334
 21
-104
  0
LINE
  5
C8
100
AcDbEntity
  8
Engraving
  6
ByLayer
 62
  256
370
   25
100
AcDbLine
 10
69.00000000000007
 20
-105
 11
70.00000000000007
 21
-105
  0
LINE
  5
C9
100
AcDbEntity
  8
Engraving
  6
ByLayer
 62
  256
370
   25
100
AcDbLine
 10
46.99999999999991
 20
-143
 11
47.99999999999991
 21
-146
  0
LINE
  5
CA
100
AcDbEntity
  8
Engraving
  6
ByLayer
 62
  256
370
   25
100
AcDbLine
 10
47.99999999999991
 20
-146
 11
48.99999999999991
 21
-143
  0
LINE
  5
CB
100
AcDbEntity
  8
Engraving
  6
ByLayer
 62
  256
370
   25
100
AcDbLine
 10
51.33333333333324
 20
-146
 11
50.66666666666657
 21
-146
  0
ARC
  5
CC
100
AcDbEntity
  8
Engraving
  6
ByLayer
 62
  256
370
   25
100
AcDbCircle
 10
50.66666616861645
 20
-145.3333338313834
 40
0.6666661686167303
100
AcDbArc
 50
179.999957195713
 51
270.000042804287
  0
LINE
  5
CD
100
AcDbEntity
  8
Engraving
  6
ByLayer
 62
  256
370
   25
100
AcDbLine
 10
49.99999999999991
 20
-145.3333333333333
 11
49.99999999999991
 21
-143.6666666666667
  0
ARC
  5
CE
100
AcDbEntity
  8
Engraving
  6
ByLayer
 62
  256
370
   25
100
AcDbCircle
 10
50.66666616861645
 20
-143.6666661686166
 40
0.6666661686167303
100
AcDbArc
 50
89.99995719571304
 51
180.000042804287
  0
LINE
  5
CF
100
AcDbEntity
  8
Engraving
  6
ByLayer
 62
  256
370
   25
100
AcDbLine
 10
50.66666666666657
 20
-143
 11
51.33333333333324
 21
-143
  0
ARC
  5
D0
100
AcDbEntity
  8
Engraving
  6
ByLayer
 62
  256
370
   25
100
AcDbCircle
 10
53.16666666666676
 20
-145.1666666666667
 40
0.8333333333333333
100
AcDbArc
 50
180
 51
0
  0
LINE
  5
D1
100
AcDbEntity
  8
Engraving
  6
ByLayer
 62
  256
370
   25
100
AcDbLine
 10
52.33333333333343
 20
-145.1666666666667
 11
52.33333333333343
 21
-143.8333333333333
  0
ARC
  5
D2
100
AcDbEntity
  8
Engraving
  6
ByLayer
 62
  256
370
   25
100
AcDbCircle
 10
53.16666666666676
 20
-143.8333333333333
 40
0.8333333333333333
100
AcDbArc
 50
0
 51
180
  0
LINE
  5
D3
100
AcDbEntity
  8
Engraving
  6
ByLayer
 62
  256
370
   25
100
AcDbLine
 10
54.00000000000009
 20
-143.8333333333333
 11
54.00000000000009
 21
-145.1666666666667
  0
LINE
  5
D4
100
AcDbEntity
  8
Engraving
  6
ByLayer
 62
  256
370
   25
100
AcDbLine
 10
46.49999999999993
 20
-151
 11
46.49999999999993
 21
-148
  0
LINE
  5
D5
100
AcDbEntity
  8
Engraving
  6
ByLayer
 62
  256
370
   25
100
AcDbLine
 10
46.49999999999993
 20
-148
 11
47.83333333333326
 21
-148
  0
LINE
  5
D6
100
AcDbEntity
  8
Engraving
  6
ByLayer
 62
  256
370
   25
100
AcDbLine
 10
46.49999999999993
 20
-149.3333333333333
 11
47.83333333333326
 21
-149.3333333333333
  0
LINE
  5
D7
100
AcDbEntity
  8
Engraving
  6
ByLayer
 62
  256
370
   25
100
AcDbLine
 10
48.83333333333326
 20
-151
 11
48.83333333333326
 21
-149
  0
LINE
  5
D8
100
AcDbEntity
  8
Engraving
  6
ByLayer
 62
  256
370
   25
100
AcDbLine
 10
48.83333333333326
 20
-149
 11
49.83333333333326
 21
-149
  0
LINE
  5
D9
100
AcDbEntity
  8
Engraving
  6
ByLayer
 62
  256
370
   25
100
AcDbLine
 10
49.83333333333326
 20
-149
 11
49.83333333333326
 21
-149.3333333333333
  0
LINE
  5
DA
100
AcDbEntity
  8
Engraving
  6
ByLayer
 62
  256
370
   25
100
AcDbLine
 10
52.1666666666666
 20
-151
 11
51.33333333333326
 21
-151
  0
ARC
  5
DB
100
AcDbEntity
  8
Engraving
  6
ByLayer
 62
  256
370
   25
100
AcDbCircle
 10
51.33333295979568
 20
-150.5000003735376
 40
0.4999996264625478
100
AcDbArc
 50
179.999957195713
 51
270.000042804287
  0
LINE
  5
DC
100
AcDbEntity
  8
Engraving
  6
ByLayer
 62
  256
370
   25
100
AcDbLine
 10
50.83333333333326
 20
-150.5
 11
50.83333333333326
 21
-149.6666666666667
  0
ARC
  5
DD
100
AcDbEntity
  8
Engraving
  6
ByLayer
 62
  256
370
   25
100
AcDbCircle
 10
51.49999999999993
 20
-149.6666666666667
 40
0.6666666666666666
100
AcDbArc
 50
0
 51
180
  0
LINE
  5
DE
100
AcDbEntity
  8
Engraving
  6
ByLayer
 62
  256
370
   25
100
AcDbLine
 10
52.1666666666666
 20
-149.6666666666667
 11
52.1666666666666
 21
-150
  0
LINE
  5
DF
100
AcDbEntity
  8
Engraving
  6
ByLayer
 62
  256
370
   25
100
AcDbLine
 10
52.1666666666666
 20
-150
 11
50.83333333333326
 21
-150
  0
LINE
  5
E0
100
AcDbEntity
  8
Engraving
  6
ByLayer
 62
  256
370
   25
100
AcDbLine
 10
54.50000000000007
 20
-152
 11
54.50000000000007
 21
-149
  0
LINE
  5
E1
100
AcDbEntity
  8
Engraving
  6
ByLayer
 62
  256
370
   25
100
AcDbLine
 10
54.50000000000007
 20
-149
 11
53.66666666666674
 21
-149
  0
ARC
  5
E2
100
AcDbEntity
  8
Engraving
  6
ByLayer
 62
  256
370
   25
100
AcDbCircle
 10
53.66667824319981
 20
-149.5000115765331
 40
0.5000115766670887
100
AcDbArc
 50
90.00132654225951
 51
179.9986734577405
  0
LINE
  5
E3
100
AcDbEntity
  8
Engraving
  6
ByLayer
 62
  256
370
   25
100
AcDbLine
 10
53.16666666666674
 20
-149.5
 11
53.16666666666674
 21
-150.5
  0
ARC
  5
E4
100
AcDbEntity
  8
Engraving
  6
ByLayer
 62
  256
370
   25
100
AcDbCircle
 10
53.66667824319981
 20
-150.4999884234669
 40
0.5000115766670887
100
AcDbArc
 50
180.0013265422595
 51
269.9986734577404
  0
LINE
  5
E5
100
AcDbEntity
  8
Engraving
  6
ByLayer
 62
  256
370
   25
100
AcDbLine
 10
53.66666666666674
 20
-151
 11
54.50000000000007
 21
-151
  0
LINE
  5
E6
100
AcDbEntity
  8
Engraving
  6
ByLayer
 62
  256
370
   25
100
AcDbLine
 10
62.49999999999991
 20
-143
 11
63.49999999999991
 21
-146
  0
LINE
  5
E7
100
AcDbEntity
  8
Engraving
  6
ByLayer
 62
  256
370
   25
100
AcDbLine
 10
63.49999999999991
 20
-146
 11
64.49999999999991
 21
-143
  0
LINE
  5
E8
100
AcDbEntity
  8
Engraving
  6
ByLayer
 62
  256
370
   25
100
AcDbLine
 10
66.83333333333323
 20
-146
 11
66.16666666666657
 21
-146
  0
ARC
  5
E9
100
AcDbEntity
  8
Engraving
  6
ByLayer
 62
  256
370
   25
100
AcDbCircle
 10
66.16666616861644
 20
-145.3333338313834
 40
0.6666661686167303
100
AcDbArc
 50
179.999957195713
 51
270.000042804287
  0
LINE
  5
EA
100
AcDbEntity
  8
Engraving
  6
ByLayer
 62
  256
370
   25
100
AcDbLine
 10
65.4999999999999
 20
-145.3333333333333
 11
65.4999999999999
 21
-143.6666666666667
  0
ARC
  5
EB
100
AcDbEntity
  8
Engraving
  6
ByLayer
 62
  256
370
   25
100
AcDbCircle
 10
66.16666616861644
 20
-143.6666661686166
 40
0.6666661686167303
100
AcDbArc
 50
89.99995719571304
 51
180.000042804287
  0
LINE
  5
EC
100
AcDbEntity
  8
Engraving
  6
ByLayer
 62
  256
370
   25
100
AcDbLine
 10
66.16666666666657
 20
-143
 11
66.83333333333323
 21
-143
  0
ARC
  5
ED
100
AcDbEntity
  8
Engraving
  6
ByLayer
 62
  256
370
   25
100
AcDbCircle
 10
68.66666666666676
 20
-145.1666666666667
 40
0.8333333333333333
100
AcDbArc
 50
180
 51
0
  0
LINE
  5
EE
100
AcDbEntity
  8
Engraving
  6
ByLayer
 62
  256
370
   25
100
AcDbLine
 10
67.83333333333343
 20
-145.1666666666667
 11
67.83333333333343
 21
-143.8333333333333
  0
ARC
  5
EF
100
AcDbEntity
  8
Engraving
  6
ByLayer
 62
  256
370
   25
100
AcDbCircle
 10
68.66666666666676
 20
-143.8333333333333
 40
0.8333333333333333
100
AcDbArc
 50
0
 51
180
  0
LINE
  5
F0
100
AcDbEntity
  8
Engraving
  6
ByLayer
 62
  256
370
   25
100
AcDbLine
 10
69.5000000000001
 20
-143.8333333333333
 11
69.5000000000001
 21
-145.1666666666667
  0
ARC
  5
F1
100
AcDbEntity
  8
Engraving
  6
ByLayer
 62
  256
370
   25
100
AcDbCircle
 10
63.83333333333326
 20
-150.1666666666667
 40
0.8333333333333333
100
AcDbArc
 50
180
 51
0
  0
LINE
  5
F2
100
AcDbEntity
  8
Engraving
  6
ByLayer
 62
  256
370
   25
100
AcDbLine
 10
62.99999999999993
 20
-150.1666666666667
 11
62.99999999999993
 21
-148.8333333333333
  0
ARC
  5
F3
100
AcDbEntity
  8
Engraving
  6
ByLayer
 62
  256
370
   25
100
AcDbCircle
 10
63.83333333333326
 20
-148.8333333333333
 40
0.8333333333333333
100
AcDbArc
 50
0
 51
180
  0
LINE
  5
F4
100
AcDbEntity
  8
Engraving
  6
ByLayer
 62
  256
370
   25
100
AcDbLine
 10
64.6666666666666
 20
-148.8333333333333
 11
64.6666666666666
 21
-150.1666666666667
  0
LINE
  5
F5
100
AcDbEntity
  8
Engraving
  6
ByLayer
 62
  256
370
   25
100
AcDbLine
 10
65.6666666666666
 20
-149
 11
65.6666666666666
 21
-150.5
  0
ARC
  5
F6
100
AcDbEntity
  8
Engraving
  6
ByLayer
 62
  256
370
   25
100
AcDbCircle
 10
66.16666629312901
 20
-150.5000003735376
 40
0.4999996264625478
100
AcDbArc
 50
179.999957195713
 51
270.000042804287
  0
LINE
  5
F7
100
AcDbEntity
  8
Engraving
  6
ByLayer
 62
  256
370
   25
100
AcDbLine
 10
66.1666666666666
 20
-151
 11
66.99999999999993
 21
-151
  0
LINE
  5
F8
100
AcDbEntity
  8
Engraving
  6
ByLayer
 62
  256
370
   25
100
AcDbLine
 10
66.99999999999993
 20
-151
 11
66.99999999999993
 21
-149
  0
LINE
  5
F9
100
AcDbEntity
  8
Engraving
  6
ByLayer
 62
  256
370
   25
100
AcDbLine
 10
68.3333333333334
 20
-151
 11
68.3333333333334
 21
-148
  0
LINE
  5
FA
100
AcDbEntity
  8
Engraving
  6
ByLayer
 62
  256
370
   25
100
AcDbLine
 10
68.00000000000007
 20
-149
 11
69.00000000000007
 21
-149
  0
LINE
  5
FB
100
AcDbEntity
  8
Engraving
  6
ByLayer
 62
  256
370
   25
100
AcDbLine
 10
60.61111111111081
 20
-154
 11
61.27777777777747
 21
-154
  0
ARC
  5
FC
100
AcDbEntity
  8
Engraving
  6
ByLayer
 62
  256
370
   25
100
AcDbCircle
 10
61.27777810981089
 20
-153.555555887589
 40
0.4444441124111536
100
AcDbArc
 50
269.999957195713
 51
4.280428697680878e-05
  0
LINE
  5
FD
100
AcDbEntity
  8
Engraving
  6
ByLayer
 62
  256
370
   25
100
AcDbLine
 10
61.72222222222192
 20
-153.5555555555555
 11
61.72222222222192
 21
-152.4444444444445
  0
ARC
  5
FE
100
AcDbEntity
  8
Engraving
  6
ByLayer
 62
  256
370
   25
100
AcDbCircle
 10
61.27777810981089
 20
-152.444444112411
 40
0.4444441124111536
100
AcDbArc
 50
359.999957195713
 51
90.00004280428698
  0
LINE
  5
FF
100
AcDbEntity
  8
Engraving
  6
ByLayer
 62
  256
370
   25
100
AcDbLine
 10
61.27777777777747
 20
-152
 11
60.61111111111081
 21
-152
  0
LINE
  5
100
100
AcDbEntity
  8
Engraving
  6
ByLayer
 62
  256
370
   25
100
AcDbLine
 10
60.61111111111081
 20
-152
 11
60.61111111111081
 21
-154
  0
LINE
  5
101
100
AcDbEntity
  8
Engraving
  6
ByLayer
 62
  256
370
   25
100
AcDbLine
 10
62.38888888888872
 20
-152.6666666666667
 11
62.38888888888872
 21
-153.6666666666667
  0
ARC
  5
102
100
AcDbEntity
  8
Engraving
  6
ByLayer
 62
  256
370
   25
100
AcDbCircle
 10
62.72222197319699
 20
-153.6666669156917
 40
0.3333330843083652
100
AcDbArc
 50
179.999957195713
 51
270.000042804287
  0
LINE
  5
103
100
AcDbEntity
  8
Engraving
  6
ByLayer
 62
  256
370
   25
100
AcDbLine
 10
62.72222222222205
 20
-154
 11
63.2777777777776
 21
-154
  0
LINE
  5
104
100
AcDbEntity
  8
Engraving
  6
ByLayer
 62
  256
370
   25
100
AcDbLine
 10
63.2777777777776
 20
-154
 11
63.2777777777776
 21
-152.6666666666667
  0
LINE
  5
105
100
AcDbEntity
  8
Engraving
  6
ByLayer
 62
  256
370
   25
100
AcDbLine
 10
63.94444444444436
 20
-152
 11
63.94444444444436
 21
-154
  0
LINE
  5
106
100
AcDbEntity
  8
Engraving
  6
ByLayer
 62
  256
370
   25
100
AcDbLine
 10
63.94444444444436
 20
-154
 11
64.49999999999991
 21
-154
  0
ARC
  5
107
100
AcDbEntity
  8
Engraving
  6
ByLayer
 62
  256
370
   25
100
AcDbCircle
 10
64.50000024902498
 20
-153.6666669156917
 40
0.3333330843083652
100
AcDbArc
 50
269.999957195713
 51
4.280428697680878e-05
  0
LINE
  5
108
100
AcDbEntity
  8
Engraving
  6
ByLayer
 62
  256
370
   25
100
AcDbLine
 10
64.83333333333326
 20
-153.6666666666667
 11
64.83333333333326
 21
-153
  0
ARC
  5
109
100
AcDbEntity
  8
Engraving
  6
ByLayer
 62
  256
370
   25
100
AcDbCircle
 10
64.50000024902498
 20
-152.999999750975
 40
0.3333330843083652
100
AcDbArc
 50
359.999957195713
 51
90.00004280428696
  0
LINE
  5
10A
100
AcDbEntity
  8
Engraving
  6
ByLayer
 62
  256
370
   25
100
AcDbLine
 10
64.49999999999991
 20
-152.6666666666667
 11
63.94444444444436
 21
-152.6666666666667
  0
ARC
  5
10B
100
AcDbEntity
  8
Engraving
  6
ByLayer
 62
  256
370
   25
100
AcDbCircle
 10
67.66666593086352
 20
-152.8888910962984
 40
1.111108903701848
100
AcDbArc
 50
233.1300644115061
 51
270.0000379426498
  0
ARC
  5
10C
100
AcDbEntity
  8
Engraving
  6
ByLayer
 62
  256
370
   25
100
AcDbCircle
 10
67.66666649650237
 20
-153.5555558093956
 40
0.4444441906044482
100
AcDbArc
 50
270.0000219368293
 51
62.98101938430567
  0
LINE
  5
10D
100
AcDbEntity
  8
Engraving
  6
ByLayer
 62
  256
370
   25
100
AcDbLine
 10
67.86857111111112
 20
-153.15962
 11
67.24254000000002
 21
-152.84038
  0
ARC
  5
10E
100
AcDbEntity
  8
Engraving
  6
ByLayer
 62
  256
370
   25
100
AcDbCircle
 10
67.44444461460876
 20
-152.4444441906044
 40
0.4444441906044482
100
AcDbArc
 50
90.00002193682934
 51
242.9810193843057
  0
ARC
  5
10F
100
AcDbEntity
  8
Engraving
  6
ByLayer
 62
  256
370
   25
100
AcDbCircle
 10
67.44444440555769
 20
-153.4444446388783
 40
1.4444446388783
100
AcDbArc
 50
67.38013659445406
 51
89.99999845750554
  0
LINE
  5
110
100
AcDbEntity
  8
Engraving
  6
ByLayer
 62
  256
370
   25
100
AcDbLine
 10
68.77777735377349
 20
-154
 11
68.77777735377349
 21
-152.6666666666667
  0
LINE
  5
111
100
AcDbEntity
  8
Engraving
  6
ByLayer
 62
  256
370
   25
100
AcDbLine
 10
68.77777735377349
 20
-152.1111111111111
 11
68.77777735377349
 21
-152
  0
LINE
  5
112
100
AcDbEntity
  8
Engraving
  6
ByLayer
 62
  256
370
   25
100
AcDbLine
 10
69.44444402044016
 20
-154
 11
69.44444402044016
 21
-152.6666666666667
  0
LINE
  5
113
100
AcDbEntity
  8
Engraving
  6
ByLayer
 62
  256
370
   25
100
AcDbLine
 10
69.44444402044016
 20
-152.6666666666667
 11
70.11111068710683
 21
-152.6666666666667
  0
LINE
  5
114
100
AcDbEntity
  8
Engraving
  6
ByLayer
 62
  256
370
   25
100
AcDbLine
 10
70.11111068710683
 20
-152.6666666666667
 11
70.11111068710683
 21
-152.8888888888889
  0
LINE
  5
115
100
AcDbEntity
  8
Engraving
  6
ByLayer
 62
  256
370
   25
100
AcDbLine
 10
71.66666624266237
 20
-154
 11
71.11111068710682
 21
-154
  0
ARC
  5
116
100
AcDbEntity
  8
Engraving
  6
ByLayer
 62
  256
370
   25
100
AcDbCircle
 10
71.11111043808175
 20
-153.6666669156917
 40
0.3333330843083652
100
AcDbArc
 50
179.999957195713
 51
270.000042804287
  0
LINE
  5
117
100
AcDbEntity
  8
Engraving
  6
ByLayer
 62
  256
370
   25
100
AcDbLine
 10
70.77777735377349
 20
-153.6666666666667
 11
70.77777735377349
 21
-153.1111111111111
  0
ARC
  5
118
100
AcDbEntity
  8
Engraving
  6
ByLayer
 62
  256
370
   25
100
AcDbCircle
 10
71.22222179821793
 20
-153.1111111111111
 40
0.4444444444444444
100
AcDbArc
 50
0
 51
180
  0
LINE
  5
119
100
AcDbEntity
  8
Engraving
  6
ByLayer
 62
  256
370
   25
100
AcDbLine
 10
71.66666624266237
 20
-153.1111111111111
 11
71.66666624266237
 21
-153.3333333333333
  0
LINE
  5
11A
100
AcDbEntity
  8
Engraving
  6
ByLayer
 62
  256
370
   25
100
AcDbLine
 10
71.66666624266237
 20
-153.3333333333333
 11
70.77777735377349
 21
-153.3333333333333
  0
LINE
  5
11B
100
AcDbEntity
  8
Engraving
  6
ByLayer
 62
  256
370
   25
100
AcDbLine
 10
72.33333290932914
 20
-154
 11
72.33333290932914
 21
-152.6666666666667
  0
LINE
  5
11C
100
AcDbEntity
  8
Engraving
  6
ByLayer
 62
  256
370
   25
100
AcDbLine
 10
72.33333290932914
 20
-152.6666666666667
 11
72.8888884648847
 21
-152.6666666666667
  0
ARC
  5
11D
100
AcDbEntity
  8
Engraving
  6
ByLayer
 62
  256
370
   25
100
AcDbCircle
 10
72.88888871390976
 20
-152.999999750975
 40
0.3333330843083652
100
AcDbArc
 50
359.999957195713
 51
90.00004280428696
  0
LINE
  5
11E
100
AcDbEntity
  8
Engraving
  6
ByLayer
 62
  256
370
   25
100
AcDbLine
 10
73.22222179821803
 20
-153
 11
73.22222179821803
 21
-154
  0
LINE
  5
11F
100
AcDbEntity
  8
Engraving
  6
ByLayer
 62
  256
370
   25
100
AcDbLine
 10
51.70833333333314
 20
-127.5
 11
52.70833333333314
 21
-130.5
  0
LINE
  5
120
100
AcDbEntity
  8
Engraving
  6
ByLayer
 62
  256
370
   25
100
AcDbLine
 10
52.70833333333314
 20
-130.5
 11
53.70833333333314
 21
-127.5
  0
LINE
  5
121
100
AcDbEntity
  8
Engraving
  6
ByLayer
 62
  256
370
   25
100
AcDbLine
 10
56.04166666666648
 20
-130.5
 11
55.37499999999981
 21
-130.5
  0
ARC
  5
122
100
AcDbEntity
  8
Engraving
  6
ByLayer
 62
  256
370
   25
100
AcDbCircle
 10
55.37499950194969
 20
-129.8333338313834
 40
0.6666661686167303
100
AcDbArc
 50
179.999957195713
 51
270.000042804287
  0
LINE
  5
123
100
AcDbEntity
  8
Engraving
  6
ByLayer
 62
  256
370
   25
100
AcDbLine
 10
54.70833333333314
 20
-129.8333333333333
 11
54.70833333333314
 21
-128.1666666666667
  0
ARC
  5
124
100
AcDbEntity
  8
Engraving
  6
ByLayer
 62
  256
370
   25
100
AcDbCircle
 10
55.37499950194969
 20
-128.1666661686165
 40
0.6666661686167303
100
AcDbArc
 50
89.99995719571304
 51
180.000042804287
  0
LINE
  5
125
100
AcDbEntity
  8
Engraving
  6
ByLayer
 62
  256
370
   25
100
AcDbLine
 10
55.37499999999981
 20
-127.5
 11
56.04166666666648
 21
-127.5
  0
ARC
  5
126
100
AcDbEntity
  8
Engraving
  6
ByLayer
 62
  256
370
   25
100
AcDbCircle
 10
57.875
 20
-129.6666666666667
 40
0.8333333333333333
100
AcDbArc
 50
180
 51
0
  0
LINE
  5
127
100
AcDbEntity
  8
Engraving
  6
ByLayer
 62
  256
370
   25
100
AcDbLine
 10
57.04166666666666
 20
-129.6666666666667
 11
57.04166666666666
 21
-128.3333333333333
  0
ARC
  5
128
100
AcDbEntity
  8
Engraving
  6
ByLayer
 62
  256
370
   25
100
AcDbCircle
 10
57.875
 20
-128.3333333333333
 40
0.8333333333333333
100
AcDbArc
 50
0
 51
180
  0
LINE
  5
129
100
AcDbEntity
  8
Engraving
  6
ByLayer
 62
  256
370
   25
100
AcDbLine
 10
58.70833333333333
 20
-128.3333333333333
 11
58.70833333333333
 21
-129.6666666666667
  0
LINE
  5
12A
100
AcDbEntity
  8
Engraving
  6
ByLayer
 62
  256
370
   25
100
AcDbLine
 10
63.29166666666667
 20
-130.5
 11
62.625
 21
-130.5
  0
ARC
  5
12B
100
AcDbEntity
  8
Engraving
  6
ByLayer
 62
  256
370
   25
100
AcDbCircle
 10
62.62499950194988
 20
-129.8333338313834
 40
0.6666661686167303
100
AcDbArc
 50
179.999957195713
 51
270.000042804287
  0
LINE
  5
12C
100
AcDbEntity
  8
Engraving
  6
ByLayer
 62
  256
370
   25
100
AcDbLine
 10
61.95833333333334
 20
-129.8333333333333
 11
61.95833333333334
 21
-128.1666666666667
  0
ARC
  5
12D
100
AcDbEntity
  8
Engraving
  6
ByLayer
 62
  256
370
   25
100
AcDbCircle
 10
62.62499950194988
 20
-128.1666661686165
 40
0.6666661686167303
100
AcDbArc
 50
89.99995719571304
 51
180.000042804287
  0
LINE
  5
12E
100
AcDbEntity
  8
Engraving
  6
ByLayer
 62
  256
370
   25
100
AcDbLine
 10
62.625
 20
-127.5
 11
63.29166666666667
 21
-127.5
  0
LINE
  5
12F
100
AcDbEntity
  8
Engraving
  6
ByLayer
 62
  256
370
   25
100
AcDbLine
 10
64.29166666666686
 20
-127.5
 11
65.29166666666686
 21
-130.5
  0
LINE
  5
130
100
AcDbEntity
  8
Engraving
  6
ByLayer
 62
  256
370
   25
100
AcDbLine
 10
65.29166666666686
 20
-130.5
 11
66.29166666666686
 21
-127.5
  0
LINE
  5
131
100
AcDbEntity
  8
Engraving
  6
ByLayer
 62
  256
370
   25
100
AcDbLine
 10
44.94444444444404
 20
-40
 11
45.16666666666627
 21
-40
  0
ARC
  5
132
100
AcDbEntity
  8
Engraving
  6
ByLayer
 62
  256
370
   25
100
AcDbCircle
 10
45.16666699869968
 20
-39.55555588758897
 40
0.4444441124111536
100
AcDbArc
 50
269.999957195713
 51
4.280428697680878e-05
  0
LINE
  5
133
100
AcDbEntity
  8
Engraving
  6
ByLayer
 62
  256
370
   25
100
AcDbLine
 10
45.61111111111071
 20
-39.55555555555556
 11
45.61111111111071
 21
-38
  0
LINE
  5
134
100
AcDbEntity
  8
Engraving
  6
ByLayer
 62
  256
370
   25
100
AcDbLine
 10
46.2777777777775
 20
-40
 11
46.2777777777775
 21
-38.66666666666666
  0
LINE
  5
135
100
AcDbEntity
  8
Engraving
  6
ByLayer
 62
  256
370
   25
100
AcDbLine
 10
46.2777777777775
 20
-38.11111111111111
 11
46.2777777777775
 21
-38
  0
LINE
  5
136
100
AcDbEntity
  8
Engraving
  6
ByLayer
 62
  256
370
   25
100
AcDbLine
 10
47.61111111111083
 20
-40
 11
47.61111111111083
 21
-38.66666666666666
  0
LINE
  5
137
100
AcDbEntity
  8
Engraving
  6
ByLayer
 62
  256
370
   25
100
AcDbLine
 10
46.94444444444417
 20
-40
 11
46.94444444444417
 21
-38.66666666666666
  0
LINE
  5
138
100
AcDbEntity
  8
Engraving
  6
ByLayer
 62
  256
370
   25
100
AcDbLine
 10
46.94444444444417
 20
-38.66666666666666
 11
47.94444444444417
 21
-38.66666666666666
  0
ARC
  5
139
100
AcDbEntity
  8
Engraving
  6
ByLayer
 62
  256
370
   25
100
AcDbCircle
 10
47.94444469346923
 20
-38.99999975097494
 40
0.3333330843083652
100
AcDbArc
 50
359.999957195713
 51
90.00004280428696
  0
LINE
  5
13A
100
AcDbEntity
  8
Engraving
  6
ByLayer
 62
  256
370
   25
100
AcDbLine
 10
48.2777777777775
 20
-39
 11
48.2777777777775
 21
-40
  0
LINE
  5
13B
100
AcDbEntity
  8
Engraving
  6
ByLayer
 62
  256
370
   25
100
AcDbLine
 10
49.61111111111092
 20
-40
 11
49.61111111111092
 21
-38.66666666666666
  0
LINE
  5
13C
100
AcDbEntity
  8
Engraving
  6
ByLayer
 62
  256
370
   25
100
AcDbLine
 10
48.94444444444426
 20
-40
 11
48.94444444444426
 21
-38.66666666666666
  0
LINE
  5
13D
100
AcDbEntity
  8
Engraving
  6
ByLayer
 62
  256
370
   25
100
AcDbLine
 10
48.94444444444426
 20
-38.66666666666666
 11
49.94444444444426
 21
-38.66666666666666
  0
ARC
  5
13E
100
AcDbEntity
  8
Engraving
  6
ByLayer
 62
  256
370
   25
100
AcDbCircle
 10
49.94444469346932
 20
-38.99999975097494
 40
0.3333330843083652
100
AcDbArc
 50
359.999957195713
 51
90.00004280428696
  0
LINE
  5
13F
100
AcDbEntity
  8
Engraving
  6
ByLayer
 62
  256
370
   25
100
AcDbLine
 10
50.27777777777759
 20
-39
 11
50.27777777777759
 21
-40
  0
LINE
  5
140
100
AcDbEntity
  8
Engraving
  6
ByLayer
 62
  256
370
   25
100
AcDbLine
 10
51.83333333333324
 20
-38.66666666666666
 11
51.16666666666657
 21
-40.66666666666666
  0
LINE
  5
141
100
AcDbEntity
  8
Engraving
  6
ByLayer
 62
  256
370
   25
100
AcDbLine
 10
51.16666666666657
 20
-40.66666666666666
 11
50.94444444444435
 21
-40.66666666666666
  0
LINE
  5
142
100
AcDbEntity
  8
Engraving
  6
ByLayer
 62
  256
370
   25
100
AcDbLine
 10
50.94444444444435
 20
-38.66666666666666
 11
51.38888888888879
 21
-40
  0
LINE
  5
143
100
AcDbEntity
  8
Engraving
  6
ByLayer
 62
  256
370
   25
100
AcDbLine
 10
54.88888888888879
 20
-40
 11
54.44444444444435
 21
-40
  0
ARC
  5
144
100
AcDbEntity
  8
Engraving
  6
ByLayer
 62
  256
370
   25
100
AcDbCircle
 10
54.44444411241093
 20
-39.55555588758897
 40
0.4444441124111536
100
AcDbArc
 50
179.999957195713
 51
270.000042804287
  0
LINE
  5
145
100
AcDbEntity
  8
Engraving
  6
ByLayer
 62
  256
370
   25
100
AcDbLine
 10
53.99999999999991
 20
-39.55555555555556
 11
53.99999999999991
 21
-38.44444444444444
  0
ARC
  5
146
100
AcDbEntity
  8
Engraving
  6
ByLayer
 62
  256
370
   25
100
AcDbCircle
 10
54.44444411241093
 20
-38.44444411241103
 40
0.4444441124111536
100
AcDbArc
 50
89.99995719571304
 51
180.000042804287
  0
LINE
  5
147
100
AcDbEntity
  8
Engraving
  6
ByLayer
 62
  256
370
   25
100
AcDbLine
 10
54.44444444444435
 20
-38
 11
54.88888888888879
 21
-38
  0
LINE
  5
148
100
AcDbEntity
  8
Engraving
  6
ByLayer
 62
  256
370
   25
100
AcDbLine
 10
55.55555555555559
 20
-38
 11
55.55555555555559
 21
-39.77777777777778
  0
ARC
  5
149
100
AcDbEntity
  8
Engraving
  6
ByLayer
 62
  256
370
   25
100
AcDbCircle
 10
55.7777776117611
 20
-39.77777794379448
 40
0.2222220562055768
100
AcDbArc
 50
179.999957195713
 51
270.000042804287
  0
LINE
  5
14A
100
AcDbEntity
  8
Engraving
  6
ByLayer
 62
  256
370
   25
100
AcDbLine
 10
56.44444444444454
 20
-40
 11
56.44444444444454
 21
-38.66666666666666
  0
LINE
  5
14B
100
AcDbEntity
  8
Engraving
  6
ByLayer
 62
  256
370
   25
100
AcDbLine
 10
56.44444444444454
 20
-38.11111111111111
 11
56.44444444444454
 21
-38
  0
LINE
  5
14C
100
AcDbEntity
  8
Engraving
  6
ByLayer
 62
  256
370
   25
100
AcDbLine
 10
57.33333333333343
 20
-40
 11
57.33333333333343
 21
-38.33333333333334
  0
ARC
  5
14D
100
AcDbEntity
  8
Engraving
  6
ByLayer
 62
  256
370
   25
100
AcDbCircle
 10
57.6666664176417
 20
-38.33333308430827
 40
0.3333330843083652
100
AcDbArc
 50
89.99995719571304
 51
180.000042804287
  0
LINE
  5
14E
100
AcDbEntity
  8
Engraving
  6
ByLayer
 62
  256
370
   25
100
AcDbLine
 10
57.66666666666676
 20
-38
 11
57.77777777777787
 21
-38
  0
LINE
  5
14F
100
AcDbEntity
  8
Engraving
  6
ByLayer
 62
  256
370
   25
100
AcDbLine
 10
57.11111111111121
 20
-38.66666666666666
 11
57.77777777777787
 21
-38.66666666666666
  0
LINE
  5
150
100
AcDbEntity
  8
Engraving
  6
ByLayer
 62
  256
370
   25
100
AcDbLine
 10
58.66666666666676
 20
-40
 11
58.66666666666676
 21
-38.33333333333334
  0
ARC
  5
151
100
AcDbEntity
  8
Engraving
  6
ByLayer
 62
  256
370
   25
100
AcDbCircle
 10
58.99999975097503
 20
-38.33333308430827
 40
0.3333330843083652
100
AcDbArc
 50
89.99995719571304
 51
180.000042804287
  0
LINE
  5
152
100
AcDbEntity
  8
Engraving
  6
ByLayer
 62
  256
370
   25
100
AcDbLine
 10
59.00000000000009
 20
-38
 11
59.1111111111112
 21
-38
  0
LINE
  5
153
100
AcDbEntity
  8
Engraving
  6
ByLayer
 62
  256
370
   25
100
AcDbLine
 10
58.44444444444454
 20
-38.66666666666666
 11
59.1111111111112
 21
-38.66666666666666
  0
LINE
  5
154
100
AcDbEntity
  8
Engraving
  6
ByLayer
 62
  256
370
   25
100
AcDbLine
 10
60.66666666666676
 20
-40
 11
60.11111111111121
 21
-40
  0
ARC
  5
155
100
AcDbEntity
  8
Engraving
  6
ByLayer
 62
  256
370
   25
100
AcDbCircle
 10
60.11111086208614
 20
-39.66666691569173
 40
0.3333330843083652
100
AcDbArc
 50
179.999957195713
 51
270.000042804287
  0
LINE
  5
156
100
AcDbEntity
  8
Engraving
  6
ByLayer
 62
  256
370
   25
100
AcDbLine
 10
59.77777777777787
 20
-39.66666666666666
 11
59.77777777777787
 21
-39.11111111111111
  0
ARC
  5
157
100
AcDbEntity
  8
Engraving
  6
ByLayer
 62
  256
370
   25
100
AcDbCircle
 10
60.22222222222231
 20
-39.11111111111111
 40
0.4444444444444444
100
AcDbArc
 50
0
 51
180
  0
LINE
  5
158
100
AcDbEntity
  8
Engraving
  6
ByLayer
 62
  256
370
   25
100
AcDbLine
 10
60.66666666666676
 20
-39.11111111111111
 11
60.66666666666676
 21
-39.33333333333334
  0
LINE
  5
159
100
AcDbEntity
  8
Engraving
  6
ByLayer
 62
  256
370
   25
100
AcDbLine
 10
60.66666666666676
 20
-39.33333333333334
 11
59.77777777777787
 21
-39.33333333333334
  0
ENDSEC
  0
SECTION
  2
OBJECTS
  0
DICTIONARY
  5
C
330
0
100
AcDbDictionary
281
    1
  3
ACAD_GROUP
350
D
  0
DICTIONARY
  5
D
330
C
100
AcDbDictionary
281
    1
  0
PLOTSETTINGS
  5
15A
100
AcDbPlotSettings
  6
1x1
 40
0
 41
0
 42
0
 43
0
  0
ENDSEC
  0
EOF
