  0
SECTION
  2
HEADER
  9
$ANGBASE
  50
0.0
  9
$ANGDIR
  70
1
  9
$MEASUREMENT
  70
1
  0
ENDSEC
  0
SECTION
  2
TABLES
  0
TABLE
  2
LTYPE
  70
4
  0
LTYPE
  5
40F
  2
CONTINUOUS
  70
0
  3
Solid line
  72
65
  73
0
  40
0.0
  0
LTYPE
  5
410
  2
DASHDOT
 70
0
  3
Dash Dot ____ _ ____ _
 72
65
 73
4
 40
2.0
 49
1.25
 49
-0.25
 49
0.25
 49
-0.25
  0
LTYPE
  5
411
  2
DASHED
 70
0
  3
Dashed __ __ __ __ __
 72
65
 73
2
 40
0.75
 49
0.5
 49
-0.25
  0
LTYPE
  5
43B
  2
DOTTED
 70
0
  3
Dotted .  .  .  .
 72
65
 73
2
 40
0.2
 49
0.0
 49
-0.2
  0
ENDTAB
  0
TABLE
  2
STYLE
  70
4
  0
STYLE
  2
KICAD
  70
0
  40
0
  41
1
  42
1
  50
0
  71
0
  3
isocp.shx
  0
STYLE
  2
KICADB
  70
0
  40
0
  41
1
  42
1
  50
0
  71
0
  3
isocp.shx
  0
STYLE
  2
KICADI
  70
0
  40
0
  41
1
  42
1
  50
15
  71
0
  3
isocp.shx
  0
STYLE
  2
KICADBI
  70
0
  40
0
  41
1
  42
1
  50
15
  71
0
  3
isocp.shx
  0
ENDTAB
  0
TABLE
  2
LAYER
  70
1
  0
LAYER
  2
BLACK
  70
0
  62
7
  6
CONTINUOUS
  0
ENDTAB
  0
ENDSEC
  0
SECTION
  2
ENTITIES
0
LINE
8
BLACK
6
CONTINUOUS
10
51.9264159999999961
20
-132.9542229999999847
11
52.2714309999999998
21
-133.0228500000000054
0
LINE
8
BLACK
6
CONTINUOUS
10
52.2714309999999998
20
-133.0228500000000054
11
52.6080569999999952
21
-133.1249650000000031
0
LINE
8
BLACK
6
CONTINUOUS
10
52.6080569999999952
20
-133.1249650000000031
11
52.933053000000001
21
-133.2595829999999921
0
LINE
8
BLACK
6
CONTINUOUS
10
52.933053000000001
20
-133.2595829999999921
11
53.2432899999999947
21
-133.425407000000007
0
LINE
8
BLACK
6
CONTINUOUS
10
53.2432899999999947
20
-133.425407000000007
11
53.535778999999998
21
-133.6208419999999819
0
LINE
8
BLACK
6
CONTINUOUS
10
53.535778999999998
20
-133.6208419999999819
11
53.8077029999999965
21
-133.8440049999999815
0
LINE
8
BLACK
6
CONTINUOUS
10
53.8077029999999965
20
-133.8440049999999815
11
54.0564449999999965
21
-134.0927470000000028
0
LINE
8
BLACK
6
CONTINUOUS
10
54.0564449999999965
20
-134.0927470000000028
11
54.2796079999999961
21
-134.3646709999999871
0
LINE
8
BLACK
6
CONTINUOUS
10
54.2796079999999961
20
-134.3646709999999871
11
54.4750429999999994
21
-134.6571600000000046
0
LINE
8
BLACK
6
CONTINUOUS
10
54.4750429999999994
20
-134.6571600000000046
11
54.6408670000000001
21
-134.9673970000000054
0
LINE
8
BLACK
6
CONTINUOUS
10
54.6408670000000001
20
-134.9673970000000054
11
54.7754849999999962
21
-135.2923930000000041
0
LINE
8
BLACK
6
CONTINUOUS
10
54.7754849999999962
20
-135.2923930000000041
11
54.877600000000001
21
-135.6290189999999996
0
LINE
8
BLACK
6
CONTINUOUS
10
54.877600000000001
20
-135.6290189999999996
11
54.9462270000000004
21
-135.974033999999989
0
LINE
8
BLACK
6
CONTINUOUS
10
54.9462270000000004
20
-135.974033999999989
11
54.9807069999999953
21
-136.3241129999999828
0
LINE
8
BLACK
6
CONTINUOUS
10
54.9807069999999953
20
-136.3241129999999828
11
54.9807069999999953
21
-136.6758869999999888
0
LINE
8
BLACK
6
CONTINUOUS
10
54.9807069999999953
20
-136.6758869999999888
11
54.9462270000000004
21
-137.0259659999999826
0
LINE
8
BLACK
6
CONTINUOUS
10
54.9462270000000004
20
-137.0259659999999826
11
54.877600000000001
21
-137.3709810000000004
0
LINE
8
BLACK
6
CONTINUOUS
10
54.877600000000001
20
-137.3709810000000004
11
54.7754849999999962
21
-137.7076069999999959
0
LINE
8
BLACK
6
CONTINUOUS
10
54.7754849999999962
20
-137.7076069999999959
11
54.6408670000000001
21
-138.0326029999999946
0
LINE
8
BLACK
6
CONTINUOUS
10
54.6408670000000001
20
-138.0326029999999946
11
54.4750429999999994
21
-138.3428399999999954
0
LINE
8
BLACK
6
CONTINUOUS
10
54.4750429999999994
20
-138.3428399999999954
11
54.2796079999999961
21
-138.6353289999999845
0
LINE
8
BLACK
6
CONTINUOUS
10
54.2796079999999961
20
-138.6353289999999845
11
54.0564449999999965
21
-138.9072529999999972
0
LINE
8
BLACK
6
CONTINUOUS
10
54.0564449999999965
20
-138.9072529999999972
11
53.8077029999999965
21
-139.1559949999999901
0
LINE
8
BLACK
6
CONTINUOUS
10
53.8077029999999965
20
-139.1559949999999901
11
53.535778999999998
21
-139.3791579999999897
0
LINE
8
BLACK
6
CONTINUOUS
10
53.535778999999998
20
-139.3791579999999897
11
53.2432899999999947
21
-139.574592999999993
0
LINE
8
BLACK
6
CONTINUOUS
10
53.2432899999999947
20
-139.574592999999993
11
52.933053000000001
21
-139.7404170000000079
0
LINE
8
BLACK
6
CONTINUOUS
10
52.933053000000001
20
-139.7404170000000079
11
52.6080569999999952
21
-139.8750349999999969
0
LINE
8
BLACK
6
CONTINUOUS
10
52.6080569999999952
20
-139.8750349999999969
11
52.2714309999999998
21
-139.9771499999999946
0
LINE
8
BLACK
6
CONTINUOUS
10
52.2714309999999998
20
-139.9771499999999946
11
51.9264159999999961
21
-140.0457769999999869
0
LINE
8
BLACK
6
CONTINUOUS
10
51.9264159999999961
20
-140.0457769999999869
11
51.5763369999999952
21
-140.0802569999999889
0
LINE
8
BLACK
6
CONTINUOUS
10
51.5763369999999952
20
-140.0802569999999889
11
51.2245629999999963
21
-140.0802569999999889
0
LINE
8
BLACK
6
CONTINUOUS
10
51.2245629999999963
20
-140.0802569999999889
11
50.8744839999999954
21
-140.0457769999999869
0
LINE
8
BLACK
6
CONTINUOUS
10
50.8744839999999954
20
-140.0457769999999869
11
50.5294689999999989
21
-139.9771499999999946
0
LINE
8
BLACK
6
CONTINUOUS
10
50.5294689999999989
20
-139.9771499999999946
11
50.1928429999999963
21
-139.8750349999999969
0
LINE
8
BLACK
6
CONTINUOUS
10
50.1928429999999963
20
-139.8750349999999969
11
49.8678469999999976
21
-139.7404170000000079
0
LINE
8
BLACK
6
CONTINUOUS
10
49.8678469999999976
20
-139.7404170000000079
11
49.5576099999999968
21
-139.574592999999993
0
LINE
8
BLACK
6
CONTINUOUS
10
49.5576099999999968
20
-139.574592999999993
11
49.2651210000000006
21
-139.3791579999999897
0
LINE
8
BLACK
6
CONTINUOUS
10
49.2651210000000006
20
-139.3791579999999897
11
48.993196999999995
21
-139.1559949999999901
0
LINE
8
BLACK
6
CONTINUOUS
10
48.993196999999995
20
-139.1559949999999901
11
48.744454999999995
21
-138.9072529999999972
0
LINE
8
BLACK
6
CONTINUOUS
10
48.744454999999995
20
-138.9072529999999972
11
48.5212919999999954
21
-138.6353289999999845
0
LINE
8
BLACK
6
CONTINUOUS
10
48.5212919999999954
20
-138.6353289999999845
11
48.3258569999999992
21
-138.3428399999999954
0
LINE
8
BLACK
6
CONTINUOUS
10
48.3258569999999992
20
-138.3428399999999954
11
48.1600329999999985
21
-138.0326029999999946
0
LINE
8
BLACK
6
CONTINUOUS
10
48.1600329999999985
20
-138.0326029999999946
11
48.0254149999999953
21
-137.7076069999999959
0
LINE
8
BLACK
6
CONTINUOUS
10
48.0254149999999953
20
-137.7076069999999959
11
47.9232999999999976
21
-137.3709810000000004
0
LINE
8
BLACK
6
CONTINUOUS
10
47.9232999999999976
20
-137.3709810000000004
11
47.8546729999999982
21
-137.0259659999999826
0
LINE
8
BLACK
6
CONTINUOUS
10
47.8546729999999982
20
-137.0259659999999826
11
47.8201929999999962
21
-136.6758869999999888
0
LINE
8
BLACK
6
CONTINUOUS
10
47.8201929999999962
20
-136.6758869999999888
11
47.8201929999999962
21
-136.3263570000000016
0
LINE
8
BLACK
6
CONTINUOUS
10
47.8201929999999962
20
-136.3263570000000016
11
47.8201929999999962
21
-136.3241129999999828
0
LINE
8
BLACK
6
CONTINUOUS
10
47.8201929999999962
20
-136.3241129999999828
11
47.8546729999999982
21
-135.974033999999989
0
LINE
8
BLACK
6
CONTINUOUS
10
47.8546729999999982
20
-135.974033999999989
11
47.9232999999999976
21
-135.6290189999999996
0
LINE
8
BLACK
6
CONTINUOUS
10
47.9232999999999976
20
-135.6290189999999996
11
48.0254149999999953
21
-135.2923930000000041
0
LINE
8
BLACK
6
CONTINUOUS
10
48.0254149999999953
20
-135.2923930000000041
11
48.1600329999999985
21
-134.9673970000000054
0
LINE
8
BLACK
6
CONTINUOUS
10
48.1600329999999985
20
-134.9673970000000054
11
48.3258569999999992
21
-134.6571600000000046
0
LINE
8
BLACK
6
CONTINUOUS
10
48.3258569999999992
20
-134.6571600000000046
11
48.5212919999999954
21
-134.3646709999999871
0
LINE
8
BLACK
6
CONTINUOUS
10
48.5212919999999954
20
-134.3646709999999871
11
48.744454999999995
21
-134.0927470000000028
0
LINE
8
BLACK
6
CONTINUOUS
10
48.744454999999995
20
-134.0927470000000028
11
48.993196999999995
21
-133.8440049999999815
0
LINE
8
BLACK
6
CONTINUOUS
10
48.993196999999995
20
-133.8440049999999815
11
49.2651210000000006
21
-133.6208419999999819
0
LINE
8
BLACK
6
CONTINUOUS
10
49.2651210000000006
20
-133.6208419999999819
11
49.5576099999999968
21
-133.425407000000007
0
LINE
8
BLACK
6
CONTINUOUS
10
49.5576099999999968
20
-133.425407000000007
11
49.8678469999999976
21
-133.2595829999999921
0
LINE
8
BLACK
6
CONTINUOUS
10
49.8678469999999976
20
-133.2595829999999921
11
50.1928429999999963
21
-133.1249650000000031
0
LINE
8
BLACK
6
CONTINUOUS
10
50.1928429999999963
20
-133.1249650000000031
11
50.5294689999999989
21
-133.0228500000000054
0
LINE
8
BLACK
6
CONTINUOUS
10
50.5294689999999989
20
-133.0228500000000054
11
50.8744839999999954
21
-132.9542229999999847
0
LINE
8
BLACK
6
CONTINUOUS
10
50.8744839999999954
20
-132.9542229999999847
11
51.2245629999999963
21
-132.9197429999999827
0
LINE
8
BLACK
6
CONTINUOUS
10
51.2245629999999963
20
-132.9197429999999827
11
51.5763369999999952
21
-132.9197429999999827
0
LINE
8
BLACK
6
CONTINUOUS
10
51.5763369999999952
20
-132.9197429999999827
11
51.9264159999999961
21
-132.9542229999999847
0
LINE
8
BLACK
6
CONTINUOUS
10
47.8658749999999955
20
-136.6736429999999984
11
47.899915
21
-137.0192549999999869
0
LINE
8
BLACK
6
CONTINUOUS
10
47.899915
20
-137.0192549999999869
11
47.9676669999999987
21
-137.35986699999998
0
LINE
8
BLACK
6
CONTINUOUS
10
47.9676669999999987
20
-137.35986699999998
11
48.0684779999999989
21
-137.692198999999988
0
LINE
8
BLACK
6
CONTINUOUS
10
48.0684779999999989
20
-137.692198999999988
11
48.2013779999999983
21
-138.0130479999999977
0
LINE
8
BLACK
6
CONTINUOUS
10
48.2013779999999983
20
-138.0130479999999977
11
48.3650869999999955
21
-138.3193259999999896
0
LINE
8
BLACK
6
CONTINUOUS
10
48.3650869999999955
20
-138.3193259999999896
11
48.5580289999999977
21
-138.6080829999999935
0
LINE
8
BLACK
6
CONTINUOUS
10
48.5580289999999977
20
-138.6080829999999935
11
48.778343999999997
21
-138.8765379999999823
0
LINE
8
BLACK
6
CONTINUOUS
10
48.778343999999997
20
-138.8765379999999823
11
49.0239119999999957
21
-139.1221060000000023
0
LINE
8
BLACK
6
CONTINUOUS
10
49.0239119999999957
20
-139.1221060000000023
11
49.2923669999999987
21
-139.3424210000000016
0
LINE
8
BLACK
6
CONTINUOUS
10
49.2923669999999987
20
-139.3424210000000016
11
49.5811239999999955
21
-139.5353629999999896
0
LINE
8
BLACK
6
CONTINUOUS
10
49.5811239999999955
20
-139.5353629999999896
11
49.8874019999999945
21
-139.699072000000001
0
LINE
8
BLACK
6
CONTINUOUS
10
49.8874019999999945
20
-139.699072000000001
11
50.2082509999999971
21
-139.8319720000000075
0
LINE
8
BLACK
6
CONTINUOUS
10
50.2082509999999971
20
-139.8319720000000075
11
50.540582999999998
21
-139.9327830000000006
0
LINE
8
BLACK
6
CONTINUOUS
10
50.540582999999998
20
-139.9327830000000006
11
50.8811949999999982
21
-140.0005349999999851
0
LINE
8
BLACK
6
CONTINUOUS
10
50.8811949999999982
20
-140.0005349999999851
11
51.2268070000000009
21
-140.0345749999999896
0
LINE
8
BLACK
6
CONTINUOUS
10
51.2268070000000009
20
-140.0345749999999896
11
51.5740929999999977
21
-140.0345749999999896
0
LINE
8
BLACK
6
CONTINUOUS
10
51.5740929999999977
20
-140.0345749999999896
11
51.9197050000000004
21
-140.0005349999999851
0
LINE
8
BLACK
6
CONTINUOUS
10
51.9197050000000004
20
-140.0005349999999851
11
52.2603170000000006
21
-139.9327830000000006
0
LINE
8
BLACK
6
CONTINUOUS
10
52.2603170000000006
20
-139.9327830000000006
11
52.5926489999999944
21
-139.8319720000000075
0
LINE
8
BLACK
6
CONTINUOUS
10
52.5926489999999944
20
-139.8319720000000075
11
52.913497999999997
21
-139.699072000000001
0
LINE
8
BLACK
6
CONTINUOUS
10
52.913497999999997
20
-139.699072000000001
11
53.219775999999996
21
-139.5353629999999896
0
LINE
8
BLACK
6
CONTINUOUS
10
53.219775999999996
20
-139.5353629999999896
11
53.5085329999999999
21
-139.3424210000000016
0
LINE
8
BLACK
6
CONTINUOUS
10
53.5085329999999999
20
-139.3424210000000016
11
53.7769879999999958
21
-139.1221060000000023
0
LINE
8
BLACK
6
CONTINUOUS
10
53.7769879999999958
20
-139.1221060000000023
11
54.0225559999999945
21
-138.8765379999999823
0
LINE
8
BLACK
6
CONTINUOUS
10
54.0225559999999945
20
-138.8765379999999823
11
54.2428710000000009
21
-138.6080829999999935
0
LINE
8
BLACK
6
CONTINUOUS
10
54.2428710000000009
20
-138.6080829999999935
11
54.435812999999996
21
-138.3193259999999896
0
LINE
8
BLACK
6
CONTINUOUS
10
54.435812999999996
20
-138.3193259999999896
11
54.5995220000000003
21
-138.0130479999999977
0
LINE
8
BLACK
6
CONTINUOUS
10
54.5995220000000003
20
-138.0130479999999977
11
54.7324219999999997
21
-137.692198999999988
0
LINE
8
BLACK
6
CONTINUOUS
10
54.7324219999999997
20
-137.692198999999988
11
54.8332329999999999
21
-137.35986699999998
0
LINE
8
BLACK
6
CONTINUOUS
10
54.8332329999999999
20
-137.35986699999998
11
54.9009849999999986
21
-137.0192549999999869
0
LINE
8
BLACK
6
CONTINUOUS
10
54.9009849999999986
20
-137.0192549999999869
11
54.935024999999996
21
-136.6736429999999984
0
LINE
8
BLACK
6
CONTINUOUS
10
54.935024999999996
20
-136.6736429999999984
11
54.935024999999996
21
-136.3263570000000016
0
LINE
8
BLACK
6
CONTINUOUS
10
54.935024999999996
20
-136.3263570000000016
11
54.9009849999999986
21
-135.9807449999999847
0
LINE
8
BLACK
6
CONTINUOUS
10
54.9009849999999986
20
-135.9807449999999847
11
54.8332329999999999
21
-135.6401329999999916
0
LINE
8
BLACK
6
CONTINUOUS
10
54.8332329999999999
20
-135.6401329999999916
11
54.7324219999999997
21
-135.3078009999999836
0
LINE
8
BLACK
6
CONTINUOUS
10
54.7324219999999997
20
-135.3078009999999836
11
54.5995220000000003
21
-134.9869520000000023
0
LINE
8
BLACK
6
CONTINUOUS
10
54.5995220000000003
20
-134.9869520000000023
11
54.435812999999996
21
-134.680673999999982
0
LINE
8
BLACK
6
CONTINUOUS
10
54.435812999999996
20
-134.680673999999982
11
54.2428710000000009
21
-134.3919170000000065
0
LINE
8
BLACK
6
CONTINUOUS
10
54.2428710000000009
20
-134.3919170000000065
11
54.0225559999999945
21
-134.1234619999999893
0
LINE
8
BLACK
6
CONTINUOUS
10
54.0225559999999945
20
-134.1234619999999893
11
53.7769879999999958
21
-133.8778939999999977
0
LINE
8
BLACK
6
CONTINUOUS
10
53.7769879999999958
20
-133.8778939999999977
11
53.5085329999999999
21
-133.6575789999999984
0
LINE
8
BLACK
6
CONTINUOUS
10
53.5085329999999999
20
-133.6575789999999984
11
53.219775999999996
21
-133.464636999999982
0
LINE
8
BLACK
6
CONTINUOUS
10
53.219775999999996
20
-133.464636999999982
11
52.913497999999997
21
-133.300927999999999
0
LINE
8
BLACK
6
CONTINUOUS
10
52.913497999999997
20
-133.300927999999999
11
52.5926489999999944
21
-133.1680279999999925
0
LINE
8
BLACK
6
CONTINUOUS
10
52.5926489999999944
20
-133.1680279999999925
11
52.2603170000000006
21
-133.0672169999999994
0
LINE
8
BLACK
6
CONTINUOUS
10
52.2603170000000006
20
-133.0672169999999994
11
51.9197050000000004
21
-132.9994649999999865
0
LINE
8
BLACK
6
CONTINUOUS
10
51.9197050000000004
20
-132.9994649999999865
11
51.5740929999999977
21
-132.965424999999982
0
LINE
8
BLACK
6
CONTINUOUS
10
51.5740929999999977
20
-132.965424999999982
11
51.2268070000000009
21
-132.965424999999982
0
LINE
8
BLACK
6
CONTINUOUS
10
51.2268070000000009
20
-132.965424999999982
11
50.8811949999999982
21
-132.9994649999999865
0
LINE
8
BLACK
6
CONTINUOUS
10
50.8811949999999982
20
-132.9994649999999865
11
50.540582999999998
21
-133.0672169999999994
0
LINE
8
BLACK
6
CONTINUOUS
10
50.540582999999998
20
-133.0672169999999994
11
50.2082509999999971
21
-133.1680279999999925
0
LINE
8
BLACK
6
CONTINUOUS
10
50.2082509999999971
20
-133.1680279999999925
11
49.8874019999999945
21
-133.300927999999999
0
LINE
8
BLACK
6
CONTINUOUS
10
49.8874019999999945
20
-133.300927999999999
11
49.5811239999999955
21
-133.464636999999982
0
LINE
8
BLACK
6
CONTINUOUS
10
49.5811239999999955
20
-133.464636999999982
11
49.2923669999999987
21
-133.6575789999999984
0
LINE
8
BLACK
6
CONTINUOUS
10
49.2923669999999987
20
-133.6575789999999984
11
49.0239119999999957
21
-133.8778939999999977
0
LINE
8
BLACK
6
CONTINUOUS
10
49.0239119999999957
20
-133.8778939999999977
11
48.778343999999997
21
-134.1234619999999893
0
LINE
8
BLACK
6
CONTINUOUS
10
48.778343999999997
20
-134.1234619999999893
11
48.5580289999999977
21
-134.3919170000000065
0
LINE
8
BLACK
6
CONTINUOUS
10
48.5580289999999977
20
-134.3919170000000065
11
48.3650869999999955
21
-134.680673999999982
0
LINE
8
BLACK
6
CONTINUOUS
10
48.3650869999999955
20
-134.680673999999982
11
48.2013779999999983
21
-134.9869520000000023
0
LINE
8
BLACK
6
CONTINUOUS
10
48.2013779999999983
20
-134.9869520000000023
11
48.0684779999999989
21
-135.3078009999999836
0
LINE
8
BLACK
6
CONTINUOUS
10
48.0684779999999989
20
-135.3078009999999836
11
47.9676669999999987
21
-135.6401329999999916
0
LINE
8
BLACK
6
CONTINUOUS
10
47.9676669999999987
20
-135.6401329999999916
11
47.899915
21
-135.9807449999999847
0
LINE
8
BLACK
6
CONTINUOUS
10
47.899915
20
-135.9807449999999847
11
47.8658749999999955
21
-136.3263570000000016
0
LINE
8
BLACK
6
CONTINUOUS
10
47.8658749999999955
20
-136.3263570000000016
11
47.8658749999999955
21
-136.6736429999999984
0
LINE
8
BLACK
6
CONTINUOUS
10
66.9736559999999912
20
-132.9626439999999832
11
67.3178509999999903
21
-133.0311089999999865
0
LINE
8
BLACK
6
CONTINUOUS
10
67.3178509999999903
20
-133.0311089999999865
11
67.6536779999999993
21
-133.1329810000000009
0
LINE
8
BLACK
6
CONTINUOUS
10
67.6536779999999993
20
-133.1329810000000009
11
67.9779020000000003
21
-133.267279000000002
0
LINE
8
BLACK
6
CONTINUOUS
10
67.9779020000000003
20
-133.267279000000002
11
68.2874020000000002
21
-133.4327099999999859
0
LINE
8
BLACK
6
CONTINUOUS
10
68.2874020000000002
20
-133.4327099999999859
11
68.579195999999996
21
-133.6276809999999955
0
LINE
8
BLACK
6
CONTINUOUS
10
68.579195999999996
20
-133.6276809999999955
11
68.850475000000003
21
-133.8503139999999973
0
LINE
8
BLACK
6
CONTINUOUS
10
68.850475000000003
20
-133.8503139999999973
11
69.0986249999999984
21
-134.098464000000007
0
LINE
8
BLACK
6
CONTINUOUS
10
69.0986249999999984
20
-134.098464000000007
11
69.3212580000000003
21
-134.3697429999999997
0
LINE
8
BLACK
6
CONTINUOUS
10
69.3212580000000003
20
-134.3697429999999997
11
69.5162289999999956
21
-134.6615369999999814
0
LINE
8
BLACK
6
CONTINUOUS
10
69.5162289999999956
20
-134.6615369999999814
11
69.6816599999999937
21
-134.9710369999999955
0
LINE
8
BLACK
6
CONTINUOUS
10
69.6816599999999937
20
-134.9710369999999955
11
69.8159579999999949
21
-135.2952609999999822
0
LINE
8
BLACK
6
CONTINUOUS
10
69.8159579999999949
20
-135.2952609999999822
11
69.917829999999995
21
-135.6310880000000054
0
LINE
8
BLACK
6
CONTINUOUS
10
69.917829999999995
20
-135.6310880000000054
11
69.9862949999999984
21
-135.9752829999999904
0
LINE
8
BLACK
6
CONTINUOUS
10
69.9862949999999984
20
-135.9752829999999904
11
70.0206919999999968
21
-136.3245310000000075
0
LINE
8
BLACK
6
CONTINUOUS
10
70.0206919999999968
20
-136.3245310000000075
11
70.0206919999999968
21
-136.6754689999999925
0
LINE
8
BLACK
6
CONTINUOUS
10
70.0206919999999968
20
-136.6754689999999925
11
69.9862949999999984
21
-137.0247169999999812
0
LINE
8
BLACK
6
CONTINUOUS
10
69.9862949999999984
20
-137.0247169999999812
11
69.917829999999995
21
-137.3689119999999946
0
LINE
8
BLACK
6
CONTINUOUS
10
69.917829999999995
20
-137.3689119999999946
11
69.8159579999999949
21
-137.7047389999999893
0
LINE
8
BLACK
6
CONTINUOUS
10
69.8159579999999949
20
-137.7047389999999893
11
69.6816599999999937
21
-138.0289630000000045
0
LINE
8
BLACK
6
CONTINUOUS
10
69.6816599999999937
20
-138.0289630000000045
11
69.5162289999999956
21
-138.3384629999999902
0
LINE
8
BLACK
6
CONTINUOUS
10
69.5162289999999956
20
-138.3384629999999902
11
69.3212580000000003
21
-138.6302570000000003
0
LINE
8
BLACK
6
CONTINUOUS
10
69.3212580000000003
20
-138.6302570000000003
11
69.0986249999999984
21
-138.901535999999993
0
LINE
8
BLACK
6
CONTINUOUS
10
69.0986249999999984
20
-138.901535999999993
11
68.850475000000003
21
-139.1496860000000027
0
LINE
8
BLACK
6
CONTINUOUS
10
68.850475000000003
20
-139.1496860000000027
11
68.579195999999996
21
-139.3723190000000045
0
LINE
8
BLACK
6
CONTINUOUS
10
68.579195999999996
20
-139.3723190000000045
11
68.2874020000000002
21
-139.5672899999999856
0
LINE
8
BLACK
6
CONTINUOUS
10
68.2874020000000002
20
-139.5672899999999856
11
67.9779020000000003
21
-139.732720999999998
0
LINE
8
BLACK
6
CONTINUOUS
10
67.9779020000000003
20
-139.732720999999998
11
67.6536779999999993
21
-139.8670189999999991
0
LINE
8
BLACK
6
CONTINUOUS
10
67.6536779999999993
20
-139.8670189999999991
11
67.3178509999999903
21
-139.9688909999999851
0
LINE
8
BLACK
6
CONTINUOUS
10
67.3178509999999903
20
-139.9688909999999851
11
66.9736559999999912
21
-140.0373559999999884
0
LINE
8
BLACK
6
CONTINUOUS
10
66.9736559999999912
20
-140.0373559999999884
11
66.6244080000000025
21
-140.0717530000000011
0
LINE
8
BLACK
6
CONTINUOUS
10
66.6244080000000025
20
-140.0717530000000011
11
66.2734700000000032
21
-140.0717530000000011
0
LINE
8
BLACK
6
CONTINUOUS
10
66.2734700000000032
20
-140.0717530000000011
11
65.9242220000000003
21
-140.0373559999999884
0
LINE
8
BLACK
6
CONTINUOUS
10
65.9242220000000003
20
-140.0373559999999884
11
65.5800270000000012
21
-139.9688909999999851
0
LINE
8
BLACK
6
CONTINUOUS
10
65.5800270000000012
20
-139.9688909999999851
11
65.2441999999999922
21
-139.8670189999999991
0
LINE
8
BLACK
6
CONTINUOUS
10
65.2441999999999922
20
-139.8670189999999991
11
64.9199759999999912
21
-139.732720999999998
0
LINE
8
BLACK
6
CONTINUOUS
10
64.9199759999999912
20
-139.732720999999998
11
64.6104759999999914
21
-139.5672899999999856
0
LINE
8
BLACK
6
CONTINUOUS
10
64.6104759999999914
20
-139.5672899999999856
11
64.3186819999999955
21
-139.3723190000000045
0
LINE
8
BLACK
6
CONTINUOUS
10
64.3186819999999955
20
-139.3723190000000045
11
64.0474030000000027
21
-139.1496860000000027
0
LINE
8
BLACK
6
CONTINUOUS
10
64.0474030000000027
20
-139.1496860000000027
11
63.7992530000000002
21
-138.901535999999993
0
LINE
8
BLACK
6
CONTINUOUS
10
63.7992530000000002
20
-138.901535999999993
11
63.5766199999999984
21
-138.6302570000000003
0
LINE
8
BLACK
6
CONTINUOUS
10
63.5766199999999984
20
-138.6302570000000003
11
63.3816489999999959
21
-138.3384629999999902
0
LINE
8
BLACK
6
CONTINUOUS
10
63.3816489999999959
20
-138.3384629999999902
11
63.2162179999999978
21
-138.0289630000000045
0
LINE
8
BLACK
6
CONTINUOUS
10
63.2162179999999978
20
-138.0289630000000045
11
63.0819199999999967
21
-137.7047389999999893
0
LINE
8
BLACK
6
CONTINUOUS
10
63.0819199999999967
20
-137.7047389999999893
11
62.9800479999999965
21
-137.3689119999999946
0
LINE
8
BLACK
6
CONTINUOUS
10
62.9800479999999965
20
-137.3689119999999946
11
62.9115830000000003
21
-137.0247169999999812
0
LINE
8
BLACK
6
CONTINUOUS
10
62.9115830000000003
20
-137.0247169999999812
11
62.8771859999999947
21
-136.6754689999999925
0
LINE
8
BLACK
6
CONTINUOUS
10
62.8771859999999947
20
-136.6754689999999925
11
62.8771859999999947
21
-136.3267759999999953
0
LINE
8
BLACK
6
CONTINUOUS
10
62.8771859999999947
20
-136.3267759999999953
11
62.8771859999999947
21
-136.3245310000000075
0
LINE
8
BLACK
6
CONTINUOUS
10
62.8771859999999947
20
-136.3245310000000075
11
62.9115830000000003
21
-135.9752829999999904
0
LINE
8
BLACK
6
CONTINUOUS
10
62.9115830000000003
20
-135.9752829999999904
11
62.9800479999999965
21
-135.6310880000000054
0
LINE
8
BLACK
6
CONTINUOUS
10
62.9800479999999965
20
-135.6310880000000054
11
63.0819199999999967
21
-135.2952609999999822
0
LINE
8
BLACK
6
CONTINUOUS
10
63.0819199999999967
20
-135.2952609999999822
11
63.2162179999999978
21
-134.9710369999999955
0
LINE
8
BLACK
6
CONTINUOUS
10
63.2162179999999978
20
-134.9710369999999955
11
63.3816489999999959
21
-134.6615369999999814
0
LINE
8
BLACK
6
CONTINUOUS
10
63.3816489999999959
20
-134.6615369999999814
11
63.5766199999999984
21
-134.3697429999999997
0
LINE
8
BLACK
6
CONTINUOUS
10
63.5766199999999984
20
-134.3697429999999997
11
63.7992530000000002
21
-134.098464000000007
0
LINE
8
BLACK
6
CONTINUOUS
10
63.7992530000000002
20
-134.098464000000007
11
64.0474030000000027
21
-133.8503139999999973
0
LINE
8
BLACK
6
CONTINUOUS
10
64.0474030000000027
20
-133.8503139999999973
11
64.3186819999999955
21
-133.6276809999999955
0
LINE
8
BLACK
6
CONTINUOUS
10
64.3186819999999955
20
-133.6276809999999955
11
64.6104759999999914
21
-133.4327099999999859
0
LINE
8
BLACK
6
CONTINUOUS
10
64.6104759999999914
20
-133.4327099999999859
11
64.9199759999999912
21
-133.267279000000002
0
LINE
8
BLACK
6
CONTINUOUS
10
64.9199759999999912
20
-133.267279000000002
11
65.2441999999999922
21
-133.1329810000000009
0
LINE
8
BLACK
6
CONTINUOUS
10
65.2441999999999922
20
-133.1329810000000009
11
65.5800270000000012
21
-133.0311089999999865
0
LINE
8
BLACK
6
CONTINUOUS
10
65.5800270000000012
20
-133.0311089999999865
11
65.9242220000000003
21
-132.9626439999999832
0
LINE
8
BLACK
6
CONTINUOUS
10
65.9242220000000003
20
-132.9626439999999832
11
66.2734700000000032
21
-132.9282469999999989
0
LINE
8
BLACK
6
CONTINUOUS
10
66.2734700000000032
20
-132.9282469999999989
11
66.6244080000000025
21
-132.9282469999999989
0
LINE
8
BLACK
6
CONTINUOUS
10
66.6244080000000025
20
-132.9282469999999989
11
66.9736559999999912
21
-132.9626439999999832
0
LINE
8
BLACK
6
CONTINUOUS
10
62.9228779999999972
20
-136.6732240000000047
11
62.9568359999999956
21
-137.0180049999999881
0
LINE
8
BLACK
6
CONTINUOUS
10
62.9568359999999956
20
-137.0180049999999881
11
63.0244249999999937
21
-137.3577960000000076
0
LINE
8
BLACK
6
CONTINUOUS
10
63.0244249999999937
20
-137.3577960000000076
11
63.1249939999999938
21
-137.6893269999999916
0
LINE
8
BLACK
6
CONTINUOUS
10
63.1249939999999938
20
-137.6893269999999916
11
63.2575739999999982
21
-138.0094029999999918
0
LINE
8
BLACK
6
CONTINUOUS
10
63.2575739999999982
20
-138.0094029999999918
11
63.4208889999999954
21
-138.314943999999997
0
LINE
8
BLACK
6
CONTINUOUS
10
63.4208889999999954
20
-138.314943999999997
11
63.6133649999999946
21
-138.603004999999996
0
LINE
8
BLACK
6
CONTINUOUS
10
63.6133649999999946
20
-138.603004999999996
11
63.8331499999999963
21
-138.8708129999999983
0
LINE
8
BLACK
6
CONTINUOUS
10
63.8331499999999963
20
-138.8708129999999983
11
64.0781259999999975
21
-139.1157890000000066
0
LINE
8
BLACK
6
CONTINUOUS
10
64.0781259999999975
20
-139.1157890000000066
11
64.3459339999999997
21
-139.3355739999999798
0
LINE
8
BLACK
6
CONTINUOUS
10
64.3459339999999997
20
-139.3355739999999798
11
64.6339949999999988
21
-139.5280500000000075
0
LINE
8
BLACK
6
CONTINUOUS
10
64.6339949999999988
20
-139.5280500000000075
11
64.9395360000000039
21
-139.6913649999999905
0
LINE
8
BLACK
6
CONTINUOUS
10
64.9395360000000039
20
-139.6913649999999905
11
65.25961199999999
21
-139.8239449999999806
0
LINE
8
BLACK
6
CONTINUOUS
10
65.25961199999999
20
-139.8239449999999806
11
65.5911430000000024
21
-139.9245139999999878
0
LINE
8
BLACK
6
CONTINUOUS
10
65.5911430000000024
20
-139.9245139999999878
11
65.9309339999999935
21
-139.992102999999986
0
LINE
8
BLACK
6
CONTINUOUS
10
65.9309339999999935
20
-139.992102999999986
11
66.2757149999999911
21
-140.0260609999999986
0
LINE
8
BLACK
6
CONTINUOUS
10
66.2757149999999911
20
-140.0260609999999986
11
66.6221630000000005
21
-140.0260609999999986
0
LINE
8
BLACK
6
CONTINUOUS
10
66.6221630000000005
20
-140.0260609999999986
11
66.966943999999998
21
-139.992102999999986
0
LINE
8
BLACK
6
CONTINUOUS
10
66.966943999999998
20
-139.992102999999986
11
67.3067350000000033
21
-139.9245139999999878
0
LINE
8
BLACK
6
CONTINUOUS
10
67.3067350000000033
20
-139.9245139999999878
11
67.6382660000000016
21
-139.8239449999999806
0
LINE
8
BLACK
6
CONTINUOUS
10
67.6382660000000016
20
-139.8239449999999806
11
67.9583420000000018
21
-139.6913649999999905
0
LINE
8
BLACK
6
CONTINUOUS
10
67.9583420000000018
20
-139.6913649999999905
11
68.2638829999999928
21
-139.5280500000000075
0
LINE
8
BLACK
6
CONTINUOUS
10
68.2638829999999928
20
-139.5280500000000075
11
68.5519439999999918
21
-139.3355739999999798
0
LINE
8
BLACK
6
CONTINUOUS
10
68.5519439999999918
20
-139.3355739999999798
11
68.819751999999994
21
-139.1157890000000066
0
LINE
8
BLACK
6
CONTINUOUS
10
68.819751999999994
20
-139.1157890000000066
11
69.0647280000000023
21
-138.8708129999999983
0
LINE
8
BLACK
6
CONTINUOUS
10
69.0647280000000023
20
-138.8708129999999983
11
69.2845129999999898
21
-138.603004999999996
0
LINE
8
BLACK
6
CONTINUOUS
10
69.2845129999999898
20
-138.603004999999996
11
69.4769890000000032
21
-138.314943999999997
0
LINE
8
BLACK
6
CONTINUOUS
10
69.4769890000000032
20
-138.314943999999997
11
69.6403040000000004
21
-138.0094029999999918
0
LINE
8
BLACK
6
CONTINUOUS
10
69.6403040000000004
20
-138.0094029999999918
11
69.7728839999999906
21
-137.6893269999999916
0
LINE
8
BLACK
6
CONTINUOUS
10
69.7728839999999906
20
-137.6893269999999916
11
69.8734529999999978
21
-137.3577960000000076
0
LINE
8
BLACK
6
CONTINUOUS
10
69.8734529999999978
20
-137.3577960000000076
11
69.9410419999999959
21
-137.0180049999999881
0
LINE
8
BLACK
6
CONTINUOUS
10
69.9410419999999959
20
-137.0180049999999881
11
69.9749999999999943
21
-136.6732240000000047
0
LINE
8
BLACK
6
CONTINUOUS
10
69.9749999999999943
20
-136.6732240000000047
11
69.9749999999999943
21
-136.3267759999999953
0
LINE
8
BLACK
6
CONTINUOUS
10
69.9749999999999943
20
-136.3267759999999953
11
69.9410419999999959
21
-135.9819949999999835
0
LINE
8
BLACK
6
CONTINUOUS
10
69.9410419999999959
20
-135.9819949999999835
11
69.8734529999999978
21
-135.6422039999999924
0
LINE
8
BLACK
6
CONTINUOUS
10
69.8734529999999978
20
-135.6422039999999924
11
69.7728839999999906
21
-135.31067299999998
0
LINE
8
BLACK
6
CONTINUOUS
10
69.7728839999999906
20
-135.31067299999998
11
69.6403040000000004
21
-134.9905969999999797
0
LINE
8
BLACK
6
CONTINUOUS
10
69.6403040000000004
20
-134.9905969999999797
11
69.4769890000000032
21
-134.685056000000003
0
LINE
8
BLACK
6
CONTINUOUS
10
69.4769890000000032
20
-134.685056000000003
11
69.2845129999999898
21
-134.396995000000004
0
LINE
8
BLACK
6
CONTINUOUS
10
69.2845129999999898
20
-134.396995000000004
11
69.0647280000000023
21
-134.1291870000000017
0
LINE
8
BLACK
6
CONTINUOUS
10
69.0647280000000023
20
-134.1291870000000017
11
68.819751999999994
21
-133.8842109999999934
0
LINE
8
BLACK
6
CONTINUOUS
10
68.819751999999994
20
-133.8842109999999934
11
68.5519439999999918
21
-133.6644259999999917
0
LINE
8
BLACK
6
CONTINUOUS
10
68.5519439999999918
20
-133.6644259999999917
11
68.2638829999999928
21
-133.4719499999999925
0
LINE
8
BLACK
6
CONTINUOUS
10
68.2638829999999928
20
-133.4719499999999925
11
67.9583420000000018
21
-133.3086349999999811
0
LINE
8
BLACK
6
CONTINUOUS
10
67.9583420000000018
20
-133.3086349999999811
11
67.6382660000000016
21
-133.176054999999991
0
LINE
8
BLACK
6
CONTINUOUS
10
67.6382660000000016
20
-133.176054999999991
11
67.3067350000000033
21
-133.0754859999999837
0
LINE
8
BLACK
6
CONTINUOUS
10
67.3067350000000033
20
-133.0754859999999837
11
66.966943999999998
21
-133.0078969999999856
0
LINE
8
BLACK
6
CONTINUOUS
10
66.966943999999998
20
-133.0078969999999856
11
66.6221630000000005
21
-132.9739390000000014
0
LINE
8
BLACK
6
CONTINUOUS
10
66.6221630000000005
20
-132.9739390000000014
11
66.2757149999999911
21
-132.9739390000000014
0
LINE
8
BLACK
6
CONTINUOUS
10
66.2757149999999911
20
-132.9739390000000014
11
65.9309339999999935
21
-133.0078969999999856
0
LINE
8
BLACK
6
CONTINUOUS
10
65.9309339999999935
20
-133.0078969999999856
11
65.5911430000000024
21
-133.0754859999999837
0
LINE
8
BLACK
6
CONTINUOUS
10
65.5911430000000024
20
-133.0754859999999837
11
65.25961199999999
21
-133.176054999999991
0
LINE
8
BLACK
6
CONTINUOUS
10
65.25961199999999
20
-133.176054999999991
11
64.9395360000000039
21
-133.3086349999999811
0
LINE
8
BLACK
6
CONTINUOUS
10
64.9395360000000039
20
-133.3086349999999811
11
64.6339949999999988
21
-133.4719499999999925
0
LINE
8
BLACK
6
CONTINUOUS
10
64.6339949999999988
20
-133.4719499999999925
11
64.3459339999999997
21
-133.6644259999999917
0
LINE
8
BLACK
6
CONTINUOUS
10
64.3459339999999997
20
-133.6644259999999917
11
64.0781259999999975
21
-133.8842109999999934
0
LINE
8
BLACK
6
CONTINUOUS
10
64.0781259999999975
20
-133.8842109999999934
11
63.8331499999999963
21
-134.1291870000000017
0
LINE
8
BLACK
6
CONTINUOUS
10
63.8331499999999963
20
-134.1291870000000017
11
63.6133649999999946
21
-134.396995000000004
0
LINE
8
BLACK
6
CONTINUOUS
10
63.6133649999999946
20
-134.396995000000004
11
63.4208889999999954
21
-134.685056000000003
0
LINE
8
BLACK
6
CONTINUOUS
10
63.4208889999999954
20
-134.685056000000003
11
63.2575739999999982
21
-134.9905969999999797
0
LINE
8
BLACK
6
CONTINUOUS
10
63.2575739999999982
20
-134.9905969999999797
11
63.1249939999999938
21
-135.31067299999998
0
LINE
8
BLACK
6
CONTINUOUS
10
63.1249939999999938
20
-135.31067299999998
11
63.0244249999999937
21
-135.6422039999999924
0
LINE
8
BLACK
6
CONTINUOUS
10
63.0244249999999937
20
-135.6422039999999924
11
62.9568359999999956
21
-135.9819949999999835
0
LINE
8
BLACK
6
CONTINUOUS
10
62.9568359999999956
20
-135.9819949999999835
11
62.9228779999999972
21
-136.3267759999999953
0
LINE
8
BLACK
6
CONTINUOUS
10
62.9228779999999972
20
-136.3267759999999953
11
62.9228779999999972
21
-136.6732240000000047
0
LINE
8
BLACK
6
CONTINUOUS
10
60.9736559999999983
20
-116.9626439999999974
11
61.3178509999999974
21
-117.0311090000000007
0
LINE
8
BLACK
6
CONTINUOUS
10
61.3178509999999974
20
-117.0311090000000007
11
61.6536779999999993
21
-117.1329810000000009
0
LINE
8
BLACK
6
CONTINUOUS
10
61.6536779999999993
20
-117.1329810000000009
11
61.9779020000000003
21
-117.2672789999999878
0
LINE
8
BLACK
6
CONTINUOUS
10
61.9779020000000003
20
-117.2672789999999878
11
62.2874020000000002
21
-117.4327100000000002
0
LINE
8
BLACK
6
CONTINUOUS
10
62.2874020000000002
20
-117.4327100000000002
11
62.579195999999996
21
-117.6276809999999955
0
LINE
8
BLACK
6
CONTINUOUS
10
62.579195999999996
20
-117.6276809999999955
11
62.8504749999999959
21
-117.8503139999999973
0
LINE
8
BLACK
6
CONTINUOUS
10
62.8504749999999959
20
-117.8503139999999973
11
63.0986249999999984
21
-118.0984639999999928
0
LINE
8
BLACK
6
CONTINUOUS
10
63.0986249999999984
20
-118.0984639999999928
11
63.3212580000000003
21
-118.3697429999999997
0
LINE
8
BLACK
6
CONTINUOUS
10
63.3212580000000003
20
-118.3697429999999997
11
63.5162289999999956
21
-118.6615369999999956
0
LINE
8
BLACK
6
CONTINUOUS
10
63.5162289999999956
20
-118.6615369999999956
11
63.6816599999999937
21
-118.9710369999999955
0
LINE
8
BLACK
6
CONTINUOUS
10
63.6816599999999937
20
-118.9710369999999955
11
63.8159579999999949
21
-119.2952609999999964
0
LINE
8
BLACK
6
CONTINUOUS
10
63.8159579999999949
20
-119.2952609999999964
11
63.917829999999995
21
-119.6310879999999912
0
LINE
8
BLACK
6
CONTINUOUS
10
63.917829999999995
20
-119.6310879999999912
11
63.9862949999999984
21
-119.9752829999999904
0
LINE
8
BLACK
6
CONTINUOUS
10
63.9862949999999984
20
-119.9752829999999904
11
64.0206919999999968
21
-120.3245309999999932
0
LINE
8
BLACK
6
CONTINUOUS
10
64.0206919999999968
20
-120.3245309999999932
11
64.0206919999999968
21
-120.6754689999999925
0
LINE
8
BLACK
6
CONTINUOUS
10
64.0206919999999968
20
-120.6754689999999925
11
63.9862949999999984
21
-121.0247169999999954
0
LINE
8
BLACK
6
CONTINUOUS
10
63.9862949999999984
20
-121.0247169999999954
11
63.917829999999995
21
-121.3689119999999946
0
LINE
8
BLACK
6
CONTINUOUS
10
63.917829999999995
20
-121.3689119999999946
11
63.8159579999999949
21
-121.7047389999999893
0
LINE
8
BLACK
6
CONTINUOUS
10
63.8159579999999949
20
-121.7047389999999893
11
63.6816599999999937
21
-122.0289629999999903
0
LINE
8
BLACK
6
CONTINUOUS
10
63.6816599999999937
20
-122.0289629999999903
11
63.5162289999999956
21
-122.3384629999999902
0
LINE
8
BLACK
6
CONTINUOUS
10
63.5162289999999956
20
-122.3384629999999902
11
63.3212580000000003
21
-122.6302570000000003
0
LINE
8
BLACK
6
CONTINUOUS
10
63.3212580000000003
20
-122.6302570000000003
11
63.0986249999999984
21
-122.901535999999993
0
LINE
8
BLACK
6
CONTINUOUS
10
63.0986249999999984
20
-122.901535999999993
11
62.8504749999999959
21
-123.1496859999999884
0
LINE
8
BLACK
6
CONTINUOUS
10
62.8504749999999959
20
-123.1496859999999884
11
62.579195999999996
21
-123.3723189999999903
0
LINE
8
BLACK
6
CONTINUOUS
10
62.579195999999996
20
-123.3723189999999903
11
62.2874020000000002
21
-123.5672899999999998
0
LINE
8
BLACK
6
CONTINUOUS
10
62.2874020000000002
20
-123.5672899999999998
11
61.9779020000000003
21
-123.732720999999998
0
LINE
8
BLACK
6
CONTINUOUS
10
61.9779020000000003
20
-123.732720999999998
11
61.6536779999999993
21
-123.8670189999999991
0
LINE
8
BLACK
6
CONTINUOUS
10
61.6536779999999993
20
-123.8670189999999991
11
61.3178509999999974
21
-123.9688909999999993
0
LINE
8
BLACK
6
CONTINUOUS
10
61.3178509999999974
20
-123.9688909999999993
11
60.9736559999999983
21
-124.0373559999999884
0
LINE
8
BLACK
6
CONTINUOUS
10
60.9736559999999983
20
-124.0373559999999884
11
60.6244079999999954
21
-124.0717530000000011
0
LINE
8
BLACK
6
CONTINUOUS
10
60.6244079999999954
20
-124.0717530000000011
11
60.2734699999999961
21
-124.0717530000000011
0
LINE
8
BLACK
6
CONTINUOUS
10
60.2734699999999961
20
-124.0717530000000011
11
59.9242220000000003
21
-124.0373559999999884
0
LINE
8
BLACK
6
CONTINUOUS
10
59.9242220000000003
20
-124.0373559999999884
11
59.5800269999999941
21
-123.9688909999999993
0
LINE
8
BLACK
6
CONTINUOUS
10
59.5800269999999941
20
-123.9688909999999993
11
59.2441999999999993
21
-123.8670189999999991
0
LINE
8
BLACK
6
CONTINUOUS
10
59.2441999999999993
20
-123.8670189999999991
11
58.9199759999999984
21
-123.732720999999998
0
LINE
8
BLACK
6
CONTINUOUS
10
58.9199759999999984
20
-123.732720999999998
11
58.6104759999999985
21
-123.5672899999999998
0
LINE
8
BLACK
6
CONTINUOUS
10
58.6104759999999985
20
-123.5672899999999998
11
58.3186819999999955
21
-123.3723189999999903
0
LINE
8
BLACK
6
CONTINUOUS
10
58.3186819999999955
20
-123.3723189999999903
11
58.0474029999999956
21
-123.1496859999999884
0
LINE
8
BLACK
6
CONTINUOUS
10
58.0474029999999956
20
-123.1496859999999884
11
57.7992530000000002
21
-122.901535999999993
0
LINE
8
BLACK
6
CONTINUOUS
10
57.7992530000000002
20
-122.901535999999993
11
57.5766199999999984
21
-122.6302570000000003
0
LINE
8
BLACK
6
CONTINUOUS
10
57.5766199999999984
20
-122.6302570000000003
11
57.3816489999999959
21
-122.3384629999999902
0
LINE
8
BLACK
6
CONTINUOUS
10
57.3816489999999959
20
-122.3384629999999902
11
57.2162179999999978
21
-122.0289629999999903
0
LINE
8
BLACK
6
CONTINUOUS
10
57.2162179999999978
20
-122.0289629999999903
11
57.0819199999999967
21
-121.7047389999999893
0
LINE
8
BLACK
6
CONTINUOUS
10
57.0819199999999967
20
-121.7047389999999893
11
56.9800479999999965
21
-121.3689119999999946
0
LINE
8
BLACK
6
CONTINUOUS
10
56.9800479999999965
20
-121.3689119999999946
11
56.9115830000000003
21
-121.0247169999999954
0
LINE
8
BLACK
6
CONTINUOUS
10
56.9115830000000003
20
-121.0247169999999954
11
56.8771859999999947
21
-120.6754689999999925
0
LINE
8
BLACK
6
CONTINUOUS
10
56.8771859999999947
20
-120.6754689999999925
11
56.8771859999999947
21
-120.3267759999999953
0
LINE
8
BLACK
6
CONTINUOUS
10
56.8771859999999947
20
-120.3267759999999953
11
56.8771859999999947
21
-120.3245309999999932
0
LINE
8
BLACK
6
CONTINUOUS
10
56.8771859999999947
20
-120.3245309999999932
11
56.9115830000000003
21
-119.9752829999999904
0
LINE
8
BLACK
6
CONTINUOUS
10
56.9115830000000003
20
-119.9752829999999904
11
56.9800479999999965
21
-119.6310879999999912
0
LINE
8
BLACK
6
CONTINUOUS
10
56.9800479999999965
20
-119.6310879999999912
11
57.0819199999999967
21
-119.2952609999999964
0
LINE
8
BLACK
6
CONTINUOUS
10
57.0819199999999967
20
-119.2952609999999964
11
57.2162179999999978
21
-118.9710369999999955
0
LINE
8
BLACK
6
CONTINUOUS
10
57.2162179999999978
20
-118.9710369999999955
11
57.3816489999999959
21
-118.6615369999999956
0
LINE
8
BLACK
6
CONTINUOUS
10
57.3816489999999959
20
-118.6615369999999956
11
57.5766199999999984
21
-118.3697429999999997
0
LINE
8
BLACK
6
CONTINUOUS
10
57.5766199999999984
20
-118.3697429999999997
11
57.7992530000000002
21
-118.0984639999999928
0
LINE
8
BLACK
6
CONTINUOUS
10
57.7992530000000002
20
-118.0984639999999928
11
58.0474029999999956
21
-117.8503139999999973
0
LINE
8
BLACK
6
CONTINUOUS
10
58.0474029999999956
20
-117.8503139999999973
11
58.3186819999999955
21
-117.6276809999999955
0
LINE
8
BLACK
6
CONTINUOUS
10
58.3186819999999955
20
-117.6276809999999955
11
58.6104759999999985
21
-117.4327100000000002
0
LINE
8
BLACK
6
CONTINUOUS
10
58.6104759999999985
20
-117.4327100000000002
11
58.9199759999999984
21
-117.2672789999999878
0
LINE
8
BLACK
6
CONTINUOUS
10
58.9199759999999984
20
-117.2672789999999878
11
59.2441999999999993
21
-117.1329810000000009
0
LINE
8
BLACK
6
CONTINUOUS
10
59.2441999999999993
20
-117.1329810000000009
11
59.5800269999999941
21
-117.0311090000000007
0
LINE
8
BLACK
6
CONTINUOUS
10
59.5800269999999941
20
-117.0311090000000007
11
59.9242220000000003
21
-116.9626439999999974
0
LINE
8
BLACK
6
CONTINUOUS
10
59.9242220000000003
20
-116.9626439999999974
11
60.2734699999999961
21
-116.9282469999999989
0
LINE
8
BLACK
6
CONTINUOUS
10
60.2734699999999961
20
-116.9282469999999989
11
60.6244079999999954
21
-116.9282469999999989
0
LINE
8
BLACK
6
CONTINUOUS
10
60.6244079999999954
20
-116.9282469999999989
11
60.9736559999999983
21
-116.9626439999999974
0
LINE
8
BLACK
6
CONTINUOUS
10
56.9228779999999972
20
-120.6732239999999905
11
56.9568359999999956
21
-121.0180049999999881
0
LINE
8
BLACK
6
CONTINUOUS
10
56.9568359999999956
20
-121.0180049999999881
11
57.0244250000000008
21
-121.3577959999999933
0
LINE
8
BLACK
6
CONTINUOUS
10
57.0244250000000008
20
-121.3577959999999933
11
57.1249940000000009
21
-121.6893269999999916
0
LINE
8
BLACK
6
CONTINUOUS
10
57.1249940000000009
20
-121.6893269999999916
11
57.2575739999999982
21
-122.0094029999999918
0
LINE
8
BLACK
6
CONTINUOUS
10
57.2575739999999982
20
-122.0094029999999918
11
57.4208889999999954
21
-122.314943999999997
0
LINE
8
BLACK
6
CONTINUOUS
10
57.4208889999999954
20
-122.314943999999997
11
57.6133649999999946
21
-122.603004999999996
0
LINE
8
BLACK
6
CONTINUOUS
10
57.6133649999999946
20
-122.603004999999996
11
57.8331499999999963
21
-122.8708129999999983
0
LINE
8
BLACK
6
CONTINUOUS
10
57.8331499999999963
20
-122.8708129999999983
11
58.0781259999999975
21
-123.1157889999999924
0
LINE
8
BLACK
6
CONTINUOUS
10
58.0781259999999975
20
-123.1157889999999924
11
58.3459339999999997
21
-123.335573999999994
0
LINE
8
BLACK
6
CONTINUOUS
10
58.3459339999999997
20
-123.335573999999994
11
58.6339949999999988
21
-123.5280499999999932
0
LINE
8
BLACK
6
CONTINUOUS
10
58.6339949999999988
20
-123.5280499999999932
11
58.9395359999999968
21
-123.6913649999999905
0
LINE
8
BLACK
6
CONTINUOUS
10
58.9395359999999968
20
-123.6913649999999905
11
59.2596119999999971
21
-123.8239449999999948
0
LINE
8
BLACK
6
CONTINUOUS
10
59.2596119999999971
20
-123.8239449999999948
11
59.5911429999999953
21
-123.9245139999999878
0
LINE
8
BLACK
6
CONTINUOUS
10
59.5911429999999953
20
-123.9245139999999878
11
59.9309340000000006
21
-123.9921030000000002
0
LINE
8
BLACK
6
CONTINUOUS
10
59.9309340000000006
20
-123.9921030000000002
11
60.2757149999999982
21
-124.0260609999999986
0
LINE
8
BLACK
6
CONTINUOUS
10
60.2757149999999982
20
-124.0260609999999986
11
60.6221630000000005
21
-124.0260609999999986
0
LINE
8
BLACK
6
CONTINUOUS
10
60.6221630000000005
20
-124.0260609999999986
11
60.966943999999998
21
-123.9921030000000002
0
LINE
8
BLACK
6
CONTINUOUS
10
60.966943999999998
20
-123.9921030000000002
11
61.3067349999999962
21
-123.9245139999999878
0
LINE
8
BLACK
6
CONTINUOUS
10
61.3067349999999962
20
-123.9245139999999878
11
61.6382659999999944
21
-123.8239449999999948
0
LINE
8
BLACK
6
CONTINUOUS
10
61.6382659999999944
20
-123.8239449999999948
11
61.9583419999999947
21
-123.6913649999999905
0
LINE
8
BLACK
6
CONTINUOUS
10
61.9583419999999947
20
-123.6913649999999905
11
62.2638829999999999
21
-123.5280499999999932
0
LINE
8
BLACK
6
CONTINUOUS
10
62.2638829999999999
20
-123.5280499999999932
11
62.5519439999999989
21
-123.335573999999994
0
LINE
8
BLACK
6
CONTINUOUS
10
62.5519439999999989
20
-123.335573999999994
11
62.819751999999994
21
-123.1157889999999924
0
LINE
8
BLACK
6
CONTINUOUS
10
62.819751999999994
20
-123.1157889999999924
11
63.0647279999999952
21
-122.8708129999999983
0
LINE
8
BLACK
6
CONTINUOUS
10
63.0647279999999952
20
-122.8708129999999983
11
63.2845129999999969
21
-122.603004999999996
0
LINE
8
BLACK
6
CONTINUOUS
10
63.2845129999999969
20
-122.603004999999996
11
63.4769889999999961
21
-122.314943999999997
0
LINE
8
BLACK
6
CONTINUOUS
10
63.4769889999999961
20
-122.314943999999997
11
63.6403040000000004
21
-122.0094029999999918
0
LINE
8
BLACK
6
CONTINUOUS
10
63.6403040000000004
20
-122.0094029999999918
11
63.7728839999999977
21
-121.6893269999999916
0
LINE
8
BLACK
6
CONTINUOUS
10
63.7728839999999977
20
-121.6893269999999916
11
63.8734529999999978
21
-121.3577959999999933
0
LINE
8
BLACK
6
CONTINUOUS
10
63.8734529999999978
20
-121.3577959999999933
11
63.9410419999999959
21
-121.0180049999999881
0
LINE
8
BLACK
6
CONTINUOUS
10
63.9410419999999959
20
-121.0180049999999881
11
63.9749999999999943
21
-120.6732239999999905
0
LINE
8
BLACK
6
CONTINUOUS
10
63.9749999999999943
20
-120.6732239999999905
11
63.9749999999999943
21
-120.3267759999999953
0
LINE
8
BLACK
6
CONTINUOUS
10
63.9749999999999943
20
-120.3267759999999953
11
63.9410419999999959
21
-119.9819949999999977
0
LINE
8
BLACK
6
CONTINUOUS
10
63.9410419999999959
20
-119.9819949999999977
11
63.8734529999999978
21
-119.6422039999999924
0
LINE
8
BLACK
6
CONTINUOUS
10
63.8734529999999978
20
-119.6422039999999924
11
63.7728839999999977
21
-119.3106729999999942
0
LINE
8
BLACK
6
CONTINUOUS
10
63.7728839999999977
20
-119.3106729999999942
11
63.6403040000000004
21
-118.990596999999994
0
LINE
8
BLACK
6
CONTINUOUS
10
63.6403040000000004
20
-118.990596999999994
11
63.4769889999999961
21
-118.6850559999999888
0
LINE
8
BLACK
6
CONTINUOUS
10
63.4769889999999961
20
-118.6850559999999888
11
63.2845129999999969
21
-118.3969949999999898
0
LINE
8
BLACK
6
CONTINUOUS
10
63.2845129999999969
20
-118.3969949999999898
11
63.0647279999999952
21
-118.1291870000000017
0
LINE
8
BLACK
6
CONTINUOUS
10
63.0647279999999952
20
-118.1291870000000017
11
62.819751999999994
21
-117.8842109999999934
0
LINE
8
BLACK
6
CONTINUOUS
10
62.819751999999994
20
-117.8842109999999934
11
62.5519439999999989
21
-117.6644259999999917
0
LINE
8
BLACK
6
CONTINUOUS
10
62.5519439999999989
20
-117.6644259999999917
11
62.2638829999999999
21
-117.4719499999999925
0
LINE
8
BLACK
6
CONTINUOUS
10
62.2638829999999999
20
-117.4719499999999925
11
61.9583419999999947
21
-117.3086349999999953
0
LINE
8
BLACK
6
CONTINUOUS
10
61.9583419999999947
20
-117.3086349999999953
11
61.6382659999999944
21
-117.176054999999991
0
LINE
8
BLACK
6
CONTINUOUS
10
61.6382659999999944
20
-117.176054999999991
11
61.3067349999999962
21
-117.0754859999999979
0
LINE
8
BLACK
6
CONTINUOUS
10
61.3067349999999962
20
-117.0754859999999979
11
60.966943999999998
21
-117.0078969999999998
0
LINE
8
BLACK
6
CONTINUOUS
10
60.966943999999998
20
-117.0078969999999998
11
60.6221630000000005
21
-116.9739390000000014
0
LINE
8
BLACK
6
CONTINUOUS
10
60.6221630000000005
20
-116.9739390000000014
11
60.2757149999999982
21
-116.9739390000000014
0
LINE
8
BLACK
6
CONTINUOUS
10
60.2757149999999982
20
-116.9739390000000014
11
59.9309340000000006
21
-117.0078969999999998
0
LINE
8
BLACK
6
CONTINUOUS
10
59.9309340000000006
20
-117.0078969999999998
11
59.5911429999999953
21
-117.0754859999999979
0
LINE
8
BLACK
6
CONTINUOUS
10
59.5911429999999953
20
-117.0754859999999979
11
59.2596119999999971
21
-117.176054999999991
0
LINE
8
BLACK
6
CONTINUOUS
10
59.2596119999999971
20
-117.176054999999991
11
58.9395359999999968
21
-117.3086349999999953
0
LINE
8
BLACK
6
CONTINUOUS
10
58.9395359999999968
20
-117.3086349999999953
11
58.6339949999999988
21
-117.4719499999999925
0
LINE
8
BLACK
6
CONTINUOUS
10
58.6339949999999988
20
-117.4719499999999925
11
58.3459339999999997
21
-117.6644259999999917
0
LINE
8
BLACK
6
CONTINUOUS
10
58.3459339999999997
20
-117.6644259999999917
11
58.0781259999999975
21
-117.8842109999999934
0
LINE
8
BLACK
6
CONTINUOUS
10
58.0781259999999975
20
-117.8842109999999934
11
57.8331499999999963
21
-118.1291870000000017
0
LINE
8
BLACK
6
CONTINUOUS
10
57.8331499999999963
20
-118.1291870000000017
11
57.6133649999999946
21
-118.3969949999999898
0
LINE
8
BLACK
6
CONTINUOUS
10
57.6133649999999946
20
-118.3969949999999898
11
57.4208889999999954
21
-118.6850559999999888
0
LINE
8
BLACK
6
CONTINUOUS
10
57.4208889999999954
20
-118.6850559999999888
11
57.2575739999999982
21
-118.990596999999994
0
LINE
8
BLACK
6
CONTINUOUS
10
57.2575739999999982
20
-118.990596999999994
11
57.1249940000000009
21
-119.3106729999999942
0
LINE
8
BLACK
6
CONTINUOUS
10
57.1249940000000009
20
-119.3106729999999942
11
57.0244250000000008
21
-119.6422039999999924
0
LINE
8
BLACK
6
CONTINUOUS
10
57.0244250000000008
20
-119.6422039999999924
11
56.9568359999999956
21
-119.9819949999999977
0
LINE
8
BLACK
6
CONTINUOUS
10
56.9568359999999956
20
-119.9819949999999977
11
56.9228779999999972
21
-120.3267759999999953
0
LINE
8
BLACK
6
CONTINUOUS
10
56.9228779999999972
20
-120.3267759999999953
11
56.9228779999999972
21
-120.6732239999999905
0
LINE
8
BLACK
6
CONTINUOUS
10
52.0233470000000011
20
-88.4626429999999999
11
52.3675420000000003
21
-88.531107999999989
0
LINE
8
BLACK
6
CONTINUOUS
10
52.3675420000000003
20
-88.531107999999989
11
52.703368999999995
21
-88.6329799999999892
0
LINE
8
BLACK
6
CONTINUOUS
10
52.703368999999995
20
-88.6329799999999892
11
53.027592999999996
21
-88.7672779999999904
0
LINE
8
BLACK
6
CONTINUOUS
10
53.027592999999996
20
-88.7672779999999904
11
53.3370929999999959
21
-88.9327090000000027
0
LINE
8
BLACK
6
CONTINUOUS
10
53.3370929999999959
20
-88.9327090000000027
11
53.6288869999999989
21
-89.127679999999998
0
LINE
8
BLACK
6
CONTINUOUS
10
53.6288869999999989
20
-89.127679999999998
11
53.9001659999999987
21
-89.3503129999999999
0
LINE
8
BLACK
6
CONTINUOUS
10
53.9001659999999987
20
-89.3503129999999999
11
54.1483159999999941
21
-89.5984629999999953
0
LINE
8
BLACK
6
CONTINUOUS
10
54.1483159999999941
20
-89.5984629999999953
11
54.370948999999996
21
-89.8697420000000022
0
LINE
8
BLACK
6
CONTINUOUS
10
54.370948999999996
20
-89.8697420000000022
11
54.5659199999999984
21
-90.1615359999999981
0
LINE
8
BLACK
6
CONTINUOUS
10
54.5659199999999984
20
-90.1615359999999981
11
54.7313509999999965
21
-90.471035999999998
0
LINE
8
BLACK
6
CONTINUOUS
10
54.7313509999999965
20
-90.471035999999998
11
54.8656489999999977
21
-90.795259999999999
0
LINE
8
BLACK
6
CONTINUOUS
10
54.8656489999999977
20
-90.795259999999999
11
54.9675209999999979
21
-91.1310869999999937
0
LINE
8
BLACK
6
CONTINUOUS
10
54.9675209999999979
20
-91.1310869999999937
11
55.0359859999999941
21
-91.4752819999999929
0
LINE
8
BLACK
6
CONTINUOUS
10
55.0359859999999941
20
-91.4752819999999929
11
55.0703829999999996
21
-91.8245299999999958
0
LINE
8
BLACK
6
CONTINUOUS
10
55.0703829999999996
20
-91.8245299999999958
11
55.0703829999999996
21
-92.1754679999999951
0
LINE
8
BLACK
6
CONTINUOUS
10
55.0703829999999996
20
-92.1754679999999951
11
55.0359859999999941
21
-92.524715999999998
0
LINE
8
BLACK
6
CONTINUOUS
10
55.0359859999999941
20
-92.524715999999998
11
54.9675209999999979
21
-92.8689109999999971
0
LINE
8
BLACK
6
CONTINUOUS
10
54.9675209999999979
20
-92.8689109999999971
11
54.8656489999999977
21
-93.2047379999999919
0
LINE
8
BLACK
6
CONTINUOUS
10
54.8656489999999977
20
-93.2047379999999919
11
54.7313509999999965
21
-93.5289619999999928
0
LINE
8
BLACK
6
CONTINUOUS
10
54.7313509999999965
20
-93.5289619999999928
11
54.5659199999999984
21
-93.8384619999999927
0
LINE
8
BLACK
6
CONTINUOUS
10
54.5659199999999984
20
-93.8384619999999927
11
54.370948999999996
21
-94.1302560000000028
0
LINE
8
BLACK
6
CONTINUOUS
10
54.370948999999996
20
-94.1302560000000028
11
54.1483159999999941
21
-94.4015349999999955
0
LINE
8
BLACK
6
CONTINUOUS
10
54.1483159999999941
20
-94.4015349999999955
11
53.9001659999999987
21
-94.649684999999991
0
LINE
8
BLACK
6
CONTINUOUS
10
53.9001659999999987
20
-94.649684999999991
11
53.6288869999999989
21
-94.8723179999999928
0
LINE
8
BLACK
6
CONTINUOUS
10
53.6288869999999989
20
-94.8723179999999928
11
53.3370929999999959
21
-95.0672890000000024
0
LINE
8
BLACK
6
CONTINUOUS
10
53.3370929999999959
20
-95.0672890000000024
11
53.027592999999996
21
-95.2327200000000005
0
LINE
8
BLACK
6
CONTINUOUS
10
53.027592999999996
20
-95.2327200000000005
11
52.703368999999995
21
-95.3670180000000016
0
LINE
8
BLACK
6
CONTINUOUS
10
52.703368999999995
20
-95.3670180000000016
11
52.3675420000000003
21
-95.4688900000000018
0
LINE
8
BLACK
6
CONTINUOUS
10
52.3675420000000003
20
-95.4688900000000018
11
52.0233470000000011
21
-95.5373549999999909
0
LINE
8
BLACK
6
CONTINUOUS
10
52.0233470000000011
20
-95.5373549999999909
11
51.6740989999999982
21
-95.5717519999999894
0
LINE
8
BLACK
6
CONTINUOUS
10
51.6740989999999982
20
-95.5717519999999894
11
51.3231609999999989
21
-95.5717519999999894
0
LINE
8
BLACK
6
CONTINUOUS
10
51.3231609999999989
20
-95.5717519999999894
11
50.973912999999996
21
-95.5373549999999909
0
LINE
8
BLACK
6
CONTINUOUS
10
50.973912999999996
20
-95.5373549999999909
11
50.6297179999999969
21
-95.4688900000000018
0
LINE
8
BLACK
6
CONTINUOUS
10
50.6297179999999969
20
-95.4688900000000018
11
50.293890999999995
21
-95.3670180000000016
0
LINE
8
BLACK
6
CONTINUOUS
10
50.293890999999995
20
-95.3670180000000016
11
49.9696670000000012
21
-95.2327200000000005
0
LINE
8
BLACK
6
CONTINUOUS
10
49.9696670000000012
20
-95.2327200000000005
11
49.6601670000000013
21
-95.0672890000000024
0
LINE
8
BLACK
6
CONTINUOUS
10
49.6601670000000013
20
-95.0672890000000024
11
49.3683729999999983
21
-94.8723179999999928
0
LINE
8
BLACK
6
CONTINUOUS
10
49.3683729999999983
20
-94.8723179999999928
11
49.0970939999999985
21
-94.649684999999991
0
LINE
8
BLACK
6
CONTINUOUS
10
49.0970939999999985
20
-94.649684999999991
11
48.8489439999999959
21
-94.4015349999999955
0
LINE
8
BLACK
6
CONTINUOUS
10
48.8489439999999959
20
-94.4015349999999955
11
48.6263110000000012
21
-94.1302560000000028
0
LINE
8
BLACK
6
CONTINUOUS
10
48.6263110000000012
20
-94.1302560000000028
11
48.4313399999999987
21
-93.8384619999999927
0
LINE
8
BLACK
6
CONTINUOUS
10
48.4313399999999987
20
-93.8384619999999927
11
48.2659090000000006
21
-93.5289619999999928
0
LINE
8
BLACK
6
CONTINUOUS
10
48.2659090000000006
20
-93.5289619999999928
11
48.1316109999999995
21
-93.2047379999999919
0
LINE
8
BLACK
6
CONTINUOUS
10
48.1316109999999995
20
-93.2047379999999919
11
48.0297389999999993
21
-92.8689109999999971
0
LINE
8
BLACK
6
CONTINUOUS
10
48.0297389999999993
20
-92.8689109999999971
11
47.961273999999996
21
-92.524715999999998
0
LINE
8
BLACK
6
CONTINUOUS
10
47.961273999999996
20
-92.524715999999998
11
47.9268769999999975
21
-92.1754679999999951
0
LINE
8
BLACK
6
CONTINUOUS
10
47.9268769999999975
20
-92.1754679999999951
11
47.9268769999999975
21
-91.8267749999999978
0
LINE
8
BLACK
6
CONTINUOUS
10
47.9268769999999975
20
-91.8267749999999978
11
47.9268769999999975
21
-91.8245299999999958
0
LINE
8
BLACK
6
CONTINUOUS
10
47.9268769999999975
20
-91.8245299999999958
11
47.961273999999996
21
-91.4752819999999929
0
LINE
8
BLACK
6
CONTINUOUS
10
47.961273999999996
20
-91.4752819999999929
11
48.0297389999999993
21
-91.1310869999999937
0
LINE
8
BLACK
6
CONTINUOUS
10
48.0297389999999993
20
-91.1310869999999937
11
48.1316109999999995
21
-90.795259999999999
0
LINE
8
BLACK
6
CONTINUOUS
10
48.1316109999999995
20
-90.795259999999999
11
48.2659090000000006
21
-90.471035999999998
0
LINE
8
BLACK
6
CONTINUOUS
10
48.2659090000000006
20
-90.471035999999998
11
48.4313399999999987
21
-90.1615359999999981
0
LINE
8
BLACK
6
CONTINUOUS
10
48.4313399999999987
20
-90.1615359999999981
11
48.6263110000000012
21
-89.8697420000000022
0
LINE
8
BLACK
6
CONTINUOUS
10
48.6263110000000012
20
-89.8697420000000022
11
48.8489439999999959
21
-89.5984629999999953
0
LINE
8
BLACK
6
CONTINUOUS
10
48.8489439999999959
20
-89.5984629999999953
11
49.0970939999999985
21
-89.3503129999999999
0
LINE
8
BLACK
6
CONTINUOUS
10
49.0970939999999985
20
-89.3503129999999999
11
49.3683729999999983
21
-89.127679999999998
0
LINE
8
BLACK
6
CONTINUOUS
10
49.3683729999999983
20
-89.127679999999998
11
49.6601670000000013
21
-88.9327090000000027
0
LINE
8
BLACK
6
CONTINUOUS
10
49.6601670000000013
20
-88.9327090000000027
11
49.9696670000000012
21
-88.7672779999999904
0
LINE
8
BLACK
6
CONTINUOUS
10
49.9696670000000012
20
-88.7672779999999904
11
50.293890999999995
21
-88.6329799999999892
0
LINE
8
BLACK
6
CONTINUOUS
10
50.293890999999995
20
-88.6329799999999892
11
50.6297179999999969
21
-88.531107999999989
0
LINE
8
BLACK
6
CONTINUOUS
10
50.6297179999999969
20
-88.531107999999989
11
50.973912999999996
21
-88.4626429999999999
0
LINE
8
BLACK
6
CONTINUOUS
10
50.973912999999996
20
-88.4626429999999999
11
51.3231609999999989
21
-88.4282460000000015
0
LINE
8
BLACK
6
CONTINUOUS
10
51.3231609999999989
20
-88.4282460000000015
11
51.6740989999999982
21
-88.4282460000000015
0
LINE
8
BLACK
6
CONTINUOUS
10
51.6740989999999982
20
-88.4282460000000015
11
52.0233470000000011
21
-88.4626429999999999
0
LINE
8
BLACK
6
CONTINUOUS
10
47.972569
20
-92.173222999999993
11
48.0065269999999984
21
-92.5180039999999906
0
LINE
8
BLACK
6
CONTINUOUS
10
48.0065269999999984
20
-92.5180039999999906
11
48.0741159999999965
21
-92.8577949999999959
0
LINE
8
BLACK
6
CONTINUOUS
10
48.0741159999999965
20
-92.8577949999999959
11
48.1746849999999966
21
-93.1893259999999941
0
LINE
8
BLACK
6
CONTINUOUS
10
48.1746849999999966
20
-93.1893259999999941
11
48.307265000000001
21
-93.5094019999999944
0
LINE
8
BLACK
6
CONTINUOUS
10
48.307265000000001
20
-93.5094019999999944
11
48.4705799999999982
21
-93.8149429999999995
0
LINE
8
BLACK
6
CONTINUOUS
10
48.4705799999999982
20
-93.8149429999999995
11
48.6630559999999974
21
-94.1030039999999985
0
LINE
8
BLACK
6
CONTINUOUS
10
48.6630559999999974
20
-94.1030039999999985
11
48.8828409999999991
21
-94.3708120000000008
0
LINE
8
BLACK
6
CONTINUOUS
10
48.8828409999999991
20
-94.3708120000000008
11
49.1278170000000003
21
-94.6157879999999949
0
LINE
8
BLACK
6
CONTINUOUS
10
49.1278170000000003
20
-94.6157879999999949
11
49.3956249999999955
21
-94.8355729999999966
0
LINE
8
BLACK
6
CONTINUOUS
10
49.3956249999999955
20
-94.8355729999999966
11
49.6836859999999945
21
-95.0280489999999958
0
LINE
8
BLACK
6
CONTINUOUS
10
49.6836859999999945
20
-95.0280489999999958
11
49.9892269999999996
21
-95.191363999999993
0
LINE
8
BLACK
6
CONTINUOUS
10
49.9892269999999996
20
-95.191363999999993
11
50.3093029999999999
21
-95.3239439999999973
0
LINE
8
BLACK
6
CONTINUOUS
10
50.3093029999999999
20
-95.3239439999999973
11
50.6408339999999981
21
-95.4245129999999904
0
LINE
8
BLACK
6
CONTINUOUS
10
50.6408339999999981
20
-95.4245129999999904
11
50.9806249999999963
21
-95.4921020000000027
0
LINE
8
BLACK
6
CONTINUOUS
10
50.9806249999999963
20
-95.4921020000000027
11
51.325406000000001
21
-95.5260600000000011
0
LINE
8
BLACK
6
CONTINUOUS
10
51.325406000000001
20
-95.5260600000000011
11
51.6718539999999962
21
-95.5260600000000011
0
LINE
8
BLACK
6
CONTINUOUS
10
51.6718539999999962
20
-95.5260600000000011
11
52.0166350000000008
21
-95.4921020000000027
0
LINE
8
BLACK
6
CONTINUOUS
10
52.0166350000000008
20
-95.4921020000000027
11
52.356425999999999
21
-95.4245129999999904
0
LINE
8
BLACK
6
CONTINUOUS
10
52.356425999999999
20
-95.4245129999999904
11
52.6879569999999973
21
-95.3239439999999973
0
LINE
8
BLACK
6
CONTINUOUS
10
52.6879569999999973
20
-95.3239439999999973
11
53.0080329999999975
21
-95.191363999999993
0
LINE
8
BLACK
6
CONTINUOUS
10
53.0080329999999975
20
-95.191363999999993
11
53.3135739999999956
21
-95.0280489999999958
0
LINE
8
BLACK
6
CONTINUOUS
10
53.3135739999999956
20
-95.0280489999999958
11
53.6016349999999946
21
-94.8355729999999966
0
LINE
8
BLACK
6
CONTINUOUS
10
53.6016349999999946
20
-94.8355729999999966
11
53.8694429999999969
21
-94.6157879999999949
0
LINE
8
BLACK
6
CONTINUOUS
10
53.8694429999999969
20
-94.6157879999999949
11
54.1144189999999981
21
-94.3708120000000008
0
LINE
8
BLACK
6
CONTINUOUS
10
54.1144189999999981
20
-94.3708120000000008
11
54.3342039999999997
21
-94.1030039999999985
0
LINE
8
BLACK
6
CONTINUOUS
10
54.3342039999999997
20
-94.1030039999999985
11
54.5266799999999989
21
-93.8149429999999995
0
LINE
8
BLACK
6
CONTINUOUS
10
54.5266799999999989
20
-93.8149429999999995
11
54.6899949999999961
21
-93.5094019999999944
0
LINE
8
BLACK
6
CONTINUOUS
10
54.6899949999999961
20
-93.5094019999999944
11
54.8225750000000005
21
-93.1893259999999941
0
LINE
8
BLACK
6
CONTINUOUS
10
54.8225750000000005
20
-93.1893259999999941
11
54.9231440000000006
21
-92.8577949999999959
0
LINE
8
BLACK
6
CONTINUOUS
10
54.9231440000000006
20
-92.8577949999999959
11
54.9907329999999988
21
-92.5180039999999906
0
LINE
8
BLACK
6
CONTINUOUS
10
54.9907329999999988
20
-92.5180039999999906
11
55.0246909999999971
21
-92.173222999999993
0
LINE
8
BLACK
6
CONTINUOUS
10
55.0246909999999971
20
-92.173222999999993
11
55.0246909999999971
21
-91.8267749999999978
0
LINE
8
BLACK
6
CONTINUOUS
10
55.0246909999999971
20
-91.8267749999999978
11
54.9907329999999988
21
-91.4819940000000003
0
LINE
8
BLACK
6
CONTINUOUS
10
54.9907329999999988
20
-91.4819940000000003
11
54.9231440000000006
21
-91.142202999999995
0
LINE
8
BLACK
6
CONTINUOUS
10
54.9231440000000006
20
-91.142202999999995
11
54.8225750000000005
21
-90.8106719999999967
0
LINE
8
BLACK
6
CONTINUOUS
10
54.8225750000000005
20
-90.8106719999999967
11
54.6899949999999961
21
-90.4905959999999965
0
LINE
8
BLACK
6
CONTINUOUS
10
54.6899949999999961
20
-90.4905959999999965
11
54.5266799999999989
21
-90.1850549999999913
0
LINE
8
BLACK
6
CONTINUOUS
10
54.5266799999999989
20
-90.1850549999999913
11
54.3342039999999997
21
-89.8969939999999923
0
LINE
8
BLACK
6
CONTINUOUS
10
54.3342039999999997
20
-89.8969939999999923
11
54.1144189999999981
21
-89.62918599999999
0
LINE
8
BLACK
6
CONTINUOUS
10
54.1144189999999981
20
-89.62918599999999
11
53.8694429999999969
21
-89.3842099999999959
0
LINE
8
BLACK
6
CONTINUOUS
10
53.8694429999999969
20
-89.3842099999999959
11
53.6016349999999946
21
-89.1644249999999943
0
LINE
8
BLACK
6
CONTINUOUS
10
53.6016349999999946
20
-89.1644249999999943
11
53.3135739999999956
21
-88.9719489999999951
0
LINE
8
BLACK
6
CONTINUOUS
10
53.3135739999999956
20
-88.9719489999999951
11
53.0080329999999975
21
-88.8086339999999979
0
LINE
8
BLACK
6
CONTINUOUS
10
53.0080329999999975
20
-88.8086339999999979
11
52.6879569999999973
21
-88.6760539999999935
0
LINE
8
BLACK
6
CONTINUOUS
10
52.6879569999999973
20
-88.6760539999999935
11
52.356425999999999
21
-88.5754850000000005
0
LINE
8
BLACK
6
CONTINUOUS
10
52.356425999999999
20
-88.5754850000000005
11
52.0166350000000008
21
-88.5078960000000023
0
LINE
8
BLACK
6
CONTINUOUS
10
52.0166350000000008
20
-88.5078960000000023
11
51.6718539999999962
21
-88.4739379999999898
0
LINE
8
BLACK
6
CONTINUOUS
10
51.6718539999999962
20
-88.4739379999999898
11
51.325406000000001
21
-88.4739379999999898
0
LINE
8
BLACK
6
CONTINUOUS
10
51.325406000000001
20
-88.4739379999999898
11
50.9806249999999963
21
-88.5078960000000023
0
LINE
8
BLACK
6
CONTINUOUS
10
50.9806249999999963
20
-88.5078960000000023
11
50.6408339999999981
21
-88.5754850000000005
0
LINE
8
BLACK
6
CONTINUOUS
10
50.6408339999999981
20
-88.5754850000000005
11
50.3093029999999999
21
-88.6760539999999935
0
LINE
8
BLACK
6
CONTINUOUS
10
50.3093029999999999
20
-88.6760539999999935
11
49.9892269999999996
21
-88.8086339999999979
0
LINE
8
BLACK
6
CONTINUOUS
10
49.9892269999999996
20
-88.8086339999999979
11
49.6836859999999945
21
-88.9719489999999951
0
LINE
8
BLACK
6
CONTINUOUS
10
49.6836859999999945
20
-88.9719489999999951
11
49.3956249999999955
21
-89.1644249999999943
0
LINE
8
BLACK
6
CONTINUOUS
10
49.3956249999999955
20
-89.1644249999999943
11
49.1278170000000003
21
-89.3842099999999959
0
LINE
8
BLACK
6
CONTINUOUS
10
49.1278170000000003
20
-89.3842099999999959
11
48.8828409999999991
21
-89.62918599999999
0
LINE
8
BLACK
6
CONTINUOUS
10
48.8828409999999991
20
-89.62918599999999
11
48.6630559999999974
21
-89.8969939999999923
0
LINE
8
BLACK
6
CONTINUOUS
10
48.6630559999999974
20
-89.8969939999999923
11
48.4705799999999982
21
-90.1850549999999913
0
LINE
8
BLACK
6
CONTINUOUS
10
48.4705799999999982
20
-90.1850549999999913
11
48.307265000000001
21
-90.4905959999999965
0
LINE
8
BLACK
6
CONTINUOUS
10
48.307265000000001
20
-90.4905959999999965
11
48.1746849999999966
21
-90.8106719999999967
0
LINE
8
BLACK
6
CONTINUOUS
10
48.1746849999999966
20
-90.8106719999999967
11
48.0741159999999965
21
-91.142202999999995
0
LINE
8
BLACK
6
CONTINUOUS
10
48.0741159999999965
20
-91.142202999999995
11
48.0065269999999984
21
-91.4819940000000003
0
LINE
8
BLACK
6
CONTINUOUS
10
48.0065269999999984
20
-91.4819940000000003
11
47.972569
21
-91.8267749999999978
0
LINE
8
BLACK
6
CONTINUOUS
10
47.972569
20
-91.8267749999999978
11
47.972569
21
-92.173222999999993
0
LINE
8
BLACK
6
CONTINUOUS
10
67.0455159999999921
20
-88.2199880000000007
11
67.3897109999999913
21
-88.2884529999999899
0
LINE
8
BLACK
6
CONTINUOUS
10
67.3897109999999913
20
-88.2884529999999899
11
67.7255380000000002
21
-88.39032499999999
0
LINE
8
BLACK
6
CONTINUOUS
10
67.7255380000000002
20
-88.39032499999999
11
68.0497620000000012
21
-88.5246229999999912
0
LINE
8
BLACK
6
CONTINUOUS
10
68.0497620000000012
20
-88.5246229999999912
11
68.3592620000000011
21
-88.6900539999999893
0
LINE
8
BLACK
6
CONTINUOUS
10
68.3592620000000011
20
-88.6900539999999893
11
68.651055999999997
21
-88.8850249999999988
0
LINE
8
BLACK
6
CONTINUOUS
10
68.651055999999997
20
-88.8850249999999988
11
68.9223350000000039
21
-89.1076580000000007
0
LINE
8
BLACK
6
CONTINUOUS
10
68.9223350000000039
20
-89.1076580000000007
11
69.1704849999999993
21
-89.3558079999999961
0
LINE
8
BLACK
6
CONTINUOUS
10
69.1704849999999993
20
-89.3558079999999961
11
69.3931180000000012
21
-89.6270869999999888
0
LINE
8
BLACK
6
CONTINUOUS
10
69.3931180000000012
20
-89.6270869999999888
11
69.5880889999999965
21
-89.9188809999999989
0
LINE
8
BLACK
6
CONTINUOUS
10
69.5880889999999965
20
-89.9188809999999989
11
69.7535199999999946
21
-90.2283809999999988
0
LINE
8
BLACK
6
CONTINUOUS
10
69.7535199999999946
20
-90.2283809999999988
11
69.8878179999999958
21
-90.5526049999999998
0
LINE
8
BLACK
6
CONTINUOUS
10
69.8878179999999958
20
-90.5526049999999998
11
69.989689999999996
21
-90.8884319999999946
0
LINE
8
BLACK
6
CONTINUOUS
10
69.989689999999996
20
-90.8884319999999946
11
70.0581549999999993
21
-91.2326269999999937
0
LINE
8
BLACK
6
CONTINUOUS
10
70.0581549999999993
20
-91.2326269999999937
11
70.0925519999999977
21
-91.5818749999999966
0
LINE
8
BLACK
6
CONTINUOUS
10
70.0925519999999977
20
-91.5818749999999966
11
70.0925519999999977
21
-91.9328129999999959
0
LINE
8
BLACK
6
CONTINUOUS
10
70.0925519999999977
20
-91.9328129999999959
11
70.0581549999999993
21
-92.2820609999999988
0
LINE
8
BLACK
6
CONTINUOUS
10
70.0581549999999993
20
-92.2820609999999988
11
69.989689999999996
21
-92.6262559999999979
0
LINE
8
BLACK
6
CONTINUOUS
10
69.989689999999996
20
-92.6262559999999979
11
69.8878179999999958
21
-92.9620829999999927
0
LINE
8
BLACK
6
CONTINUOUS
10
69.8878179999999958
20
-92.9620829999999927
11
69.7535199999999946
21
-93.2863069999999936
0
LINE
8
BLACK
6
CONTINUOUS
10
69.7535199999999946
20
-93.2863069999999936
11
69.5880889999999965
21
-93.5958069999999935
0
LINE
8
BLACK
6
CONTINUOUS
10
69.5880889999999965
20
-93.5958069999999935
11
69.3931180000000012
21
-93.8876009999999894
0
LINE
8
BLACK
6
CONTINUOUS
10
69.3931180000000012
20
-93.8876009999999894
11
69.1704849999999993
21
-94.1588799999999964
0
LINE
8
BLACK
6
CONTINUOUS
10
69.1704849999999993
20
-94.1588799999999964
11
68.9223350000000039
21
-94.4070299999999918
0
LINE
8
BLACK
6
CONTINUOUS
10
68.9223350000000039
20
-94.4070299999999918
11
68.651055999999997
21
-94.6296629999999936
0
LINE
8
BLACK
6
CONTINUOUS
10
68.651055999999997
20
-94.6296629999999936
11
68.3592620000000011
21
-94.824633999999989
0
LINE
8
BLACK
6
CONTINUOUS
10
68.3592620000000011
20
-94.824633999999989
11
68.0497620000000012
21
-94.9900650000000013
0
LINE
8
BLACK
6
CONTINUOUS
10
68.0497620000000012
20
-94.9900650000000013
11
67.7255380000000002
21
-95.1243630000000024
0
LINE
8
BLACK
6
CONTINUOUS
10
67.7255380000000002
20
-95.1243630000000024
11
67.3897109999999913
21
-95.2262350000000026
0
LINE
8
BLACK
6
CONTINUOUS
10
67.3897109999999913
20
-95.2262350000000026
11
67.0455159999999921
21
-95.2946999999999917
0
LINE
8
BLACK
6
CONTINUOUS
10
67.0455159999999921
20
-95.2946999999999917
11
66.6962680000000034
21
-95.3290969999999902
0
LINE
8
BLACK
6
CONTINUOUS
10
66.6962680000000034
20
-95.3290969999999902
11
66.3453299999999899
21
-95.3290969999999902
0
LINE
8
BLACK
6
CONTINUOUS
10
66.3453299999999899
20
-95.3290969999999902
11
65.9960820000000012
21
-95.2946999999999917
0
LINE
8
BLACK
6
CONTINUOUS
10
65.9960820000000012
20
-95.2946999999999917
11
65.6518870000000021
21
-95.2262350000000026
0
LINE
8
BLACK
6
CONTINUOUS
10
65.6518870000000021
20
-95.2262350000000026
11
65.3160599999999931
21
-95.1243630000000024
0
LINE
8
BLACK
6
CONTINUOUS
10
65.3160599999999931
20
-95.1243630000000024
11
64.9918359999999922
21
-94.9900650000000013
0
LINE
8
BLACK
6
CONTINUOUS
10
64.9918359999999922
20
-94.9900650000000013
11
64.6823359999999923
21
-94.824633999999989
0
LINE
8
BLACK
6
CONTINUOUS
10
64.6823359999999923
20
-94.824633999999989
11
64.3905419999999964
21
-94.6296629999999936
0
LINE
8
BLACK
6
CONTINUOUS
10
64.3905419999999964
20
-94.6296629999999936
11
64.1192630000000037
21
-94.4070299999999918
0
LINE
8
BLACK
6
CONTINUOUS
10
64.1192630000000037
20
-94.4070299999999918
11
63.871112999999994
21
-94.1588799999999964
0
LINE
8
BLACK
6
CONTINUOUS
10
63.871112999999994
20
-94.1588799999999964
11
63.6484799999999993
21
-93.8876009999999894
0
LINE
8
BLACK
6
CONTINUOUS
10
63.6484799999999993
20
-93.8876009999999894
11
63.4535089999999968
21
-93.5958069999999935
0
LINE
8
BLACK
6
CONTINUOUS
10
63.4535089999999968
20
-93.5958069999999935
11
63.2880779999999987
21
-93.2863069999999936
0
LINE
8
BLACK
6
CONTINUOUS
10
63.2880779999999987
20
-93.2863069999999936
11
63.1537799999999976
21
-92.9620829999999927
0
LINE
8
BLACK
6
CONTINUOUS
10
63.1537799999999976
20
-92.9620829999999927
11
63.0519079999999974
21
-92.6262559999999979
0
LINE
8
BLACK
6
CONTINUOUS
10
63.0519079999999974
20
-92.6262559999999979
11
62.9834429999999941
21
-92.2820609999999988
0
LINE
8
BLACK
6
CONTINUOUS
10
62.9834429999999941
20
-92.2820609999999988
11
62.9490459999999956
21
-91.9328129999999959
0
LINE
8
BLACK
6
CONTINUOUS
10
62.9490459999999956
20
-91.9328129999999959
11
62.9490459999999956
21
-91.5841199999999986
0
LINE
8
BLACK
6
CONTINUOUS
10
62.9490459999999956
20
-91.5841199999999986
11
62.9490459999999956
21
-91.5818749999999966
0
LINE
8
BLACK
6
CONTINUOUS
10
62.9490459999999956
20
-91.5818749999999966
11
62.9834429999999941
21
-91.2326269999999937
0
LINE
8
BLACK
6
CONTINUOUS
10
62.9834429999999941
20
-91.2326269999999937
11
63.0519079999999974
21
-90.8884319999999946
0
LINE
8
BLACK
6
CONTINUOUS
10
63.0519079999999974
20
-90.8884319999999946
11
63.1537799999999976
21
-90.5526049999999998
0
LINE
8
BLACK
6
CONTINUOUS
10
63.1537799999999976
20
-90.5526049999999998
11
63.2880779999999987
21
-90.2283809999999988
0
LINE
8
BLACK
6
CONTINUOUS
10
63.2880779999999987
20
-90.2283809999999988
11
63.4535089999999968
21
-89.9188809999999989
0
LINE
8
BLACK
6
CONTINUOUS
10
63.4535089999999968
20
-89.9188809999999989
11
63.6484799999999993
21
-89.6270869999999888
0
LINE
8
BLACK
6
CONTINUOUS
10
63.6484799999999993
20
-89.6270869999999888
11
63.871112999999994
21
-89.3558079999999961
0
LINE
8
BLACK
6
CONTINUOUS
10
63.871112999999994
20
-89.3558079999999961
11
64.1192630000000037
21
-89.1076580000000007
0
LINE
8
BLACK
6
CONTINUOUS
10
64.1192630000000037
20
-89.1076580000000007
11
64.3905419999999964
21
-88.8850249999999988
0
LINE
8
BLACK
6
CONTINUOUS
10
64.3905419999999964
20
-88.8850249999999988
11
64.6823359999999923
21
-88.6900539999999893
0
LINE
8
BLACK
6
CONTINUOUS
10
64.6823359999999923
20
-88.6900539999999893
11
64.9918359999999922
21
-88.5246229999999912
0
LINE
8
BLACK
6
CONTINUOUS
10
64.9918359999999922
20
-88.5246229999999912
11
65.3160599999999931
21
-88.39032499999999
0
LINE
8
BLACK
6
CONTINUOUS
10
65.3160599999999931
20
-88.39032499999999
11
65.6518870000000021
21
-88.2884529999999899
0
LINE
8
BLACK
6
CONTINUOUS
10
65.6518870000000021
20
-88.2884529999999899
11
65.9960820000000012
21
-88.2199880000000007
0
LINE
8
BLACK
6
CONTINUOUS
10
65.9960820000000012
20
-88.2199880000000007
11
66.3453299999999899
21
-88.1855910000000023
0
LINE
8
BLACK
6
CONTINUOUS
10
66.3453299999999899
20
-88.1855910000000023
11
66.6962680000000034
21
-88.1855910000000023
0
LINE
8
BLACK
6
CONTINUOUS
10
66.6962680000000034
20
-88.1855910000000023
11
67.0455159999999921
21
-88.2199880000000007
0
LINE
8
BLACK
6
CONTINUOUS
10
62.9947379999999981
20
-91.9305679999999938
11
63.0286959999999965
21
-92.2753489999999914
0
LINE
8
BLACK
6
CONTINUOUS
10
63.0286959999999965
20
-92.2753489999999914
11
63.0962849999999946
21
-92.6151399999999967
0
LINE
8
BLACK
6
CONTINUOUS
10
63.0962849999999946
20
-92.6151399999999967
11
63.1968539999999948
21
-92.9466709999999949
0
LINE
8
BLACK
6
CONTINUOUS
10
63.1968539999999948
20
-92.9466709999999949
11
63.3294339999999991
21
-93.2667469999999952
0
LINE
8
BLACK
6
CONTINUOUS
10
63.3294339999999991
20
-93.2667469999999952
11
63.4927489999999963
21
-93.5722880000000004
0
LINE
8
BLACK
6
CONTINUOUS
10
63.4927489999999963
20
-93.5722880000000004
11
63.6852249999999955
21
-93.8603489999999994
0
LINE
8
BLACK
6
CONTINUOUS
10
63.6852249999999955
20
-93.8603489999999994
11
63.9050099999999972
21
-94.1281570000000016
0
LINE
8
BLACK
6
CONTINUOUS
10
63.9050099999999972
20
-94.1281570000000016
11
64.1499859999999984
21
-94.3731329999999957
0
LINE
8
BLACK
6
CONTINUOUS
10
64.1499859999999984
20
-94.3731329999999957
11
64.4177940000000007
21
-94.5929179999999974
0
LINE
8
BLACK
6
CONTINUOUS
10
64.4177940000000007
20
-94.5929179999999974
11
64.7058549999999997
21
-94.7853939999999966
0
LINE
8
BLACK
6
CONTINUOUS
10
64.7058549999999997
20
-94.7853939999999966
11
65.0113959999999906
21
-94.9487089999999938
0
LINE
8
BLACK
6
CONTINUOUS
10
65.0113959999999906
20
-94.9487089999999938
11
65.3314719999999909
21
-95.0812889999999982
0
LINE
8
BLACK
6
CONTINUOUS
10
65.3314719999999909
20
-95.0812889999999982
11
65.6630030000000033
21
-95.1818579999999912
0
LINE
8
BLACK
6
CONTINUOUS
10
65.6630030000000033
20
-95.1818579999999912
11
66.0027939999999944
21
-95.2494469999999893
0
LINE
8
BLACK
6
CONTINUOUS
10
66.0027939999999944
20
-95.2494469999999893
11
66.347574999999992
21
-95.2834050000000019
0
LINE
8
BLACK
6
CONTINUOUS
10
66.347574999999992
20
-95.2834050000000019
11
66.6940230000000014
21
-95.2834050000000019
0
LINE
8
BLACK
6
CONTINUOUS
10
66.6940230000000014
20
-95.2834050000000019
11
67.038803999999999
21
-95.2494469999999893
0
LINE
8
BLACK
6
CONTINUOUS
10
67.038803999999999
20
-95.2494469999999893
11
67.37859499999999
21
-95.1818579999999912
0
LINE
8
BLACK
6
CONTINUOUS
10
67.37859499999999
20
-95.1818579999999912
11
67.7101260000000025
21
-95.0812889999999982
0
LINE
8
BLACK
6
CONTINUOUS
10
67.7101260000000025
20
-95.0812889999999982
11
68.0302020000000027
21
-94.9487089999999938
0
LINE
8
BLACK
6
CONTINUOUS
10
68.0302020000000027
20
-94.9487089999999938
11
68.3357429999999937
21
-94.7853939999999966
0
LINE
8
BLACK
6
CONTINUOUS
10
68.3357429999999937
20
-94.7853939999999966
11
68.6238039999999927
21
-94.5929179999999974
0
LINE
8
BLACK
6
CONTINUOUS
10
68.6238039999999927
20
-94.5929179999999974
11
68.891611999999995
21
-94.3731329999999957
0
LINE
8
BLACK
6
CONTINUOUS
10
68.891611999999995
20
-94.3731329999999957
11
69.1365880000000033
21
-94.1281570000000016
0
LINE
8
BLACK
6
CONTINUOUS
10
69.1365880000000033
20
-94.1281570000000016
11
69.3563729999999907
21
-93.8603489999999994
0
LINE
8
BLACK
6
CONTINUOUS
10
69.3563729999999907
20
-93.8603489999999994
11
69.5488489999999899
21
-93.5722880000000004
0
LINE
8
BLACK
6
CONTINUOUS
10
69.5488489999999899
20
-93.5722880000000004
11
69.7121640000000014
21
-93.2667469999999952
0
LINE
8
BLACK
6
CONTINUOUS
10
69.7121640000000014
20
-93.2667469999999952
11
69.8447439999999915
21
-92.9466709999999949
0
LINE
8
BLACK
6
CONTINUOUS
10
69.8447439999999915
20
-92.9466709999999949
11
69.9453129999999987
21
-92.6151399999999967
0
LINE
8
BLACK
6
CONTINUOUS
10
69.9453129999999987
20
-92.6151399999999967
11
70.0129019999999969
21
-92.2753489999999914
0
LINE
8
BLACK
6
CONTINUOUS
10
70.0129019999999969
20
-92.2753489999999914
11
70.0468599999999952
21
-91.9305679999999938
0
LINE
8
BLACK
6
CONTINUOUS
10
70.0468599999999952
20
-91.9305679999999938
11
70.0468599999999952
21
-91.5841199999999986
0
LINE
8
BLACK
6
CONTINUOUS
10
70.0468599999999952
20
-91.5841199999999986
11
70.0129019999999969
21
-91.2393390000000011
0
LINE
8
BLACK
6
CONTINUOUS
10
70.0129019999999969
20
-91.2393390000000011
11
69.9453129999999987
21
-90.8995479999999958
0
LINE
8
BLACK
6
CONTINUOUS
10
69.9453129999999987
20
-90.8995479999999958
11
69.8447439999999915
21
-90.5680169999999976
0
LINE
8
BLACK
6
CONTINUOUS
10
69.8447439999999915
20
-90.5680169999999976
11
69.7121640000000014
21
-90.2479409999999973
0
LINE
8
BLACK
6
CONTINUOUS
10
69.7121640000000014
20
-90.2479409999999973
11
69.5488489999999899
21
-89.9423999999999921
0
LINE
8
BLACK
6
CONTINUOUS
10
69.5488489999999899
20
-89.9423999999999921
11
69.3563729999999907
21
-89.6543389999999931
0
LINE
8
BLACK
6
CONTINUOUS
10
69.3563729999999907
20
-89.6543389999999931
11
69.1365880000000033
21
-89.3865309999999909
0
LINE
8
BLACK
6
CONTINUOUS
10
69.1365880000000033
20
-89.3865309999999909
11
68.891611999999995
21
-89.1415549999999968
0
LINE
8
BLACK
6
CONTINUOUS
10
68.891611999999995
20
-89.1415549999999968
11
68.6238039999999927
21
-88.9217699999999951
0
LINE
8
BLACK
6
CONTINUOUS
10
68.6238039999999927
20
-88.9217699999999951
11
68.3357429999999937
21
-88.7292939999999959
0
LINE
8
BLACK
6
CONTINUOUS
10
68.3357429999999937
20
-88.7292939999999959
11
68.0302020000000027
21
-88.5659789999999987
0
LINE
8
BLACK
6
CONTINUOUS
10
68.0302020000000027
20
-88.5659789999999987
11
67.7101260000000025
21
-88.4333989999999943
0
LINE
8
BLACK
6
CONTINUOUS
10
67.7101260000000025
20
-88.4333989999999943
11
67.37859499999999
21
-88.3328300000000013
0
LINE
8
BLACK
6
CONTINUOUS
10
67.37859499999999
20
-88.3328300000000013
11
67.038803999999999
21
-88.265240999999989
0
LINE
8
BLACK
6
CONTINUOUS
10
67.038803999999999
20
-88.265240999999989
11
66.6940230000000014
21
-88.2312829999999906
0
LINE
8
BLACK
6
CONTINUOUS
10
66.6940230000000014
20
-88.2312829999999906
11
66.347574999999992
21
-88.2312829999999906
0
LINE
8
BLACK
6
CONTINUOUS
10
66.347574999999992
20
-88.2312829999999906
11
66.0027939999999944
21
-88.265240999999989
0
LINE
8
BLACK
6
CONTINUOUS
10
66.0027939999999944
20
-88.265240999999989
11
65.6630030000000033
21
-88.3328300000000013
0
LINE
8
BLACK
6
CONTINUOUS
10
65.6630030000000033
20
-88.3328300000000013
11
65.3314719999999909
21
-88.4333989999999943
0
LINE
8
BLACK
6
CONTINUOUS
10
65.3314719999999909
20
-88.4333989999999943
11
65.0113959999999906
21
-88.5659789999999987
0
LINE
8
BLACK
6
CONTINUOUS
10
65.0113959999999906
20
-88.5659789999999987
11
64.7058549999999997
21
-88.7292939999999959
0
LINE
8
BLACK
6
CONTINUOUS
10
64.7058549999999997
20
-88.7292939999999959
11
64.4177940000000007
21
-88.9217699999999951
0
LINE
8
BLACK
6
CONTINUOUS
10
64.4177940000000007
20
-88.9217699999999951
11
64.1499859999999984
21
-89.1415549999999968
0
LINE
8
BLACK
6
CONTINUOUS
10
64.1499859999999984
20
-89.1415549999999968
11
63.9050099999999972
21
-89.3865309999999909
0
LINE
8
BLACK
6
CONTINUOUS
10
63.9050099999999972
20
-89.3865309999999909
11
63.6852249999999955
21
-89.6543389999999931
0
LINE
8
BLACK
6
CONTINUOUS
10
63.6852249999999955
20
-89.6543389999999931
11
63.4927489999999963
21
-89.9423999999999921
0
LINE
8
BLACK
6
CONTINUOUS
10
63.4927489999999963
20
-89.9423999999999921
11
63.3294339999999991
21
-90.2479409999999973
0
LINE
8
BLACK
6
CONTINUOUS
10
63.3294339999999991
20
-90.2479409999999973
11
63.1968539999999948
21
-90.5680169999999976
0
LINE
8
BLACK
6
CONTINUOUS
10
63.1968539999999948
20
-90.5680169999999976
11
63.0962849999999946
21
-90.8995479999999958
0
LINE
8
BLACK
6
CONTINUOUS
10
63.0962849999999946
20
-90.8995479999999958
11
63.0286959999999965
21
-91.2393390000000011
0
LINE
8
BLACK
6
CONTINUOUS
10
63.0286959999999965
20
-91.2393390000000011
11
62.9947379999999981
21
-91.5841199999999986
0
LINE
8
BLACK
6
CONTINUOUS
10
62.9947379999999981
20
-91.5841199999999986
11
62.9947379999999981
21
-91.9305679999999938
0
LINE
8
BLACK
6
CONTINUOUS
10
52.1246889999999965
20
-59.9626439999999974
11
52.4688839999999956
21
-60.0311090000000007
0
LINE
8
BLACK
6
CONTINUOUS
10
52.4688839999999956
20
-60.0311090000000007
11
52.8047109999999975
21
-60.1329809999999938
0
LINE
8
BLACK
6
CONTINUOUS
10
52.8047109999999975
20
-60.1329809999999938
11
53.1289349999999985
21
-60.2672789999999949
0
LINE
8
BLACK
6
CONTINUOUS
10
53.1289349999999985
20
-60.2672789999999949
11
53.4384349999999984
21
-60.4327100000000002
0
LINE
8
BLACK
6
CONTINUOUS
10
53.4384349999999984
20
-60.4327100000000002
11
53.7302289999999942
21
-60.6276809999999955
0
LINE
8
BLACK
6
CONTINUOUS
10
53.7302289999999942
20
-60.6276809999999955
11
54.0015079999999941
21
-60.8503139999999973
0
LINE
8
BLACK
6
CONTINUOUS
10
54.0015079999999941
20
-60.8503139999999973
11
54.2496579999999966
21
-61.0984639999999999
0
LINE
8
BLACK
6
CONTINUOUS
10
54.2496579999999966
20
-61.0984639999999999
11
54.4722909999999985
21
-61.3697429999999997
0
LINE
8
BLACK
6
CONTINUOUS
10
54.4722909999999985
20
-61.3697429999999997
11
54.6672620000000009
21
-61.6615369999999956
0
LINE
8
BLACK
6
CONTINUOUS
10
54.6672620000000009
20
-61.6615369999999956
11
54.832692999999999
21
-61.9710369999999955
0
LINE
8
BLACK
6
CONTINUOUS
10
54.832692999999999
20
-61.9710369999999955
11
54.9669910000000002
21
-62.2952609999999964
0
LINE
8
BLACK
6
CONTINUOUS
10
54.9669910000000002
20
-62.2952609999999964
11
55.0688630000000003
21
-62.6310879999999983
0
LINE
8
BLACK
6
CONTINUOUS
10
55.0688630000000003
20
-62.6310879999999983
11
55.1373279999999966
21
-62.9752829999999975
0
LINE
8
BLACK
6
CONTINUOUS
10
55.1373279999999966
20
-62.9752829999999975
11
55.171724999999995
21
-63.3245310000000003
0
LINE
8
BLACK
6
CONTINUOUS
10
55.171724999999995
20
-63.3245310000000003
11
55.171724999999995
21
-63.6754689999999997
0
LINE
8
BLACK
6
CONTINUOUS
10
55.171724999999995
20
-63.6754689999999997
11
55.1373279999999966
21
-64.0247169999999954
0
LINE
8
BLACK
6
CONTINUOUS
10
55.1373279999999966
20
-64.0247169999999954
11
55.0688630000000003
21
-64.3689119999999946
0
LINE
8
BLACK
6
CONTINUOUS
10
55.0688630000000003
20
-64.3689119999999946
11
54.9669910000000002
21
-64.7047390000000036
0
LINE
8
BLACK
6
CONTINUOUS
10
54.9669910000000002
20
-64.7047390000000036
11
54.832692999999999
21
-65.0289629999999903
0
LINE
8
BLACK
6
CONTINUOUS
10
54.832692999999999
20
-65.0289629999999903
11
54.6672620000000009
21
-65.3384629999999902
0
LINE
8
BLACK
6
CONTINUOUS
10
54.6672620000000009
20
-65.3384629999999902
11
54.4722909999999985
21
-65.6302570000000003
0
LINE
8
BLACK
6
CONTINUOUS
10
54.4722909999999985
20
-65.6302570000000003
11
54.2496579999999966
21
-65.901535999999993
0
LINE
8
BLACK
6
CONTINUOUS
10
54.2496579999999966
20
-65.901535999999993
11
54.0015079999999941
21
-66.1496860000000027
0
LINE
8
BLACK
6
CONTINUOUS
10
54.0015079999999941
20
-66.1496860000000027
11
53.7302289999999942
21
-66.3723189999999903
0
LINE
8
BLACK
6
CONTINUOUS
10
53.7302289999999942
20
-66.3723189999999903
11
53.4384349999999984
21
-66.5672899999999998
0
LINE
8
BLACK
6
CONTINUOUS
10
53.4384349999999984
20
-66.5672899999999998
11
53.1289349999999985
21
-66.732720999999998
0
LINE
8
BLACK
6
CONTINUOUS
10
53.1289349999999985
20
-66.732720999999998
11
52.8047109999999975
21
-66.8670189999999991
0
LINE
8
BLACK
6
CONTINUOUS
10
52.8047109999999975
20
-66.8670189999999991
11
52.4688839999999956
21
-66.9688909999999993
0
LINE
8
BLACK
6
CONTINUOUS
10
52.4688839999999956
20
-66.9688909999999993
11
52.1246889999999965
21
-67.0373560000000026
0
LINE
8
BLACK
6
CONTINUOUS
10
52.1246889999999965
20
-67.0373560000000026
11
51.7754410000000007
21
-67.0717530000000011
0
LINE
8
BLACK
6
CONTINUOUS
10
51.7754410000000007
20
-67.0717530000000011
11
51.4245029999999943
21
-67.0717530000000011
0
LINE
8
BLACK
6
CONTINUOUS
10
51.4245029999999943
20
-67.0717530000000011
11
51.0752549999999985
21
-67.0373560000000026
0
LINE
8
BLACK
6
CONTINUOUS
10
51.0752549999999985
20
-67.0373560000000026
11
50.7310599999999994
21
-66.9688909999999993
0
LINE
8
BLACK
6
CONTINUOUS
10
50.7310599999999994
20
-66.9688909999999993
11
50.3952329999999975
21
-66.8670189999999991
0
LINE
8
BLACK
6
CONTINUOUS
10
50.3952329999999975
20
-66.8670189999999991
11
50.0710089999999965
21
-66.732720999999998
0
LINE
8
BLACK
6
CONTINUOUS
10
50.0710089999999965
20
-66.732720999999998
11
49.7615089999999967
21
-66.5672899999999998
0
LINE
8
BLACK
6
CONTINUOUS
10
49.7615089999999967
20
-66.5672899999999998
11
49.4697150000000008
21
-66.3723189999999903
0
LINE
8
BLACK
6
CONTINUOUS
10
49.4697150000000008
20
-66.3723189999999903
11
49.1984360000000009
21
-66.1496860000000027
0
LINE
8
BLACK
6
CONTINUOUS
10
49.1984360000000009
20
-66.1496860000000027
11
48.9502859999999984
21
-65.901535999999993
0
LINE
8
BLACK
6
CONTINUOUS
10
48.9502859999999984
20
-65.901535999999993
11
48.7276529999999966
21
-65.6302570000000003
0
LINE
8
BLACK
6
CONTINUOUS
10
48.7276529999999966
20
-65.6302570000000003
11
48.5326820000000012
21
-65.3384629999999902
0
LINE
8
BLACK
6
CONTINUOUS
10
48.5326820000000012
20
-65.3384629999999902
11
48.367250999999996
21
-65.0289629999999903
0
LINE
8
BLACK
6
CONTINUOUS
10
48.367250999999996
20
-65.0289629999999903
11
48.2329529999999949
21
-64.7047390000000036
0
LINE
8
BLACK
6
CONTINUOUS
10
48.2329529999999949
20
-64.7047390000000036
11
48.1310809999999947
21
-64.3689119999999946
0
LINE
8
BLACK
6
CONTINUOUS
10
48.1310809999999947
20
-64.3689119999999946
11
48.0626159999999985
21
-64.0247169999999954
0
LINE
8
BLACK
6
CONTINUOUS
10
48.0626159999999985
20
-64.0247169999999954
11
48.028219
21
-63.6754689999999997
0
LINE
8
BLACK
6
CONTINUOUS
10
48.028219
20
-63.6754689999999997
11
48.028219
21
-63.3267759999999953
0
LINE
8
BLACK
6
CONTINUOUS
10
48.028219
20
-63.3267759999999953
11
48.028219
21
-63.3245310000000003
0
LINE
8
BLACK
6
CONTINUOUS
10
48.028219
20
-63.3245310000000003
11
48.0626159999999985
21
-62.9752829999999975
0
LINE
8
BLACK
6
CONTINUOUS
10
48.0626159999999985
20
-62.9752829999999975
11
48.1310809999999947
21
-62.6310879999999983
0
LINE
8
BLACK
6
CONTINUOUS
10
48.1310809999999947
20
-62.6310879999999983
11
48.2329529999999949
21
-62.2952609999999964
0
LINE
8
BLACK
6
CONTINUOUS
10
48.2329529999999949
20
-62.2952609999999964
11
48.367250999999996
21
-61.9710369999999955
0
LINE
8
BLACK
6
CONTINUOUS
10
48.367250999999996
20
-61.9710369999999955
11
48.5326820000000012
21
-61.6615369999999956
0
LINE
8
BLACK
6
CONTINUOUS
10
48.5326820000000012
20
-61.6615369999999956
11
48.7276529999999966
21
-61.3697429999999997
0
LINE
8
BLACK
6
CONTINUOUS
10
48.7276529999999966
20
-61.3697429999999997
11
48.9502859999999984
21
-61.0984639999999999
0
LINE
8
BLACK
6
CONTINUOUS
10
48.9502859999999984
20
-61.0984639999999999
11
49.1984360000000009
21
-60.8503139999999973
0
LINE
8
BLACK
6
CONTINUOUS
10
49.1984360000000009
20
-60.8503139999999973
11
49.4697150000000008
21
-60.6276809999999955
0
LINE
8
BLACK
6
CONTINUOUS
10
49.4697150000000008
20
-60.6276809999999955
11
49.7615089999999967
21
-60.4327100000000002
0
LINE
8
BLACK
6
CONTINUOUS
10
49.7615089999999967
20
-60.4327100000000002
11
50.0710089999999965
21
-60.2672789999999949
0
LINE
8
BLACK
6
CONTINUOUS
10
50.0710089999999965
20
-60.2672789999999949
11
50.3952329999999975
21
-60.1329809999999938
0
LINE
8
BLACK
6
CONTINUOUS
10
50.3952329999999975
20
-60.1329809999999938
11
50.7310599999999994
21
-60.0311090000000007
0
LINE
8
BLACK
6
CONTINUOUS
10
50.7310599999999994
20
-60.0311090000000007
11
51.0752549999999985
21
-59.9626439999999974
0
LINE
8
BLACK
6
CONTINUOUS
10
51.0752549999999985
20
-59.9626439999999974
11
51.4245029999999943
21
-59.9282469999999989
0
LINE
8
BLACK
6
CONTINUOUS
10
51.4245029999999943
20
-59.9282469999999989
11
51.7754410000000007
21
-59.9282469999999989
0
LINE
8
BLACK
6
CONTINUOUS
10
51.7754410000000007
20
-59.9282469999999989
11
52.1246889999999965
21
-59.9626439999999974
0
LINE
8
BLACK
6
CONTINUOUS
10
48.0739109999999954
20
-63.6732239999999976
11
48.1078690000000009
21
-64.0180050000000023
0
LINE
8
BLACK
6
CONTINUOUS
10
48.1078690000000009
20
-64.0180050000000023
11
48.175457999999999
21
-64.3577959999999933
0
LINE
8
BLACK
6
CONTINUOUS
10
48.175457999999999
20
-64.3577959999999933
11
48.2760269999999991
21
-64.6893269999999916
0
LINE
8
BLACK
6
CONTINUOUS
10
48.2760269999999991
20
-64.6893269999999916
11
48.4086069999999964
21
-65.0094029999999918
0
LINE
8
BLACK
6
CONTINUOUS
10
48.4086069999999964
20
-65.0094029999999918
11
48.5719220000000007
21
-65.314943999999997
0
LINE
8
BLACK
6
CONTINUOUS
10
48.5719220000000007
20
-65.314943999999997
11
48.7643979999999999
21
-65.603004999999996
0
LINE
8
BLACK
6
CONTINUOUS
10
48.7643979999999999
20
-65.603004999999996
11
48.9841829999999945
21
-65.8708129999999983
0
LINE
8
BLACK
6
CONTINUOUS
10
48.9841829999999945
20
-65.8708129999999983
11
49.2291589999999957
21
-66.1157889999999924
0
LINE
8
BLACK
6
CONTINUOUS
10
49.2291589999999957
20
-66.1157889999999924
11
49.4969669999999979
21
-66.335573999999994
0
LINE
8
BLACK
6
CONTINUOUS
10
49.4969669999999979
20
-66.335573999999994
11
49.785027999999997
21
-66.5280499999999932
0
LINE
8
BLACK
6
CONTINUOUS
10
49.785027999999997
20
-66.5280499999999932
11
50.090568999999995
21
-66.6913649999999905
0
LINE
8
BLACK
6
CONTINUOUS
10
50.090568999999995
20
-66.6913649999999905
11
50.4106449999999953
21
-66.8239449999999948
0
LINE
8
BLACK
6
CONTINUOUS
10
50.4106449999999953
20
-66.8239449999999948
11
50.7421760000000006
21
-66.9245140000000021
0
LINE
8
BLACK
6
CONTINUOUS
10
50.7421760000000006
20
-66.9245140000000021
11
51.0819669999999988
21
-66.9921030000000002
0
LINE
8
BLACK
6
CONTINUOUS
10
51.0819669999999988
20
-66.9921030000000002
11
51.4267479999999964
21
-67.0260609999999986
0
LINE
8
BLACK
6
CONTINUOUS
10
51.4267479999999964
20
-67.0260609999999986
11
51.7731959999999987
21
-67.0260609999999986
0
LINE
8
BLACK
6
CONTINUOUS
10
51.7731959999999987
20
-67.0260609999999986
11
52.1179769999999962
21
-66.9921030000000002
0
LINE
8
BLACK
6
CONTINUOUS
10
52.1179769999999962
20
-66.9921030000000002
11
52.4577679999999944
21
-66.9245140000000021
0
LINE
8
BLACK
6
CONTINUOUS
10
52.4577679999999944
20
-66.9245140000000021
11
52.7892989999999998
21
-66.8239449999999948
0
LINE
8
BLACK
6
CONTINUOUS
10
52.7892989999999998
20
-66.8239449999999948
11
53.109375
21
-66.6913649999999905
0
LINE
8
BLACK
6
CONTINUOUS
10
53.109375
20
-66.6913649999999905
11
53.4149159999999981
21
-66.5280499999999932
0
LINE
8
BLACK
6
CONTINUOUS
10
53.4149159999999981
20
-66.5280499999999932
11
53.7029769999999971
21
-66.335573999999994
0
LINE
8
BLACK
6
CONTINUOUS
10
53.7029769999999971
20
-66.335573999999994
11
53.9707849999999993
21
-66.1157889999999924
0
LINE
8
BLACK
6
CONTINUOUS
10
53.9707849999999993
20
-66.1157889999999924
11
54.2157610000000005
21
-65.8708129999999983
0
LINE
8
BLACK
6
CONTINUOUS
10
54.2157610000000005
20
-65.8708129999999983
11
54.4355459999999951
21
-65.603004999999996
0
LINE
8
BLACK
6
CONTINUOUS
10
54.4355459999999951
20
-65.603004999999996
11
54.6280219999999943
21
-65.314943999999997
0
LINE
8
BLACK
6
CONTINUOUS
10
54.6280219999999943
20
-65.314943999999997
11
54.7913369999999986
21
-65.0094029999999918
0
LINE
8
BLACK
6
CONTINUOUS
10
54.7913369999999986
20
-65.0094029999999918
11
54.9239169999999959
21
-64.6893269999999916
0
LINE
8
BLACK
6
CONTINUOUS
10
54.9239169999999959
20
-64.6893269999999916
11
55.024485999999996
21
-64.3577959999999933
0
LINE
8
BLACK
6
CONTINUOUS
10
55.024485999999996
20
-64.3577959999999933
11
55.0920749999999941
21
-64.0180050000000023
0
LINE
8
BLACK
6
CONTINUOUS
10
55.0920749999999941
20
-64.0180050000000023
11
55.1260329999999996
21
-63.6732239999999976
0
LINE
8
BLACK
6
CONTINUOUS
10
55.1260329999999996
20
-63.6732239999999976
11
55.1260329999999996
21
-63.3267759999999953
0
LINE
8
BLACK
6
CONTINUOUS
10
55.1260329999999996
20
-63.3267759999999953
11
55.0920749999999941
21
-62.9819949999999977
0
LINE
8
BLACK
6
CONTINUOUS
10
55.0920749999999941
20
-62.9819949999999977
11
55.024485999999996
21
-62.6422039999999996
0
LINE
8
BLACK
6
CONTINUOUS
10
55.024485999999996
20
-62.6422039999999996
11
54.9239169999999959
21
-62.3106729999999942
0
LINE
8
BLACK
6
CONTINUOUS
10
54.9239169999999959
20
-62.3106729999999942
11
54.7913369999999986
21
-61.990596999999994
0
LINE
8
BLACK
6
CONTINUOUS
10
54.7913369999999986
20
-61.990596999999994
11
54.6280219999999943
21
-61.6850559999999959
0
LINE
8
BLACK
6
CONTINUOUS
10
54.6280219999999943
20
-61.6850559999999959
11
54.4355459999999951
21
-61.3969949999999969
0
LINE
8
BLACK
6
CONTINUOUS
10
54.4355459999999951
20
-61.3969949999999969
11
54.2157610000000005
21
-61.1291869999999946
0
LINE
8
BLACK
6
CONTINUOUS
10
54.2157610000000005
20
-61.1291869999999946
11
53.9707849999999993
21
-60.8842110000000005
0
LINE
8
BLACK
6
CONTINUOUS
10
53.9707849999999993
20
-60.8842110000000005
11
53.7029769999999971
21
-60.6644259999999989
0
LINE
8
BLACK
6
CONTINUOUS
10
53.7029769999999971
20
-60.6644259999999989
11
53.4149159999999981
21
-60.4719499999999996
0
LINE
8
BLACK
6
CONTINUOUS
10
53.4149159999999981
20
-60.4719499999999996
11
53.109375
21
-60.3086349999999953
0
LINE
8
BLACK
6
CONTINUOUS
10
53.109375
20
-60.3086349999999953
11
52.7892989999999998
21
-60.1760549999999981
0
LINE
8
BLACK
6
CONTINUOUS
10
52.7892989999999998
20
-60.1760549999999981
11
52.4577679999999944
21
-60.0754859999999979
0
LINE
8
BLACK
6
CONTINUOUS
10
52.4577679999999944
20
-60.0754859999999979
11
52.1179769999999962
21
-60.0078969999999998
0
LINE
8
BLACK
6
CONTINUOUS
10
52.1179769999999962
20
-60.0078969999999998
11
51.7731959999999987
21
-59.9739389999999943
0
LINE
8
BLACK
6
CONTINUOUS
10
51.7731959999999987
20
-59.9739389999999943
11
51.4267479999999964
21
-59.9739389999999943
0
LINE
8
BLACK
6
CONTINUOUS
10
51.4267479999999964
20
-59.9739389999999943
11
51.0819669999999988
21
-60.0078969999999998
0
LINE
8
BLACK
6
CONTINUOUS
10
51.0819669999999988
20
-60.0078969999999998
11
50.7421760000000006
21
-60.0754859999999979
0
LINE
8
BLACK
6
CONTINUOUS
10
50.7421760000000006
20
-60.0754859999999979
11
50.4106449999999953
21
-60.1760549999999981
0
LINE
8
BLACK
6
CONTINUOUS
10
50.4106449999999953
20
-60.1760549999999981
11
50.090568999999995
21
-60.3086349999999953
0
LINE
8
BLACK
6
CONTINUOUS
10
50.090568999999995
20
-60.3086349999999953
11
49.785027999999997
21
-60.4719499999999996
0
LINE
8
BLACK
6
CONTINUOUS
10
49.785027999999997
20
-60.4719499999999996
11
49.4969669999999979
21
-60.6644259999999989
0
LINE
8
BLACK
6
CONTINUOUS
10
49.4969669999999979
20
-60.6644259999999989
11
49.2291589999999957
21
-60.8842110000000005
0
LINE
8
BLACK
6
CONTINUOUS
10
49.2291589999999957
20
-60.8842110000000005
11
48.9841829999999945
21
-61.1291869999999946
0
LINE
8
BLACK
6
CONTINUOUS
10
48.9841829999999945
20
-61.1291869999999946
11
48.7643979999999999
21
-61.3969949999999969
0
LINE
8
BLACK
6
CONTINUOUS
10
48.7643979999999999
20
-61.3969949999999969
11
48.5719220000000007
21
-61.6850559999999959
0
LINE
8
BLACK
6
CONTINUOUS
10
48.5719220000000007
20
-61.6850559999999959
11
48.4086069999999964
21
-61.990596999999994
0
LINE
8
BLACK
6
CONTINUOUS
10
48.4086069999999964
20
-61.990596999999994
11
48.2760269999999991
21
-62.3106729999999942
0
LINE
8
BLACK
6
CONTINUOUS
10
48.2760269999999991
20
-62.3106729999999942
11
48.175457999999999
21
-62.6422039999999996
0
LINE
8
BLACK
6
CONTINUOUS
10
48.175457999999999
20
-62.6422039999999996
11
48.1078690000000009
21
-62.9819949999999977
0
LINE
8
BLACK
6
CONTINUOUS
10
48.1078690000000009
20
-62.9819949999999977
11
48.0739109999999954
21
-63.3267759999999953
0
LINE
8
BLACK
6
CONTINUOUS
10
48.0739109999999954
20
-63.3267759999999953
11
48.0739109999999954
21
-63.6732239999999976
0
LINE
8
BLACK
6
CONTINUOUS
10
65.9098999999999933
20
-58.9120879999999971
11
66.1968889999999988
21
-58.9775909999999968
0
LINE
8
BLACK
6
CONTINUOUS
10
66.1968889999999988
20
-58.9775909999999968
11
66.4747399999999971
21
-59.0748149999999939
0
LINE
8
BLACK
6
CONTINUOUS
10
66.4747399999999971
20
-59.0748149999999939
11
66.7399580000000014
21
-59.202537999999997
0
LINE
8
BLACK
6
CONTINUOUS
10
66.7399580000000014
20
-59.202537999999997
11
66.9892079999999908
21
-59.3591519999999946
0
LINE
8
BLACK
6
CONTINUOUS
10
66.9892079999999908
20
-59.3591519999999946
11
67.2193559999999906
21
-59.5426879999999983
0
LINE
8
BLACK
6
CONTINUOUS
10
67.2193559999999906
20
-59.5426879999999983
11
67.4275069999999914
21
-59.7508389999999991
0
LINE
8
BLACK
6
CONTINUOUS
10
67.4275069999999914
20
-59.7508389999999991
11
67.6110429999999951
21
-59.9809869999999989
0
LINE
8
BLACK
6
CONTINUOUS
10
67.6110429999999951
20
-59.9809869999999989
11
67.7676569999999998
21
-60.2302369999999954
0
LINE
8
BLACK
6
CONTINUOUS
10
67.7676569999999998
20
-60.2302369999999954
11
67.895380000000003
21
-60.4954549999999998
0
LINE
8
BLACK
6
CONTINUOUS
10
67.895380000000003
20
-60.4954549999999998
11
67.992604
21
-60.7733059999999981
0
LINE
8
BLACK
6
CONTINUOUS
10
67.992604
20
-60.7733059999999981
11
68.0581069999999926
21
-61.0602949999999964
0
LINE
8
BLACK
6
CONTINUOUS
10
68.0581069999999926
20
-61.0602949999999964
11
68.0910659999999979
21
-61.3528139999999951
0
LINE
8
BLACK
6
CONTINUOUS
10
68.0910659999999979
20
-61.3528139999999951
11
68.0910659999999979
21
-61.6471839999999958
0
LINE
8
BLACK
6
CONTINUOUS
10
68.0910659999999979
20
-61.6471839999999958
11
68.0581069999999926
21
-61.9397029999999944
0
LINE
8
BLACK
6
CONTINUOUS
10
68.0581069999999926
20
-61.9397029999999944
11
67.992604
21
-62.2266919999999999
0
LINE
8
BLACK
6
CONTINUOUS
10
67.992604
20
-62.2266919999999999
11
67.895380000000003
21
-62.5045429999999982
0
LINE
8
BLACK
6
CONTINUOUS
10
67.895380000000003
20
-62.5045429999999982
11
67.7676569999999998
21
-62.7697609999999955
0
LINE
8
BLACK
6
CONTINUOUS
10
67.7676569999999998
20
-62.7697609999999955
11
67.6110429999999951
21
-63.019010999999999
0
LINE
8
BLACK
6
CONTINUOUS
10
67.6110429999999951
20
-63.019010999999999
11
67.4275069999999914
21
-63.2491589999999988
0
LINE
8
BLACK
6
CONTINUOUS
10
67.4275069999999914
20
-63.2491589999999988
11
67.2193559999999906
21
-63.4573099999999997
0
LINE
8
BLACK
6
CONTINUOUS
10
67.2193559999999906
20
-63.4573099999999997
11
66.9892079999999908
21
-63.6408459999999963
0
LINE
8
BLACK
6
CONTINUOUS
10
66.9892079999999908
20
-63.6408459999999963
11
66.7399580000000014
21
-63.7974599999999938
0
LINE
8
BLACK
6
CONTINUOUS
10
66.7399580000000014
20
-63.7974599999999938
11
66.4747399999999971
21
-63.925182999999997
0
LINE
8
BLACK
6
CONTINUOUS
10
66.4747399999999971
20
-63.925182999999997
11
66.1968889999999988
21
-64.0224070000000012
0
LINE
8
BLACK
6
CONTINUOUS
10
66.1968889999999988
20
-64.0224070000000012
11
65.9098999999999933
21
-64.0879099999999937
0
LINE
8
BLACK
6
CONTINUOUS
10
65.9098999999999933
20
-64.0879099999999937
11
65.6173809999999946
21
-64.120868999999999
0
LINE
8
BLACK
6
CONTINUOUS
10
65.6173809999999946
20
-64.120868999999999
11
65.3230109999999939
21
-64.120868999999999
0
LINE
8
BLACK
6
CONTINUOUS
10
65.3230109999999939
20
-64.120868999999999
11
65.0304919999999953
21
-64.0879099999999937
0
LINE
8
BLACK
6
CONTINUOUS
10
65.0304919999999953
20
-64.0879099999999937
11
64.743503000000004
21
-64.0224070000000012
0
LINE
8
BLACK
6
CONTINUOUS
10
64.743503000000004
20
-64.0224070000000012
11
64.4656519999999915
21
-63.925182999999997
0
LINE
8
BLACK
6
CONTINUOUS
10
64.4656519999999915
20
-63.925182999999997
11
64.2004340000000013
21
-63.7974599999999938
0
LINE
8
BLACK
6
CONTINUOUS
10
64.2004340000000013
20
-63.7974599999999938
11
63.9511839999999978
21
-63.6408459999999963
0
LINE
8
BLACK
6
CONTINUOUS
10
63.9511839999999978
20
-63.6408459999999963
11
63.721035999999998
21
-63.4573099999999997
0
LINE
8
BLACK
6
CONTINUOUS
10
63.721035999999998
20
-63.4573099999999997
11
63.5128849999999971
21
-63.2491589999999988
0
LINE
8
BLACK
6
CONTINUOUS
10
63.5128849999999971
20
-63.2491589999999988
11
63.3293490000000006
21
-63.019010999999999
0
LINE
8
BLACK
6
CONTINUOUS
10
63.3293490000000006
20
-63.019010999999999
11
63.1727349999999959
21
-62.7697609999999955
0
LINE
8
BLACK
6
CONTINUOUS
10
63.1727349999999959
20
-62.7697609999999955
11
63.0450119999999998
21
-62.5045429999999982
0
LINE
8
BLACK
6
CONTINUOUS
10
63.0450119999999998
20
-62.5045429999999982
11
62.9477879999999956
21
-62.2266919999999999
0
LINE
8
BLACK
6
CONTINUOUS
10
62.9477879999999956
20
-62.2266919999999999
11
62.882284999999996
21
-61.9397029999999944
0
LINE
8
BLACK
6
CONTINUOUS
10
62.882284999999996
20
-61.9397029999999944
11
62.8493259999999978
21
-61.6471839999999958
0
LINE
8
BLACK
6
CONTINUOUS
10
62.8493259999999978
20
-61.6471839999999958
11
62.8493259999999978
21
-61.3553899999999999
0
LINE
8
BLACK
6
CONTINUOUS
10
62.8493259999999978
20
-61.3553899999999999
11
62.8493259999999978
21
-61.3528139999999951
0
LINE
8
BLACK
6
CONTINUOUS
10
62.8493259999999978
20
-61.3528139999999951
11
62.882284999999996
21
-61.0602949999999964
0
LINE
8
BLACK
6
CONTINUOUS
10
62.882284999999996
20
-61.0602949999999964
11
62.9477879999999956
21
-60.7733059999999981
0
LINE
8
BLACK
6
CONTINUOUS
10
62.9477879999999956
20
-60.7733059999999981
11
63.0450119999999998
21
-60.4954549999999998
0
LINE
8
BLACK
6
CONTINUOUS
10
63.0450119999999998
20
-60.4954549999999998
11
63.1727349999999959
21
-60.2302369999999954
0
LINE
8
BLACK
6
CONTINUOUS
10
63.1727349999999959
20
-60.2302369999999954
11
63.3293490000000006
21
-59.9809869999999989
0
LINE
8
BLACK
6
CONTINUOUS
10
63.3293490000000006
20
-59.9809869999999989
11
63.5128849999999971
21
-59.7508389999999991
0
LINE
8
BLACK
6
CONTINUOUS
10
63.5128849999999971
20
-59.7508389999999991
11
63.721035999999998
21
-59.5426879999999983
0
LINE
8
BLACK
6
CONTINUOUS
10
63.721035999999998
20
-59.5426879999999983
11
63.9511839999999978
21
-59.3591519999999946
0
LINE
8
BLACK
6
CONTINUOUS
10
63.9511839999999978
20
-59.3591519999999946
11
64.2004340000000013
21
-59.202537999999997
0
LINE
8
BLACK
6
CONTINUOUS
10
64.2004340000000013
20
-59.202537999999997
11
64.4656519999999915
21
-59.0748149999999939
0
LINE
8
BLACK
6
CONTINUOUS
10
64.4656519999999915
20
-59.0748149999999939
11
64.743503000000004
21
-58.9775909999999968
0
LINE
8
BLACK
6
CONTINUOUS
10
64.743503000000004
20
-58.9775909999999968
11
65.0304919999999953
21
-58.9120879999999971
0
LINE
8
BLACK
6
CONTINUOUS
10
65.0304919999999953
20
-58.9120879999999971
11
65.3230109999999939
21
-58.8791289999999989
0
LINE
8
BLACK
6
CONTINUOUS
10
65.3230109999999939
20
-58.8791289999999989
11
65.6173809999999946
21
-58.8791289999999989
0
LINE
8
BLACK
6
CONTINUOUS
10
65.6173809999999946
20
-58.8791289999999989
11
65.9098999999999933
21
-58.9120879999999971
0
LINE
8
BLACK
6
CONTINUOUS
10
62.8951959999999985
20
-61.6446079999999981
11
62.9275779999999969
21
-61.9320069999999987
0
LINE
8
BLACK
6
CONTINUOUS
10
62.9275779999999969
20
-61.9320069999999987
11
62.991934999999998
21
-62.2139740000000003
0
LINE
8
BLACK
6
CONTINUOUS
10
62.991934999999998
20
-62.2139740000000003
11
63.087457999999998
21
-62.4869609999999938
0
LINE
8
BLACK
6
CONTINUOUS
10
63.087457999999998
20
-62.4869609999999938
11
63.2129449999999977
21
-62.7475379999999987
0
LINE
8
BLACK
6
CONTINUOUS
10
63.2129449999999977
20
-62.7475379999999987
11
63.366817999999995
21
-62.9924249999999972
0
LINE
8
BLACK
6
CONTINUOUS
10
63.366817999999995
20
-62.9924249999999972
11
63.5471419999999938
21
-63.2185449999999989
0
LINE
8
BLACK
6
CONTINUOUS
10
63.5471419999999938
20
-63.2185449999999989
11
63.7516499999999979
21
-63.4230529999999959
0
LINE
8
BLACK
6
CONTINUOUS
10
63.7516499999999979
20
-63.4230529999999959
11
63.9777699999999996
21
-63.6033769999999947
0
LINE
8
BLACK
6
CONTINUOUS
10
63.9777699999999996
20
-63.6033769999999947
11
64.2226569999999981
21
-63.7572499999999991
0
LINE
8
BLACK
6
CONTINUOUS
10
64.2226569999999981
20
-63.7572499999999991
11
64.4832339999999959
21
-63.8827369999999988
0
LINE
8
BLACK
6
CONTINUOUS
10
64.4832339999999959
20
-63.8827369999999988
11
64.7562209999999965
21
-63.9782599999999988
0
LINE
8
BLACK
6
CONTINUOUS
10
64.7562209999999965
20
-63.9782599999999988
11
65.038187999999991
21
-64.0426169999999928
0
LINE
8
BLACK
6
CONTINUOUS
10
65.038187999999991
20
-64.0426169999999928
11
65.3255869999999987
21
-64.0749989999999912
0
LINE
8
BLACK
6
CONTINUOUS
10
65.3255869999999987
20
-64.0749989999999912
11
65.614805000000004
21
-64.0749989999999912
0
LINE
8
BLACK
6
CONTINUOUS
10
65.614805000000004
20
-64.0749989999999912
11
65.9022039999999976
21
-64.0426169999999928
0
LINE
8
BLACK
6
CONTINUOUS
10
65.9022039999999976
20
-64.0426169999999928
11
66.1841709999999921
21
-63.9782599999999988
0
LINE
8
BLACK
6
CONTINUOUS
10
66.1841709999999921
20
-63.9782599999999988
11
66.4571579999999926
21
-63.8827369999999988
0
LINE
8
BLACK
6
CONTINUOUS
10
66.4571579999999926
20
-63.8827369999999988
11
66.7177349999999905
21
-63.7572499999999991
0
LINE
8
BLACK
6
CONTINUOUS
10
66.7177349999999905
20
-63.7572499999999991
11
66.9626219999999961
21
-63.6033769999999947
0
LINE
8
BLACK
6
CONTINUOUS
10
66.9626219999999961
20
-63.6033769999999947
11
67.1887419999999906
21
-63.4230529999999959
0
LINE
8
BLACK
6
CONTINUOUS
10
67.1887419999999906
20
-63.4230529999999959
11
67.3932499999999948
21
-63.2185449999999989
0
LINE
8
BLACK
6
CONTINUOUS
10
67.3932499999999948
20
-63.2185449999999989
11
67.5735739999999936
21
-62.9924249999999972
0
LINE
8
BLACK
6
CONTINUOUS
10
67.5735739999999936
20
-62.9924249999999972
11
67.727446999999998
21
-62.7475379999999987
0
LINE
8
BLACK
6
CONTINUOUS
10
67.727446999999998
20
-62.7475379999999987
11
67.8529339999999905
21
-62.4869609999999938
0
LINE
8
BLACK
6
CONTINUOUS
10
67.8529339999999905
20
-62.4869609999999938
11
67.9484569999999906
21
-62.2139740000000003
0
LINE
8
BLACK
6
CONTINUOUS
10
67.9484569999999906
20
-62.2139740000000003
11
68.0128139999999917
21
-61.9320069999999987
0
LINE
8
BLACK
6
CONTINUOUS
10
68.0128139999999917
20
-61.9320069999999987
11
68.04519599999999
21
-61.6446079999999981
0
LINE
8
BLACK
6
CONTINUOUS
10
68.04519599999999
20
-61.6446079999999981
11
68.04519599999999
21
-61.3553899999999999
0
LINE
8
BLACK
6
CONTINUOUS
10
68.04519599999999
20
-61.3553899999999999
11
68.0128139999999917
21
-61.0679909999999992
0
LINE
8
BLACK
6
CONTINUOUS
10
68.0128139999999917
20
-61.0679909999999992
11
67.9484569999999906
21
-60.7860239999999976
0
LINE
8
BLACK
6
CONTINUOUS
10
67.9484569999999906
20
-60.7860239999999976
11
67.8529339999999905
21
-60.5130369999999971
0
LINE
8
BLACK
6
CONTINUOUS
10
67.8529339999999905
20
-60.5130369999999971
11
67.727446999999998
21
-60.2524599999999992
0
LINE
8
BLACK
6
CONTINUOUS
10
67.727446999999998
20
-60.2524599999999992
11
67.5735739999999936
21
-60.0075730000000007
0
LINE
8
BLACK
6
CONTINUOUS
10
67.5735739999999936
20
-60.0075730000000007
11
67.3932499999999948
21
-59.7814529999999991
0
LINE
8
BLACK
6
CONTINUOUS
10
67.3932499999999948
20
-59.7814529999999991
11
67.1887419999999906
21
-59.5769449999999949
0
LINE
8
BLACK
6
CONTINUOUS
10
67.1887419999999906
20
-59.5769449999999949
11
66.9626219999999961
21
-59.3966209999999961
0
LINE
8
BLACK
6
CONTINUOUS
10
66.9626219999999961
20
-59.3966209999999961
11
66.7177349999999905
21
-59.2427479999999989
0
LINE
8
BLACK
6
CONTINUOUS
10
66.7177349999999905
20
-59.2427479999999989
11
66.4571579999999926
21
-59.1172609999999992
0
LINE
8
BLACK
6
CONTINUOUS
10
66.4571579999999926
20
-59.1172609999999992
11
66.1841709999999921
21
-59.0217379999999991
0
LINE
8
BLACK
6
CONTINUOUS
10
66.1841709999999921
20
-59.0217379999999991
11
65.9022039999999976
21
-58.957380999999998
0
LINE
8
BLACK
6
CONTINUOUS
10
65.9022039999999976
20
-58.957380999999998
11
65.614805000000004
21
-58.9249989999999997
0
LINE
8
BLACK
6
CONTINUOUS
10
65.614805000000004
20
-58.9249989999999997
11
65.3255869999999987
21
-58.9249989999999997
0
LINE
8
BLACK
6
CONTINUOUS
10
65.3255869999999987
20
-58.9249989999999997
11
65.038187999999991
21
-58.957380999999998
0
LINE
8
BLACK
6
CONTINUOUS
10
65.038187999999991
20
-58.957380999999998
11
64.7562209999999965
21
-59.0217379999999991
0
LINE
8
BLACK
6
CONTINUOUS
10
64.7562209999999965
20
-59.0217379999999991
11
64.4832339999999959
21
-59.1172609999999992
0
LINE
8
BLACK
6
CONTINUOUS
10
64.4832339999999959
20
-59.1172609999999992
11
64.2226569999999981
21
-59.2427479999999989
0
LINE
8
BLACK
6
CONTINUOUS
10
64.2226569999999981
20
-59.2427479999999989
11
63.9777699999999996
21
-59.3966209999999961
0
LINE
8
BLACK
6
CONTINUOUS
10
63.9777699999999996
20
-59.3966209999999961
11
63.7516499999999979
21
-59.5769449999999949
0
LINE
8
BLACK
6
CONTINUOUS
10
63.7516499999999979
20
-59.5769449999999949
11
63.5471419999999938
21
-59.7814529999999991
0
LINE
8
BLACK
6
CONTINUOUS
10
63.5471419999999938
20
-59.7814529999999991
11
63.366817999999995
21
-60.0075730000000007
0
LINE
8
BLACK
6
CONTINUOUS
10
63.366817999999995
20
-60.0075730000000007
11
63.2129449999999977
21
-60.2524599999999992
0
LINE
8
BLACK
6
CONTINUOUS
10
63.2129449999999977
20
-60.2524599999999992
11
63.087457999999998
21
-60.5130369999999971
0
LINE
8
BLACK
6
CONTINUOUS
10
63.087457999999998
20
-60.5130369999999971
11
62.991934999999998
21
-60.7860239999999976
0
LINE
8
BLACK
6
CONTINUOUS
10
62.991934999999998
20
-60.7860239999999976
11
62.9275779999999969
21
-61.0679909999999992
0
LINE
8
BLACK
6
CONTINUOUS
10
62.9275779999999969
20
-61.0679909999999992
11
62.8951959999999985
21
-61.3553899999999999
0
LINE
8
BLACK
6
CONTINUOUS
10
62.8951959999999985
20
-61.3553899999999999
11
62.8951959999999985
21
-61.6446079999999981
0
LINE
8
BLACK
6
CONTINUOUS
10
73.5195089999999993
20
-39.9019210000000015
11
73.5555569999999932
21
-39.9168529999999961
0
LINE
8
BLACK
6
CONTINUOUS
10
73.5555569999999932
20
-39.9168529999999961
11
73.5831469999999968
21
-39.9444429999999997
0
LINE
8
BLACK
6
CONTINUOUS
10
73.5831469999999968
20
-39.9444429999999997
11
73.5980789999999985
21
-39.9804910000000007
0
LINE
8
BLACK
6
CONTINUOUS
10
73.5980789999999985
20
-39.9804910000000007
11
73.5999999999999943
21
-40.
0
LINE
8
BLACK
6
CONTINUOUS
10
73.5999999999999943
20
-40.
11
73.5999999999999943
21
-145.5
0
LINE
8
BLACK
6
CONTINUOUS
10
73.5999999999999943
20
-145.5
11
73.5980789999999985
21
-145.5195089999999993
0
LINE
8
BLACK
6
CONTINUOUS
10
73.5980789999999985
20
-145.5195089999999993
11
73.5831469999999968
21
-145.5555569999999932
0
LINE
8
BLACK
6
CONTINUOUS
10
73.5831469999999968
20
-145.5555569999999932
11
73.5555569999999932
21
-145.5831469999999968
0
LINE
8
BLACK
6
CONTINUOUS
10
73.5555569999999932
20
-145.5831469999999968
11
73.5195089999999993
21
-145.5980789999999843
0
LINE
8
BLACK
6
CONTINUOUS
10
73.5195089999999993
20
-145.5980789999999843
11
73.5
21
-145.5999999999999943
0
LINE
8
BLACK
6
CONTINUOUS
10
73.5
20
-145.5999999999999943
11
44.5
21
-145.5999999999999943
0
LINE
8
BLACK
6
CONTINUOUS
10
44.5
20
-145.5999999999999943
11
44.4804910000000007
21
-145.5980789999999843
0
LINE
8
BLACK
6
CONTINUOUS
10
44.4804910000000007
20
-145.5980789999999843
11
44.4444429999999997
21
-145.5831469999999968
0
LINE
8
BLACK
6
CONTINUOUS
10
44.4444429999999997
20
-145.5831469999999968
11
44.4168529999999961
21
-145.5555569999999932
0
LINE
8
BLACK
6
CONTINUOUS
10
44.4168529999999961
20
-145.5555569999999932
11
44.4019210000000015
21
-145.5195089999999993
0
LINE
8
BLACK
6
CONTINUOUS
10
44.4019210000000015
20
-145.5195089999999993
11
44.3999999999999986
21
-145.5
0
LINE
8
BLACK
6
CONTINUOUS
10
44.3999999999999986
20
-145.5
11
44.3999999999999986
21
-40.
0
LINE
8
BLACK
6
CONTINUOUS
10
44.3999999999999986
20
-40.
11
44.4019210000000015
21
-39.9804910000000007
0
LINE
8
BLACK
6
CONTINUOUS
10
44.4019210000000015
20
-39.9804910000000007
11
44.4168529999999961
21
-39.9444429999999997
0
LINE
8
BLACK
6
CONTINUOUS
10
44.4168529999999961
20
-39.9444429999999997
11
44.4444429999999997
21
-39.9168529999999961
0
LINE
8
BLACK
6
CONTINUOUS
10
44.4444429999999997
20
-39.9168529999999961
11
44.4804910000000007
21
-39.9019210000000015
0
LINE
8
BLACK
6
CONTINUOUS
10
44.4804910000000007
20
-39.9019210000000015
11
44.5
21
-39.8999999999999986
0
LINE
8
BLACK
6
CONTINUOUS
10
44.5
20
-39.8999999999999986
11
73.5
21
-39.8999999999999986
0
LINE
8
BLACK
6
CONTINUOUS
10
73.5
20
-39.8999999999999986
11
73.5195089999999993
21
-39.9019210000000015
0
LINE
8
BLACK
6
CONTINUOUS
10
44.6000000000000014
20
-40.1000000000000014
11
44.6000000000000014
21
-145.4000000000000057
0
LINE
8
BLACK
6
CONTINUOUS
10
44.6000000000000014
20
-145.4000000000000057
11
73.3999999999999915
21
-145.4000000000000057
0
LINE
8
BLACK
6
CONTINUOUS
10
73.3999999999999915
20
-145.4000000000000057
11
73.3999999999999915
21
-40.1000000000000014
0
LINE
8
BLACK
6
CONTINUOUS
10
73.3999999999999915
20
-40.1000000000000014
11
44.6000000000000014
21
-40.1000000000000014
  0
ENDSEC
  0
EOF
