M48
; DRILL file {KiCad 9.0.4} date 2026-02-22T21:38:31+0000
; FORMAT={-:-/ absolute / metric / decimal}
; #@! TF.CreationDate,2026-02-22T21:38:31+00:00
; #@! TF.GenerationSoftware,Kicad,Pcbnew,9.0.4
; #@! TF.FileFunction,Plated,1,2,PTH
FMAT,2
METRIC
; #@! TA.AperFunction,Plated,PTH,ComponentDrill
T1C0.800
; #@! TA.AperFunction,Plated,PTH,ComponentDrill
T2C1.000
; #@! TA.AperFunction,Plated,PTH,ComponentDrill
T3C1.220
; #@! TA.AperFunction,Plated,PTH,ComponentDrill
T4C1.420
; #@! TA.AperFunction,Plated,PTH,ComponentDrill
T5C1.430
; #@! TA.AperFunction,Plated,PTH,ComponentDrill
T6C2.600
%
G90
G05
T1
X142.0Y-111.5
X142.0Y-115.0
X145.43Y-85.0
X145.43Y-88.5
X145.43Y-92.0
X145.69Y-99.0
X145.69Y-102.5
X147.0Y-111.5
X147.0Y-115.0
X150.5Y-62.0
X152.0Y-120.19
X152.0Y-127.81
X153.05Y-85.0
X153.05Y-88.5
X153.05Y-92.0
X153.31Y-99.0
X153.31Y-102.5
X155.5Y-62.0
X163.0Y-79.69
X163.0Y-87.31
X166.0Y-120.69
X166.0Y-128.31
X170.5Y-79.5
X170.5Y-87.12
X172.818Y-68.0
X175.318Y-68.0
X177.0Y-79.5
X177.0Y-87.12
T2
X141.87Y-67.95
X141.87Y-70.49
X141.87Y-73.03
X141.87Y-75.57
X141.87Y-78.11
X141.87Y-80.65
X141.87Y-83.19
X141.87Y-85.73
X141.87Y-88.27
X141.87Y-90.81
X141.87Y-93.35
X141.87Y-95.89
X141.87Y-98.43
X141.87Y-100.97
X141.87Y-103.51
X151.5Y-108.5
X151.5Y-113.0
X151.96Y-58.5
X154.5Y-58.5
X157.04Y-58.5
X157.11Y-67.95
X157.11Y-70.49
X157.11Y-73.03
X157.11Y-75.57
X157.11Y-78.11
X157.11Y-80.65
X157.11Y-83.19
X157.11Y-85.73
X157.11Y-88.27
X157.11Y-90.81
X157.11Y-93.35
X157.11Y-95.89
X157.11Y-98.43
X157.11Y-100.97
X157.11Y-103.51
X158.0Y-108.5
X158.0Y-113.0
X159.58Y-58.5
X162.12Y-58.5
X164.66Y-58.5
X166.4Y-99.0
X166.4Y-113.5
X167.2Y-58.5
X168.9Y-99.0
X171.4Y-99.0
X171.4Y-113.5
X173.0Y-59.5
X175.5Y-59.5
T3
X145.0Y-118.1
X145.0Y-132.6
X145.0Y-147.1
X159.0Y-118.1
X159.0Y-132.6
X159.0Y-147.1
X173.0Y-118.0
X173.0Y-132.6
X173.0Y-147.1
T4
X145.0Y-121.2
X145.0Y-135.7
X145.0Y-150.2
X159.0Y-121.2
X159.0Y-135.7
X159.0Y-150.2
X173.0Y-121.1
X173.0Y-135.7
X173.0Y-150.2
T5
X145.0Y-129.5
X145.0Y-144.0
X145.0Y-158.5
X159.0Y-129.5
X159.0Y-144.0
X159.0Y-158.5
X173.0Y-129.4
X173.0Y-144.0
X173.0Y-158.5
T6
X163.3Y-106.5
X174.5Y-106.5
M30
