%TF.GenerationSoftware,KiCad,Pcbnew,9.0.4*%
%TF.CreationDate,2026-02-22T21:38:26+00:00*%
%TF.ProjectId,Saxby and Farmer,53617862-7920-4616-9e64-204661726d65,rev?*%
%TF.SameCoordinates,Original*%
%TF.FileFunction,Copper,L1,Top*%
%TF.FilePolarity,Positive*%
%FSLAX46Y46*%
G04 Gerber Fmt 4.6, Leading zero omitted, Abs format (unit mm)*
G04 Created by KiCad (PCBNEW 9.0.4) date 2026-02-22 21:38:26*
%MOMM*%
%LPD*%
G01*
G04 APERTURE LIST*
G04 Aperture macros list*
%AMRoundRect*
0 Rectangle with rounded corners*
0 $1 Rounding radius*
0 $2 $3 $4 $5 $6 $7 $8 $9 X,Y pos of 4 corners*
0 Add a 4 corners polygon primitive as box body*
4,1,4,$2,$3,$4,$5,$6,$7,$8,$9,$2,$3,0*
0 Add four circle primitives for the rounded corners*
1,1,$1+$1,$2,$3*
1,1,$1+$1,$4,$5*
1,1,$1+$1,$6,$7*
1,1,$1+$1,$8,$9*
0 Add four rect primitives between the rounded corners*
20,1,$1+$1,$2,$3,$4,$5,0*
20,1,$1+$1,$4,$5,$6,$7,0*
20,1,$1+$1,$6,$7,$8,$9,0*
20,1,$1+$1,$8,$9,$2,$3,0*%
G04 Aperture macros list end*
%TA.AperFunction,ComponentPad*%
%ADD10R,1.930000X1.830000*%
%TD*%
%TA.AperFunction,ComponentPad*%
%ADD11C,2.130000*%
%TD*%
%TA.AperFunction,ComponentPad*%
%ADD12RoundRect,0.250000X-0.550000X-0.550000X0.550000X-0.550000X0.550000X0.550000X-0.550000X0.550000X0*%
%TD*%
%TA.AperFunction,ComponentPad*%
%ADD13C,1.600000*%
%TD*%
%TA.AperFunction,ComponentPad*%
%ADD14RoundRect,0.250000X0.550000X0.550000X-0.550000X0.550000X-0.550000X-0.550000X0.550000X-0.550000X0*%
%TD*%
%TA.AperFunction,ComponentPad*%
%ADD15C,1.700000*%
%TD*%
%TA.AperFunction,ComponentPad*%
%ADD16R,1.700000X1.700000*%
%TD*%
%TA.AperFunction,ComponentPad*%
%ADD17R,2.000000X2.000000*%
%TD*%
%TA.AperFunction,ComponentPad*%
%ADD18C,2.000000*%
%TD*%
%TA.AperFunction,ComponentPad*%
%ADD19C,3.200000*%
%TD*%
%TA.AperFunction,ComponentPad*%
%ADD20R,1.600000X1.600000*%
%TD*%
%TA.AperFunction,ComponentPad*%
%ADD21O,1.600000X1.600000*%
%TD*%
%TA.AperFunction,ComponentPad*%
%ADD22RoundRect,0.250000X0.600000X0.750000X-0.600000X0.750000X-0.600000X-0.750000X0.600000X-0.750000X0*%
%TD*%
%TA.AperFunction,ComponentPad*%
%ADD23O,1.700000X2.000000*%
%TD*%
%TA.AperFunction,Conductor*%
%ADD24C,0.500000*%
%TD*%
G04 APERTURE END LIST*
D10*
%TO.P,J3,S*%
%TO.N,Net-(D1-K)*%
X173000000Y-118000000D03*
D11*
%TO.P,J3,T*%
%TO.N,Net-(J3-PadT)*%
X173000000Y-129400000D03*
%TO.P,J3,TN*%
%TO.N,unconnected-(J3-PadTN)*%
X173000000Y-121100000D03*
%TD*%
D10*
%TO.P,J8,S*%
%TO.N,Net-(D1-K)*%
X145000000Y-147100000D03*
D11*
%TO.P,J8,T*%
%TO.N,Net-(J8-PadT)*%
X145000000Y-158500000D03*
%TO.P,J8,TN*%
%TO.N,unconnected-(J8-PadTN)*%
X145000000Y-150200000D03*
%TD*%
D12*
%TO.P,D2,1,K*%
%TO.N,Net-(A1-A0)*%
X145690000Y-102500000D03*
D13*
%TO.P,D2,2,A*%
%TO.N,Net-(D1-K)*%
X153310000Y-102500000D03*
%TD*%
D14*
%TO.P,D1,1,K*%
%TO.N,Net-(D1-K)*%
X153310000Y-99000000D03*
D13*
%TO.P,D1,2,A*%
%TO.N,Net-(A1-A0)*%
X145690000Y-99000000D03*
%TD*%
D10*
%TO.P,J6,S*%
%TO.N,Net-(D1-K)*%
X159000000Y-132600000D03*
D11*
%TO.P,J6,T*%
%TO.N,Net-(J6-PadT)*%
X159000000Y-144000000D03*
%TO.P,J6,TN*%
%TO.N,unconnected-(J6-PadTN)*%
X159000000Y-135700000D03*
%TD*%
D13*
%TO.P,C3,1*%
%TO.N,Net-(A1-D2)*%
X147000000Y-111500000D03*
%TO.P,C3,2*%
%TO.N,Net-(D1-K)*%
X142000000Y-111500000D03*
%TD*%
D10*
%TO.P,J1,S*%
%TO.N,Net-(D1-K)*%
X145000000Y-118100000D03*
D11*
%TO.P,J1,T*%
%TO.N,Net-(J1-PadT)*%
X145000000Y-129500000D03*
%TO.P,J1,TN*%
%TO.N,unconnected-(J1-PadTN)*%
X145000000Y-121200000D03*
%TD*%
D15*
%TO.P,SW2,1,1*%
%TO.N,Net-(D1-K)*%
X151500000Y-108500000D03*
X158000000Y-108500000D03*
%TO.P,SW2,2,2*%
%TO.N,Net-(A1-D4)*%
X151500000Y-113000000D03*
X158000000Y-113000000D03*
%TD*%
D13*
%TO.P,R5,1*%
%TO.N,Net-(A1-D8)*%
X177000000Y-79500000D03*
%TO.P,R5,2*%
%TO.N,Net-(J7-PadT)*%
X177000000Y-87120000D03*
%TD*%
%TO.P,R2,1*%
%TO.N,Net-(J3-PadT)*%
X166000000Y-128310000D03*
%TO.P,R2,2*%
%TO.N,Net-(A1-A1)*%
X166000000Y-120690000D03*
%TD*%
D16*
%TO.P,J4,1,Pin_1*%
%TO.N,Net-(D1-K)*%
X151960000Y-58500000D03*
D15*
%TO.P,J4,2,Pin_2*%
%TO.N,Net-(A1-+5V)*%
X154500000Y-58500000D03*
%TO.P,J4,3,Pin_3*%
%TO.N,Net-(A1-D9)*%
X157040000Y-58500000D03*
%TO.P,J4,4,Pin_4*%
%TO.N,Net-(A1-D10)*%
X159580000Y-58500000D03*
%TO.P,J4,5,Pin_5*%
%TO.N,Net-(A1-D11)*%
X162120000Y-58500000D03*
%TO.P,J4,6,Pin_6*%
%TO.N,Net-(A1-D12)*%
X164660000Y-58500000D03*
%TO.P,J4,7,Pin_7*%
%TO.N,Net-(A1-D13)*%
X167200000Y-58500000D03*
%TD*%
D13*
%TO.P,R6,1*%
%TO.N,Net-(A1-A2)*%
X145430000Y-92000000D03*
%TO.P,R6,2*%
%TO.N,Net-(J8-PadT)*%
X153050000Y-92000000D03*
%TD*%
D10*
%TO.P,J10,S*%
%TO.N,Net-(D1-K)*%
X173000000Y-147100000D03*
D11*
%TO.P,J10,T*%
%TO.N,Net-(J10-PadT)*%
X173000000Y-158500000D03*
%TO.P,J10,TN*%
%TO.N,unconnected-(J10-PadTN)*%
X173000000Y-150200000D03*
%TD*%
D13*
%TO.P,R1,1*%
%TO.N,Net-(J1-PadT)*%
X152000000Y-127810000D03*
%TO.P,R1,2*%
%TO.N,Net-(A1-A0)*%
X152000000Y-120190000D03*
%TD*%
%TO.P,C4,1*%
%TO.N,Net-(D1-K)*%
X142000000Y-115000000D03*
%TO.P,C4,2*%
%TO.N,Net-(A1-D3)*%
X147000000Y-115000000D03*
%TD*%
%TO.P,R8,1*%
%TO.N,Net-(A1-A4)*%
X145430000Y-85000000D03*
%TO.P,R8,2*%
%TO.N,Net-(J10-PadT)*%
X153050000Y-85000000D03*
%TD*%
%TO.P,R7,1*%
%TO.N,Net-(A1-A3)*%
X145430000Y-88500000D03*
%TO.P,R7,2*%
%TO.N,Net-(J9-PadT)*%
X153050000Y-88500000D03*
%TD*%
D10*
%TO.P,J2,S*%
%TO.N,Net-(D1-K)*%
X159000000Y-118100000D03*
D11*
%TO.P,J2,T*%
%TO.N,Net-(J1-PadT)*%
X159000000Y-129500000D03*
%TO.P,J2,TN*%
%TO.N,unconnected-(J2-PadTN)*%
X159000000Y-121200000D03*
%TD*%
D17*
%TO.P,Rotary Encoder,A,A*%
%TO.N,Net-(A1-D2)*%
X171400000Y-99000000D03*
D18*
%TO.P,Rotary Encoder,B,B*%
%TO.N,Net-(A1-D3)*%
X166400000Y-99000000D03*
%TO.P,Rotary Encoder,C,C*%
%TO.N,Net-(D1-K)*%
X168900000Y-99000000D03*
D19*
%TO.P,Rotary Encoder,MP,MP*%
%TO.N,unconnected-(SW1-PadMP)*%
X174500000Y-106500000D03*
X163300000Y-106500000D03*
D18*
%TO.P,Rotary Encoder,S1,S1*%
%TO.N,Net-(A1-D5)*%
X166400000Y-113500000D03*
%TO.P,Rotary Encoder,S2,S2*%
%TO.N,Net-(D1-K)*%
X171400000Y-113500000D03*
%TD*%
D10*
%TO.P,J5,S*%
%TO.N,Net-(D1-K)*%
X145000000Y-132600000D03*
D11*
%TO.P,J5,T*%
%TO.N,Net-(J5-PadT)*%
X145000000Y-144000000D03*
%TO.P,J5,TN*%
%TO.N,unconnected-(J5-PadTN)*%
X145000000Y-135700000D03*
%TD*%
D13*
%TO.P,R4,1*%
%TO.N,Net-(A1-D7)*%
X170500000Y-79500000D03*
%TO.P,R4,2*%
%TO.N,Net-(J6-PadT)*%
X170500000Y-87120000D03*
%TD*%
D10*
%TO.P,J9,S*%
%TO.N,Net-(D1-K)*%
X159000000Y-147100000D03*
D11*
%TO.P,J9,T*%
%TO.N,Net-(J9-PadT)*%
X159000000Y-158500000D03*
%TO.P,J9,TN*%
%TO.N,unconnected-(J9-PadTN)*%
X159000000Y-150200000D03*
%TD*%
D10*
%TO.P,J7,S*%
%TO.N,Net-(D1-K)*%
X173000000Y-132600000D03*
D11*
%TO.P,J7,T*%
%TO.N,Net-(J7-PadT)*%
X173000000Y-144000000D03*
%TO.P,J7,TN*%
%TO.N,unconnected-(J7-PadTN)*%
X173000000Y-135700000D03*
%TD*%
D13*
%TO.P,R3,1*%
%TO.N,Net-(A1-D6)*%
X163000000Y-79690000D03*
%TO.P,R3,2*%
%TO.N,Net-(J5-PadT)*%
X163000000Y-87310000D03*
%TD*%
D20*
%TO.P,A1,1,D1/TX*%
%TO.N,unconnected-(A1-D1{slash}TX-Pad1)*%
X157110000Y-67950000D03*
D21*
%TO.P,A1,2,D0/RX*%
%TO.N,unconnected-(A1-D0{slash}RX-Pad2)*%
X157110000Y-70490000D03*
%TO.P,A1,3,~{RESET}*%
%TO.N,unconnected-(A1-~{RESET}-Pad3)*%
X157110000Y-73030000D03*
%TO.P,A1,4,GND*%
%TO.N,unconnected-(A1-GND-Pad4)*%
X157110000Y-75570000D03*
%TO.P,A1,5,D2*%
%TO.N,Net-(A1-D2)*%
X157110000Y-78110000D03*
%TO.P,A1,6,D3*%
%TO.N,Net-(A1-D3)*%
X157110000Y-80650000D03*
%TO.P,A1,7,D4*%
%TO.N,Net-(A1-D4)*%
X157110000Y-83190000D03*
%TO.P,A1,8,D5*%
%TO.N,Net-(A1-D5)*%
X157110000Y-85730000D03*
%TO.P,A1,9,D6*%
%TO.N,Net-(A1-D6)*%
X157110000Y-88270000D03*
%TO.P,A1,10,D7*%
%TO.N,Net-(A1-D7)*%
X157110000Y-90810000D03*
%TO.P,A1,11,D8*%
%TO.N,Net-(A1-D8)*%
X157110000Y-93350000D03*
%TO.P,A1,12,D9*%
%TO.N,Net-(A1-D9)*%
X157110000Y-95890000D03*
%TO.P,A1,13,D10*%
%TO.N,Net-(A1-D10)*%
X157110000Y-98430000D03*
%TO.P,A1,14,D11*%
%TO.N,Net-(A1-D11)*%
X157110000Y-100970000D03*
%TO.P,A1,15,D12*%
%TO.N,Net-(A1-D12)*%
X157110000Y-103510000D03*
%TO.P,A1,16,D13*%
%TO.N,Net-(A1-D13)*%
X141870000Y-103510000D03*
%TO.P,A1,17,3V3*%
%TO.N,unconnected-(A1-3V3-Pad17)*%
X141870000Y-100970000D03*
%TO.P,A1,18,AREF*%
%TO.N,unconnected-(A1-AREF-Pad18)*%
X141870000Y-98430000D03*
%TO.P,A1,19,A0*%
%TO.N,Net-(A1-A0)*%
X141870000Y-95890000D03*
%TO.P,A1,20,A1*%
%TO.N,Net-(A1-A1)*%
X141870000Y-93350000D03*
%TO.P,A1,21,A2*%
%TO.N,Net-(A1-A2)*%
X141870000Y-90810000D03*
%TO.P,A1,22,A3*%
%TO.N,Net-(A1-A3)*%
X141870000Y-88270000D03*
%TO.P,A1,23,A4*%
%TO.N,Net-(A1-A4)*%
X141870000Y-85730000D03*
%TO.P,A1,24,A5*%
%TO.N,unconnected-(A1-A5-Pad24)*%
X141870000Y-83190000D03*
%TO.P,A1,25,A6*%
%TO.N,unconnected-(A1-A6-Pad25)*%
X141870000Y-80650000D03*
%TO.P,A1,26,A7*%
%TO.N,unconnected-(A1-A7-Pad26)*%
X141870000Y-78110000D03*
%TO.P,A1,27,+5V*%
%TO.N,Net-(A1-+5V)*%
X141870000Y-75570000D03*
%TO.P,A1,28,~{RESET}*%
%TO.N,unconnected-(A1-~{RESET}-Pad28)*%
X141870000Y-73030000D03*
%TO.P,A1,29,GND*%
%TO.N,Net-(D1-K)*%
X141870000Y-70490000D03*
%TO.P,A1,30,VIN*%
%TO.N,unconnected-(A1-VIN-Pad30)*%
X141870000Y-67950000D03*
%TD*%
D12*
%TO.P,C2,1*%
%TO.N,Net-(A1-+5V)*%
X172817621Y-68000000D03*
D13*
%TO.P,C2,2*%
%TO.N,Net-(D1-K)*%
X175317621Y-68000000D03*
%TD*%
D22*
%TO.P,J11,1,Pin_1*%
%TO.N,Net-(D1-K)*%
X175500000Y-59500000D03*
D23*
%TO.P,J11,2,Pin_2*%
%TO.N,Net-(A1-+5V)*%
X173000000Y-59500000D03*
%TD*%
D13*
%TO.P,C1,1*%
%TO.N,Net-(D1-K)*%
X150500000Y-62000000D03*
%TO.P,C1,2*%
%TO.N,Net-(A1-+5V)*%
X155500000Y-62000000D03*
%TD*%
D24*
%TO.N,Net-(A1-A2)*%
X141870000Y-90810000D02*
X144240000Y-90810000D01*
X144240000Y-90810000D02*
X145430000Y-92000000D01*
%TO.N,Net-(A1-D4)*%
X151500000Y-113000000D02*
X158000000Y-113000000D01*
%TO.N,Net-(A1-D6)*%
X163000000Y-82380000D02*
X157110000Y-88270000D01*
X163000000Y-79690000D02*
X163000000Y-82380000D01*
%TO.N,Net-(A1-+5V)*%
X154500000Y-61000000D02*
X155500000Y-62000000D01*
X173000000Y-59500000D02*
X173000000Y-67817621D01*
X170500000Y-62000000D02*
X173000000Y-59500000D01*
X154500000Y-58500000D02*
X154500000Y-61000000D01*
X173000000Y-67817621D02*
X172817621Y-68000000D01*
X155500000Y-62000000D02*
X170500000Y-62000000D01*
%TO.N,Net-(A1-A3)*%
X141870000Y-88270000D02*
X145200000Y-88270000D01*
X145200000Y-88270000D02*
X145430000Y-88500000D01*
%TO.N,Net-(D1-K)*%
X150500000Y-62000000D02*
X150500000Y-59960000D01*
X173000000Y-118000000D02*
X159100000Y-118000000D01*
X173000000Y-132600000D02*
X159000000Y-132600000D01*
X154301000Y-98009000D02*
X154301000Y-82921000D01*
X175500000Y-59500000D02*
X173199000Y-57199000D01*
X150500000Y-59960000D02*
X151960000Y-58500000D01*
X159000000Y-118100000D02*
X160000000Y-117100000D01*
X142402000Y-135198000D02*
X145000000Y-132600000D01*
X143244308Y-130844308D02*
X143244308Y-119855692D01*
X142010000Y-70490000D02*
X150500000Y-62000000D01*
X175317621Y-59682379D02*
X175500000Y-59500000D01*
X173000000Y-147100000D02*
X159000000Y-147100000D01*
X160000000Y-117100000D02*
X160000000Y-110500000D01*
X158000000Y-108500000D02*
X158051000Y-108551000D01*
X145000000Y-132600000D02*
X159000000Y-132600000D01*
X164149553Y-108551000D02*
X168900000Y-103800553D01*
X141870000Y-70490000D02*
X142010000Y-70490000D01*
X153310000Y-99000000D02*
X154301000Y-98009000D01*
X168900000Y-103800553D02*
X168900000Y-99000000D01*
X145000000Y-147100000D02*
X142402000Y-144502000D01*
X175317621Y-68000000D02*
X175317621Y-59682379D01*
X151960000Y-58500000D02*
X153261000Y-57199000D01*
X160000000Y-110500000D02*
X158000000Y-108500000D01*
X142402000Y-144502000D02*
X142402000Y-135198000D01*
X154301000Y-82921000D02*
X141870000Y-70490000D01*
X145000000Y-118100000D02*
X159000000Y-118100000D01*
X158000000Y-108500000D02*
X151500000Y-108500000D01*
X143244308Y-119855692D02*
X145000000Y-118100000D01*
X173199000Y-57199000D02*
X153261000Y-57199000D01*
X145000000Y-132600000D02*
X143244308Y-130844308D01*
X145000000Y-147100000D02*
X159000000Y-147100000D01*
X158051000Y-108551000D02*
X164149553Y-108551000D01*
X159100000Y-118000000D02*
X159000000Y-118100000D01*
%TO.N,Net-(A1-D8)*%
X158361000Y-92099000D02*
X157110000Y-93350000D01*
X177000000Y-79500000D02*
X175749000Y-80751000D01*
X158361000Y-90139000D02*
X158361000Y-92099000D01*
X175749000Y-80751000D02*
X167749000Y-80751000D01*
X167749000Y-80751000D02*
X158361000Y-90139000D01*
%TO.N,Net-(A1-D3)*%
X147000000Y-115000000D02*
X148251000Y-113749000D01*
X160500000Y-104900000D02*
X166400000Y-99000000D01*
X160500000Y-107000000D02*
X160500000Y-104900000D01*
X151160108Y-107000000D02*
X160500000Y-107000000D01*
X148251000Y-113749000D02*
X148251000Y-109909108D01*
X148251000Y-109909108D02*
X151160108Y-107000000D01*
%TO.N,Net-(A1-D2)*%
X161000000Y-103000000D02*
X157701000Y-106299000D01*
X155500000Y-104799000D02*
X155500000Y-79720000D01*
X147000000Y-110168744D02*
X147000000Y-111500000D01*
X154000000Y-106299000D02*
X155500000Y-104799000D01*
X161000000Y-102347976D02*
X161000000Y-103000000D01*
X165798976Y-97549000D02*
X161000000Y-102347976D01*
X157701000Y-106299000D02*
X154000000Y-106299000D01*
X171400000Y-99000000D02*
X169949000Y-97549000D01*
X154000000Y-106299000D02*
X150869744Y-106299000D01*
X150869744Y-106299000D02*
X147000000Y-110168744D01*
X155500000Y-79720000D02*
X157110000Y-78110000D01*
X169949000Y-97549000D02*
X165798976Y-97549000D01*
%TO.N,Net-(A1-A4)*%
X141870000Y-85730000D02*
X144700000Y-85730000D01*
X144700000Y-85730000D02*
X145430000Y-85000000D01*
%TO.N,Net-(A1-D7)*%
X157110000Y-90810000D02*
X157110000Y-90390000D01*
X168000000Y-79500000D02*
X170500000Y-79500000D01*
X157110000Y-90390000D02*
X168000000Y-79500000D01*
%TO.N,Net-(J5-PadT)*%
X176551000Y-101051000D02*
X176551000Y-137949000D01*
X175500000Y-99810000D02*
X175500000Y-100000000D01*
X176551000Y-137949000D02*
X175000000Y-139500000D01*
X163000000Y-87310000D02*
X175500000Y-99810000D01*
X173556703Y-141000000D02*
X148000000Y-141000000D01*
X175500000Y-100000000D02*
X176551000Y-101051000D01*
X175000000Y-139500000D02*
X175000000Y-139556703D01*
X148000000Y-141000000D02*
X145000000Y-144000000D01*
X175000000Y-139556703D02*
X173556703Y-141000000D01*
%TO.N,Net-(J6-PadT)*%
X177252000Y-93872000D02*
X177252000Y-138296067D01*
X173548067Y-142000000D02*
X161000000Y-142000000D01*
X161000000Y-142000000D02*
X159000000Y-144000000D01*
X170500000Y-87120000D02*
X177252000Y-93872000D01*
X177252000Y-138296067D02*
X173548067Y-142000000D01*
%TO.N,Net-(J7-PadT)*%
X177000000Y-87120000D02*
X178000000Y-88120000D01*
X178000000Y-88120000D02*
X178000000Y-139000000D01*
X178000000Y-139000000D02*
X173000000Y-144000000D01*
%TO.N,Net-(J8-PadT)*%
X142991364Y-158500000D02*
X145000000Y-158500000D01*
X145201000Y-110799000D02*
X145201000Y-115117000D01*
X145201000Y-115117000D02*
X141701000Y-118617000D01*
X146941000Y-98109000D02*
X146941000Y-109059000D01*
X153050000Y-92000000D02*
X146941000Y-98109000D01*
X141701000Y-118617000D02*
X141701000Y-157209636D01*
X146941000Y-109059000D02*
X145201000Y-110799000D01*
X141701000Y-157209636D02*
X142991364Y-158500000D01*
%TO.N,Net-(J9-PadT)*%
X144439000Y-97111000D02*
X144439000Y-107439000D01*
X141000000Y-117769182D02*
X141000000Y-157500000D01*
X144500000Y-114269182D02*
X141000000Y-117769182D01*
X141000000Y-157500000D02*
X143516000Y-160016000D01*
X143516000Y-160016000D02*
X157484000Y-160016000D01*
X144439000Y-107439000D02*
X144500000Y-107500000D01*
X153050000Y-88500000D02*
X144439000Y-97111000D01*
X144500000Y-107500000D02*
X144500000Y-114269182D01*
X157484000Y-160016000D02*
X159000000Y-158500000D01*
%TO.N,Net-(J10-PadT)*%
X153050000Y-86149182D02*
X153050000Y-85000000D01*
X143738000Y-95461182D02*
X153050000Y-86149182D01*
X140299000Y-157790364D02*
X140299000Y-106850182D01*
X160500000Y-161000000D02*
X143508636Y-161000000D01*
X161500000Y-160000000D02*
X160500000Y-161000000D01*
X143508636Y-161000000D02*
X140299000Y-157790364D01*
X171500000Y-160000000D02*
X161500000Y-160000000D01*
X143738000Y-103411182D02*
X143738000Y-95461182D01*
X140299000Y-106850182D02*
X143738000Y-103411182D01*
X173000000Y-158500000D02*
X171500000Y-160000000D01*
%TD*%
M02*
