%TF.GenerationSoftware,KiCad,Pcbnew,9.0.4*%
%TF.CreationDate,2026-02-22T21:38:26+00:00*%
%TF.ProjectId,Saxby and Farmer,53617862-7920-4616-9e64-204661726d65,rev?*%
%TF.SameCoordinates,Original*%
%TF.FileFunction,Legend,Top*%
%TF.FilePolarity,Positive*%
%FSLAX46Y46*%
G04 Gerber Fmt 4.6, Leading zero omitted, Abs format (unit mm)*
G04 Created by KiCad (PCBNEW 9.0.4) date 2026-02-22 21:38:26*
%MOMM*%
%LPD*%
G01*
G04 APERTURE LIST*
%ADD10C,0.200000*%
%ADD11C,0.150000*%
%ADD12C,0.120000*%
G04 APERTURE END LIST*
D10*
X177353600Y-123216041D02*
X177391695Y-123101755D01*
X177391695Y-123101755D02*
X177391695Y-122911279D01*
X177391695Y-122911279D02*
X177353600Y-122835088D01*
X177353600Y-122835088D02*
X177315504Y-122796993D01*
X177315504Y-122796993D02*
X177239314Y-122758898D01*
X177239314Y-122758898D02*
X177163123Y-122758898D01*
X177163123Y-122758898D02*
X177086933Y-122796993D01*
X177086933Y-122796993D02*
X177048838Y-122835088D01*
X177048838Y-122835088D02*
X177010742Y-122911279D01*
X177010742Y-122911279D02*
X176972647Y-123063660D01*
X176972647Y-123063660D02*
X176934552Y-123139850D01*
X176934552Y-123139850D02*
X176896457Y-123177945D01*
X176896457Y-123177945D02*
X176820266Y-123216041D01*
X176820266Y-123216041D02*
X176744076Y-123216041D01*
X176744076Y-123216041D02*
X176667885Y-123177945D01*
X176667885Y-123177945D02*
X176629790Y-123139850D01*
X176629790Y-123139850D02*
X176591695Y-123063660D01*
X176591695Y-123063660D02*
X176591695Y-122873183D01*
X176591695Y-122873183D02*
X176629790Y-122758898D01*
X177391695Y-122073183D02*
X176972647Y-122073183D01*
X176972647Y-122073183D02*
X176896457Y-122111278D01*
X176896457Y-122111278D02*
X176858361Y-122187469D01*
X176858361Y-122187469D02*
X176858361Y-122339850D01*
X176858361Y-122339850D02*
X176896457Y-122416040D01*
X177353600Y-122073183D02*
X177391695Y-122149374D01*
X177391695Y-122149374D02*
X177391695Y-122339850D01*
X177391695Y-122339850D02*
X177353600Y-122416040D01*
X177353600Y-122416040D02*
X177277409Y-122454136D01*
X177277409Y-122454136D02*
X177201219Y-122454136D01*
X177201219Y-122454136D02*
X177125028Y-122416040D01*
X177125028Y-122416040D02*
X177086933Y-122339850D01*
X177086933Y-122339850D02*
X177086933Y-122149374D01*
X177086933Y-122149374D02*
X177048838Y-122073183D01*
X177391695Y-121768421D02*
X176858361Y-121349373D01*
X176858361Y-121768421D02*
X177391695Y-121349373D01*
X177391695Y-121044611D02*
X176591695Y-121044611D01*
X176896457Y-121044611D02*
X176858361Y-120968421D01*
X176858361Y-120968421D02*
X176858361Y-120816040D01*
X176858361Y-120816040D02*
X176896457Y-120739849D01*
X176896457Y-120739849D02*
X176934552Y-120701754D01*
X176934552Y-120701754D02*
X177010742Y-120663659D01*
X177010742Y-120663659D02*
X177239314Y-120663659D01*
X177239314Y-120663659D02*
X177315504Y-120701754D01*
X177315504Y-120701754D02*
X177353600Y-120739849D01*
X177353600Y-120739849D02*
X177391695Y-120816040D01*
X177391695Y-120816040D02*
X177391695Y-120968421D01*
X177391695Y-120968421D02*
X177353600Y-121044611D01*
X176858361Y-120396992D02*
X177391695Y-120206516D01*
X176858361Y-120016039D02*
X177391695Y-120206516D01*
X177391695Y-120206516D02*
X177582171Y-120282706D01*
X177582171Y-120282706D02*
X177620266Y-120320801D01*
X177620266Y-120320801D02*
X177658361Y-120396992D01*
X176972647Y-118835087D02*
X176972647Y-119101753D01*
X177391695Y-119101753D02*
X176591695Y-119101753D01*
X176591695Y-119101753D02*
X176591695Y-118720801D01*
X177391695Y-118073182D02*
X176972647Y-118073182D01*
X176972647Y-118073182D02*
X176896457Y-118111277D01*
X176896457Y-118111277D02*
X176858361Y-118187468D01*
X176858361Y-118187468D02*
X176858361Y-118339849D01*
X176858361Y-118339849D02*
X176896457Y-118416039D01*
X177353600Y-118073182D02*
X177391695Y-118149373D01*
X177391695Y-118149373D02*
X177391695Y-118339849D01*
X177391695Y-118339849D02*
X177353600Y-118416039D01*
X177353600Y-118416039D02*
X177277409Y-118454135D01*
X177277409Y-118454135D02*
X177201219Y-118454135D01*
X177201219Y-118454135D02*
X177125028Y-118416039D01*
X177125028Y-118416039D02*
X177086933Y-118339849D01*
X177086933Y-118339849D02*
X177086933Y-118149373D01*
X177086933Y-118149373D02*
X177048838Y-118073182D01*
X177391695Y-117692229D02*
X176858361Y-117692229D01*
X177010742Y-117692229D02*
X176934552Y-117654134D01*
X176934552Y-117654134D02*
X176896457Y-117616039D01*
X176896457Y-117616039D02*
X176858361Y-117539848D01*
X176858361Y-117539848D02*
X176858361Y-117463658D01*
X177391695Y-117196991D02*
X176858361Y-117196991D01*
X176934552Y-117196991D02*
X176896457Y-117158896D01*
X176896457Y-117158896D02*
X176858361Y-117082706D01*
X176858361Y-117082706D02*
X176858361Y-116968420D01*
X176858361Y-116968420D02*
X176896457Y-116892229D01*
X176896457Y-116892229D02*
X176972647Y-116854134D01*
X176972647Y-116854134D02*
X177391695Y-116854134D01*
X176972647Y-116854134D02*
X176896457Y-116816039D01*
X176896457Y-116816039D02*
X176858361Y-116739848D01*
X176858361Y-116739848D02*
X176858361Y-116625563D01*
X176858361Y-116625563D02*
X176896457Y-116549372D01*
X176896457Y-116549372D02*
X176972647Y-116511277D01*
X176972647Y-116511277D02*
X177391695Y-116511277D01*
X177353600Y-115825562D02*
X177391695Y-115901753D01*
X177391695Y-115901753D02*
X177391695Y-116054134D01*
X177391695Y-116054134D02*
X177353600Y-116130324D01*
X177353600Y-116130324D02*
X177277409Y-116168420D01*
X177277409Y-116168420D02*
X176972647Y-116168420D01*
X176972647Y-116168420D02*
X176896457Y-116130324D01*
X176896457Y-116130324D02*
X176858361Y-116054134D01*
X176858361Y-116054134D02*
X176858361Y-115901753D01*
X176858361Y-115901753D02*
X176896457Y-115825562D01*
X176896457Y-115825562D02*
X176972647Y-115787467D01*
X176972647Y-115787467D02*
X177048838Y-115787467D01*
X177048838Y-115787467D02*
X177125028Y-116168420D01*
X177391695Y-115444610D02*
X176858361Y-115444610D01*
X177010742Y-115444610D02*
X176934552Y-115406515D01*
X176934552Y-115406515D02*
X176896457Y-115368420D01*
X176896457Y-115368420D02*
X176858361Y-115292229D01*
X176858361Y-115292229D02*
X176858361Y-115216039D01*
X177353600Y-114377944D02*
X177391695Y-114263658D01*
X177391695Y-114263658D02*
X177391695Y-114073182D01*
X177391695Y-114073182D02*
X177353600Y-113996991D01*
X177353600Y-113996991D02*
X177315504Y-113958896D01*
X177315504Y-113958896D02*
X177239314Y-113920801D01*
X177239314Y-113920801D02*
X177163123Y-113920801D01*
X177163123Y-113920801D02*
X177086933Y-113958896D01*
X177086933Y-113958896D02*
X177048838Y-113996991D01*
X177048838Y-113996991D02*
X177010742Y-114073182D01*
X177010742Y-114073182D02*
X176972647Y-114225563D01*
X176972647Y-114225563D02*
X176934552Y-114301753D01*
X176934552Y-114301753D02*
X176896457Y-114339848D01*
X176896457Y-114339848D02*
X176820266Y-114377944D01*
X176820266Y-114377944D02*
X176744076Y-114377944D01*
X176744076Y-114377944D02*
X176667885Y-114339848D01*
X176667885Y-114339848D02*
X176629790Y-114301753D01*
X176629790Y-114301753D02*
X176591695Y-114225563D01*
X176591695Y-114225563D02*
X176591695Y-114035086D01*
X176591695Y-114035086D02*
X176629790Y-113920801D01*
X177391695Y-113577943D02*
X176858361Y-113577943D01*
X176591695Y-113577943D02*
X176629790Y-113616039D01*
X176629790Y-113616039D02*
X176667885Y-113577943D01*
X176667885Y-113577943D02*
X176629790Y-113539848D01*
X176629790Y-113539848D02*
X176591695Y-113577943D01*
X176591695Y-113577943D02*
X176667885Y-113577943D01*
X176858361Y-112854134D02*
X177505980Y-112854134D01*
X177505980Y-112854134D02*
X177582171Y-112892229D01*
X177582171Y-112892229D02*
X177620266Y-112930325D01*
X177620266Y-112930325D02*
X177658361Y-113006515D01*
X177658361Y-113006515D02*
X177658361Y-113120801D01*
X177658361Y-113120801D02*
X177620266Y-113196991D01*
X177353600Y-112854134D02*
X177391695Y-112930325D01*
X177391695Y-112930325D02*
X177391695Y-113082706D01*
X177391695Y-113082706D02*
X177353600Y-113158896D01*
X177353600Y-113158896D02*
X177315504Y-113196991D01*
X177315504Y-113196991D02*
X177239314Y-113235087D01*
X177239314Y-113235087D02*
X177010742Y-113235087D01*
X177010742Y-113235087D02*
X176934552Y-113196991D01*
X176934552Y-113196991D02*
X176896457Y-113158896D01*
X176896457Y-113158896D02*
X176858361Y-113082706D01*
X176858361Y-113082706D02*
X176858361Y-112930325D01*
X176858361Y-112930325D02*
X176896457Y-112854134D01*
X176858361Y-112473181D02*
X177391695Y-112473181D01*
X176934552Y-112473181D02*
X176896457Y-112435086D01*
X176896457Y-112435086D02*
X176858361Y-112358896D01*
X176858361Y-112358896D02*
X176858361Y-112244610D01*
X176858361Y-112244610D02*
X176896457Y-112168419D01*
X176896457Y-112168419D02*
X176972647Y-112130324D01*
X176972647Y-112130324D02*
X177391695Y-112130324D01*
X177391695Y-111406514D02*
X176972647Y-111406514D01*
X176972647Y-111406514D02*
X176896457Y-111444609D01*
X176896457Y-111444609D02*
X176858361Y-111520800D01*
X176858361Y-111520800D02*
X176858361Y-111673181D01*
X176858361Y-111673181D02*
X176896457Y-111749371D01*
X177353600Y-111406514D02*
X177391695Y-111482705D01*
X177391695Y-111482705D02*
X177391695Y-111673181D01*
X177391695Y-111673181D02*
X177353600Y-111749371D01*
X177353600Y-111749371D02*
X177277409Y-111787467D01*
X177277409Y-111787467D02*
X177201219Y-111787467D01*
X177201219Y-111787467D02*
X177125028Y-111749371D01*
X177125028Y-111749371D02*
X177086933Y-111673181D01*
X177086933Y-111673181D02*
X177086933Y-111482705D01*
X177086933Y-111482705D02*
X177048838Y-111406514D01*
X177391695Y-110911276D02*
X177353600Y-110987466D01*
X177353600Y-110987466D02*
X177277409Y-111025561D01*
X177277409Y-111025561D02*
X176591695Y-111025561D01*
X177163123Y-110035085D02*
X177163123Y-109654132D01*
X177391695Y-110111275D02*
X176591695Y-109844608D01*
X176591695Y-109844608D02*
X177391695Y-109577942D01*
X176858361Y-109311275D02*
X177658361Y-109311275D01*
X176896457Y-109311275D02*
X176858361Y-109235085D01*
X176858361Y-109235085D02*
X176858361Y-109082704D01*
X176858361Y-109082704D02*
X176896457Y-109006513D01*
X176896457Y-109006513D02*
X176934552Y-108968418D01*
X176934552Y-108968418D02*
X177010742Y-108930323D01*
X177010742Y-108930323D02*
X177239314Y-108930323D01*
X177239314Y-108930323D02*
X177315504Y-108968418D01*
X177315504Y-108968418D02*
X177353600Y-109006513D01*
X177353600Y-109006513D02*
X177391695Y-109082704D01*
X177391695Y-109082704D02*
X177391695Y-109235085D01*
X177391695Y-109235085D02*
X177353600Y-109311275D01*
X176858361Y-108587465D02*
X177658361Y-108587465D01*
X176896457Y-108587465D02*
X176858361Y-108511275D01*
X176858361Y-108511275D02*
X176858361Y-108358894D01*
X176858361Y-108358894D02*
X176896457Y-108282703D01*
X176896457Y-108282703D02*
X176934552Y-108244608D01*
X176934552Y-108244608D02*
X177010742Y-108206513D01*
X177010742Y-108206513D02*
X177239314Y-108206513D01*
X177239314Y-108206513D02*
X177315504Y-108244608D01*
X177315504Y-108244608D02*
X177353600Y-108282703D01*
X177353600Y-108282703D02*
X177391695Y-108358894D01*
X177391695Y-108358894D02*
X177391695Y-108511275D01*
X177391695Y-108511275D02*
X177353600Y-108587465D01*
X177391695Y-107520798D02*
X176972647Y-107520798D01*
X176972647Y-107520798D02*
X176896457Y-107558893D01*
X176896457Y-107558893D02*
X176858361Y-107635084D01*
X176858361Y-107635084D02*
X176858361Y-107787465D01*
X176858361Y-107787465D02*
X176896457Y-107863655D01*
X177353600Y-107520798D02*
X177391695Y-107596989D01*
X177391695Y-107596989D02*
X177391695Y-107787465D01*
X177391695Y-107787465D02*
X177353600Y-107863655D01*
X177353600Y-107863655D02*
X177277409Y-107901751D01*
X177277409Y-107901751D02*
X177201219Y-107901751D01*
X177201219Y-107901751D02*
X177125028Y-107863655D01*
X177125028Y-107863655D02*
X177086933Y-107787465D01*
X177086933Y-107787465D02*
X177086933Y-107596989D01*
X177086933Y-107596989D02*
X177048838Y-107520798D01*
X177391695Y-107139845D02*
X176858361Y-107139845D01*
X177010742Y-107139845D02*
X176934552Y-107101750D01*
X176934552Y-107101750D02*
X176896457Y-107063655D01*
X176896457Y-107063655D02*
X176858361Y-106987464D01*
X176858361Y-106987464D02*
X176858361Y-106911274D01*
X177391695Y-106301750D02*
X176972647Y-106301750D01*
X176972647Y-106301750D02*
X176896457Y-106339845D01*
X176896457Y-106339845D02*
X176858361Y-106416036D01*
X176858361Y-106416036D02*
X176858361Y-106568417D01*
X176858361Y-106568417D02*
X176896457Y-106644607D01*
X177353600Y-106301750D02*
X177391695Y-106377941D01*
X177391695Y-106377941D02*
X177391695Y-106568417D01*
X177391695Y-106568417D02*
X177353600Y-106644607D01*
X177353600Y-106644607D02*
X177277409Y-106682703D01*
X177277409Y-106682703D02*
X177201219Y-106682703D01*
X177201219Y-106682703D02*
X177125028Y-106644607D01*
X177125028Y-106644607D02*
X177086933Y-106568417D01*
X177086933Y-106568417D02*
X177086933Y-106377941D01*
X177086933Y-106377941D02*
X177048838Y-106301750D01*
X176858361Y-106035083D02*
X176858361Y-105730321D01*
X176591695Y-105920797D02*
X177277409Y-105920797D01*
X177277409Y-105920797D02*
X177353600Y-105882702D01*
X177353600Y-105882702D02*
X177391695Y-105806512D01*
X177391695Y-105806512D02*
X177391695Y-105730321D01*
X176858361Y-105120797D02*
X177391695Y-105120797D01*
X176858361Y-105463654D02*
X177277409Y-105463654D01*
X177277409Y-105463654D02*
X177353600Y-105425559D01*
X177353600Y-105425559D02*
X177391695Y-105349369D01*
X177391695Y-105349369D02*
X177391695Y-105235083D01*
X177391695Y-105235083D02*
X177353600Y-105158892D01*
X177353600Y-105158892D02*
X177315504Y-105120797D01*
X177353600Y-104777940D02*
X177391695Y-104701749D01*
X177391695Y-104701749D02*
X177391695Y-104549368D01*
X177391695Y-104549368D02*
X177353600Y-104473178D01*
X177353600Y-104473178D02*
X177277409Y-104435082D01*
X177277409Y-104435082D02*
X177239314Y-104435082D01*
X177239314Y-104435082D02*
X177163123Y-104473178D01*
X177163123Y-104473178D02*
X177125028Y-104549368D01*
X177125028Y-104549368D02*
X177125028Y-104663654D01*
X177125028Y-104663654D02*
X177086933Y-104739844D01*
X177086933Y-104739844D02*
X177010742Y-104777940D01*
X177010742Y-104777940D02*
X176972647Y-104777940D01*
X176972647Y-104777940D02*
X176896457Y-104739844D01*
X176896457Y-104739844D02*
X176858361Y-104663654D01*
X176858361Y-104663654D02*
X176858361Y-104549368D01*
X176858361Y-104549368D02*
X176896457Y-104473178D01*
X177315504Y-104092225D02*
X177353600Y-104054130D01*
X177353600Y-104054130D02*
X177391695Y-104092225D01*
X177391695Y-104092225D02*
X177353600Y-104130321D01*
X177353600Y-104130321D02*
X177315504Y-104092225D01*
X177315504Y-104092225D02*
X177391695Y-104092225D01*
X176896457Y-104092225D02*
X176934552Y-104054130D01*
X176934552Y-104054130D02*
X176972647Y-104092225D01*
X176972647Y-104092225D02*
X176934552Y-104130321D01*
X176934552Y-104130321D02*
X176896457Y-104092225D01*
X176896457Y-104092225D02*
X176972647Y-104092225D01*
X177163123Y-103139845D02*
X177163123Y-102758892D01*
X177391695Y-103216035D02*
X176591695Y-102949368D01*
X176591695Y-102949368D02*
X177391695Y-102682702D01*
X176629790Y-101387464D02*
X176591695Y-101463654D01*
X176591695Y-101463654D02*
X176591695Y-101577940D01*
X176591695Y-101577940D02*
X176629790Y-101692226D01*
X176629790Y-101692226D02*
X176705980Y-101768416D01*
X176705980Y-101768416D02*
X176782171Y-101806511D01*
X176782171Y-101806511D02*
X176934552Y-101844607D01*
X176934552Y-101844607D02*
X177048838Y-101844607D01*
X177048838Y-101844607D02*
X177201219Y-101806511D01*
X177201219Y-101806511D02*
X177277409Y-101768416D01*
X177277409Y-101768416D02*
X177353600Y-101692226D01*
X177353600Y-101692226D02*
X177391695Y-101577940D01*
X177391695Y-101577940D02*
X177391695Y-101501749D01*
X177391695Y-101501749D02*
X177353600Y-101387464D01*
X177353600Y-101387464D02*
X177315504Y-101349368D01*
X177315504Y-101349368D02*
X177048838Y-101349368D01*
X177048838Y-101349368D02*
X177048838Y-101501749D01*
X177391695Y-100663654D02*
X176972647Y-100663654D01*
X176972647Y-100663654D02*
X176896457Y-100701749D01*
X176896457Y-100701749D02*
X176858361Y-100777940D01*
X176858361Y-100777940D02*
X176858361Y-100930321D01*
X176858361Y-100930321D02*
X176896457Y-101006511D01*
X177353600Y-100663654D02*
X177391695Y-100739845D01*
X177391695Y-100739845D02*
X177391695Y-100930321D01*
X177391695Y-100930321D02*
X177353600Y-101006511D01*
X177353600Y-101006511D02*
X177277409Y-101044607D01*
X177277409Y-101044607D02*
X177201219Y-101044607D01*
X177201219Y-101044607D02*
X177125028Y-101006511D01*
X177125028Y-101006511D02*
X177086933Y-100930321D01*
X177086933Y-100930321D02*
X177086933Y-100739845D01*
X177086933Y-100739845D02*
X177048838Y-100663654D01*
X176858361Y-100396987D02*
X176858361Y-100092225D01*
X176591695Y-100282701D02*
X177277409Y-100282701D01*
X177277409Y-100282701D02*
X177353600Y-100244606D01*
X177353600Y-100244606D02*
X177391695Y-100168416D01*
X177391695Y-100168416D02*
X177391695Y-100092225D01*
X177353600Y-99520796D02*
X177391695Y-99596987D01*
X177391695Y-99596987D02*
X177391695Y-99749368D01*
X177391695Y-99749368D02*
X177353600Y-99825558D01*
X177353600Y-99825558D02*
X177277409Y-99863654D01*
X177277409Y-99863654D02*
X176972647Y-99863654D01*
X176972647Y-99863654D02*
X176896457Y-99825558D01*
X176896457Y-99825558D02*
X176858361Y-99749368D01*
X176858361Y-99749368D02*
X176858361Y-99596987D01*
X176858361Y-99596987D02*
X176896457Y-99520796D01*
X176896457Y-99520796D02*
X176972647Y-99482701D01*
X176972647Y-99482701D02*
X177048838Y-99482701D01*
X177048838Y-99482701D02*
X177125028Y-99863654D01*
X177353600Y-98568416D02*
X177391695Y-98454130D01*
X177391695Y-98454130D02*
X177391695Y-98263654D01*
X177391695Y-98263654D02*
X177353600Y-98187463D01*
X177353600Y-98187463D02*
X177315504Y-98149368D01*
X177315504Y-98149368D02*
X177239314Y-98111273D01*
X177239314Y-98111273D02*
X177163123Y-98111273D01*
X177163123Y-98111273D02*
X177086933Y-98149368D01*
X177086933Y-98149368D02*
X177048838Y-98187463D01*
X177048838Y-98187463D02*
X177010742Y-98263654D01*
X177010742Y-98263654D02*
X176972647Y-98416035D01*
X176972647Y-98416035D02*
X176934552Y-98492225D01*
X176934552Y-98492225D02*
X176896457Y-98530320D01*
X176896457Y-98530320D02*
X176820266Y-98568416D01*
X176820266Y-98568416D02*
X176744076Y-98568416D01*
X176744076Y-98568416D02*
X176667885Y-98530320D01*
X176667885Y-98530320D02*
X176629790Y-98492225D01*
X176629790Y-98492225D02*
X176591695Y-98416035D01*
X176591695Y-98416035D02*
X176591695Y-98225558D01*
X176591695Y-98225558D02*
X176629790Y-98111273D01*
X177353600Y-97463653D02*
X177391695Y-97539844D01*
X177391695Y-97539844D02*
X177391695Y-97692225D01*
X177391695Y-97692225D02*
X177353600Y-97768415D01*
X177353600Y-97768415D02*
X177277409Y-97806511D01*
X177277409Y-97806511D02*
X176972647Y-97806511D01*
X176972647Y-97806511D02*
X176896457Y-97768415D01*
X176896457Y-97768415D02*
X176858361Y-97692225D01*
X176858361Y-97692225D02*
X176858361Y-97539844D01*
X176858361Y-97539844D02*
X176896457Y-97463653D01*
X176896457Y-97463653D02*
X176972647Y-97425558D01*
X176972647Y-97425558D02*
X177048838Y-97425558D01*
X177048838Y-97425558D02*
X177125028Y-97806511D01*
X176858361Y-96739844D02*
X177658361Y-96739844D01*
X177353600Y-96739844D02*
X177391695Y-96816035D01*
X177391695Y-96816035D02*
X177391695Y-96968416D01*
X177391695Y-96968416D02*
X177353600Y-97044606D01*
X177353600Y-97044606D02*
X177315504Y-97082701D01*
X177315504Y-97082701D02*
X177239314Y-97120797D01*
X177239314Y-97120797D02*
X177010742Y-97120797D01*
X177010742Y-97120797D02*
X176934552Y-97082701D01*
X176934552Y-97082701D02*
X176896457Y-97044606D01*
X176896457Y-97044606D02*
X176858361Y-96968416D01*
X176858361Y-96968416D02*
X176858361Y-96816035D01*
X176858361Y-96816035D02*
X176896457Y-96739844D01*
X176858361Y-96016034D02*
X177391695Y-96016034D01*
X176858361Y-96358891D02*
X177277409Y-96358891D01*
X177277409Y-96358891D02*
X177353600Y-96320796D01*
X177353600Y-96320796D02*
X177391695Y-96244606D01*
X177391695Y-96244606D02*
X177391695Y-96130320D01*
X177391695Y-96130320D02*
X177353600Y-96054129D01*
X177353600Y-96054129D02*
X177315504Y-96016034D01*
X177353600Y-95330319D02*
X177391695Y-95406510D01*
X177391695Y-95406510D02*
X177391695Y-95558891D01*
X177391695Y-95558891D02*
X177353600Y-95635081D01*
X177353600Y-95635081D02*
X177277409Y-95673177D01*
X177277409Y-95673177D02*
X176972647Y-95673177D01*
X176972647Y-95673177D02*
X176896457Y-95635081D01*
X176896457Y-95635081D02*
X176858361Y-95558891D01*
X176858361Y-95558891D02*
X176858361Y-95406510D01*
X176858361Y-95406510D02*
X176896457Y-95330319D01*
X176896457Y-95330319D02*
X176972647Y-95292224D01*
X176972647Y-95292224D02*
X177048838Y-95292224D01*
X177048838Y-95292224D02*
X177125028Y-95673177D01*
X176858361Y-94949367D02*
X177391695Y-94949367D01*
X176934552Y-94949367D02*
X176896457Y-94911272D01*
X176896457Y-94911272D02*
X176858361Y-94835082D01*
X176858361Y-94835082D02*
X176858361Y-94720796D01*
X176858361Y-94720796D02*
X176896457Y-94644605D01*
X176896457Y-94644605D02*
X176972647Y-94606510D01*
X176972647Y-94606510D02*
X177391695Y-94606510D01*
X177353600Y-93882700D02*
X177391695Y-93958891D01*
X177391695Y-93958891D02*
X177391695Y-94111272D01*
X177391695Y-94111272D02*
X177353600Y-94187462D01*
X177353600Y-94187462D02*
X177315504Y-94225557D01*
X177315504Y-94225557D02*
X177239314Y-94263653D01*
X177239314Y-94263653D02*
X177010742Y-94263653D01*
X177010742Y-94263653D02*
X176934552Y-94225557D01*
X176934552Y-94225557D02*
X176896457Y-94187462D01*
X176896457Y-94187462D02*
X176858361Y-94111272D01*
X176858361Y-94111272D02*
X176858361Y-93958891D01*
X176858361Y-93958891D02*
X176896457Y-93882700D01*
X177353600Y-93235081D02*
X177391695Y-93311272D01*
X177391695Y-93311272D02*
X177391695Y-93463653D01*
X177391695Y-93463653D02*
X177353600Y-93539843D01*
X177353600Y-93539843D02*
X177277409Y-93577939D01*
X177277409Y-93577939D02*
X176972647Y-93577939D01*
X176972647Y-93577939D02*
X176896457Y-93539843D01*
X176896457Y-93539843D02*
X176858361Y-93463653D01*
X176858361Y-93463653D02*
X176858361Y-93311272D01*
X176858361Y-93311272D02*
X176896457Y-93235081D01*
X176896457Y-93235081D02*
X176972647Y-93196986D01*
X176972647Y-93196986D02*
X177048838Y-93196986D01*
X177048838Y-93196986D02*
X177125028Y-93577939D01*
X177391695Y-92854129D02*
X176858361Y-92854129D01*
X177010742Y-92854129D02*
X176934552Y-92816034D01*
X176934552Y-92816034D02*
X176896457Y-92777939D01*
X176896457Y-92777939D02*
X176858361Y-92701748D01*
X176858361Y-92701748D02*
X176858361Y-92625558D01*
X140283958Y-57875168D02*
X140664911Y-57875168D01*
X140207768Y-58103740D02*
X140474435Y-57303740D01*
X140474435Y-57303740D02*
X140741101Y-58103740D01*
X141617292Y-58103740D02*
X141617292Y-57303740D01*
X141617292Y-57303740D02*
X141922054Y-57303740D01*
X141922054Y-57303740D02*
X141998244Y-57341835D01*
X141998244Y-57341835D02*
X142036339Y-57379930D01*
X142036339Y-57379930D02*
X142074435Y-57456121D01*
X142074435Y-57456121D02*
X142074435Y-57570406D01*
X142074435Y-57570406D02*
X142036339Y-57646597D01*
X142036339Y-57646597D02*
X141998244Y-57684692D01*
X141998244Y-57684692D02*
X141922054Y-57722787D01*
X141922054Y-57722787D02*
X141617292Y-57722787D01*
X142417292Y-58103740D02*
X142417292Y-57570406D01*
X142417292Y-57722787D02*
X142455387Y-57646597D01*
X142455387Y-57646597D02*
X142493482Y-57608502D01*
X142493482Y-57608502D02*
X142569673Y-57570406D01*
X142569673Y-57570406D02*
X142645863Y-57570406D01*
X142912530Y-58103740D02*
X142912530Y-57570406D01*
X142912530Y-57303740D02*
X142874434Y-57341835D01*
X142874434Y-57341835D02*
X142912530Y-57379930D01*
X142912530Y-57379930D02*
X142950625Y-57341835D01*
X142950625Y-57341835D02*
X142912530Y-57303740D01*
X142912530Y-57303740D02*
X142912530Y-57379930D01*
X143407767Y-58103740D02*
X143331577Y-58065645D01*
X143331577Y-58065645D02*
X143293482Y-58027549D01*
X143293482Y-58027549D02*
X143255386Y-57951359D01*
X143255386Y-57951359D02*
X143255386Y-57722787D01*
X143255386Y-57722787D02*
X143293482Y-57646597D01*
X143293482Y-57646597D02*
X143331577Y-57608502D01*
X143331577Y-57608502D02*
X143407767Y-57570406D01*
X143407767Y-57570406D02*
X143522053Y-57570406D01*
X143522053Y-57570406D02*
X143598244Y-57608502D01*
X143598244Y-57608502D02*
X143636339Y-57646597D01*
X143636339Y-57646597D02*
X143674434Y-57722787D01*
X143674434Y-57722787D02*
X143674434Y-57951359D01*
X143674434Y-57951359D02*
X143636339Y-58027549D01*
X143636339Y-58027549D02*
X143598244Y-58065645D01*
X143598244Y-58065645D02*
X143522053Y-58103740D01*
X143522053Y-58103740D02*
X143407767Y-58103740D01*
X144017292Y-58103740D02*
X144017292Y-57570406D01*
X144017292Y-57722787D02*
X144055387Y-57646597D01*
X144055387Y-57646597D02*
X144093482Y-57608502D01*
X144093482Y-57608502D02*
X144169673Y-57570406D01*
X144169673Y-57570406D02*
X144245863Y-57570406D01*
X144512530Y-58103740D02*
X144512530Y-57570406D01*
X144512530Y-57303740D02*
X144474434Y-57341835D01*
X144474434Y-57341835D02*
X144512530Y-57379930D01*
X144512530Y-57379930D02*
X144550625Y-57341835D01*
X144550625Y-57341835D02*
X144512530Y-57303740D01*
X144512530Y-57303740D02*
X144512530Y-57379930D01*
X145503006Y-58103740D02*
X145503006Y-57303740D01*
X145503006Y-57303740D02*
X145769672Y-57875168D01*
X145769672Y-57875168D02*
X146036339Y-57303740D01*
X146036339Y-57303740D02*
X146036339Y-58103740D01*
X146531577Y-58103740D02*
X146455387Y-58065645D01*
X146455387Y-58065645D02*
X146417292Y-58027549D01*
X146417292Y-58027549D02*
X146379196Y-57951359D01*
X146379196Y-57951359D02*
X146379196Y-57722787D01*
X146379196Y-57722787D02*
X146417292Y-57646597D01*
X146417292Y-57646597D02*
X146455387Y-57608502D01*
X146455387Y-57608502D02*
X146531577Y-57570406D01*
X146531577Y-57570406D02*
X146645863Y-57570406D01*
X146645863Y-57570406D02*
X146722054Y-57608502D01*
X146722054Y-57608502D02*
X146760149Y-57646597D01*
X146760149Y-57646597D02*
X146798244Y-57722787D01*
X146798244Y-57722787D02*
X146798244Y-57951359D01*
X146798244Y-57951359D02*
X146760149Y-58027549D01*
X146760149Y-58027549D02*
X146722054Y-58065645D01*
X146722054Y-58065645D02*
X146645863Y-58103740D01*
X146645863Y-58103740D02*
X146531577Y-58103740D01*
X147483959Y-58103740D02*
X147483959Y-57303740D01*
X147483959Y-58065645D02*
X147407768Y-58103740D01*
X147407768Y-58103740D02*
X147255387Y-58103740D01*
X147255387Y-58103740D02*
X147179197Y-58065645D01*
X147179197Y-58065645D02*
X147141102Y-58027549D01*
X147141102Y-58027549D02*
X147103006Y-57951359D01*
X147103006Y-57951359D02*
X147103006Y-57722787D01*
X147103006Y-57722787D02*
X147141102Y-57646597D01*
X147141102Y-57646597D02*
X147179197Y-57608502D01*
X147179197Y-57608502D02*
X147255387Y-57570406D01*
X147255387Y-57570406D02*
X147407768Y-57570406D01*
X147407768Y-57570406D02*
X147483959Y-57608502D01*
X148207769Y-57570406D02*
X148207769Y-58103740D01*
X147864912Y-57570406D02*
X147864912Y-57989454D01*
X147864912Y-57989454D02*
X147903007Y-58065645D01*
X147903007Y-58065645D02*
X147979197Y-58103740D01*
X147979197Y-58103740D02*
X148093483Y-58103740D01*
X148093483Y-58103740D02*
X148169674Y-58065645D01*
X148169674Y-58065645D02*
X148207769Y-58027549D01*
X148703007Y-58103740D02*
X148626817Y-58065645D01*
X148626817Y-58065645D02*
X148588722Y-57989454D01*
X148588722Y-57989454D02*
X148588722Y-57303740D01*
X149350627Y-58103740D02*
X149350627Y-57684692D01*
X149350627Y-57684692D02*
X149312532Y-57608502D01*
X149312532Y-57608502D02*
X149236341Y-57570406D01*
X149236341Y-57570406D02*
X149083960Y-57570406D01*
X149083960Y-57570406D02*
X149007770Y-57608502D01*
X149350627Y-58065645D02*
X149274436Y-58103740D01*
X149274436Y-58103740D02*
X149083960Y-58103740D01*
X149083960Y-58103740D02*
X149007770Y-58065645D01*
X149007770Y-58065645D02*
X148969674Y-57989454D01*
X148969674Y-57989454D02*
X148969674Y-57913264D01*
X148969674Y-57913264D02*
X149007770Y-57837073D01*
X149007770Y-57837073D02*
X149083960Y-57798978D01*
X149083960Y-57798978D02*
X149274436Y-57798978D01*
X149274436Y-57798978D02*
X149350627Y-57760883D01*
X149731580Y-58103740D02*
X149731580Y-57570406D01*
X149731580Y-57722787D02*
X149769675Y-57646597D01*
X149769675Y-57646597D02*
X149807770Y-57608502D01*
X149807770Y-57608502D02*
X149883961Y-57570406D01*
X149883961Y-57570406D02*
X149960151Y-57570406D01*
X140283958Y-58667885D02*
X140322054Y-58629790D01*
X140322054Y-58629790D02*
X140398244Y-58591695D01*
X140398244Y-58591695D02*
X140588720Y-58591695D01*
X140588720Y-58591695D02*
X140664911Y-58629790D01*
X140664911Y-58629790D02*
X140703006Y-58667885D01*
X140703006Y-58667885D02*
X140741101Y-58744076D01*
X140741101Y-58744076D02*
X140741101Y-58820266D01*
X140741101Y-58820266D02*
X140703006Y-58934552D01*
X140703006Y-58934552D02*
X140245863Y-59391695D01*
X140245863Y-59391695D02*
X140741101Y-59391695D01*
X141236340Y-58591695D02*
X141312530Y-58591695D01*
X141312530Y-58591695D02*
X141388721Y-58629790D01*
X141388721Y-58629790D02*
X141426816Y-58667885D01*
X141426816Y-58667885D02*
X141464911Y-58744076D01*
X141464911Y-58744076D02*
X141503006Y-58896457D01*
X141503006Y-58896457D02*
X141503006Y-59086933D01*
X141503006Y-59086933D02*
X141464911Y-59239314D01*
X141464911Y-59239314D02*
X141426816Y-59315504D01*
X141426816Y-59315504D02*
X141388721Y-59353600D01*
X141388721Y-59353600D02*
X141312530Y-59391695D01*
X141312530Y-59391695D02*
X141236340Y-59391695D01*
X141236340Y-59391695D02*
X141160149Y-59353600D01*
X141160149Y-59353600D02*
X141122054Y-59315504D01*
X141122054Y-59315504D02*
X141083959Y-59239314D01*
X141083959Y-59239314D02*
X141045863Y-59086933D01*
X141045863Y-59086933D02*
X141045863Y-58896457D01*
X141045863Y-58896457D02*
X141083959Y-58744076D01*
X141083959Y-58744076D02*
X141122054Y-58667885D01*
X141122054Y-58667885D02*
X141160149Y-58629790D01*
X141160149Y-58629790D02*
X141236340Y-58591695D01*
X141807768Y-58667885D02*
X141845864Y-58629790D01*
X141845864Y-58629790D02*
X141922054Y-58591695D01*
X141922054Y-58591695D02*
X142112530Y-58591695D01*
X142112530Y-58591695D02*
X142188721Y-58629790D01*
X142188721Y-58629790D02*
X142226816Y-58667885D01*
X142226816Y-58667885D02*
X142264911Y-58744076D01*
X142264911Y-58744076D02*
X142264911Y-58820266D01*
X142264911Y-58820266D02*
X142226816Y-58934552D01*
X142226816Y-58934552D02*
X141769673Y-59391695D01*
X141769673Y-59391695D02*
X142264911Y-59391695D01*
X142950626Y-58591695D02*
X142798245Y-58591695D01*
X142798245Y-58591695D02*
X142722054Y-58629790D01*
X142722054Y-58629790D02*
X142683959Y-58667885D01*
X142683959Y-58667885D02*
X142607769Y-58782171D01*
X142607769Y-58782171D02*
X142569673Y-58934552D01*
X142569673Y-58934552D02*
X142569673Y-59239314D01*
X142569673Y-59239314D02*
X142607769Y-59315504D01*
X142607769Y-59315504D02*
X142645864Y-59353600D01*
X142645864Y-59353600D02*
X142722054Y-59391695D01*
X142722054Y-59391695D02*
X142874435Y-59391695D01*
X142874435Y-59391695D02*
X142950626Y-59353600D01*
X142950626Y-59353600D02*
X142988721Y-59315504D01*
X142988721Y-59315504D02*
X143026816Y-59239314D01*
X143026816Y-59239314D02*
X143026816Y-59048838D01*
X143026816Y-59048838D02*
X142988721Y-58972647D01*
X142988721Y-58972647D02*
X142950626Y-58934552D01*
X142950626Y-58934552D02*
X142874435Y-58896457D01*
X142874435Y-58896457D02*
X142722054Y-58896457D01*
X142722054Y-58896457D02*
X142645864Y-58934552D01*
X142645864Y-58934552D02*
X142607769Y-58972647D01*
X142607769Y-58972647D02*
X142569673Y-59048838D01*
D11*
X168636666Y-118534819D02*
X168636666Y-119249104D01*
X168636666Y-119249104D02*
X168589047Y-119391961D01*
X168589047Y-119391961D02*
X168493809Y-119487200D01*
X168493809Y-119487200D02*
X168350952Y-119534819D01*
X168350952Y-119534819D02*
X168255714Y-119534819D01*
X169017619Y-118534819D02*
X169636666Y-118534819D01*
X169636666Y-118534819D02*
X169303333Y-118915771D01*
X169303333Y-118915771D02*
X169446190Y-118915771D01*
X169446190Y-118915771D02*
X169541428Y-118963390D01*
X169541428Y-118963390D02*
X169589047Y-119011009D01*
X169589047Y-119011009D02*
X169636666Y-119106247D01*
X169636666Y-119106247D02*
X169636666Y-119344342D01*
X169636666Y-119344342D02*
X169589047Y-119439580D01*
X169589047Y-119439580D02*
X169541428Y-119487200D01*
X169541428Y-119487200D02*
X169446190Y-119534819D01*
X169446190Y-119534819D02*
X169160476Y-119534819D01*
X169160476Y-119534819D02*
X169065238Y-119487200D01*
X169065238Y-119487200D02*
X169017619Y-119439580D01*
X175229047Y-118454819D02*
X174895714Y-117978628D01*
X174657619Y-118454819D02*
X174657619Y-117454819D01*
X174657619Y-117454819D02*
X175038571Y-117454819D01*
X175038571Y-117454819D02*
X175133809Y-117502438D01*
X175133809Y-117502438D02*
X175181428Y-117550057D01*
X175181428Y-117550057D02*
X175229047Y-117645295D01*
X175229047Y-117645295D02*
X175229047Y-117788152D01*
X175229047Y-117788152D02*
X175181428Y-117883390D01*
X175181428Y-117883390D02*
X175133809Y-117931009D01*
X175133809Y-117931009D02*
X175038571Y-117978628D01*
X175038571Y-117978628D02*
X174657619Y-117978628D01*
X175610000Y-118407200D02*
X175705238Y-118454819D01*
X175705238Y-118454819D02*
X175895714Y-118454819D01*
X175895714Y-118454819D02*
X175990952Y-118407200D01*
X175990952Y-118407200D02*
X176038571Y-118311961D01*
X176038571Y-118311961D02*
X176038571Y-118264342D01*
X176038571Y-118264342D02*
X175990952Y-118169104D01*
X175990952Y-118169104D02*
X175895714Y-118121485D01*
X175895714Y-118121485D02*
X175752857Y-118121485D01*
X175752857Y-118121485D02*
X175657619Y-118073866D01*
X175657619Y-118073866D02*
X175610000Y-117978628D01*
X175610000Y-117978628D02*
X175610000Y-117931009D01*
X175610000Y-117931009D02*
X175657619Y-117835771D01*
X175657619Y-117835771D02*
X175752857Y-117788152D01*
X175752857Y-117788152D02*
X175895714Y-117788152D01*
X175895714Y-117788152D02*
X175990952Y-117835771D01*
X176324286Y-117788152D02*
X176705238Y-117788152D01*
X176467143Y-117454819D02*
X176467143Y-118311961D01*
X176467143Y-118311961D02*
X176514762Y-118407200D01*
X176514762Y-118407200D02*
X176610000Y-118454819D01*
X176610000Y-118454819D02*
X176705238Y-118454819D01*
X140636666Y-147634819D02*
X140636666Y-148349104D01*
X140636666Y-148349104D02*
X140589047Y-148491961D01*
X140589047Y-148491961D02*
X140493809Y-148587200D01*
X140493809Y-148587200D02*
X140350952Y-148634819D01*
X140350952Y-148634819D02*
X140255714Y-148634819D01*
X141255714Y-148063390D02*
X141160476Y-148015771D01*
X141160476Y-148015771D02*
X141112857Y-147968152D01*
X141112857Y-147968152D02*
X141065238Y-147872914D01*
X141065238Y-147872914D02*
X141065238Y-147825295D01*
X141065238Y-147825295D02*
X141112857Y-147730057D01*
X141112857Y-147730057D02*
X141160476Y-147682438D01*
X141160476Y-147682438D02*
X141255714Y-147634819D01*
X141255714Y-147634819D02*
X141446190Y-147634819D01*
X141446190Y-147634819D02*
X141541428Y-147682438D01*
X141541428Y-147682438D02*
X141589047Y-147730057D01*
X141589047Y-147730057D02*
X141636666Y-147825295D01*
X141636666Y-147825295D02*
X141636666Y-147872914D01*
X141636666Y-147872914D02*
X141589047Y-147968152D01*
X141589047Y-147968152D02*
X141541428Y-148015771D01*
X141541428Y-148015771D02*
X141446190Y-148063390D01*
X141446190Y-148063390D02*
X141255714Y-148063390D01*
X141255714Y-148063390D02*
X141160476Y-148111009D01*
X141160476Y-148111009D02*
X141112857Y-148158628D01*
X141112857Y-148158628D02*
X141065238Y-148253866D01*
X141065238Y-148253866D02*
X141065238Y-148444342D01*
X141065238Y-148444342D02*
X141112857Y-148539580D01*
X141112857Y-148539580D02*
X141160476Y-148587200D01*
X141160476Y-148587200D02*
X141255714Y-148634819D01*
X141255714Y-148634819D02*
X141446190Y-148634819D01*
X141446190Y-148634819D02*
X141541428Y-148587200D01*
X141541428Y-148587200D02*
X141589047Y-148539580D01*
X141589047Y-148539580D02*
X141636666Y-148444342D01*
X141636666Y-148444342D02*
X141636666Y-148253866D01*
X141636666Y-148253866D02*
X141589047Y-148158628D01*
X141589047Y-148158628D02*
X141541428Y-148111009D01*
X141541428Y-148111009D02*
X141446190Y-148063390D01*
X146990952Y-147359580D02*
X146943333Y-147407200D01*
X146943333Y-147407200D02*
X146800476Y-147454819D01*
X146800476Y-147454819D02*
X146705238Y-147454819D01*
X146705238Y-147454819D02*
X146562381Y-147407200D01*
X146562381Y-147407200D02*
X146467143Y-147311961D01*
X146467143Y-147311961D02*
X146419524Y-147216723D01*
X146419524Y-147216723D02*
X146371905Y-147026247D01*
X146371905Y-147026247D02*
X146371905Y-146883390D01*
X146371905Y-146883390D02*
X146419524Y-146692914D01*
X146419524Y-146692914D02*
X146467143Y-146597676D01*
X146467143Y-146597676D02*
X146562381Y-146502438D01*
X146562381Y-146502438D02*
X146705238Y-146454819D01*
X146705238Y-146454819D02*
X146800476Y-146454819D01*
X146800476Y-146454819D02*
X146943333Y-146502438D01*
X146943333Y-146502438D02*
X146990952Y-146550057D01*
X147419524Y-147454819D02*
X147419524Y-146454819D01*
X147848095Y-147454819D02*
X147848095Y-146931009D01*
X147848095Y-146931009D02*
X147800476Y-146835771D01*
X147800476Y-146835771D02*
X147705238Y-146788152D01*
X147705238Y-146788152D02*
X147562381Y-146788152D01*
X147562381Y-146788152D02*
X147467143Y-146835771D01*
X147467143Y-146835771D02*
X147419524Y-146883390D01*
X148752857Y-146788152D02*
X148752857Y-147454819D01*
X148514762Y-146407200D02*
X148276667Y-147121485D01*
X148276667Y-147121485D02*
X148895714Y-147121485D01*
X146261905Y-105454819D02*
X146261905Y-104454819D01*
X146261905Y-104454819D02*
X146500000Y-104454819D01*
X146500000Y-104454819D02*
X146642857Y-104502438D01*
X146642857Y-104502438D02*
X146738095Y-104597676D01*
X146738095Y-104597676D02*
X146785714Y-104692914D01*
X146785714Y-104692914D02*
X146833333Y-104883390D01*
X146833333Y-104883390D02*
X146833333Y-105026247D01*
X146833333Y-105026247D02*
X146785714Y-105216723D01*
X146785714Y-105216723D02*
X146738095Y-105311961D01*
X146738095Y-105311961D02*
X146642857Y-105407200D01*
X146642857Y-105407200D02*
X146500000Y-105454819D01*
X146500000Y-105454819D02*
X146261905Y-105454819D01*
X147214286Y-104550057D02*
X147261905Y-104502438D01*
X147261905Y-104502438D02*
X147357143Y-104454819D01*
X147357143Y-104454819D02*
X147595238Y-104454819D01*
X147595238Y-104454819D02*
X147690476Y-104502438D01*
X147690476Y-104502438D02*
X147738095Y-104550057D01*
X147738095Y-104550057D02*
X147785714Y-104645295D01*
X147785714Y-104645295D02*
X147785714Y-104740533D01*
X147785714Y-104740533D02*
X147738095Y-104883390D01*
X147738095Y-104883390D02*
X147166667Y-105454819D01*
X147166667Y-105454819D02*
X147785714Y-105454819D01*
X148147618Y-102443247D02*
X148261904Y-102481342D01*
X148261904Y-102481342D02*
X148299999Y-102519438D01*
X148299999Y-102519438D02*
X148338095Y-102595628D01*
X148338095Y-102595628D02*
X148338095Y-102709914D01*
X148338095Y-102709914D02*
X148299999Y-102786104D01*
X148299999Y-102786104D02*
X148261904Y-102824200D01*
X148261904Y-102824200D02*
X148185714Y-102862295D01*
X148185714Y-102862295D02*
X147880952Y-102862295D01*
X147880952Y-102862295D02*
X147880952Y-102062295D01*
X147880952Y-102062295D02*
X148147618Y-102062295D01*
X148147618Y-102062295D02*
X148223809Y-102100390D01*
X148223809Y-102100390D02*
X148261904Y-102138485D01*
X148261904Y-102138485D02*
X148299999Y-102214676D01*
X148299999Y-102214676D02*
X148299999Y-102290866D01*
X148299999Y-102290866D02*
X148261904Y-102367057D01*
X148261904Y-102367057D02*
X148223809Y-102405152D01*
X148223809Y-102405152D02*
X148147618Y-102443247D01*
X148147618Y-102443247D02*
X147880952Y-102443247D01*
X148642856Y-102633723D02*
X149023809Y-102633723D01*
X148566666Y-102862295D02*
X148833333Y-102062295D01*
X148833333Y-102062295D02*
X149099999Y-102862295D01*
X149252380Y-102062295D02*
X149709523Y-102062295D01*
X149480951Y-102862295D02*
X149480951Y-102062295D01*
X150090475Y-102405152D02*
X150014285Y-102367057D01*
X150014285Y-102367057D02*
X149976190Y-102328961D01*
X149976190Y-102328961D02*
X149938094Y-102252771D01*
X149938094Y-102252771D02*
X149938094Y-102214676D01*
X149938094Y-102214676D02*
X149976190Y-102138485D01*
X149976190Y-102138485D02*
X150014285Y-102100390D01*
X150014285Y-102100390D02*
X150090475Y-102062295D01*
X150090475Y-102062295D02*
X150242856Y-102062295D01*
X150242856Y-102062295D02*
X150319047Y-102100390D01*
X150319047Y-102100390D02*
X150357142Y-102138485D01*
X150357142Y-102138485D02*
X150395237Y-102214676D01*
X150395237Y-102214676D02*
X150395237Y-102252771D01*
X150395237Y-102252771D02*
X150357142Y-102328961D01*
X150357142Y-102328961D02*
X150319047Y-102367057D01*
X150319047Y-102367057D02*
X150242856Y-102405152D01*
X150242856Y-102405152D02*
X150090475Y-102405152D01*
X150090475Y-102405152D02*
X150014285Y-102443247D01*
X150014285Y-102443247D02*
X149976190Y-102481342D01*
X149976190Y-102481342D02*
X149938094Y-102557533D01*
X149938094Y-102557533D02*
X149938094Y-102709914D01*
X149938094Y-102709914D02*
X149976190Y-102786104D01*
X149976190Y-102786104D02*
X150014285Y-102824200D01*
X150014285Y-102824200D02*
X150090475Y-102862295D01*
X150090475Y-102862295D02*
X150242856Y-102862295D01*
X150242856Y-102862295D02*
X150319047Y-102824200D01*
X150319047Y-102824200D02*
X150357142Y-102786104D01*
X150357142Y-102786104D02*
X150395237Y-102709914D01*
X150395237Y-102709914D02*
X150395237Y-102557533D01*
X150395237Y-102557533D02*
X150357142Y-102481342D01*
X150357142Y-102481342D02*
X150319047Y-102443247D01*
X150319047Y-102443247D02*
X150242856Y-102405152D01*
X151119047Y-102062295D02*
X150738095Y-102062295D01*
X150738095Y-102062295D02*
X150699999Y-102443247D01*
X150699999Y-102443247D02*
X150738095Y-102405152D01*
X150738095Y-102405152D02*
X150814285Y-102367057D01*
X150814285Y-102367057D02*
X151004761Y-102367057D01*
X151004761Y-102367057D02*
X151080952Y-102405152D01*
X151080952Y-102405152D02*
X151119047Y-102443247D01*
X151119047Y-102443247D02*
X151157142Y-102519438D01*
X151157142Y-102519438D02*
X151157142Y-102709914D01*
X151157142Y-102709914D02*
X151119047Y-102786104D01*
X151119047Y-102786104D02*
X151080952Y-102824200D01*
X151080952Y-102824200D02*
X151004761Y-102862295D01*
X151004761Y-102862295D02*
X150814285Y-102862295D01*
X150814285Y-102862295D02*
X150738095Y-102824200D01*
X150738095Y-102824200D02*
X150699999Y-102786104D01*
X145761905Y-97454819D02*
X145761905Y-96454819D01*
X145761905Y-96454819D02*
X146000000Y-96454819D01*
X146000000Y-96454819D02*
X146142857Y-96502438D01*
X146142857Y-96502438D02*
X146238095Y-96597676D01*
X146238095Y-96597676D02*
X146285714Y-96692914D01*
X146285714Y-96692914D02*
X146333333Y-96883390D01*
X146333333Y-96883390D02*
X146333333Y-97026247D01*
X146333333Y-97026247D02*
X146285714Y-97216723D01*
X146285714Y-97216723D02*
X146238095Y-97311961D01*
X146238095Y-97311961D02*
X146142857Y-97407200D01*
X146142857Y-97407200D02*
X146000000Y-97454819D01*
X146000000Y-97454819D02*
X145761905Y-97454819D01*
X147285714Y-97454819D02*
X146714286Y-97454819D01*
X147000000Y-97454819D02*
X147000000Y-96454819D01*
X147000000Y-96454819D02*
X146904762Y-96597676D01*
X146904762Y-96597676D02*
X146809524Y-96692914D01*
X146809524Y-96692914D02*
X146714286Y-96740533D01*
X148147618Y-98943247D02*
X148261904Y-98981342D01*
X148261904Y-98981342D02*
X148299999Y-99019438D01*
X148299999Y-99019438D02*
X148338095Y-99095628D01*
X148338095Y-99095628D02*
X148338095Y-99209914D01*
X148338095Y-99209914D02*
X148299999Y-99286104D01*
X148299999Y-99286104D02*
X148261904Y-99324200D01*
X148261904Y-99324200D02*
X148185714Y-99362295D01*
X148185714Y-99362295D02*
X147880952Y-99362295D01*
X147880952Y-99362295D02*
X147880952Y-98562295D01*
X147880952Y-98562295D02*
X148147618Y-98562295D01*
X148147618Y-98562295D02*
X148223809Y-98600390D01*
X148223809Y-98600390D02*
X148261904Y-98638485D01*
X148261904Y-98638485D02*
X148299999Y-98714676D01*
X148299999Y-98714676D02*
X148299999Y-98790866D01*
X148299999Y-98790866D02*
X148261904Y-98867057D01*
X148261904Y-98867057D02*
X148223809Y-98905152D01*
X148223809Y-98905152D02*
X148147618Y-98943247D01*
X148147618Y-98943247D02*
X147880952Y-98943247D01*
X148642856Y-99133723D02*
X149023809Y-99133723D01*
X148566666Y-99362295D02*
X148833333Y-98562295D01*
X148833333Y-98562295D02*
X149099999Y-99362295D01*
X149252380Y-98562295D02*
X149709523Y-98562295D01*
X149480951Y-99362295D02*
X149480951Y-98562295D01*
X150090475Y-98905152D02*
X150014285Y-98867057D01*
X150014285Y-98867057D02*
X149976190Y-98828961D01*
X149976190Y-98828961D02*
X149938094Y-98752771D01*
X149938094Y-98752771D02*
X149938094Y-98714676D01*
X149938094Y-98714676D02*
X149976190Y-98638485D01*
X149976190Y-98638485D02*
X150014285Y-98600390D01*
X150014285Y-98600390D02*
X150090475Y-98562295D01*
X150090475Y-98562295D02*
X150242856Y-98562295D01*
X150242856Y-98562295D02*
X150319047Y-98600390D01*
X150319047Y-98600390D02*
X150357142Y-98638485D01*
X150357142Y-98638485D02*
X150395237Y-98714676D01*
X150395237Y-98714676D02*
X150395237Y-98752771D01*
X150395237Y-98752771D02*
X150357142Y-98828961D01*
X150357142Y-98828961D02*
X150319047Y-98867057D01*
X150319047Y-98867057D02*
X150242856Y-98905152D01*
X150242856Y-98905152D02*
X150090475Y-98905152D01*
X150090475Y-98905152D02*
X150014285Y-98943247D01*
X150014285Y-98943247D02*
X149976190Y-98981342D01*
X149976190Y-98981342D02*
X149938094Y-99057533D01*
X149938094Y-99057533D02*
X149938094Y-99209914D01*
X149938094Y-99209914D02*
X149976190Y-99286104D01*
X149976190Y-99286104D02*
X150014285Y-99324200D01*
X150014285Y-99324200D02*
X150090475Y-99362295D01*
X150090475Y-99362295D02*
X150242856Y-99362295D01*
X150242856Y-99362295D02*
X150319047Y-99324200D01*
X150319047Y-99324200D02*
X150357142Y-99286104D01*
X150357142Y-99286104D02*
X150395237Y-99209914D01*
X150395237Y-99209914D02*
X150395237Y-99057533D01*
X150395237Y-99057533D02*
X150357142Y-98981342D01*
X150357142Y-98981342D02*
X150319047Y-98943247D01*
X150319047Y-98943247D02*
X150242856Y-98905152D01*
X151119047Y-98562295D02*
X150738095Y-98562295D01*
X150738095Y-98562295D02*
X150699999Y-98943247D01*
X150699999Y-98943247D02*
X150738095Y-98905152D01*
X150738095Y-98905152D02*
X150814285Y-98867057D01*
X150814285Y-98867057D02*
X151004761Y-98867057D01*
X151004761Y-98867057D02*
X151080952Y-98905152D01*
X151080952Y-98905152D02*
X151119047Y-98943247D01*
X151119047Y-98943247D02*
X151157142Y-99019438D01*
X151157142Y-99019438D02*
X151157142Y-99209914D01*
X151157142Y-99209914D02*
X151119047Y-99286104D01*
X151119047Y-99286104D02*
X151080952Y-99324200D01*
X151080952Y-99324200D02*
X151004761Y-99362295D01*
X151004761Y-99362295D02*
X150814285Y-99362295D01*
X150814285Y-99362295D02*
X150738095Y-99324200D01*
X150738095Y-99324200D02*
X150699999Y-99286104D01*
X154636666Y-133134819D02*
X154636666Y-133849104D01*
X154636666Y-133849104D02*
X154589047Y-133991961D01*
X154589047Y-133991961D02*
X154493809Y-134087200D01*
X154493809Y-134087200D02*
X154350952Y-134134819D01*
X154350952Y-134134819D02*
X154255714Y-134134819D01*
X155541428Y-133134819D02*
X155350952Y-133134819D01*
X155350952Y-133134819D02*
X155255714Y-133182438D01*
X155255714Y-133182438D02*
X155208095Y-133230057D01*
X155208095Y-133230057D02*
X155112857Y-133372914D01*
X155112857Y-133372914D02*
X155065238Y-133563390D01*
X155065238Y-133563390D02*
X155065238Y-133944342D01*
X155065238Y-133944342D02*
X155112857Y-134039580D01*
X155112857Y-134039580D02*
X155160476Y-134087200D01*
X155160476Y-134087200D02*
X155255714Y-134134819D01*
X155255714Y-134134819D02*
X155446190Y-134134819D01*
X155446190Y-134134819D02*
X155541428Y-134087200D01*
X155541428Y-134087200D02*
X155589047Y-134039580D01*
X155589047Y-134039580D02*
X155636666Y-133944342D01*
X155636666Y-133944342D02*
X155636666Y-133706247D01*
X155636666Y-133706247D02*
X155589047Y-133611009D01*
X155589047Y-133611009D02*
X155541428Y-133563390D01*
X155541428Y-133563390D02*
X155446190Y-133515771D01*
X155446190Y-133515771D02*
X155255714Y-133515771D01*
X155255714Y-133515771D02*
X155160476Y-133563390D01*
X155160476Y-133563390D02*
X155112857Y-133611009D01*
X155112857Y-133611009D02*
X155065238Y-133706247D01*
X160880952Y-132859580D02*
X160833333Y-132907200D01*
X160833333Y-132907200D02*
X160690476Y-132954819D01*
X160690476Y-132954819D02*
X160595238Y-132954819D01*
X160595238Y-132954819D02*
X160452381Y-132907200D01*
X160452381Y-132907200D02*
X160357143Y-132811961D01*
X160357143Y-132811961D02*
X160309524Y-132716723D01*
X160309524Y-132716723D02*
X160261905Y-132526247D01*
X160261905Y-132526247D02*
X160261905Y-132383390D01*
X160261905Y-132383390D02*
X160309524Y-132192914D01*
X160309524Y-132192914D02*
X160357143Y-132097676D01*
X160357143Y-132097676D02*
X160452381Y-132002438D01*
X160452381Y-132002438D02*
X160595238Y-131954819D01*
X160595238Y-131954819D02*
X160690476Y-131954819D01*
X160690476Y-131954819D02*
X160833333Y-132002438D01*
X160833333Y-132002438D02*
X160880952Y-132050057D01*
X161309524Y-132954819D02*
X161309524Y-131954819D01*
X161738095Y-132954819D02*
X161738095Y-132431009D01*
X161738095Y-132431009D02*
X161690476Y-132335771D01*
X161690476Y-132335771D02*
X161595238Y-132288152D01*
X161595238Y-132288152D02*
X161452381Y-132288152D01*
X161452381Y-132288152D02*
X161357143Y-132335771D01*
X161357143Y-132335771D02*
X161309524Y-132383390D01*
X162166667Y-132050057D02*
X162214286Y-132002438D01*
X162214286Y-132002438D02*
X162309524Y-131954819D01*
X162309524Y-131954819D02*
X162547619Y-131954819D01*
X162547619Y-131954819D02*
X162642857Y-132002438D01*
X162642857Y-132002438D02*
X162690476Y-132050057D01*
X162690476Y-132050057D02*
X162738095Y-132145295D01*
X162738095Y-132145295D02*
X162738095Y-132240533D01*
X162738095Y-132240533D02*
X162690476Y-132383390D01*
X162690476Y-132383390D02*
X162119048Y-132954819D01*
X162119048Y-132954819D02*
X162738095Y-132954819D01*
X143833333Y-111359580D02*
X143785714Y-111407200D01*
X143785714Y-111407200D02*
X143642857Y-111454819D01*
X143642857Y-111454819D02*
X143547619Y-111454819D01*
X143547619Y-111454819D02*
X143404762Y-111407200D01*
X143404762Y-111407200D02*
X143309524Y-111311961D01*
X143309524Y-111311961D02*
X143261905Y-111216723D01*
X143261905Y-111216723D02*
X143214286Y-111026247D01*
X143214286Y-111026247D02*
X143214286Y-110883390D01*
X143214286Y-110883390D02*
X143261905Y-110692914D01*
X143261905Y-110692914D02*
X143309524Y-110597676D01*
X143309524Y-110597676D02*
X143404762Y-110502438D01*
X143404762Y-110502438D02*
X143547619Y-110454819D01*
X143547619Y-110454819D02*
X143642857Y-110454819D01*
X143642857Y-110454819D02*
X143785714Y-110502438D01*
X143785714Y-110502438D02*
X143833333Y-110550057D01*
X144166667Y-110454819D02*
X144785714Y-110454819D01*
X144785714Y-110454819D02*
X144452381Y-110835771D01*
X144452381Y-110835771D02*
X144595238Y-110835771D01*
X144595238Y-110835771D02*
X144690476Y-110883390D01*
X144690476Y-110883390D02*
X144738095Y-110931009D01*
X144738095Y-110931009D02*
X144785714Y-111026247D01*
X144785714Y-111026247D02*
X144785714Y-111264342D01*
X144785714Y-111264342D02*
X144738095Y-111359580D01*
X144738095Y-111359580D02*
X144690476Y-111407200D01*
X144690476Y-111407200D02*
X144595238Y-111454819D01*
X144595238Y-111454819D02*
X144309524Y-111454819D01*
X144309524Y-111454819D02*
X144214286Y-111407200D01*
X144214286Y-111407200D02*
X144166667Y-111359580D01*
X144357142Y-112454819D02*
X143785714Y-112454819D01*
X144071428Y-112454819D02*
X144071428Y-111454819D01*
X144071428Y-111454819D02*
X143976190Y-111597676D01*
X143976190Y-111597676D02*
X143880952Y-111692914D01*
X143880952Y-111692914D02*
X143785714Y-111740533D01*
X144976190Y-111454819D02*
X145071428Y-111454819D01*
X145071428Y-111454819D02*
X145166666Y-111502438D01*
X145166666Y-111502438D02*
X145214285Y-111550057D01*
X145214285Y-111550057D02*
X145261904Y-111645295D01*
X145261904Y-111645295D02*
X145309523Y-111835771D01*
X145309523Y-111835771D02*
X145309523Y-112073866D01*
X145309523Y-112073866D02*
X145261904Y-112264342D01*
X145261904Y-112264342D02*
X145214285Y-112359580D01*
X145214285Y-112359580D02*
X145166666Y-112407200D01*
X145166666Y-112407200D02*
X145071428Y-112454819D01*
X145071428Y-112454819D02*
X144976190Y-112454819D01*
X144976190Y-112454819D02*
X144880952Y-112407200D01*
X144880952Y-112407200D02*
X144833333Y-112359580D01*
X144833333Y-112359580D02*
X144785714Y-112264342D01*
X144785714Y-112264342D02*
X144738095Y-112073866D01*
X144738095Y-112073866D02*
X144738095Y-111835771D01*
X144738095Y-111835771D02*
X144785714Y-111645295D01*
X144785714Y-111645295D02*
X144833333Y-111550057D01*
X144833333Y-111550057D02*
X144880952Y-111502438D01*
X144880952Y-111502438D02*
X144976190Y-111454819D01*
X145738095Y-111788152D02*
X145738095Y-112454819D01*
X145738095Y-111883390D02*
X145785714Y-111835771D01*
X145785714Y-111835771D02*
X145880952Y-111788152D01*
X145880952Y-111788152D02*
X146023809Y-111788152D01*
X146023809Y-111788152D02*
X146119047Y-111835771D01*
X146119047Y-111835771D02*
X146166666Y-111931009D01*
X146166666Y-111931009D02*
X146166666Y-112454819D01*
X140636666Y-118634819D02*
X140636666Y-119349104D01*
X140636666Y-119349104D02*
X140589047Y-119491961D01*
X140589047Y-119491961D02*
X140493809Y-119587200D01*
X140493809Y-119587200D02*
X140350952Y-119634819D01*
X140350952Y-119634819D02*
X140255714Y-119634819D01*
X141636666Y-119634819D02*
X141065238Y-119634819D01*
X141350952Y-119634819D02*
X141350952Y-118634819D01*
X141350952Y-118634819D02*
X141255714Y-118777676D01*
X141255714Y-118777676D02*
X141160476Y-118872914D01*
X141160476Y-118872914D02*
X141065238Y-118920533D01*
X142047618Y-118089580D02*
X141999999Y-118137200D01*
X141999999Y-118137200D02*
X141857142Y-118184819D01*
X141857142Y-118184819D02*
X141761904Y-118184819D01*
X141761904Y-118184819D02*
X141619047Y-118137200D01*
X141619047Y-118137200D02*
X141523809Y-118041961D01*
X141523809Y-118041961D02*
X141476190Y-117946723D01*
X141476190Y-117946723D02*
X141428571Y-117756247D01*
X141428571Y-117756247D02*
X141428571Y-117613390D01*
X141428571Y-117613390D02*
X141476190Y-117422914D01*
X141476190Y-117422914D02*
X141523809Y-117327676D01*
X141523809Y-117327676D02*
X141619047Y-117232438D01*
X141619047Y-117232438D02*
X141761904Y-117184819D01*
X141761904Y-117184819D02*
X141857142Y-117184819D01*
X141857142Y-117184819D02*
X141999999Y-117232438D01*
X141999999Y-117232438D02*
X142047618Y-117280057D01*
X142619047Y-118184819D02*
X142523809Y-118137200D01*
X142523809Y-118137200D02*
X142476190Y-118041961D01*
X142476190Y-118041961D02*
X142476190Y-117184819D01*
X143000000Y-118184819D02*
X143000000Y-117184819D01*
X143095238Y-117803866D02*
X143380952Y-118184819D01*
X143380952Y-117518152D02*
X143000000Y-117899104D01*
X147619049Y-118184819D02*
X147619049Y-117518152D01*
X147619049Y-117184819D02*
X147571430Y-117232438D01*
X147571430Y-117232438D02*
X147619049Y-117280057D01*
X147619049Y-117280057D02*
X147666668Y-117232438D01*
X147666668Y-117232438D02*
X147619049Y-117184819D01*
X147619049Y-117184819D02*
X147619049Y-117280057D01*
X148095239Y-117518152D02*
X148095239Y-118184819D01*
X148095239Y-117613390D02*
X148142858Y-117565771D01*
X148142858Y-117565771D02*
X148238096Y-117518152D01*
X148238096Y-117518152D02*
X148380953Y-117518152D01*
X148380953Y-117518152D02*
X148476191Y-117565771D01*
X148476191Y-117565771D02*
X148523810Y-117661009D01*
X148523810Y-117661009D02*
X148523810Y-118184819D01*
X153416667Y-106857200D02*
X153559524Y-106904819D01*
X153559524Y-106904819D02*
X153797619Y-106904819D01*
X153797619Y-106904819D02*
X153892857Y-106857200D01*
X153892857Y-106857200D02*
X153940476Y-106809580D01*
X153940476Y-106809580D02*
X153988095Y-106714342D01*
X153988095Y-106714342D02*
X153988095Y-106619104D01*
X153988095Y-106619104D02*
X153940476Y-106523866D01*
X153940476Y-106523866D02*
X153892857Y-106476247D01*
X153892857Y-106476247D02*
X153797619Y-106428628D01*
X153797619Y-106428628D02*
X153607143Y-106381009D01*
X153607143Y-106381009D02*
X153511905Y-106333390D01*
X153511905Y-106333390D02*
X153464286Y-106285771D01*
X153464286Y-106285771D02*
X153416667Y-106190533D01*
X153416667Y-106190533D02*
X153416667Y-106095295D01*
X153416667Y-106095295D02*
X153464286Y-106000057D01*
X153464286Y-106000057D02*
X153511905Y-105952438D01*
X153511905Y-105952438D02*
X153607143Y-105904819D01*
X153607143Y-105904819D02*
X153845238Y-105904819D01*
X153845238Y-105904819D02*
X153988095Y-105952438D01*
X154321429Y-105904819D02*
X154559524Y-106904819D01*
X154559524Y-106904819D02*
X154750000Y-106190533D01*
X154750000Y-106190533D02*
X154940476Y-106904819D01*
X154940476Y-106904819D02*
X155178572Y-105904819D01*
X155511905Y-106000057D02*
X155559524Y-105952438D01*
X155559524Y-105952438D02*
X155654762Y-105904819D01*
X155654762Y-105904819D02*
X155892857Y-105904819D01*
X155892857Y-105904819D02*
X155988095Y-105952438D01*
X155988095Y-105952438D02*
X156035714Y-106000057D01*
X156035714Y-106000057D02*
X156083333Y-106095295D01*
X156083333Y-106095295D02*
X156083333Y-106190533D01*
X156083333Y-106190533D02*
X156035714Y-106333390D01*
X156035714Y-106333390D02*
X155464286Y-106904819D01*
X155464286Y-106904819D02*
X156083333Y-106904819D01*
X153166667Y-111407200D02*
X153309524Y-111454819D01*
X153309524Y-111454819D02*
X153547619Y-111454819D01*
X153547619Y-111454819D02*
X153642857Y-111407200D01*
X153642857Y-111407200D02*
X153690476Y-111359580D01*
X153690476Y-111359580D02*
X153738095Y-111264342D01*
X153738095Y-111264342D02*
X153738095Y-111169104D01*
X153738095Y-111169104D02*
X153690476Y-111073866D01*
X153690476Y-111073866D02*
X153642857Y-111026247D01*
X153642857Y-111026247D02*
X153547619Y-110978628D01*
X153547619Y-110978628D02*
X153357143Y-110931009D01*
X153357143Y-110931009D02*
X153261905Y-110883390D01*
X153261905Y-110883390D02*
X153214286Y-110835771D01*
X153214286Y-110835771D02*
X153166667Y-110740533D01*
X153166667Y-110740533D02*
X153166667Y-110645295D01*
X153166667Y-110645295D02*
X153214286Y-110550057D01*
X153214286Y-110550057D02*
X153261905Y-110502438D01*
X153261905Y-110502438D02*
X153357143Y-110454819D01*
X153357143Y-110454819D02*
X153595238Y-110454819D01*
X153595238Y-110454819D02*
X153738095Y-110502438D01*
X154071429Y-110454819D02*
X154309524Y-111454819D01*
X154309524Y-111454819D02*
X154500000Y-110740533D01*
X154500000Y-110740533D02*
X154690476Y-111454819D01*
X154690476Y-111454819D02*
X154928572Y-110454819D01*
X155261905Y-110550057D02*
X155309524Y-110502438D01*
X155309524Y-110502438D02*
X155404762Y-110454819D01*
X155404762Y-110454819D02*
X155642857Y-110454819D01*
X155642857Y-110454819D02*
X155738095Y-110502438D01*
X155738095Y-110502438D02*
X155785714Y-110550057D01*
X155785714Y-110550057D02*
X155833333Y-110645295D01*
X155833333Y-110645295D02*
X155833333Y-110740533D01*
X155833333Y-110740533D02*
X155785714Y-110883390D01*
X155785714Y-110883390D02*
X155214286Y-111454819D01*
X155214286Y-111454819D02*
X155833333Y-111454819D01*
X176954819Y-85666666D02*
X176478628Y-85999999D01*
X176954819Y-86238094D02*
X175954819Y-86238094D01*
X175954819Y-86238094D02*
X175954819Y-85857142D01*
X175954819Y-85857142D02*
X176002438Y-85761904D01*
X176002438Y-85761904D02*
X176050057Y-85714285D01*
X176050057Y-85714285D02*
X176145295Y-85666666D01*
X176145295Y-85666666D02*
X176288152Y-85666666D01*
X176288152Y-85666666D02*
X176383390Y-85714285D01*
X176383390Y-85714285D02*
X176431009Y-85761904D01*
X176431009Y-85761904D02*
X176478628Y-85857142D01*
X176478628Y-85857142D02*
X176478628Y-86238094D01*
X175954819Y-84761904D02*
X175954819Y-85238094D01*
X175954819Y-85238094D02*
X176431009Y-85285713D01*
X176431009Y-85285713D02*
X176383390Y-85238094D01*
X176383390Y-85238094D02*
X176335771Y-85142856D01*
X176335771Y-85142856D02*
X176335771Y-84904761D01*
X176335771Y-84904761D02*
X176383390Y-84809523D01*
X176383390Y-84809523D02*
X176431009Y-84761904D01*
X176431009Y-84761904D02*
X176526247Y-84714285D01*
X176526247Y-84714285D02*
X176764342Y-84714285D01*
X176764342Y-84714285D02*
X176859580Y-84761904D01*
X176859580Y-84761904D02*
X176907200Y-84809523D01*
X176907200Y-84809523D02*
X176954819Y-84904761D01*
X176954819Y-84904761D02*
X176954819Y-85142856D01*
X176954819Y-85142856D02*
X176907200Y-85238094D01*
X176907200Y-85238094D02*
X176859580Y-85285713D01*
X177454819Y-83476666D02*
X176978628Y-83809999D01*
X177454819Y-84048094D02*
X176454819Y-84048094D01*
X176454819Y-84048094D02*
X176454819Y-83667142D01*
X176454819Y-83667142D02*
X176502438Y-83571904D01*
X176502438Y-83571904D02*
X176550057Y-83524285D01*
X176550057Y-83524285D02*
X176645295Y-83476666D01*
X176645295Y-83476666D02*
X176788152Y-83476666D01*
X176788152Y-83476666D02*
X176883390Y-83524285D01*
X176883390Y-83524285D02*
X176931009Y-83571904D01*
X176931009Y-83571904D02*
X176978628Y-83667142D01*
X176978628Y-83667142D02*
X176978628Y-84048094D01*
X176454819Y-82571904D02*
X176454819Y-83048094D01*
X176454819Y-83048094D02*
X176931009Y-83095713D01*
X176931009Y-83095713D02*
X176883390Y-83048094D01*
X176883390Y-83048094D02*
X176835771Y-82952856D01*
X176835771Y-82952856D02*
X176835771Y-82714761D01*
X176835771Y-82714761D02*
X176883390Y-82619523D01*
X176883390Y-82619523D02*
X176931009Y-82571904D01*
X176931009Y-82571904D02*
X177026247Y-82524285D01*
X177026247Y-82524285D02*
X177264342Y-82524285D01*
X177264342Y-82524285D02*
X177359580Y-82571904D01*
X177359580Y-82571904D02*
X177407200Y-82619523D01*
X177407200Y-82619523D02*
X177454819Y-82714761D01*
X177454819Y-82714761D02*
X177454819Y-82952856D01*
X177454819Y-82952856D02*
X177407200Y-83048094D01*
X177407200Y-83048094D02*
X177359580Y-83095713D01*
X165954819Y-126166666D02*
X165478628Y-126499999D01*
X165954819Y-126738094D02*
X164954819Y-126738094D01*
X164954819Y-126738094D02*
X164954819Y-126357142D01*
X164954819Y-126357142D02*
X165002438Y-126261904D01*
X165002438Y-126261904D02*
X165050057Y-126214285D01*
X165050057Y-126214285D02*
X165145295Y-126166666D01*
X165145295Y-126166666D02*
X165288152Y-126166666D01*
X165288152Y-126166666D02*
X165383390Y-126214285D01*
X165383390Y-126214285D02*
X165431009Y-126261904D01*
X165431009Y-126261904D02*
X165478628Y-126357142D01*
X165478628Y-126357142D02*
X165478628Y-126738094D01*
X165050057Y-125785713D02*
X165002438Y-125738094D01*
X165002438Y-125738094D02*
X164954819Y-125642856D01*
X164954819Y-125642856D02*
X164954819Y-125404761D01*
X164954819Y-125404761D02*
X165002438Y-125309523D01*
X165002438Y-125309523D02*
X165050057Y-125261904D01*
X165050057Y-125261904D02*
X165145295Y-125214285D01*
X165145295Y-125214285D02*
X165240533Y-125214285D01*
X165240533Y-125214285D02*
X165383390Y-125261904D01*
X165383390Y-125261904D02*
X165954819Y-125833332D01*
X165954819Y-125833332D02*
X165954819Y-125214285D01*
X166954819Y-124190476D02*
X166954819Y-124761904D01*
X166954819Y-124476190D02*
X165954819Y-124476190D01*
X165954819Y-124476190D02*
X166097676Y-124571428D01*
X166097676Y-124571428D02*
X166192914Y-124666666D01*
X166192914Y-124666666D02*
X166240533Y-124761904D01*
X165954819Y-123571428D02*
X165954819Y-123476190D01*
X165954819Y-123476190D02*
X166002438Y-123380952D01*
X166002438Y-123380952D02*
X166050057Y-123333333D01*
X166050057Y-123333333D02*
X166145295Y-123285714D01*
X166145295Y-123285714D02*
X166335771Y-123238095D01*
X166335771Y-123238095D02*
X166573866Y-123238095D01*
X166573866Y-123238095D02*
X166764342Y-123285714D01*
X166764342Y-123285714D02*
X166859580Y-123333333D01*
X166859580Y-123333333D02*
X166907200Y-123380952D01*
X166907200Y-123380952D02*
X166954819Y-123476190D01*
X166954819Y-123476190D02*
X166954819Y-123571428D01*
X166954819Y-123571428D02*
X166907200Y-123666666D01*
X166907200Y-123666666D02*
X166859580Y-123714285D01*
X166859580Y-123714285D02*
X166764342Y-123761904D01*
X166764342Y-123761904D02*
X166573866Y-123809523D01*
X166573866Y-123809523D02*
X166335771Y-123809523D01*
X166335771Y-123809523D02*
X166145295Y-123761904D01*
X166145295Y-123761904D02*
X166050057Y-123714285D01*
X166050057Y-123714285D02*
X166002438Y-123666666D01*
X166002438Y-123666666D02*
X165954819Y-123571428D01*
X166954819Y-122809523D02*
X165954819Y-122809523D01*
X166954819Y-122238095D02*
X166383390Y-122666666D01*
X165954819Y-122238095D02*
X166526247Y-122809523D01*
X148644819Y-59833333D02*
X149359104Y-59833333D01*
X149359104Y-59833333D02*
X149501961Y-59880952D01*
X149501961Y-59880952D02*
X149597200Y-59976190D01*
X149597200Y-59976190D02*
X149644819Y-60119047D01*
X149644819Y-60119047D02*
X149644819Y-60214285D01*
X148978152Y-58928571D02*
X149644819Y-58928571D01*
X148597200Y-59166666D02*
X149311485Y-59404761D01*
X149311485Y-59404761D02*
X149311485Y-58785714D01*
X157723808Y-61286104D02*
X157685712Y-61324200D01*
X157685712Y-61324200D02*
X157571427Y-61362295D01*
X157571427Y-61362295D02*
X157495236Y-61362295D01*
X157495236Y-61362295D02*
X157380950Y-61324200D01*
X157380950Y-61324200D02*
X157304760Y-61248009D01*
X157304760Y-61248009D02*
X157266665Y-61171819D01*
X157266665Y-61171819D02*
X157228569Y-61019438D01*
X157228569Y-61019438D02*
X157228569Y-60905152D01*
X157228569Y-60905152D02*
X157266665Y-60752771D01*
X157266665Y-60752771D02*
X157304760Y-60676580D01*
X157304760Y-60676580D02*
X157380950Y-60600390D01*
X157380950Y-60600390D02*
X157495236Y-60562295D01*
X157495236Y-60562295D02*
X157571427Y-60562295D01*
X157571427Y-60562295D02*
X157685712Y-60600390D01*
X157685712Y-60600390D02*
X157723808Y-60638485D01*
X158180950Y-61362295D02*
X158104760Y-61324200D01*
X158104760Y-61324200D02*
X158066665Y-61286104D01*
X158066665Y-61286104D02*
X158028569Y-61209914D01*
X158028569Y-61209914D02*
X158028569Y-60981342D01*
X158028569Y-60981342D02*
X158066665Y-60905152D01*
X158066665Y-60905152D02*
X158104760Y-60867057D01*
X158104760Y-60867057D02*
X158180950Y-60828961D01*
X158180950Y-60828961D02*
X158295236Y-60828961D01*
X158295236Y-60828961D02*
X158371427Y-60867057D01*
X158371427Y-60867057D02*
X158409522Y-60905152D01*
X158409522Y-60905152D02*
X158447617Y-60981342D01*
X158447617Y-60981342D02*
X158447617Y-61209914D01*
X158447617Y-61209914D02*
X158409522Y-61286104D01*
X158409522Y-61286104D02*
X158371427Y-61324200D01*
X158371427Y-61324200D02*
X158295236Y-61362295D01*
X158295236Y-61362295D02*
X158180950Y-61362295D01*
X158790475Y-60828961D02*
X158790475Y-61362295D01*
X158790475Y-60905152D02*
X158828570Y-60867057D01*
X158828570Y-60867057D02*
X158904760Y-60828961D01*
X158904760Y-60828961D02*
X159019046Y-60828961D01*
X159019046Y-60828961D02*
X159095237Y-60867057D01*
X159095237Y-60867057D02*
X159133332Y-60943247D01*
X159133332Y-60943247D02*
X159133332Y-61362295D01*
X159514285Y-60828961D02*
X159514285Y-61362295D01*
X159514285Y-60905152D02*
X159552380Y-60867057D01*
X159552380Y-60867057D02*
X159628570Y-60828961D01*
X159628570Y-60828961D02*
X159742856Y-60828961D01*
X159742856Y-60828961D02*
X159819047Y-60867057D01*
X159819047Y-60867057D02*
X159857142Y-60943247D01*
X159857142Y-60943247D02*
X159857142Y-61362295D01*
X160047619Y-61438485D02*
X160657142Y-61438485D01*
X161000000Y-60562295D02*
X161076190Y-60562295D01*
X161076190Y-60562295D02*
X161152381Y-60600390D01*
X161152381Y-60600390D02*
X161190476Y-60638485D01*
X161190476Y-60638485D02*
X161228571Y-60714676D01*
X161228571Y-60714676D02*
X161266666Y-60867057D01*
X161266666Y-60867057D02*
X161266666Y-61057533D01*
X161266666Y-61057533D02*
X161228571Y-61209914D01*
X161228571Y-61209914D02*
X161190476Y-61286104D01*
X161190476Y-61286104D02*
X161152381Y-61324200D01*
X161152381Y-61324200D02*
X161076190Y-61362295D01*
X161076190Y-61362295D02*
X161000000Y-61362295D01*
X161000000Y-61362295D02*
X160923809Y-61324200D01*
X160923809Y-61324200D02*
X160885714Y-61286104D01*
X160885714Y-61286104D02*
X160847619Y-61209914D01*
X160847619Y-61209914D02*
X160809523Y-61057533D01*
X160809523Y-61057533D02*
X160809523Y-60867057D01*
X160809523Y-60867057D02*
X160847619Y-60714676D01*
X160847619Y-60714676D02*
X160885714Y-60638485D01*
X160885714Y-60638485D02*
X160923809Y-60600390D01*
X160923809Y-60600390D02*
X161000000Y-60562295D01*
X162028571Y-61362295D02*
X161571428Y-61362295D01*
X161800000Y-61362295D02*
X161800000Y-60562295D01*
X161800000Y-60562295D02*
X161723809Y-60676580D01*
X161723809Y-60676580D02*
X161647619Y-60752771D01*
X161647619Y-60752771D02*
X161571428Y-60790866D01*
X162295238Y-61362295D02*
X162714286Y-60828961D01*
X162295238Y-60828961D02*
X162714286Y-61362295D01*
X163171429Y-60562295D02*
X163247619Y-60562295D01*
X163247619Y-60562295D02*
X163323810Y-60600390D01*
X163323810Y-60600390D02*
X163361905Y-60638485D01*
X163361905Y-60638485D02*
X163400000Y-60714676D01*
X163400000Y-60714676D02*
X163438095Y-60867057D01*
X163438095Y-60867057D02*
X163438095Y-61057533D01*
X163438095Y-61057533D02*
X163400000Y-61209914D01*
X163400000Y-61209914D02*
X163361905Y-61286104D01*
X163361905Y-61286104D02*
X163323810Y-61324200D01*
X163323810Y-61324200D02*
X163247619Y-61362295D01*
X163247619Y-61362295D02*
X163171429Y-61362295D01*
X163171429Y-61362295D02*
X163095238Y-61324200D01*
X163095238Y-61324200D02*
X163057143Y-61286104D01*
X163057143Y-61286104D02*
X163019048Y-61209914D01*
X163019048Y-61209914D02*
X162980952Y-61057533D01*
X162980952Y-61057533D02*
X162980952Y-60867057D01*
X162980952Y-60867057D02*
X163019048Y-60714676D01*
X163019048Y-60714676D02*
X163057143Y-60638485D01*
X163057143Y-60638485D02*
X163095238Y-60600390D01*
X163095238Y-60600390D02*
X163171429Y-60562295D01*
X163704762Y-60562295D02*
X164238096Y-60562295D01*
X164238096Y-60562295D02*
X163895238Y-61362295D01*
X164352382Y-61438485D02*
X164961905Y-61438485D01*
X165114286Y-61324200D02*
X165228572Y-61362295D01*
X165228572Y-61362295D02*
X165419048Y-61362295D01*
X165419048Y-61362295D02*
X165495239Y-61324200D01*
X165495239Y-61324200D02*
X165533334Y-61286104D01*
X165533334Y-61286104D02*
X165571429Y-61209914D01*
X165571429Y-61209914D02*
X165571429Y-61133723D01*
X165571429Y-61133723D02*
X165533334Y-61057533D01*
X165533334Y-61057533D02*
X165495239Y-61019438D01*
X165495239Y-61019438D02*
X165419048Y-60981342D01*
X165419048Y-60981342D02*
X165266667Y-60943247D01*
X165266667Y-60943247D02*
X165190477Y-60905152D01*
X165190477Y-60905152D02*
X165152382Y-60867057D01*
X165152382Y-60867057D02*
X165114286Y-60790866D01*
X165114286Y-60790866D02*
X165114286Y-60714676D01*
X165114286Y-60714676D02*
X165152382Y-60638485D01*
X165152382Y-60638485D02*
X165190477Y-60600390D01*
X165190477Y-60600390D02*
X165266667Y-60562295D01*
X165266667Y-60562295D02*
X165457144Y-60562295D01*
X165457144Y-60562295D02*
X165571429Y-60600390D01*
X166028572Y-61362295D02*
X165952382Y-61324200D01*
X165952382Y-61324200D02*
X165914287Y-61286104D01*
X165914287Y-61286104D02*
X165876191Y-61209914D01*
X165876191Y-61209914D02*
X165876191Y-60981342D01*
X165876191Y-60981342D02*
X165914287Y-60905152D01*
X165914287Y-60905152D02*
X165952382Y-60867057D01*
X165952382Y-60867057D02*
X166028572Y-60828961D01*
X166028572Y-60828961D02*
X166142858Y-60828961D01*
X166142858Y-60828961D02*
X166219049Y-60867057D01*
X166219049Y-60867057D02*
X166257144Y-60905152D01*
X166257144Y-60905152D02*
X166295239Y-60981342D01*
X166295239Y-60981342D02*
X166295239Y-61209914D01*
X166295239Y-61209914D02*
X166257144Y-61286104D01*
X166257144Y-61286104D02*
X166219049Y-61324200D01*
X166219049Y-61324200D02*
X166142858Y-61362295D01*
X166142858Y-61362295D02*
X166028572Y-61362295D01*
X166980954Y-61324200D02*
X166904763Y-61362295D01*
X166904763Y-61362295D02*
X166752382Y-61362295D01*
X166752382Y-61362295D02*
X166676192Y-61324200D01*
X166676192Y-61324200D02*
X166638097Y-61286104D01*
X166638097Y-61286104D02*
X166600001Y-61209914D01*
X166600001Y-61209914D02*
X166600001Y-60981342D01*
X166600001Y-60981342D02*
X166638097Y-60905152D01*
X166638097Y-60905152D02*
X166676192Y-60867057D01*
X166676192Y-60867057D02*
X166752382Y-60828961D01*
X166752382Y-60828961D02*
X166904763Y-60828961D01*
X166904763Y-60828961D02*
X166980954Y-60867057D01*
X167323811Y-61362295D02*
X167323811Y-60562295D01*
X167400001Y-61057533D02*
X167628573Y-61362295D01*
X167628573Y-60828961D02*
X167323811Y-61133723D01*
X168276192Y-61324200D02*
X168200001Y-61362295D01*
X168200001Y-61362295D02*
X168047620Y-61362295D01*
X168047620Y-61362295D02*
X167971430Y-61324200D01*
X167971430Y-61324200D02*
X167933334Y-61248009D01*
X167933334Y-61248009D02*
X167933334Y-60943247D01*
X167933334Y-60943247D02*
X167971430Y-60867057D01*
X167971430Y-60867057D02*
X168047620Y-60828961D01*
X168047620Y-60828961D02*
X168200001Y-60828961D01*
X168200001Y-60828961D02*
X168276192Y-60867057D01*
X168276192Y-60867057D02*
X168314287Y-60943247D01*
X168314287Y-60943247D02*
X168314287Y-61019438D01*
X168314287Y-61019438D02*
X167933334Y-61095628D01*
X168542858Y-60828961D02*
X168847620Y-60828961D01*
X168657144Y-60562295D02*
X168657144Y-61248009D01*
X168657144Y-61248009D02*
X168695239Y-61324200D01*
X168695239Y-61324200D02*
X168771429Y-61362295D01*
X168771429Y-61362295D02*
X168847620Y-61362295D01*
X147333333Y-91954819D02*
X147000000Y-91478628D01*
X146761905Y-91954819D02*
X146761905Y-90954819D01*
X146761905Y-90954819D02*
X147142857Y-90954819D01*
X147142857Y-90954819D02*
X147238095Y-91002438D01*
X147238095Y-91002438D02*
X147285714Y-91050057D01*
X147285714Y-91050057D02*
X147333333Y-91145295D01*
X147333333Y-91145295D02*
X147333333Y-91288152D01*
X147333333Y-91288152D02*
X147285714Y-91383390D01*
X147285714Y-91383390D02*
X147238095Y-91431009D01*
X147238095Y-91431009D02*
X147142857Y-91478628D01*
X147142857Y-91478628D02*
X146761905Y-91478628D01*
X148190476Y-90954819D02*
X148000000Y-90954819D01*
X148000000Y-90954819D02*
X147904762Y-91002438D01*
X147904762Y-91002438D02*
X147857143Y-91050057D01*
X147857143Y-91050057D02*
X147761905Y-91192914D01*
X147761905Y-91192914D02*
X147714286Y-91383390D01*
X147714286Y-91383390D02*
X147714286Y-91764342D01*
X147714286Y-91764342D02*
X147761905Y-91859580D01*
X147761905Y-91859580D02*
X147809524Y-91907200D01*
X147809524Y-91907200D02*
X147904762Y-91954819D01*
X147904762Y-91954819D02*
X148095238Y-91954819D01*
X148095238Y-91954819D02*
X148190476Y-91907200D01*
X148190476Y-91907200D02*
X148238095Y-91859580D01*
X148238095Y-91859580D02*
X148285714Y-91764342D01*
X148285714Y-91764342D02*
X148285714Y-91526247D01*
X148285714Y-91526247D02*
X148238095Y-91431009D01*
X148238095Y-91431009D02*
X148190476Y-91383390D01*
X148190476Y-91383390D02*
X148095238Y-91335771D01*
X148095238Y-91335771D02*
X147904762Y-91335771D01*
X147904762Y-91335771D02*
X147809524Y-91383390D01*
X147809524Y-91383390D02*
X147761905Y-91431009D01*
X147761905Y-91431009D02*
X147714286Y-91526247D01*
X149490476Y-92328961D02*
X149490476Y-92862295D01*
X149300000Y-92024200D02*
X149109523Y-92595628D01*
X149109523Y-92595628D02*
X149604762Y-92595628D01*
X149833333Y-92062295D02*
X150366667Y-92062295D01*
X150366667Y-92062295D02*
X150023809Y-92862295D01*
X150823810Y-92062295D02*
X150900000Y-92062295D01*
X150900000Y-92062295D02*
X150976191Y-92100390D01*
X150976191Y-92100390D02*
X151014286Y-92138485D01*
X151014286Y-92138485D02*
X151052381Y-92214676D01*
X151052381Y-92214676D02*
X151090476Y-92367057D01*
X151090476Y-92367057D02*
X151090476Y-92557533D01*
X151090476Y-92557533D02*
X151052381Y-92709914D01*
X151052381Y-92709914D02*
X151014286Y-92786104D01*
X151014286Y-92786104D02*
X150976191Y-92824200D01*
X150976191Y-92824200D02*
X150900000Y-92862295D01*
X150900000Y-92862295D02*
X150823810Y-92862295D01*
X150823810Y-92862295D02*
X150747619Y-92824200D01*
X150747619Y-92824200D02*
X150709524Y-92786104D01*
X150709524Y-92786104D02*
X150671429Y-92709914D01*
X150671429Y-92709914D02*
X150633333Y-92557533D01*
X150633333Y-92557533D02*
X150633333Y-92367057D01*
X150633333Y-92367057D02*
X150671429Y-92214676D01*
X150671429Y-92214676D02*
X150709524Y-92138485D01*
X150709524Y-92138485D02*
X150747619Y-92100390D01*
X150747619Y-92100390D02*
X150823810Y-92062295D01*
X151890477Y-92862295D02*
X151623810Y-92481342D01*
X151433334Y-92862295D02*
X151433334Y-92062295D01*
X151433334Y-92062295D02*
X151738096Y-92062295D01*
X151738096Y-92062295D02*
X151814286Y-92100390D01*
X151814286Y-92100390D02*
X151852381Y-92138485D01*
X151852381Y-92138485D02*
X151890477Y-92214676D01*
X151890477Y-92214676D02*
X151890477Y-92328961D01*
X151890477Y-92328961D02*
X151852381Y-92405152D01*
X151852381Y-92405152D02*
X151814286Y-92443247D01*
X151814286Y-92443247D02*
X151738096Y-92481342D01*
X151738096Y-92481342D02*
X151433334Y-92481342D01*
X168160476Y-147634819D02*
X168160476Y-148349104D01*
X168160476Y-148349104D02*
X168112857Y-148491961D01*
X168112857Y-148491961D02*
X168017619Y-148587200D01*
X168017619Y-148587200D02*
X167874762Y-148634819D01*
X167874762Y-148634819D02*
X167779524Y-148634819D01*
X169160476Y-148634819D02*
X168589048Y-148634819D01*
X168874762Y-148634819D02*
X168874762Y-147634819D01*
X168874762Y-147634819D02*
X168779524Y-147777676D01*
X168779524Y-147777676D02*
X168684286Y-147872914D01*
X168684286Y-147872914D02*
X168589048Y-147920533D01*
X169779524Y-147634819D02*
X169874762Y-147634819D01*
X169874762Y-147634819D02*
X169970000Y-147682438D01*
X169970000Y-147682438D02*
X170017619Y-147730057D01*
X170017619Y-147730057D02*
X170065238Y-147825295D01*
X170065238Y-147825295D02*
X170112857Y-148015771D01*
X170112857Y-148015771D02*
X170112857Y-148253866D01*
X170112857Y-148253866D02*
X170065238Y-148444342D01*
X170065238Y-148444342D02*
X170017619Y-148539580D01*
X170017619Y-148539580D02*
X169970000Y-148587200D01*
X169970000Y-148587200D02*
X169874762Y-148634819D01*
X169874762Y-148634819D02*
X169779524Y-148634819D01*
X169779524Y-148634819D02*
X169684286Y-148587200D01*
X169684286Y-148587200D02*
X169636667Y-148539580D01*
X169636667Y-148539580D02*
X169589048Y-148444342D01*
X169589048Y-148444342D02*
X169541429Y-148253866D01*
X169541429Y-148253866D02*
X169541429Y-148015771D01*
X169541429Y-148015771D02*
X169589048Y-147825295D01*
X169589048Y-147825295D02*
X169636667Y-147730057D01*
X169636667Y-147730057D02*
X169684286Y-147682438D01*
X169684286Y-147682438D02*
X169779524Y-147634819D01*
X175380952Y-147359580D02*
X175333333Y-147407200D01*
X175333333Y-147407200D02*
X175190476Y-147454819D01*
X175190476Y-147454819D02*
X175095238Y-147454819D01*
X175095238Y-147454819D02*
X174952381Y-147407200D01*
X174952381Y-147407200D02*
X174857143Y-147311961D01*
X174857143Y-147311961D02*
X174809524Y-147216723D01*
X174809524Y-147216723D02*
X174761905Y-147026247D01*
X174761905Y-147026247D02*
X174761905Y-146883390D01*
X174761905Y-146883390D02*
X174809524Y-146692914D01*
X174809524Y-146692914D02*
X174857143Y-146597676D01*
X174857143Y-146597676D02*
X174952381Y-146502438D01*
X174952381Y-146502438D02*
X175095238Y-146454819D01*
X175095238Y-146454819D02*
X175190476Y-146454819D01*
X175190476Y-146454819D02*
X175333333Y-146502438D01*
X175333333Y-146502438D02*
X175380952Y-146550057D01*
X175809524Y-147454819D02*
X175809524Y-146454819D01*
X176238095Y-147454819D02*
X176238095Y-146931009D01*
X176238095Y-146931009D02*
X176190476Y-146835771D01*
X176190476Y-146835771D02*
X176095238Y-146788152D01*
X176095238Y-146788152D02*
X175952381Y-146788152D01*
X175952381Y-146788152D02*
X175857143Y-146835771D01*
X175857143Y-146835771D02*
X175809524Y-146883390D01*
X177142857Y-146454819D02*
X176952381Y-146454819D01*
X176952381Y-146454819D02*
X176857143Y-146502438D01*
X176857143Y-146502438D02*
X176809524Y-146550057D01*
X176809524Y-146550057D02*
X176714286Y-146692914D01*
X176714286Y-146692914D02*
X176666667Y-146883390D01*
X176666667Y-146883390D02*
X176666667Y-147264342D01*
X176666667Y-147264342D02*
X176714286Y-147359580D01*
X176714286Y-147359580D02*
X176761905Y-147407200D01*
X176761905Y-147407200D02*
X176857143Y-147454819D01*
X176857143Y-147454819D02*
X177047619Y-147454819D01*
X177047619Y-147454819D02*
X177142857Y-147407200D01*
X177142857Y-147407200D02*
X177190476Y-147359580D01*
X177190476Y-147359580D02*
X177238095Y-147264342D01*
X177238095Y-147264342D02*
X177238095Y-147026247D01*
X177238095Y-147026247D02*
X177190476Y-146931009D01*
X177190476Y-146931009D02*
X177142857Y-146883390D01*
X177142857Y-146883390D02*
X177047619Y-146835771D01*
X177047619Y-146835771D02*
X176857143Y-146835771D01*
X176857143Y-146835771D02*
X176761905Y-146883390D01*
X176761905Y-146883390D02*
X176714286Y-146931009D01*
X176714286Y-146931009D02*
X176666667Y-147026247D01*
X151954819Y-126166666D02*
X151478628Y-126499999D01*
X151954819Y-126738094D02*
X150954819Y-126738094D01*
X150954819Y-126738094D02*
X150954819Y-126357142D01*
X150954819Y-126357142D02*
X151002438Y-126261904D01*
X151002438Y-126261904D02*
X151050057Y-126214285D01*
X151050057Y-126214285D02*
X151145295Y-126166666D01*
X151145295Y-126166666D02*
X151288152Y-126166666D01*
X151288152Y-126166666D02*
X151383390Y-126214285D01*
X151383390Y-126214285D02*
X151431009Y-126261904D01*
X151431009Y-126261904D02*
X151478628Y-126357142D01*
X151478628Y-126357142D02*
X151478628Y-126738094D01*
X151954819Y-125214285D02*
X151954819Y-125785713D01*
X151954819Y-125499999D02*
X150954819Y-125499999D01*
X150954819Y-125499999D02*
X151097676Y-125595237D01*
X151097676Y-125595237D02*
X151192914Y-125690475D01*
X151192914Y-125690475D02*
X151240533Y-125785713D01*
X152454819Y-123690476D02*
X152454819Y-124261904D01*
X152454819Y-123976190D02*
X151454819Y-123976190D01*
X151454819Y-123976190D02*
X151597676Y-124071428D01*
X151597676Y-124071428D02*
X151692914Y-124166666D01*
X151692914Y-124166666D02*
X151740533Y-124261904D01*
X151454819Y-123071428D02*
X151454819Y-122976190D01*
X151454819Y-122976190D02*
X151502438Y-122880952D01*
X151502438Y-122880952D02*
X151550057Y-122833333D01*
X151550057Y-122833333D02*
X151645295Y-122785714D01*
X151645295Y-122785714D02*
X151835771Y-122738095D01*
X151835771Y-122738095D02*
X152073866Y-122738095D01*
X152073866Y-122738095D02*
X152264342Y-122785714D01*
X152264342Y-122785714D02*
X152359580Y-122833333D01*
X152359580Y-122833333D02*
X152407200Y-122880952D01*
X152407200Y-122880952D02*
X152454819Y-122976190D01*
X152454819Y-122976190D02*
X152454819Y-123071428D01*
X152454819Y-123071428D02*
X152407200Y-123166666D01*
X152407200Y-123166666D02*
X152359580Y-123214285D01*
X152359580Y-123214285D02*
X152264342Y-123261904D01*
X152264342Y-123261904D02*
X152073866Y-123309523D01*
X152073866Y-123309523D02*
X151835771Y-123309523D01*
X151835771Y-123309523D02*
X151645295Y-123261904D01*
X151645295Y-123261904D02*
X151550057Y-123214285D01*
X151550057Y-123214285D02*
X151502438Y-123166666D01*
X151502438Y-123166666D02*
X151454819Y-123071428D01*
X152454819Y-122309523D02*
X151454819Y-122309523D01*
X152454819Y-121738095D02*
X151883390Y-122166666D01*
X151454819Y-121738095D02*
X152026247Y-122309523D01*
X143833333Y-114859580D02*
X143785714Y-114907200D01*
X143785714Y-114907200D02*
X143642857Y-114954819D01*
X143642857Y-114954819D02*
X143547619Y-114954819D01*
X143547619Y-114954819D02*
X143404762Y-114907200D01*
X143404762Y-114907200D02*
X143309524Y-114811961D01*
X143309524Y-114811961D02*
X143261905Y-114716723D01*
X143261905Y-114716723D02*
X143214286Y-114526247D01*
X143214286Y-114526247D02*
X143214286Y-114383390D01*
X143214286Y-114383390D02*
X143261905Y-114192914D01*
X143261905Y-114192914D02*
X143309524Y-114097676D01*
X143309524Y-114097676D02*
X143404762Y-114002438D01*
X143404762Y-114002438D02*
X143547619Y-113954819D01*
X143547619Y-113954819D02*
X143642857Y-113954819D01*
X143642857Y-113954819D02*
X143785714Y-114002438D01*
X143785714Y-114002438D02*
X143833333Y-114050057D01*
X144690476Y-114288152D02*
X144690476Y-114954819D01*
X144452381Y-113907200D02*
X144214286Y-114621485D01*
X144214286Y-114621485D02*
X144833333Y-114621485D01*
X144357142Y-115954819D02*
X143785714Y-115954819D01*
X144071428Y-115954819D02*
X144071428Y-114954819D01*
X144071428Y-114954819D02*
X143976190Y-115097676D01*
X143976190Y-115097676D02*
X143880952Y-115192914D01*
X143880952Y-115192914D02*
X143785714Y-115240533D01*
X144976190Y-114954819D02*
X145071428Y-114954819D01*
X145071428Y-114954819D02*
X145166666Y-115002438D01*
X145166666Y-115002438D02*
X145214285Y-115050057D01*
X145214285Y-115050057D02*
X145261904Y-115145295D01*
X145261904Y-115145295D02*
X145309523Y-115335771D01*
X145309523Y-115335771D02*
X145309523Y-115573866D01*
X145309523Y-115573866D02*
X145261904Y-115764342D01*
X145261904Y-115764342D02*
X145214285Y-115859580D01*
X145214285Y-115859580D02*
X145166666Y-115907200D01*
X145166666Y-115907200D02*
X145071428Y-115954819D01*
X145071428Y-115954819D02*
X144976190Y-115954819D01*
X144976190Y-115954819D02*
X144880952Y-115907200D01*
X144880952Y-115907200D02*
X144833333Y-115859580D01*
X144833333Y-115859580D02*
X144785714Y-115764342D01*
X144785714Y-115764342D02*
X144738095Y-115573866D01*
X144738095Y-115573866D02*
X144738095Y-115335771D01*
X144738095Y-115335771D02*
X144785714Y-115145295D01*
X144785714Y-115145295D02*
X144833333Y-115050057D01*
X144833333Y-115050057D02*
X144880952Y-115002438D01*
X144880952Y-115002438D02*
X144976190Y-114954819D01*
X145738095Y-115288152D02*
X145738095Y-115954819D01*
X145738095Y-115383390D02*
X145785714Y-115335771D01*
X145785714Y-115335771D02*
X145880952Y-115288152D01*
X145880952Y-115288152D02*
X146023809Y-115288152D01*
X146023809Y-115288152D02*
X146119047Y-115335771D01*
X146119047Y-115335771D02*
X146166666Y-115431009D01*
X146166666Y-115431009D02*
X146166666Y-115954819D01*
X147333333Y-84954819D02*
X147000000Y-84478628D01*
X146761905Y-84954819D02*
X146761905Y-83954819D01*
X146761905Y-83954819D02*
X147142857Y-83954819D01*
X147142857Y-83954819D02*
X147238095Y-84002438D01*
X147238095Y-84002438D02*
X147285714Y-84050057D01*
X147285714Y-84050057D02*
X147333333Y-84145295D01*
X147333333Y-84145295D02*
X147333333Y-84288152D01*
X147333333Y-84288152D02*
X147285714Y-84383390D01*
X147285714Y-84383390D02*
X147238095Y-84431009D01*
X147238095Y-84431009D02*
X147142857Y-84478628D01*
X147142857Y-84478628D02*
X146761905Y-84478628D01*
X147904762Y-84383390D02*
X147809524Y-84335771D01*
X147809524Y-84335771D02*
X147761905Y-84288152D01*
X147761905Y-84288152D02*
X147714286Y-84192914D01*
X147714286Y-84192914D02*
X147714286Y-84145295D01*
X147714286Y-84145295D02*
X147761905Y-84050057D01*
X147761905Y-84050057D02*
X147809524Y-84002438D01*
X147809524Y-84002438D02*
X147904762Y-83954819D01*
X147904762Y-83954819D02*
X148095238Y-83954819D01*
X148095238Y-83954819D02*
X148190476Y-84002438D01*
X148190476Y-84002438D02*
X148238095Y-84050057D01*
X148238095Y-84050057D02*
X148285714Y-84145295D01*
X148285714Y-84145295D02*
X148285714Y-84192914D01*
X148285714Y-84192914D02*
X148238095Y-84288152D01*
X148238095Y-84288152D02*
X148190476Y-84335771D01*
X148190476Y-84335771D02*
X148095238Y-84383390D01*
X148095238Y-84383390D02*
X147904762Y-84383390D01*
X147904762Y-84383390D02*
X147809524Y-84431009D01*
X147809524Y-84431009D02*
X147761905Y-84478628D01*
X147761905Y-84478628D02*
X147714286Y-84573866D01*
X147714286Y-84573866D02*
X147714286Y-84764342D01*
X147714286Y-84764342D02*
X147761905Y-84859580D01*
X147761905Y-84859580D02*
X147809524Y-84907200D01*
X147809524Y-84907200D02*
X147904762Y-84954819D01*
X147904762Y-84954819D02*
X148095238Y-84954819D01*
X148095238Y-84954819D02*
X148190476Y-84907200D01*
X148190476Y-84907200D02*
X148238095Y-84859580D01*
X148238095Y-84859580D02*
X148285714Y-84764342D01*
X148285714Y-84764342D02*
X148285714Y-84573866D01*
X148285714Y-84573866D02*
X148238095Y-84478628D01*
X148238095Y-84478628D02*
X148190476Y-84431009D01*
X148190476Y-84431009D02*
X148095238Y-84383390D01*
X149490476Y-85328961D02*
X149490476Y-85862295D01*
X149300000Y-85024200D02*
X149109523Y-85595628D01*
X149109523Y-85595628D02*
X149604762Y-85595628D01*
X149833333Y-85062295D02*
X150366667Y-85062295D01*
X150366667Y-85062295D02*
X150023809Y-85862295D01*
X150823810Y-85062295D02*
X150900000Y-85062295D01*
X150900000Y-85062295D02*
X150976191Y-85100390D01*
X150976191Y-85100390D02*
X151014286Y-85138485D01*
X151014286Y-85138485D02*
X151052381Y-85214676D01*
X151052381Y-85214676D02*
X151090476Y-85367057D01*
X151090476Y-85367057D02*
X151090476Y-85557533D01*
X151090476Y-85557533D02*
X151052381Y-85709914D01*
X151052381Y-85709914D02*
X151014286Y-85786104D01*
X151014286Y-85786104D02*
X150976191Y-85824200D01*
X150976191Y-85824200D02*
X150900000Y-85862295D01*
X150900000Y-85862295D02*
X150823810Y-85862295D01*
X150823810Y-85862295D02*
X150747619Y-85824200D01*
X150747619Y-85824200D02*
X150709524Y-85786104D01*
X150709524Y-85786104D02*
X150671429Y-85709914D01*
X150671429Y-85709914D02*
X150633333Y-85557533D01*
X150633333Y-85557533D02*
X150633333Y-85367057D01*
X150633333Y-85367057D02*
X150671429Y-85214676D01*
X150671429Y-85214676D02*
X150709524Y-85138485D01*
X150709524Y-85138485D02*
X150747619Y-85100390D01*
X150747619Y-85100390D02*
X150823810Y-85062295D01*
X151890477Y-85862295D02*
X151623810Y-85481342D01*
X151433334Y-85862295D02*
X151433334Y-85062295D01*
X151433334Y-85062295D02*
X151738096Y-85062295D01*
X151738096Y-85062295D02*
X151814286Y-85100390D01*
X151814286Y-85100390D02*
X151852381Y-85138485D01*
X151852381Y-85138485D02*
X151890477Y-85214676D01*
X151890477Y-85214676D02*
X151890477Y-85328961D01*
X151890477Y-85328961D02*
X151852381Y-85405152D01*
X151852381Y-85405152D02*
X151814286Y-85443247D01*
X151814286Y-85443247D02*
X151738096Y-85481342D01*
X151738096Y-85481342D02*
X151433334Y-85481342D01*
X147333333Y-88454819D02*
X147000000Y-87978628D01*
X146761905Y-88454819D02*
X146761905Y-87454819D01*
X146761905Y-87454819D02*
X147142857Y-87454819D01*
X147142857Y-87454819D02*
X147238095Y-87502438D01*
X147238095Y-87502438D02*
X147285714Y-87550057D01*
X147285714Y-87550057D02*
X147333333Y-87645295D01*
X147333333Y-87645295D02*
X147333333Y-87788152D01*
X147333333Y-87788152D02*
X147285714Y-87883390D01*
X147285714Y-87883390D02*
X147238095Y-87931009D01*
X147238095Y-87931009D02*
X147142857Y-87978628D01*
X147142857Y-87978628D02*
X146761905Y-87978628D01*
X147666667Y-87454819D02*
X148333333Y-87454819D01*
X148333333Y-87454819D02*
X147904762Y-88454819D01*
X148990476Y-88828961D02*
X148990476Y-89362295D01*
X148800000Y-88524200D02*
X148609523Y-89095628D01*
X148609523Y-89095628D02*
X149104762Y-89095628D01*
X149333333Y-88562295D02*
X149866667Y-88562295D01*
X149866667Y-88562295D02*
X149523809Y-89362295D01*
X150323810Y-88562295D02*
X150400000Y-88562295D01*
X150400000Y-88562295D02*
X150476191Y-88600390D01*
X150476191Y-88600390D02*
X150514286Y-88638485D01*
X150514286Y-88638485D02*
X150552381Y-88714676D01*
X150552381Y-88714676D02*
X150590476Y-88867057D01*
X150590476Y-88867057D02*
X150590476Y-89057533D01*
X150590476Y-89057533D02*
X150552381Y-89209914D01*
X150552381Y-89209914D02*
X150514286Y-89286104D01*
X150514286Y-89286104D02*
X150476191Y-89324200D01*
X150476191Y-89324200D02*
X150400000Y-89362295D01*
X150400000Y-89362295D02*
X150323810Y-89362295D01*
X150323810Y-89362295D02*
X150247619Y-89324200D01*
X150247619Y-89324200D02*
X150209524Y-89286104D01*
X150209524Y-89286104D02*
X150171429Y-89209914D01*
X150171429Y-89209914D02*
X150133333Y-89057533D01*
X150133333Y-89057533D02*
X150133333Y-88867057D01*
X150133333Y-88867057D02*
X150171429Y-88714676D01*
X150171429Y-88714676D02*
X150209524Y-88638485D01*
X150209524Y-88638485D02*
X150247619Y-88600390D01*
X150247619Y-88600390D02*
X150323810Y-88562295D01*
X151390477Y-89362295D02*
X151123810Y-88981342D01*
X150933334Y-89362295D02*
X150933334Y-88562295D01*
X150933334Y-88562295D02*
X151238096Y-88562295D01*
X151238096Y-88562295D02*
X151314286Y-88600390D01*
X151314286Y-88600390D02*
X151352381Y-88638485D01*
X151352381Y-88638485D02*
X151390477Y-88714676D01*
X151390477Y-88714676D02*
X151390477Y-88828961D01*
X151390477Y-88828961D02*
X151352381Y-88905152D01*
X151352381Y-88905152D02*
X151314286Y-88943247D01*
X151314286Y-88943247D02*
X151238096Y-88981342D01*
X151238096Y-88981342D02*
X150933334Y-88981342D01*
X154636666Y-118634819D02*
X154636666Y-119349104D01*
X154636666Y-119349104D02*
X154589047Y-119491961D01*
X154589047Y-119491961D02*
X154493809Y-119587200D01*
X154493809Y-119587200D02*
X154350952Y-119634819D01*
X154350952Y-119634819D02*
X154255714Y-119634819D01*
X155065238Y-118730057D02*
X155112857Y-118682438D01*
X155112857Y-118682438D02*
X155208095Y-118634819D01*
X155208095Y-118634819D02*
X155446190Y-118634819D01*
X155446190Y-118634819D02*
X155541428Y-118682438D01*
X155541428Y-118682438D02*
X155589047Y-118730057D01*
X155589047Y-118730057D02*
X155636666Y-118825295D01*
X155636666Y-118825295D02*
X155636666Y-118920533D01*
X155636666Y-118920533D02*
X155589047Y-119063390D01*
X155589047Y-119063390D02*
X155017619Y-119634819D01*
X155017619Y-119634819D02*
X155636666Y-119634819D01*
X155976189Y-117859580D02*
X155928570Y-117907200D01*
X155928570Y-117907200D02*
X155785713Y-117954819D01*
X155785713Y-117954819D02*
X155690475Y-117954819D01*
X155690475Y-117954819D02*
X155547618Y-117907200D01*
X155547618Y-117907200D02*
X155452380Y-117811961D01*
X155452380Y-117811961D02*
X155404761Y-117716723D01*
X155404761Y-117716723D02*
X155357142Y-117526247D01*
X155357142Y-117526247D02*
X155357142Y-117383390D01*
X155357142Y-117383390D02*
X155404761Y-117192914D01*
X155404761Y-117192914D02*
X155452380Y-117097676D01*
X155452380Y-117097676D02*
X155547618Y-117002438D01*
X155547618Y-117002438D02*
X155690475Y-116954819D01*
X155690475Y-116954819D02*
X155785713Y-116954819D01*
X155785713Y-116954819D02*
X155928570Y-117002438D01*
X155928570Y-117002438D02*
X155976189Y-117050057D01*
X156547618Y-117954819D02*
X156452380Y-117907200D01*
X156452380Y-117907200D02*
X156404761Y-117811961D01*
X156404761Y-117811961D02*
X156404761Y-116954819D01*
X156928571Y-117954819D02*
X156928571Y-116954819D01*
X157023809Y-117573866D02*
X157309523Y-117954819D01*
X157309523Y-117288152D02*
X156928571Y-117669104D01*
X161738096Y-116954819D02*
X161928572Y-116954819D01*
X161928572Y-116954819D02*
X162023810Y-117002438D01*
X162023810Y-117002438D02*
X162119048Y-117097676D01*
X162119048Y-117097676D02*
X162166667Y-117288152D01*
X162166667Y-117288152D02*
X162166667Y-117621485D01*
X162166667Y-117621485D02*
X162119048Y-117811961D01*
X162119048Y-117811961D02*
X162023810Y-117907200D01*
X162023810Y-117907200D02*
X161928572Y-117954819D01*
X161928572Y-117954819D02*
X161738096Y-117954819D01*
X161738096Y-117954819D02*
X161642858Y-117907200D01*
X161642858Y-117907200D02*
X161547620Y-117811961D01*
X161547620Y-117811961D02*
X161500001Y-117621485D01*
X161500001Y-117621485D02*
X161500001Y-117288152D01*
X161500001Y-117288152D02*
X161547620Y-117097676D01*
X161547620Y-117097676D02*
X161642858Y-117002438D01*
X161642858Y-117002438D02*
X161738096Y-116954819D01*
X163023810Y-117288152D02*
X163023810Y-117954819D01*
X162595239Y-117288152D02*
X162595239Y-117811961D01*
X162595239Y-117811961D02*
X162642858Y-117907200D01*
X162642858Y-117907200D02*
X162738096Y-117954819D01*
X162738096Y-117954819D02*
X162880953Y-117954819D01*
X162880953Y-117954819D02*
X162976191Y-117907200D01*
X162976191Y-117907200D02*
X163023810Y-117859580D01*
X163357144Y-117288152D02*
X163738096Y-117288152D01*
X163500001Y-116954819D02*
X163500001Y-117811961D01*
X163500001Y-117811961D02*
X163547620Y-117907200D01*
X163547620Y-117907200D02*
X163642858Y-117954819D01*
X163642858Y-117954819D02*
X163738096Y-117954819D01*
X164571427Y-102454819D02*
X164238094Y-101978628D01*
X163999999Y-102454819D02*
X163999999Y-101454819D01*
X163999999Y-101454819D02*
X164380951Y-101454819D01*
X164380951Y-101454819D02*
X164476189Y-101502438D01*
X164476189Y-101502438D02*
X164523808Y-101550057D01*
X164523808Y-101550057D02*
X164571427Y-101645295D01*
X164571427Y-101645295D02*
X164571427Y-101788152D01*
X164571427Y-101788152D02*
X164523808Y-101883390D01*
X164523808Y-101883390D02*
X164476189Y-101931009D01*
X164476189Y-101931009D02*
X164380951Y-101978628D01*
X164380951Y-101978628D02*
X163999999Y-101978628D01*
X165142856Y-102454819D02*
X165047618Y-102407200D01*
X165047618Y-102407200D02*
X164999999Y-102359580D01*
X164999999Y-102359580D02*
X164952380Y-102264342D01*
X164952380Y-102264342D02*
X164952380Y-101978628D01*
X164952380Y-101978628D02*
X164999999Y-101883390D01*
X164999999Y-101883390D02*
X165047618Y-101835771D01*
X165047618Y-101835771D02*
X165142856Y-101788152D01*
X165142856Y-101788152D02*
X165285713Y-101788152D01*
X165285713Y-101788152D02*
X165380951Y-101835771D01*
X165380951Y-101835771D02*
X165428570Y-101883390D01*
X165428570Y-101883390D02*
X165476189Y-101978628D01*
X165476189Y-101978628D02*
X165476189Y-102264342D01*
X165476189Y-102264342D02*
X165428570Y-102359580D01*
X165428570Y-102359580D02*
X165380951Y-102407200D01*
X165380951Y-102407200D02*
X165285713Y-102454819D01*
X165285713Y-102454819D02*
X165142856Y-102454819D01*
X165761904Y-101788152D02*
X166142856Y-101788152D01*
X165904761Y-101454819D02*
X165904761Y-102311961D01*
X165904761Y-102311961D02*
X165952380Y-102407200D01*
X165952380Y-102407200D02*
X166047618Y-102454819D01*
X166047618Y-102454819D02*
X166142856Y-102454819D01*
X166904761Y-102454819D02*
X166904761Y-101931009D01*
X166904761Y-101931009D02*
X166857142Y-101835771D01*
X166857142Y-101835771D02*
X166761904Y-101788152D01*
X166761904Y-101788152D02*
X166571428Y-101788152D01*
X166571428Y-101788152D02*
X166476190Y-101835771D01*
X166904761Y-102407200D02*
X166809523Y-102454819D01*
X166809523Y-102454819D02*
X166571428Y-102454819D01*
X166571428Y-102454819D02*
X166476190Y-102407200D01*
X166476190Y-102407200D02*
X166428571Y-102311961D01*
X166428571Y-102311961D02*
X166428571Y-102216723D01*
X166428571Y-102216723D02*
X166476190Y-102121485D01*
X166476190Y-102121485D02*
X166571428Y-102073866D01*
X166571428Y-102073866D02*
X166809523Y-102073866D01*
X166809523Y-102073866D02*
X166904761Y-102026247D01*
X167380952Y-102454819D02*
X167380952Y-101788152D01*
X167380952Y-101978628D02*
X167428571Y-101883390D01*
X167428571Y-101883390D02*
X167476190Y-101835771D01*
X167476190Y-101835771D02*
X167571428Y-101788152D01*
X167571428Y-101788152D02*
X167666666Y-101788152D01*
X167904762Y-101788152D02*
X168142857Y-102454819D01*
X168380952Y-101788152D02*
X168142857Y-102454819D01*
X168142857Y-102454819D02*
X168047619Y-102692914D01*
X168047619Y-102692914D02*
X168000000Y-102740533D01*
X168000000Y-102740533D02*
X167904762Y-102788152D01*
X169523810Y-101931009D02*
X169857143Y-101931009D01*
X170000000Y-102454819D02*
X169523810Y-102454819D01*
X169523810Y-102454819D02*
X169523810Y-101454819D01*
X169523810Y-101454819D02*
X170000000Y-101454819D01*
X170428572Y-101788152D02*
X170428572Y-102454819D01*
X170428572Y-101883390D02*
X170476191Y-101835771D01*
X170476191Y-101835771D02*
X170571429Y-101788152D01*
X170571429Y-101788152D02*
X170714286Y-101788152D01*
X170714286Y-101788152D02*
X170809524Y-101835771D01*
X170809524Y-101835771D02*
X170857143Y-101931009D01*
X170857143Y-101931009D02*
X170857143Y-102454819D01*
X171761905Y-102407200D02*
X171666667Y-102454819D01*
X171666667Y-102454819D02*
X171476191Y-102454819D01*
X171476191Y-102454819D02*
X171380953Y-102407200D01*
X171380953Y-102407200D02*
X171333334Y-102359580D01*
X171333334Y-102359580D02*
X171285715Y-102264342D01*
X171285715Y-102264342D02*
X171285715Y-101978628D01*
X171285715Y-101978628D02*
X171333334Y-101883390D01*
X171333334Y-101883390D02*
X171380953Y-101835771D01*
X171380953Y-101835771D02*
X171476191Y-101788152D01*
X171476191Y-101788152D02*
X171666667Y-101788152D01*
X171666667Y-101788152D02*
X171761905Y-101835771D01*
X172333334Y-102454819D02*
X172238096Y-102407200D01*
X172238096Y-102407200D02*
X172190477Y-102359580D01*
X172190477Y-102359580D02*
X172142858Y-102264342D01*
X172142858Y-102264342D02*
X172142858Y-101978628D01*
X172142858Y-101978628D02*
X172190477Y-101883390D01*
X172190477Y-101883390D02*
X172238096Y-101835771D01*
X172238096Y-101835771D02*
X172333334Y-101788152D01*
X172333334Y-101788152D02*
X172476191Y-101788152D01*
X172476191Y-101788152D02*
X172571429Y-101835771D01*
X172571429Y-101835771D02*
X172619048Y-101883390D01*
X172619048Y-101883390D02*
X172666667Y-101978628D01*
X172666667Y-101978628D02*
X172666667Y-102264342D01*
X172666667Y-102264342D02*
X172619048Y-102359580D01*
X172619048Y-102359580D02*
X172571429Y-102407200D01*
X172571429Y-102407200D02*
X172476191Y-102454819D01*
X172476191Y-102454819D02*
X172333334Y-102454819D01*
X173523810Y-102454819D02*
X173523810Y-101454819D01*
X173523810Y-102407200D02*
X173428572Y-102454819D01*
X173428572Y-102454819D02*
X173238096Y-102454819D01*
X173238096Y-102454819D02*
X173142858Y-102407200D01*
X173142858Y-102407200D02*
X173095239Y-102359580D01*
X173095239Y-102359580D02*
X173047620Y-102264342D01*
X173047620Y-102264342D02*
X173047620Y-101978628D01*
X173047620Y-101978628D02*
X173095239Y-101883390D01*
X173095239Y-101883390D02*
X173142858Y-101835771D01*
X173142858Y-101835771D02*
X173238096Y-101788152D01*
X173238096Y-101788152D02*
X173428572Y-101788152D01*
X173428572Y-101788152D02*
X173523810Y-101835771D01*
X174380953Y-102407200D02*
X174285715Y-102454819D01*
X174285715Y-102454819D02*
X174095239Y-102454819D01*
X174095239Y-102454819D02*
X174000001Y-102407200D01*
X174000001Y-102407200D02*
X173952382Y-102311961D01*
X173952382Y-102311961D02*
X173952382Y-101931009D01*
X173952382Y-101931009D02*
X174000001Y-101835771D01*
X174000001Y-101835771D02*
X174095239Y-101788152D01*
X174095239Y-101788152D02*
X174285715Y-101788152D01*
X174285715Y-101788152D02*
X174380953Y-101835771D01*
X174380953Y-101835771D02*
X174428572Y-101931009D01*
X174428572Y-101931009D02*
X174428572Y-102026247D01*
X174428572Y-102026247D02*
X173952382Y-102121485D01*
X174857144Y-102454819D02*
X174857144Y-101788152D01*
X174857144Y-101978628D02*
X174904763Y-101883390D01*
X174904763Y-101883390D02*
X174952382Y-101835771D01*
X174952382Y-101835771D02*
X175047620Y-101788152D01*
X175047620Y-101788152D02*
X175142858Y-101788152D01*
X140636666Y-133134819D02*
X140636666Y-133849104D01*
X140636666Y-133849104D02*
X140589047Y-133991961D01*
X140589047Y-133991961D02*
X140493809Y-134087200D01*
X140493809Y-134087200D02*
X140350952Y-134134819D01*
X140350952Y-134134819D02*
X140255714Y-134134819D01*
X141589047Y-133134819D02*
X141112857Y-133134819D01*
X141112857Y-133134819D02*
X141065238Y-133611009D01*
X141065238Y-133611009D02*
X141112857Y-133563390D01*
X141112857Y-133563390D02*
X141208095Y-133515771D01*
X141208095Y-133515771D02*
X141446190Y-133515771D01*
X141446190Y-133515771D02*
X141541428Y-133563390D01*
X141541428Y-133563390D02*
X141589047Y-133611009D01*
X141589047Y-133611009D02*
X141636666Y-133706247D01*
X141636666Y-133706247D02*
X141636666Y-133944342D01*
X141636666Y-133944342D02*
X141589047Y-134039580D01*
X141589047Y-134039580D02*
X141541428Y-134087200D01*
X141541428Y-134087200D02*
X141446190Y-134134819D01*
X141446190Y-134134819D02*
X141208095Y-134134819D01*
X141208095Y-134134819D02*
X141112857Y-134087200D01*
X141112857Y-134087200D02*
X141065238Y-134039580D01*
X146990952Y-132859580D02*
X146943333Y-132907200D01*
X146943333Y-132907200D02*
X146800476Y-132954819D01*
X146800476Y-132954819D02*
X146705238Y-132954819D01*
X146705238Y-132954819D02*
X146562381Y-132907200D01*
X146562381Y-132907200D02*
X146467143Y-132811961D01*
X146467143Y-132811961D02*
X146419524Y-132716723D01*
X146419524Y-132716723D02*
X146371905Y-132526247D01*
X146371905Y-132526247D02*
X146371905Y-132383390D01*
X146371905Y-132383390D02*
X146419524Y-132192914D01*
X146419524Y-132192914D02*
X146467143Y-132097676D01*
X146467143Y-132097676D02*
X146562381Y-132002438D01*
X146562381Y-132002438D02*
X146705238Y-131954819D01*
X146705238Y-131954819D02*
X146800476Y-131954819D01*
X146800476Y-131954819D02*
X146943333Y-132002438D01*
X146943333Y-132002438D02*
X146990952Y-132050057D01*
X147419524Y-132954819D02*
X147419524Y-131954819D01*
X147848095Y-132954819D02*
X147848095Y-132431009D01*
X147848095Y-132431009D02*
X147800476Y-132335771D01*
X147800476Y-132335771D02*
X147705238Y-132288152D01*
X147705238Y-132288152D02*
X147562381Y-132288152D01*
X147562381Y-132288152D02*
X147467143Y-132335771D01*
X147467143Y-132335771D02*
X147419524Y-132383390D01*
X148848095Y-132954819D02*
X148276667Y-132954819D01*
X148562381Y-132954819D02*
X148562381Y-131954819D01*
X148562381Y-131954819D02*
X148467143Y-132097676D01*
X148467143Y-132097676D02*
X148371905Y-132192914D01*
X148371905Y-132192914D02*
X148276667Y-132240533D01*
X170454819Y-85666666D02*
X169978628Y-85999999D01*
X170454819Y-86238094D02*
X169454819Y-86238094D01*
X169454819Y-86238094D02*
X169454819Y-85857142D01*
X169454819Y-85857142D02*
X169502438Y-85761904D01*
X169502438Y-85761904D02*
X169550057Y-85714285D01*
X169550057Y-85714285D02*
X169645295Y-85666666D01*
X169645295Y-85666666D02*
X169788152Y-85666666D01*
X169788152Y-85666666D02*
X169883390Y-85714285D01*
X169883390Y-85714285D02*
X169931009Y-85761904D01*
X169931009Y-85761904D02*
X169978628Y-85857142D01*
X169978628Y-85857142D02*
X169978628Y-86238094D01*
X169788152Y-84809523D02*
X170454819Y-84809523D01*
X169407200Y-85047618D02*
X170121485Y-85285713D01*
X170121485Y-85285713D02*
X170121485Y-84666666D01*
X170788152Y-84261904D02*
X171454819Y-84261904D01*
X170407200Y-84499999D02*
X171121485Y-84738094D01*
X171121485Y-84738094D02*
X171121485Y-84119047D01*
X170454819Y-83833332D02*
X170454819Y-83166666D01*
X170454819Y-83166666D02*
X171454819Y-83595237D01*
X170454819Y-82595237D02*
X170454819Y-82499999D01*
X170454819Y-82499999D02*
X170502438Y-82404761D01*
X170502438Y-82404761D02*
X170550057Y-82357142D01*
X170550057Y-82357142D02*
X170645295Y-82309523D01*
X170645295Y-82309523D02*
X170835771Y-82261904D01*
X170835771Y-82261904D02*
X171073866Y-82261904D01*
X171073866Y-82261904D02*
X171264342Y-82309523D01*
X171264342Y-82309523D02*
X171359580Y-82357142D01*
X171359580Y-82357142D02*
X171407200Y-82404761D01*
X171407200Y-82404761D02*
X171454819Y-82499999D01*
X171454819Y-82499999D02*
X171454819Y-82595237D01*
X171454819Y-82595237D02*
X171407200Y-82690475D01*
X171407200Y-82690475D02*
X171359580Y-82738094D01*
X171359580Y-82738094D02*
X171264342Y-82785713D01*
X171264342Y-82785713D02*
X171073866Y-82833332D01*
X171073866Y-82833332D02*
X170835771Y-82833332D01*
X170835771Y-82833332D02*
X170645295Y-82785713D01*
X170645295Y-82785713D02*
X170550057Y-82738094D01*
X170550057Y-82738094D02*
X170502438Y-82690475D01*
X170502438Y-82690475D02*
X170454819Y-82595237D01*
X171454819Y-81261904D02*
X170978628Y-81595237D01*
X171454819Y-81833332D02*
X170454819Y-81833332D01*
X170454819Y-81833332D02*
X170454819Y-81452380D01*
X170454819Y-81452380D02*
X170502438Y-81357142D01*
X170502438Y-81357142D02*
X170550057Y-81309523D01*
X170550057Y-81309523D02*
X170645295Y-81261904D01*
X170645295Y-81261904D02*
X170788152Y-81261904D01*
X170788152Y-81261904D02*
X170883390Y-81309523D01*
X170883390Y-81309523D02*
X170931009Y-81357142D01*
X170931009Y-81357142D02*
X170978628Y-81452380D01*
X170978628Y-81452380D02*
X170978628Y-81833332D01*
X154636666Y-147634819D02*
X154636666Y-148349104D01*
X154636666Y-148349104D02*
X154589047Y-148491961D01*
X154589047Y-148491961D02*
X154493809Y-148587200D01*
X154493809Y-148587200D02*
X154350952Y-148634819D01*
X154350952Y-148634819D02*
X154255714Y-148634819D01*
X155160476Y-148634819D02*
X155350952Y-148634819D01*
X155350952Y-148634819D02*
X155446190Y-148587200D01*
X155446190Y-148587200D02*
X155493809Y-148539580D01*
X155493809Y-148539580D02*
X155589047Y-148396723D01*
X155589047Y-148396723D02*
X155636666Y-148206247D01*
X155636666Y-148206247D02*
X155636666Y-147825295D01*
X155636666Y-147825295D02*
X155589047Y-147730057D01*
X155589047Y-147730057D02*
X155541428Y-147682438D01*
X155541428Y-147682438D02*
X155446190Y-147634819D01*
X155446190Y-147634819D02*
X155255714Y-147634819D01*
X155255714Y-147634819D02*
X155160476Y-147682438D01*
X155160476Y-147682438D02*
X155112857Y-147730057D01*
X155112857Y-147730057D02*
X155065238Y-147825295D01*
X155065238Y-147825295D02*
X155065238Y-148063390D01*
X155065238Y-148063390D02*
X155112857Y-148158628D01*
X155112857Y-148158628D02*
X155160476Y-148206247D01*
X155160476Y-148206247D02*
X155255714Y-148253866D01*
X155255714Y-148253866D02*
X155446190Y-148253866D01*
X155446190Y-148253866D02*
X155541428Y-148206247D01*
X155541428Y-148206247D02*
X155589047Y-148158628D01*
X155589047Y-148158628D02*
X155636666Y-148063390D01*
X161380952Y-147359580D02*
X161333333Y-147407200D01*
X161333333Y-147407200D02*
X161190476Y-147454819D01*
X161190476Y-147454819D02*
X161095238Y-147454819D01*
X161095238Y-147454819D02*
X160952381Y-147407200D01*
X160952381Y-147407200D02*
X160857143Y-147311961D01*
X160857143Y-147311961D02*
X160809524Y-147216723D01*
X160809524Y-147216723D02*
X160761905Y-147026247D01*
X160761905Y-147026247D02*
X160761905Y-146883390D01*
X160761905Y-146883390D02*
X160809524Y-146692914D01*
X160809524Y-146692914D02*
X160857143Y-146597676D01*
X160857143Y-146597676D02*
X160952381Y-146502438D01*
X160952381Y-146502438D02*
X161095238Y-146454819D01*
X161095238Y-146454819D02*
X161190476Y-146454819D01*
X161190476Y-146454819D02*
X161333333Y-146502438D01*
X161333333Y-146502438D02*
X161380952Y-146550057D01*
X161809524Y-147454819D02*
X161809524Y-146454819D01*
X162238095Y-147454819D02*
X162238095Y-146931009D01*
X162238095Y-146931009D02*
X162190476Y-146835771D01*
X162190476Y-146835771D02*
X162095238Y-146788152D01*
X162095238Y-146788152D02*
X161952381Y-146788152D01*
X161952381Y-146788152D02*
X161857143Y-146835771D01*
X161857143Y-146835771D02*
X161809524Y-146883390D01*
X163190476Y-146454819D02*
X162714286Y-146454819D01*
X162714286Y-146454819D02*
X162666667Y-146931009D01*
X162666667Y-146931009D02*
X162714286Y-146883390D01*
X162714286Y-146883390D02*
X162809524Y-146835771D01*
X162809524Y-146835771D02*
X163047619Y-146835771D01*
X163047619Y-146835771D02*
X163142857Y-146883390D01*
X163142857Y-146883390D02*
X163190476Y-146931009D01*
X163190476Y-146931009D02*
X163238095Y-147026247D01*
X163238095Y-147026247D02*
X163238095Y-147264342D01*
X163238095Y-147264342D02*
X163190476Y-147359580D01*
X163190476Y-147359580D02*
X163142857Y-147407200D01*
X163142857Y-147407200D02*
X163047619Y-147454819D01*
X163047619Y-147454819D02*
X162809524Y-147454819D01*
X162809524Y-147454819D02*
X162714286Y-147407200D01*
X162714286Y-147407200D02*
X162666667Y-147359580D01*
X168636666Y-133134819D02*
X168636666Y-133849104D01*
X168636666Y-133849104D02*
X168589047Y-133991961D01*
X168589047Y-133991961D02*
X168493809Y-134087200D01*
X168493809Y-134087200D02*
X168350952Y-134134819D01*
X168350952Y-134134819D02*
X168255714Y-134134819D01*
X169017619Y-133134819D02*
X169684285Y-133134819D01*
X169684285Y-133134819D02*
X169255714Y-134134819D01*
X175380952Y-132859580D02*
X175333333Y-132907200D01*
X175333333Y-132907200D02*
X175190476Y-132954819D01*
X175190476Y-132954819D02*
X175095238Y-132954819D01*
X175095238Y-132954819D02*
X174952381Y-132907200D01*
X174952381Y-132907200D02*
X174857143Y-132811961D01*
X174857143Y-132811961D02*
X174809524Y-132716723D01*
X174809524Y-132716723D02*
X174761905Y-132526247D01*
X174761905Y-132526247D02*
X174761905Y-132383390D01*
X174761905Y-132383390D02*
X174809524Y-132192914D01*
X174809524Y-132192914D02*
X174857143Y-132097676D01*
X174857143Y-132097676D02*
X174952381Y-132002438D01*
X174952381Y-132002438D02*
X175095238Y-131954819D01*
X175095238Y-131954819D02*
X175190476Y-131954819D01*
X175190476Y-131954819D02*
X175333333Y-132002438D01*
X175333333Y-132002438D02*
X175380952Y-132050057D01*
X175809524Y-132954819D02*
X175809524Y-131954819D01*
X176238095Y-132954819D02*
X176238095Y-132431009D01*
X176238095Y-132431009D02*
X176190476Y-132335771D01*
X176190476Y-132335771D02*
X176095238Y-132288152D01*
X176095238Y-132288152D02*
X175952381Y-132288152D01*
X175952381Y-132288152D02*
X175857143Y-132335771D01*
X175857143Y-132335771D02*
X175809524Y-132383390D01*
X176619048Y-131954819D02*
X177238095Y-131954819D01*
X177238095Y-131954819D02*
X176904762Y-132335771D01*
X176904762Y-132335771D02*
X177047619Y-132335771D01*
X177047619Y-132335771D02*
X177142857Y-132383390D01*
X177142857Y-132383390D02*
X177190476Y-132431009D01*
X177190476Y-132431009D02*
X177238095Y-132526247D01*
X177238095Y-132526247D02*
X177238095Y-132764342D01*
X177238095Y-132764342D02*
X177190476Y-132859580D01*
X177190476Y-132859580D02*
X177142857Y-132907200D01*
X177142857Y-132907200D02*
X177047619Y-132954819D01*
X177047619Y-132954819D02*
X176761905Y-132954819D01*
X176761905Y-132954819D02*
X176666667Y-132907200D01*
X176666667Y-132907200D02*
X176619048Y-132859580D01*
X162954819Y-85666666D02*
X162478628Y-85999999D01*
X162954819Y-86238094D02*
X161954819Y-86238094D01*
X161954819Y-86238094D02*
X161954819Y-85857142D01*
X161954819Y-85857142D02*
X162002438Y-85761904D01*
X162002438Y-85761904D02*
X162050057Y-85714285D01*
X162050057Y-85714285D02*
X162145295Y-85666666D01*
X162145295Y-85666666D02*
X162288152Y-85666666D01*
X162288152Y-85666666D02*
X162383390Y-85714285D01*
X162383390Y-85714285D02*
X162431009Y-85761904D01*
X162431009Y-85761904D02*
X162478628Y-85857142D01*
X162478628Y-85857142D02*
X162478628Y-86238094D01*
X161954819Y-85333332D02*
X161954819Y-84714285D01*
X161954819Y-84714285D02*
X162335771Y-85047618D01*
X162335771Y-85047618D02*
X162335771Y-84904761D01*
X162335771Y-84904761D02*
X162383390Y-84809523D01*
X162383390Y-84809523D02*
X162431009Y-84761904D01*
X162431009Y-84761904D02*
X162526247Y-84714285D01*
X162526247Y-84714285D02*
X162764342Y-84714285D01*
X162764342Y-84714285D02*
X162859580Y-84761904D01*
X162859580Y-84761904D02*
X162907200Y-84809523D01*
X162907200Y-84809523D02*
X162954819Y-84904761D01*
X162954819Y-84904761D02*
X162954819Y-85190475D01*
X162954819Y-85190475D02*
X162907200Y-85285713D01*
X162907200Y-85285713D02*
X162859580Y-85333332D01*
X163288152Y-83761904D02*
X163954819Y-83761904D01*
X162907200Y-83999999D02*
X163621485Y-84238094D01*
X163621485Y-84238094D02*
X163621485Y-83619047D01*
X162954819Y-83333332D02*
X162954819Y-82666666D01*
X162954819Y-82666666D02*
X163954819Y-83095237D01*
X162954819Y-82095237D02*
X162954819Y-81999999D01*
X162954819Y-81999999D02*
X163002438Y-81904761D01*
X163002438Y-81904761D02*
X163050057Y-81857142D01*
X163050057Y-81857142D02*
X163145295Y-81809523D01*
X163145295Y-81809523D02*
X163335771Y-81761904D01*
X163335771Y-81761904D02*
X163573866Y-81761904D01*
X163573866Y-81761904D02*
X163764342Y-81809523D01*
X163764342Y-81809523D02*
X163859580Y-81857142D01*
X163859580Y-81857142D02*
X163907200Y-81904761D01*
X163907200Y-81904761D02*
X163954819Y-81999999D01*
X163954819Y-81999999D02*
X163954819Y-82095237D01*
X163954819Y-82095237D02*
X163907200Y-82190475D01*
X163907200Y-82190475D02*
X163859580Y-82238094D01*
X163859580Y-82238094D02*
X163764342Y-82285713D01*
X163764342Y-82285713D02*
X163573866Y-82333332D01*
X163573866Y-82333332D02*
X163335771Y-82333332D01*
X163335771Y-82333332D02*
X163145295Y-82285713D01*
X163145295Y-82285713D02*
X163050057Y-82238094D01*
X163050057Y-82238094D02*
X163002438Y-82190475D01*
X163002438Y-82190475D02*
X162954819Y-82095237D01*
X163954819Y-80761904D02*
X163478628Y-81095237D01*
X163954819Y-81333332D02*
X162954819Y-81333332D01*
X162954819Y-81333332D02*
X162954819Y-80952380D01*
X162954819Y-80952380D02*
X163002438Y-80857142D01*
X163002438Y-80857142D02*
X163050057Y-80809523D01*
X163050057Y-80809523D02*
X163145295Y-80761904D01*
X163145295Y-80761904D02*
X163288152Y-80761904D01*
X163288152Y-80761904D02*
X163383390Y-80809523D01*
X163383390Y-80809523D02*
X163431009Y-80857142D01*
X163431009Y-80857142D02*
X163478628Y-80952380D01*
X163478628Y-80952380D02*
X163478628Y-81333332D01*
D12*
%TO.C,J3*%
X168500000Y-119980000D02*
X168500000Y-130480000D01*
X171770000Y-116830000D02*
X171770000Y-117630000D01*
X171770000Y-116830000D02*
X172630000Y-116830000D01*
X172200000Y-130480000D02*
X168500000Y-130480000D01*
X172280000Y-119980000D02*
X168500000Y-119980000D01*
X177500000Y-119980000D02*
X173720000Y-119980000D01*
X177500000Y-119980000D02*
X177500000Y-130480000D01*
X177500000Y-130480000D02*
X173800000Y-130480000D01*
X174800000Y-124480000D02*
G75*
G02*
X171200000Y-124480000I-1800000J0D01*
G01*
X171200000Y-124480000D02*
G75*
G02*
X174800000Y-124480000I1800000J0D01*
G01*
%TO.C,J8*%
X140500000Y-149080000D02*
X140500000Y-159580000D01*
X143770000Y-145930000D02*
X143770000Y-146730000D01*
X143770000Y-145930000D02*
X144630000Y-145930000D01*
X144200000Y-159580000D02*
X140500000Y-159580000D01*
X144280000Y-149080000D02*
X140500000Y-149080000D01*
X149500000Y-149080000D02*
X145720000Y-149080000D01*
X149500000Y-149080000D02*
X149500000Y-159580000D01*
X149500000Y-159580000D02*
X145800000Y-159580000D01*
X146800000Y-153580000D02*
G75*
G02*
X143200000Y-153580000I-1800000J0D01*
G01*
X143200000Y-153580000D02*
G75*
G02*
X146800000Y-153580000I1800000J0D01*
G01*
%TO.C,D2*%
X146730000Y-102500000D02*
X147380000Y-102500000D01*
X147980000Y-101380000D02*
X147980000Y-103620000D01*
X148100000Y-101380000D02*
X148100000Y-103620000D01*
X148220000Y-101380000D02*
X148220000Y-103620000D01*
X152270000Y-102500000D02*
X151620000Y-102500000D01*
X147380000Y-101380000D02*
X151620000Y-101380000D01*
X151620000Y-103620000D01*
X147380000Y-103620000D01*
X147380000Y-101380000D01*
%TO.C,D1*%
X146730000Y-99000000D02*
X147380000Y-99000000D01*
X150780000Y-100120000D02*
X150780000Y-97880000D01*
X150900000Y-100120000D02*
X150900000Y-97880000D01*
X151020000Y-100120000D02*
X151020000Y-97880000D01*
X152270000Y-99000000D02*
X151620000Y-99000000D01*
X151620000Y-100120000D02*
X147380000Y-100120000D01*
X147380000Y-97880000D01*
X151620000Y-97880000D01*
X151620000Y-100120000D01*
%TO.C,J6*%
X154500000Y-134580000D02*
X154500000Y-145080000D01*
X157770000Y-131430000D02*
X157770000Y-132230000D01*
X157770000Y-131430000D02*
X158630000Y-131430000D01*
X158200000Y-145080000D02*
X154500000Y-145080000D01*
X158280000Y-134580000D02*
X154500000Y-134580000D01*
X163500000Y-134580000D02*
X159720000Y-134580000D01*
X163500000Y-134580000D02*
X163500000Y-145080000D01*
X163500000Y-145080000D02*
X159800000Y-145080000D01*
X160800000Y-139080000D02*
G75*
G02*
X157200000Y-139080000I-1800000J0D01*
G01*
X157200000Y-139080000D02*
G75*
G02*
X160800000Y-139080000I1800000J0D01*
G01*
%TO.C,C3*%
X141380000Y-110130000D02*
X147620000Y-110130000D01*
X141380000Y-110665000D02*
X141380000Y-110130000D01*
X141380000Y-112870000D02*
X141380000Y-112335000D01*
X147620000Y-110130000D02*
X147620000Y-110665000D01*
X147620000Y-112335000D02*
X147620000Y-112870000D01*
X147620000Y-112870000D02*
X141380000Y-112870000D01*
%TO.C,J1*%
X140500000Y-120080000D02*
X140500000Y-130580000D01*
X143770000Y-116930000D02*
X143770000Y-117730000D01*
X143770000Y-116930000D02*
X144630000Y-116930000D01*
X144200000Y-130580000D02*
X140500000Y-130580000D01*
X144280000Y-120080000D02*
X140500000Y-120080000D01*
X149500000Y-120080000D02*
X145720000Y-120080000D01*
X149500000Y-120080000D02*
X149500000Y-130580000D01*
X149500000Y-130580000D02*
X145800000Y-130580000D01*
X146800000Y-124580000D02*
G75*
G02*
X143200000Y-124580000I-1800000J0D01*
G01*
X143200000Y-124580000D02*
G75*
G02*
X146800000Y-124580000I1800000J0D01*
G01*
%TO.C,SW2*%
X151630000Y-111850000D02*
X151630000Y-109650000D01*
X152250000Y-107630000D02*
X157250000Y-107630000D01*
X152250000Y-113870000D02*
X157250000Y-113870000D01*
X157870000Y-109650000D02*
X157870000Y-111850000D01*
X156500000Y-110750000D02*
G75*
G02*
X153000000Y-110750000I-1750000J0D01*
G01*
X153000000Y-110750000D02*
G75*
G02*
X156500000Y-110750000I1750000J0D01*
G01*
%TO.C,R5*%
X175630000Y-80040000D02*
X175630000Y-86580000D01*
X175630000Y-86580000D02*
X175960000Y-86580000D01*
X175960000Y-80040000D02*
X175630000Y-80040000D01*
X178040000Y-80040000D02*
X178370000Y-80040000D01*
X178370000Y-80040000D02*
X178370000Y-86580000D01*
X178370000Y-86580000D02*
X178040000Y-86580000D01*
%TO.C,R2*%
X164630000Y-121230000D02*
X164960000Y-121230000D01*
X164630000Y-127770000D02*
X164630000Y-121230000D01*
X164960000Y-127770000D02*
X164630000Y-127770000D01*
X167040000Y-127770000D02*
X167370000Y-127770000D01*
X167370000Y-121230000D02*
X167040000Y-121230000D01*
X167370000Y-127770000D02*
X167370000Y-121230000D01*
%TO.C,J4*%
X150630000Y-57170000D02*
X151960000Y-57170000D01*
X150630000Y-58500000D02*
X150630000Y-57170000D01*
X153230000Y-57170000D02*
X168530000Y-57170000D01*
X153230000Y-59830000D02*
X153230000Y-57170000D01*
X153230000Y-59830000D02*
X168530000Y-59830000D01*
X168530000Y-59830000D02*
X168530000Y-57170000D01*
%TO.C,R6*%
X145970000Y-90630000D02*
X152510000Y-90630000D01*
X145970000Y-90960000D02*
X145970000Y-90630000D01*
X145970000Y-93040000D02*
X145970000Y-93370000D01*
X145970000Y-93370000D02*
X152510000Y-93370000D01*
X152510000Y-90630000D02*
X152510000Y-90960000D01*
X152510000Y-93370000D02*
X152510000Y-93040000D01*
%TO.C,J10*%
X168500000Y-149080000D02*
X168500000Y-159580000D01*
X171770000Y-145930000D02*
X171770000Y-146730000D01*
X171770000Y-145930000D02*
X172630000Y-145930000D01*
X172200000Y-159580000D02*
X168500000Y-159580000D01*
X172280000Y-149080000D02*
X168500000Y-149080000D01*
X177500000Y-149080000D02*
X173720000Y-149080000D01*
X177500000Y-149080000D02*
X177500000Y-159580000D01*
X177500000Y-159580000D02*
X173800000Y-159580000D01*
X174800000Y-153580000D02*
G75*
G02*
X171200000Y-153580000I-1800000J0D01*
G01*
X171200000Y-153580000D02*
G75*
G02*
X174800000Y-153580000I1800000J0D01*
G01*
%TO.C,R1*%
X150630000Y-120730000D02*
X150960000Y-120730000D01*
X150630000Y-127270000D02*
X150630000Y-120730000D01*
X150960000Y-127270000D02*
X150630000Y-127270000D01*
X153040000Y-127270000D02*
X153370000Y-127270000D01*
X153370000Y-120730000D02*
X153040000Y-120730000D01*
X153370000Y-127270000D02*
X153370000Y-120730000D01*
%TO.C,C4*%
X141380000Y-113630000D02*
X147620000Y-113630000D01*
X141380000Y-114165000D02*
X141380000Y-113630000D01*
X141380000Y-116370000D02*
X141380000Y-115835000D01*
X147620000Y-113630000D02*
X147620000Y-114165000D01*
X147620000Y-115835000D02*
X147620000Y-116370000D01*
X147620000Y-116370000D02*
X141380000Y-116370000D01*
%TO.C,R8*%
X145970000Y-83630000D02*
X152510000Y-83630000D01*
X145970000Y-83960000D02*
X145970000Y-83630000D01*
X145970000Y-86040000D02*
X145970000Y-86370000D01*
X145970000Y-86370000D02*
X152510000Y-86370000D01*
X152510000Y-83630000D02*
X152510000Y-83960000D01*
X152510000Y-86370000D02*
X152510000Y-86040000D01*
%TO.C,R7*%
X145970000Y-87130000D02*
X152510000Y-87130000D01*
X145970000Y-87460000D02*
X145970000Y-87130000D01*
X145970000Y-89540000D02*
X145970000Y-89870000D01*
X145970000Y-89870000D02*
X152510000Y-89870000D01*
X152510000Y-87130000D02*
X152510000Y-87460000D01*
X152510000Y-89870000D02*
X152510000Y-89540000D01*
%TO.C,J2*%
X154500000Y-120080000D02*
X154500000Y-130580000D01*
X157770000Y-116930000D02*
X157770000Y-117730000D01*
X157770000Y-116930000D02*
X158630000Y-116930000D01*
X158200000Y-130580000D02*
X154500000Y-130580000D01*
X158280000Y-120080000D02*
X154500000Y-120080000D01*
X163500000Y-120080000D02*
X159720000Y-120080000D01*
X163500000Y-120080000D02*
X163500000Y-130580000D01*
X163500000Y-130580000D02*
X159800000Y-130580000D01*
X160800000Y-124580000D02*
G75*
G02*
X157200000Y-124580000I-1800000J0D01*
G01*
X157200000Y-124580000D02*
G75*
G02*
X160800000Y-124580000I1800000J0D01*
G01*
%TO.C,Rotary Encoder*%
X163000000Y-104500000D02*
X163000000Y-100400000D01*
X163000000Y-112600000D02*
X163000000Y-108500000D01*
X165400000Y-112600000D02*
X163000000Y-112600000D01*
X168900000Y-106000000D02*
X168900000Y-107000000D01*
X169400000Y-106500000D02*
X168400000Y-106500000D01*
X170200000Y-112600000D02*
X167600000Y-112600000D01*
X172700000Y-99000000D02*
X173000000Y-98700000D01*
X173000000Y-98700000D02*
X173000000Y-99300000D01*
X173000000Y-99300000D02*
X172700000Y-99000000D01*
X174800000Y-100400000D02*
X163000000Y-100400000D01*
X174800000Y-104500000D02*
X174800000Y-100400000D01*
X174800000Y-108500000D02*
X174800000Y-112600000D01*
X174800000Y-112600000D02*
X172400000Y-112600000D01*
X171900000Y-106500000D02*
G75*
G02*
X165900000Y-106500000I-3000000J0D01*
G01*
X165900000Y-106500000D02*
G75*
G02*
X171900000Y-106500000I3000000J0D01*
G01*
%TO.C,J5*%
X140500000Y-134580000D02*
X140500000Y-145080000D01*
X143770000Y-131430000D02*
X143770000Y-132230000D01*
X143770000Y-131430000D02*
X144630000Y-131430000D01*
X144200000Y-145080000D02*
X140500000Y-145080000D01*
X144280000Y-134580000D02*
X140500000Y-134580000D01*
X149500000Y-134580000D02*
X145720000Y-134580000D01*
X149500000Y-134580000D02*
X149500000Y-145080000D01*
X149500000Y-145080000D02*
X145800000Y-145080000D01*
X146800000Y-139080000D02*
G75*
G02*
X143200000Y-139080000I-1800000J0D01*
G01*
X143200000Y-139080000D02*
G75*
G02*
X146800000Y-139080000I1800000J0D01*
G01*
%TO.C,R4*%
X169130000Y-80040000D02*
X169130000Y-86580000D01*
X169130000Y-86580000D02*
X169460000Y-86580000D01*
X169460000Y-80040000D02*
X169130000Y-80040000D01*
X171540000Y-80040000D02*
X171870000Y-80040000D01*
X171870000Y-80040000D02*
X171870000Y-86580000D01*
X171870000Y-86580000D02*
X171540000Y-86580000D01*
%TO.C,J9*%
X154500000Y-149080000D02*
X154500000Y-159580000D01*
X157770000Y-145930000D02*
X157770000Y-146730000D01*
X157770000Y-145930000D02*
X158630000Y-145930000D01*
X158200000Y-159580000D02*
X154500000Y-159580000D01*
X158280000Y-149080000D02*
X154500000Y-149080000D01*
X163500000Y-149080000D02*
X159720000Y-149080000D01*
X163500000Y-149080000D02*
X163500000Y-159580000D01*
X163500000Y-159580000D02*
X159800000Y-159580000D01*
X160800000Y-153580000D02*
G75*
G02*
X157200000Y-153580000I-1800000J0D01*
G01*
X157200000Y-153580000D02*
G75*
G02*
X160800000Y-153580000I1800000J0D01*
G01*
%TO.C,J7*%
X168500000Y-134580000D02*
X168500000Y-145080000D01*
X171770000Y-131430000D02*
X171770000Y-132230000D01*
X171770000Y-131430000D02*
X172630000Y-131430000D01*
X172200000Y-145080000D02*
X168500000Y-145080000D01*
X172280000Y-134580000D02*
X168500000Y-134580000D01*
X177500000Y-134580000D02*
X173720000Y-134580000D01*
X177500000Y-134580000D02*
X177500000Y-145080000D01*
X177500000Y-145080000D02*
X173800000Y-145080000D01*
X174800000Y-139080000D02*
G75*
G02*
X171200000Y-139080000I-1800000J0D01*
G01*
X171200000Y-139080000D02*
G75*
G02*
X174800000Y-139080000I1800000J0D01*
G01*
%TO.C,R3*%
X161630000Y-80230000D02*
X161630000Y-86770000D01*
X161630000Y-86770000D02*
X161960000Y-86770000D01*
X161960000Y-80230000D02*
X161630000Y-80230000D01*
X164040000Y-80230000D02*
X164370000Y-80230000D01*
X164370000Y-80230000D02*
X164370000Y-86770000D01*
X164370000Y-86770000D02*
X164040000Y-86770000D01*
%TD*%
M02*
