%TF.GenerationSoftware,KiCad,Pcbnew,9.0.4*%
%TF.CreationDate,2026-01-04T21:01:15+00:00*%
%TF.ProjectId,Jimmy Cliffe,4a696d6d-7920-4436-9c69-6666652e6b69,rev?*%
%TF.SameCoordinates,Original*%
%TF.FileFunction,Legend,Bot*%
%TF.FilePolarity,Positive*%
%FSLAX46Y46*%
G04 Gerber Fmt 4.6, Leading zero omitted, Abs format (unit mm)*
G04 Created by KiCad (PCBNEW 9.0.4) date 2026-01-04 21:01:15*
%MOMM*%
%LPD*%
G01*
G04 APERTURE LIST*
%ADD10C,0.150000*%
%ADD11C,0.120000*%
G04 APERTURE END LIST*
D10*
X53609580Y-44583333D02*
X53657200Y-44535714D01*
X53657200Y-44535714D02*
X53704819Y-44392857D01*
X53704819Y-44392857D02*
X53704819Y-44297619D01*
X53704819Y-44297619D02*
X53657200Y-44154762D01*
X53657200Y-44154762D02*
X53561961Y-44059524D01*
X53561961Y-44059524D02*
X53466723Y-44011905D01*
X53466723Y-44011905D02*
X53276247Y-43964286D01*
X53276247Y-43964286D02*
X53133390Y-43964286D01*
X53133390Y-43964286D02*
X52942914Y-44011905D01*
X52942914Y-44011905D02*
X52847676Y-44059524D01*
X52847676Y-44059524D02*
X52752438Y-44154762D01*
X52752438Y-44154762D02*
X52704819Y-44297619D01*
X52704819Y-44297619D02*
X52704819Y-44392857D01*
X52704819Y-44392857D02*
X52752438Y-44535714D01*
X52752438Y-44535714D02*
X52800057Y-44583333D01*
X52704819Y-44916667D02*
X52704819Y-45535714D01*
X52704819Y-45535714D02*
X53085771Y-45202381D01*
X53085771Y-45202381D02*
X53085771Y-45345238D01*
X53085771Y-45345238D02*
X53133390Y-45440476D01*
X53133390Y-45440476D02*
X53181009Y-45488095D01*
X53181009Y-45488095D02*
X53276247Y-45535714D01*
X53276247Y-45535714D02*
X53514342Y-45535714D01*
X53514342Y-45535714D02*
X53609580Y-45488095D01*
X53609580Y-45488095D02*
X53657200Y-45440476D01*
X53657200Y-45440476D02*
X53704819Y-45345238D01*
X53704819Y-45345238D02*
X53704819Y-45059524D01*
X53704819Y-45059524D02*
X53657200Y-44964286D01*
X53657200Y-44964286D02*
X53609580Y-44916667D01*
X46204819Y-43678571D02*
X46204819Y-43107143D01*
X46204819Y-43392857D02*
X45204819Y-43392857D01*
X45204819Y-43392857D02*
X45347676Y-43297619D01*
X45347676Y-43297619D02*
X45442914Y-43202381D01*
X45442914Y-43202381D02*
X45490533Y-43107143D01*
X45204819Y-44297619D02*
X45204819Y-44392857D01*
X45204819Y-44392857D02*
X45252438Y-44488095D01*
X45252438Y-44488095D02*
X45300057Y-44535714D01*
X45300057Y-44535714D02*
X45395295Y-44583333D01*
X45395295Y-44583333D02*
X45585771Y-44630952D01*
X45585771Y-44630952D02*
X45823866Y-44630952D01*
X45823866Y-44630952D02*
X46014342Y-44583333D01*
X46014342Y-44583333D02*
X46109580Y-44535714D01*
X46109580Y-44535714D02*
X46157200Y-44488095D01*
X46157200Y-44488095D02*
X46204819Y-44392857D01*
X46204819Y-44392857D02*
X46204819Y-44297619D01*
X46204819Y-44297619D02*
X46157200Y-44202381D01*
X46157200Y-44202381D02*
X46109580Y-44154762D01*
X46109580Y-44154762D02*
X46014342Y-44107143D01*
X46014342Y-44107143D02*
X45823866Y-44059524D01*
X45823866Y-44059524D02*
X45585771Y-44059524D01*
X45585771Y-44059524D02*
X45395295Y-44107143D01*
X45395295Y-44107143D02*
X45300057Y-44154762D01*
X45300057Y-44154762D02*
X45252438Y-44202381D01*
X45252438Y-44202381D02*
X45204819Y-44297619D01*
X45538152Y-45488095D02*
X46204819Y-45488095D01*
X45538152Y-45059524D02*
X46061961Y-45059524D01*
X46061961Y-45059524D02*
X46157200Y-45107143D01*
X46157200Y-45107143D02*
X46204819Y-45202381D01*
X46204819Y-45202381D02*
X46204819Y-45345238D01*
X46204819Y-45345238D02*
X46157200Y-45440476D01*
X46157200Y-45440476D02*
X46109580Y-45488095D01*
X45681009Y-46297619D02*
X45681009Y-45964286D01*
X46204819Y-45964286D02*
X45204819Y-45964286D01*
X45204819Y-45964286D02*
X45204819Y-46440476D01*
X66083333Y-40404819D02*
X66083333Y-41119104D01*
X66083333Y-41119104D02*
X66130952Y-41261961D01*
X66130952Y-41261961D02*
X66226190Y-41357200D01*
X66226190Y-41357200D02*
X66369047Y-41404819D01*
X66369047Y-41404819D02*
X66464285Y-41404819D01*
X65178571Y-40738152D02*
X65178571Y-41404819D01*
X65416666Y-40357200D02*
X65654761Y-41071485D01*
X65654761Y-41071485D02*
X65035714Y-41071485D01*
X53166666Y-49859580D02*
X53214285Y-49907200D01*
X53214285Y-49907200D02*
X53357142Y-49954819D01*
X53357142Y-49954819D02*
X53452380Y-49954819D01*
X53452380Y-49954819D02*
X53595237Y-49907200D01*
X53595237Y-49907200D02*
X53690475Y-49811961D01*
X53690475Y-49811961D02*
X53738094Y-49716723D01*
X53738094Y-49716723D02*
X53785713Y-49526247D01*
X53785713Y-49526247D02*
X53785713Y-49383390D01*
X53785713Y-49383390D02*
X53738094Y-49192914D01*
X53738094Y-49192914D02*
X53690475Y-49097676D01*
X53690475Y-49097676D02*
X53595237Y-49002438D01*
X53595237Y-49002438D02*
X53452380Y-48954819D01*
X53452380Y-48954819D02*
X53357142Y-48954819D01*
X53357142Y-48954819D02*
X53214285Y-49002438D01*
X53214285Y-49002438D02*
X53166666Y-49050057D01*
X52214285Y-49954819D02*
X52785713Y-49954819D01*
X52499999Y-49954819D02*
X52499999Y-48954819D01*
X52499999Y-48954819D02*
X52595237Y-49097676D01*
X52595237Y-49097676D02*
X52690475Y-49192914D01*
X52690475Y-49192914D02*
X52785713Y-49240533D01*
X52071428Y-55954819D02*
X52642856Y-55954819D01*
X52357142Y-55954819D02*
X52357142Y-54954819D01*
X52357142Y-54954819D02*
X52452380Y-55097676D01*
X52452380Y-55097676D02*
X52547618Y-55192914D01*
X52547618Y-55192914D02*
X52642856Y-55240533D01*
X51452380Y-54954819D02*
X51357142Y-54954819D01*
X51357142Y-54954819D02*
X51261904Y-55002438D01*
X51261904Y-55002438D02*
X51214285Y-55050057D01*
X51214285Y-55050057D02*
X51166666Y-55145295D01*
X51166666Y-55145295D02*
X51119047Y-55335771D01*
X51119047Y-55335771D02*
X51119047Y-55573866D01*
X51119047Y-55573866D02*
X51166666Y-55764342D01*
X51166666Y-55764342D02*
X51214285Y-55859580D01*
X51214285Y-55859580D02*
X51261904Y-55907200D01*
X51261904Y-55907200D02*
X51357142Y-55954819D01*
X51357142Y-55954819D02*
X51452380Y-55954819D01*
X51452380Y-55954819D02*
X51547618Y-55907200D01*
X51547618Y-55907200D02*
X51595237Y-55859580D01*
X51595237Y-55859580D02*
X51642856Y-55764342D01*
X51642856Y-55764342D02*
X51690475Y-55573866D01*
X51690475Y-55573866D02*
X51690475Y-55335771D01*
X51690475Y-55335771D02*
X51642856Y-55145295D01*
X51642856Y-55145295D02*
X51595237Y-55050057D01*
X51595237Y-55050057D02*
X51547618Y-55002438D01*
X51547618Y-55002438D02*
X51452380Y-54954819D01*
X50261904Y-55288152D02*
X50261904Y-55954819D01*
X50690475Y-55288152D02*
X50690475Y-55811961D01*
X50690475Y-55811961D02*
X50642856Y-55907200D01*
X50642856Y-55907200D02*
X50547618Y-55954819D01*
X50547618Y-55954819D02*
X50404761Y-55954819D01*
X50404761Y-55954819D02*
X50309523Y-55907200D01*
X50309523Y-55907200D02*
X50261904Y-55859580D01*
X49452380Y-55431009D02*
X49785713Y-55431009D01*
X49785713Y-55954819D02*
X49785713Y-54954819D01*
X49785713Y-54954819D02*
X49309523Y-54954819D01*
D11*
%TO.C,C3*%
X48460000Y-42470000D02*
X48249000Y-42470000D01*
X48460000Y-42510000D02*
X48181000Y-42510000D01*
X48460000Y-42550000D02*
X48117000Y-42550000D01*
X48460000Y-42590000D02*
X48057000Y-42590000D01*
X48460000Y-42630000D02*
X48001000Y-42630000D01*
X48460000Y-42670000D02*
X47947000Y-42670000D01*
X48460000Y-42710000D02*
X47896000Y-42710000D01*
X48460000Y-42750000D02*
X47848000Y-42750000D01*
X48460000Y-42790000D02*
X47801000Y-42790000D01*
X48460000Y-42830000D02*
X47757000Y-42830000D01*
X48460000Y-42870000D02*
X47715000Y-42870000D01*
X48460000Y-42910000D02*
X47675000Y-42910000D01*
X48460000Y-42950000D02*
X47636000Y-42950000D01*
X48460000Y-42990000D02*
X47599000Y-42990000D01*
X48460000Y-43030000D02*
X47564000Y-43030000D01*
X48460000Y-43070000D02*
X47530000Y-43070000D01*
X48460000Y-43110000D02*
X47497000Y-43110000D01*
X48460000Y-43150000D02*
X47465000Y-43150000D01*
X48460000Y-43190000D02*
X47435000Y-43190000D01*
X48460000Y-43230000D02*
X47406000Y-43230000D01*
X48460000Y-43270000D02*
X47378000Y-43270000D01*
X48460000Y-43310000D02*
X47351000Y-43310000D01*
X48460000Y-43350000D02*
X47325000Y-43350000D01*
X48460000Y-43390000D02*
X47301000Y-43390000D01*
X48460000Y-43430000D02*
X47277000Y-43430000D01*
X48460000Y-43470000D02*
X47254000Y-43470000D01*
X48460000Y-43510000D02*
X47232000Y-43510000D01*
X48460000Y-43550000D02*
X47211000Y-43550000D01*
X48460000Y-43590000D02*
X47191000Y-43590000D01*
X48460000Y-43630000D02*
X47171000Y-43630000D01*
X48460000Y-43670000D02*
X47153000Y-43670000D01*
X48460000Y-43710000D02*
X47135000Y-43710000D01*
X48460000Y-43750000D02*
X47118000Y-43750000D01*
X48460000Y-43790000D02*
X47102000Y-43790000D01*
X48460000Y-43830000D02*
X47087000Y-43830000D01*
X48460000Y-43870000D02*
X47072000Y-43870000D01*
X48460000Y-43910000D02*
X47058000Y-43910000D01*
X48460000Y-43950000D02*
X47045000Y-43950000D01*
X48460000Y-43990000D02*
X47033000Y-43990000D01*
X48460000Y-44030000D02*
X47021000Y-44030000D01*
X48460000Y-44070000D02*
X47010000Y-44070000D01*
X48460000Y-44110000D02*
X46999000Y-44110000D01*
X48460000Y-44150000D02*
X46990000Y-44150000D01*
X48460000Y-44190000D02*
X46981000Y-44190000D01*
X48460000Y-44230000D02*
X46972000Y-44230000D01*
X48460000Y-44270000D02*
X46964000Y-44270000D01*
X48460000Y-44310000D02*
X46957000Y-44310000D01*
X48460000Y-44350000D02*
X46951000Y-44350000D01*
X48460000Y-44390000D02*
X46945000Y-44390000D01*
X48460000Y-44430000D02*
X46940000Y-44430000D01*
X48460000Y-44470000D02*
X46935000Y-44470000D01*
X48460000Y-44510000D02*
X46931000Y-44510000D01*
X49783000Y-42150000D02*
X49217000Y-42150000D01*
X50017000Y-42190000D02*
X48983000Y-42190000D01*
X50177000Y-42230000D02*
X48823000Y-42230000D01*
X50305000Y-42270000D02*
X48695000Y-42270000D01*
X50414000Y-42310000D02*
X48586000Y-42310000D01*
X50511000Y-42350000D02*
X48489000Y-42350000D01*
X50598000Y-42390000D02*
X48402000Y-42390000D01*
X50677000Y-42430000D02*
X48323000Y-42430000D01*
X50751000Y-42470000D02*
X50540000Y-42470000D01*
X50819000Y-42510000D02*
X50540000Y-42510000D01*
X50883000Y-42550000D02*
X50540000Y-42550000D01*
X50943000Y-42590000D02*
X50540000Y-42590000D01*
X50975000Y-47554775D02*
X50975000Y-47054775D01*
X50999000Y-42630000D02*
X50540000Y-42630000D01*
X51053000Y-42670000D02*
X50540000Y-42670000D01*
X51104000Y-42710000D02*
X50540000Y-42710000D01*
X51152000Y-42750000D02*
X50540000Y-42750000D01*
X51199000Y-42790000D02*
X50540000Y-42790000D01*
X51225000Y-47304775D02*
X50725000Y-47304775D01*
X51243000Y-42830000D02*
X50540000Y-42830000D01*
X51285000Y-42870000D02*
X50540000Y-42870000D01*
X51325000Y-42910000D02*
X50540000Y-42910000D01*
X51364000Y-42950000D02*
X50540000Y-42950000D01*
X51401000Y-42990000D02*
X50540000Y-42990000D01*
X51436000Y-43030000D02*
X50540000Y-43030000D01*
X51470000Y-43070000D02*
X50540000Y-43070000D01*
X51503000Y-43110000D02*
X50540000Y-43110000D01*
X51535000Y-43150000D02*
X50540000Y-43150000D01*
X51565000Y-43190000D02*
X50540000Y-43190000D01*
X51594000Y-43230000D02*
X50540000Y-43230000D01*
X51622000Y-43270000D02*
X50540000Y-43270000D01*
X51649000Y-43310000D02*
X50540000Y-43310000D01*
X51675000Y-43350000D02*
X50540000Y-43350000D01*
X51699000Y-43390000D02*
X50540000Y-43390000D01*
X51723000Y-43430000D02*
X50540000Y-43430000D01*
X51746000Y-43470000D02*
X50540000Y-43470000D01*
X51768000Y-43510000D02*
X50540000Y-43510000D01*
X51789000Y-43550000D02*
X50540000Y-43550000D01*
X51809000Y-43590000D02*
X50540000Y-43590000D01*
X51829000Y-43630000D02*
X50540000Y-43630000D01*
X51847000Y-43670000D02*
X50540000Y-43670000D01*
X51865000Y-43710000D02*
X50540000Y-43710000D01*
X51882000Y-43750000D02*
X50540000Y-43750000D01*
X51898000Y-43790000D02*
X50540000Y-43790000D01*
X51913000Y-43830000D02*
X50540000Y-43830000D01*
X51928000Y-43870000D02*
X50540000Y-43870000D01*
X51942000Y-43910000D02*
X50540000Y-43910000D01*
X51955000Y-43950000D02*
X50540000Y-43950000D01*
X51967000Y-43990000D02*
X50540000Y-43990000D01*
X51979000Y-44030000D02*
X50540000Y-44030000D01*
X51990000Y-44070000D02*
X50540000Y-44070000D01*
X52001000Y-44110000D02*
X50540000Y-44110000D01*
X52010000Y-44150000D02*
X50540000Y-44150000D01*
X52019000Y-44190000D02*
X50540000Y-44190000D01*
X52028000Y-44230000D02*
X50540000Y-44230000D01*
X52036000Y-44270000D02*
X50540000Y-44270000D01*
X52043000Y-44310000D02*
X50540000Y-44310000D01*
X52049000Y-44350000D02*
X50540000Y-44350000D01*
X52055000Y-44390000D02*
X50540000Y-44390000D01*
X52060000Y-44430000D02*
X50540000Y-44430000D01*
X52065000Y-44470000D02*
X50540000Y-44470000D01*
X52069000Y-44510000D02*
X50540000Y-44510000D01*
X52072000Y-44550000D02*
X46928000Y-44550000D01*
X52075000Y-44590000D02*
X46925000Y-44590000D01*
X52077000Y-44630000D02*
X46923000Y-44630000D01*
X52079000Y-44670000D02*
X46921000Y-44670000D01*
X52080000Y-44710000D02*
X46920000Y-44710000D01*
X52080000Y-44750000D02*
X46920000Y-44750000D01*
X52120000Y-44750000D02*
G75*
G02*
X46880000Y-44750000I-2620000J0D01*
G01*
X46880000Y-44750000D02*
G75*
G02*
X52120000Y-44750000I2620000J0D01*
G01*
%TO.C,J4*%
X61940000Y-42040000D02*
X69560000Y-42040000D01*
X61940000Y-48010000D02*
X61940000Y-42040000D01*
X61950000Y-42050000D02*
X63750000Y-42050000D01*
X61950000Y-42800000D02*
X61950000Y-42050000D01*
X61950000Y-44300000D02*
X62700000Y-44300000D01*
X62700000Y-44300000D02*
X62700000Y-47250000D01*
X62700000Y-47250000D02*
X65750000Y-47250000D01*
X63750000Y-42050000D02*
X63750000Y-42800000D01*
X63750000Y-42800000D02*
X61950000Y-42800000D01*
X65250000Y-42050000D02*
X66250000Y-42050000D01*
X65250000Y-42800000D02*
X65250000Y-42050000D01*
X66250000Y-42050000D02*
X66250000Y-42800000D01*
X66250000Y-42800000D02*
X65250000Y-42800000D01*
X67750000Y-42050000D02*
X69550000Y-42050000D01*
X67750000Y-42800000D02*
X67750000Y-42050000D01*
X68600000Y-41750000D02*
X69850000Y-41750000D01*
X68800000Y-44300000D02*
X68800000Y-47250000D01*
X68800000Y-47250000D02*
X65750000Y-47250000D01*
X69550000Y-42050000D02*
X69550000Y-42800000D01*
X69550000Y-42800000D02*
X67750000Y-42800000D01*
X69550000Y-44300000D02*
X68800000Y-44300000D01*
X69560000Y-42040000D02*
X69560000Y-48010000D01*
X69560000Y-48010000D02*
X61940000Y-48010000D01*
X69850000Y-41750000D02*
X69850000Y-43000000D01*
%TO.C,C1*%
X47355113Y-51717000D02*
X47355113Y-52283000D01*
X47395113Y-51483000D02*
X47395113Y-52517000D01*
X47435113Y-51323000D02*
X47435113Y-52677000D01*
X47475113Y-51195000D02*
X47475113Y-52805000D01*
X47515113Y-51086000D02*
X47515113Y-52914000D01*
X47555113Y-50989000D02*
X47555113Y-53011000D01*
X47595113Y-50902000D02*
X47595113Y-53098000D01*
X47635113Y-50823000D02*
X47635113Y-53177000D01*
X47675113Y-50749000D02*
X47675113Y-50960000D01*
X47675113Y-53040000D02*
X47675113Y-53251000D01*
X47715113Y-50681000D02*
X47715113Y-50960000D01*
X47715113Y-53040000D02*
X47715113Y-53319000D01*
X47755113Y-50617000D02*
X47755113Y-50960000D01*
X47755113Y-53040000D02*
X47755113Y-53383000D01*
X47795113Y-50557000D02*
X47795113Y-50960000D01*
X47795113Y-53040000D02*
X47795113Y-53443000D01*
X47835113Y-50501000D02*
X47835113Y-50960000D01*
X47835113Y-53040000D02*
X47835113Y-53499000D01*
X47875113Y-50447000D02*
X47875113Y-50960000D01*
X47875113Y-53040000D02*
X47875113Y-53553000D01*
X47915113Y-50396000D02*
X47915113Y-50960000D01*
X47915113Y-53040000D02*
X47915113Y-53604000D01*
X47955113Y-50348000D02*
X47955113Y-50960000D01*
X47955113Y-53040000D02*
X47955113Y-53652000D01*
X47995113Y-50301000D02*
X47995113Y-50960000D01*
X47995113Y-53040000D02*
X47995113Y-53699000D01*
X48035113Y-50257000D02*
X48035113Y-50960000D01*
X48035113Y-53040000D02*
X48035113Y-53743000D01*
X48075113Y-50215000D02*
X48075113Y-50960000D01*
X48075113Y-53040000D02*
X48075113Y-53785000D01*
X48115113Y-50175000D02*
X48115113Y-50960000D01*
X48115113Y-53040000D02*
X48115113Y-53825000D01*
X48155113Y-50136000D02*
X48155113Y-50960000D01*
X48155113Y-53040000D02*
X48155113Y-53864000D01*
X48195113Y-50099000D02*
X48195113Y-50960000D01*
X48195113Y-53040000D02*
X48195113Y-53901000D01*
X48235113Y-50064000D02*
X48235113Y-50960000D01*
X48235113Y-53040000D02*
X48235113Y-53936000D01*
X48275113Y-50030000D02*
X48275113Y-50960000D01*
X48275113Y-53040000D02*
X48275113Y-53970000D01*
X48315113Y-49997000D02*
X48315113Y-50960000D01*
X48315113Y-53040000D02*
X48315113Y-54003000D01*
X48355113Y-49965000D02*
X48355113Y-50960000D01*
X48355113Y-53040000D02*
X48355113Y-54035000D01*
X48395113Y-49935000D02*
X48395113Y-50960000D01*
X48395113Y-53040000D02*
X48395113Y-54065000D01*
X48435113Y-49906000D02*
X48435113Y-50960000D01*
X48435113Y-53040000D02*
X48435113Y-54094000D01*
X48475113Y-49878000D02*
X48475113Y-50960000D01*
X48475113Y-53040000D02*
X48475113Y-54122000D01*
X48515113Y-49851000D02*
X48515113Y-50960000D01*
X48515113Y-53040000D02*
X48515113Y-54149000D01*
X48555113Y-49825000D02*
X48555113Y-50960000D01*
X48555113Y-53040000D02*
X48555113Y-54175000D01*
X48595113Y-49801000D02*
X48595113Y-50960000D01*
X48595113Y-53040000D02*
X48595113Y-54199000D01*
X48635113Y-49777000D02*
X48635113Y-50960000D01*
X48635113Y-53040000D02*
X48635113Y-54223000D01*
X48675113Y-49754000D02*
X48675113Y-50960000D01*
X48675113Y-53040000D02*
X48675113Y-54246000D01*
X48715113Y-49732000D02*
X48715113Y-50960000D01*
X48715113Y-53040000D02*
X48715113Y-54268000D01*
X48755113Y-49711000D02*
X48755113Y-50960000D01*
X48755113Y-53040000D02*
X48755113Y-54289000D01*
X48795113Y-49691000D02*
X48795113Y-50960000D01*
X48795113Y-53040000D02*
X48795113Y-54309000D01*
X48835113Y-49671000D02*
X48835113Y-50960000D01*
X48835113Y-53040000D02*
X48835113Y-54329000D01*
X48875113Y-49653000D02*
X48875113Y-50960000D01*
X48875113Y-53040000D02*
X48875113Y-54347000D01*
X48915113Y-49635000D02*
X48915113Y-50960000D01*
X48915113Y-53040000D02*
X48915113Y-54365000D01*
X48955113Y-49618000D02*
X48955113Y-50960000D01*
X48955113Y-53040000D02*
X48955113Y-54382000D01*
X48995113Y-49602000D02*
X48995113Y-50960000D01*
X48995113Y-53040000D02*
X48995113Y-54398000D01*
X49035113Y-49587000D02*
X49035113Y-50960000D01*
X49035113Y-53040000D02*
X49035113Y-54413000D01*
X49075113Y-49572000D02*
X49075113Y-50960000D01*
X49075113Y-53040000D02*
X49075113Y-54428000D01*
X49115113Y-49558000D02*
X49115113Y-50960000D01*
X49115113Y-53040000D02*
X49115113Y-54442000D01*
X49155113Y-49545000D02*
X49155113Y-50960000D01*
X49155113Y-53040000D02*
X49155113Y-54455000D01*
X49195113Y-49533000D02*
X49195113Y-50960000D01*
X49195113Y-53040000D02*
X49195113Y-54467000D01*
X49235113Y-49521000D02*
X49235113Y-50960000D01*
X49235113Y-53040000D02*
X49235113Y-54479000D01*
X49275113Y-49510000D02*
X49275113Y-50960000D01*
X49275113Y-53040000D02*
X49275113Y-54490000D01*
X49315113Y-49499000D02*
X49315113Y-50960000D01*
X49315113Y-53040000D02*
X49315113Y-54501000D01*
X49355113Y-49490000D02*
X49355113Y-50960000D01*
X49355113Y-53040000D02*
X49355113Y-54510000D01*
X49395113Y-49481000D02*
X49395113Y-50960000D01*
X49395113Y-53040000D02*
X49395113Y-54519000D01*
X49435113Y-49472000D02*
X49435113Y-50960000D01*
X49435113Y-53040000D02*
X49435113Y-54528000D01*
X49475113Y-49464000D02*
X49475113Y-50960000D01*
X49475113Y-53040000D02*
X49475113Y-54536000D01*
X49515113Y-49457000D02*
X49515113Y-50960000D01*
X49515113Y-53040000D02*
X49515113Y-54543000D01*
X49555113Y-49451000D02*
X49555113Y-50960000D01*
X49555113Y-53040000D02*
X49555113Y-54549000D01*
X49595113Y-49445000D02*
X49595113Y-50960000D01*
X49595113Y-53040000D02*
X49595113Y-54555000D01*
X49635113Y-49440000D02*
X49635113Y-50960000D01*
X49635113Y-53040000D02*
X49635113Y-54560000D01*
X49675113Y-49435000D02*
X49675113Y-50960000D01*
X49675113Y-53040000D02*
X49675113Y-54565000D01*
X49715113Y-49431000D02*
X49715113Y-50960000D01*
X49715113Y-53040000D02*
X49715113Y-54569000D01*
X49755113Y-49428000D02*
X49755113Y-54572000D01*
X49795113Y-49425000D02*
X49795113Y-54575000D01*
X49835113Y-49423000D02*
X49835113Y-54577000D01*
X49875113Y-49421000D02*
X49875113Y-54579000D01*
X49915113Y-49420000D02*
X49915113Y-54580000D01*
X49955113Y-49420000D02*
X49955113Y-54580000D01*
X52509888Y-50275000D02*
X52509888Y-50775000D01*
X52759888Y-50525000D02*
X52259888Y-50525000D01*
X52575113Y-52000000D02*
G75*
G02*
X47335113Y-52000000I-2620000J0D01*
G01*
X47335113Y-52000000D02*
G75*
G02*
X52575113Y-52000000I2620000J0D01*
G01*
%TD*%
M02*
